ISO-10303-21;
HEADER;
FILE_DESCRIPTION(('STEP AP214'),'1');
FILE_NAME('C1.stp','2025-02-09T03:12:05',(' '),(' '),'Spatial InterOp 3D',' ',' ');
FILE_SCHEMA(('AUTOMOTIVE_DESIGN { 1 0 10303 214 1 1 1 1 }'));
ENDSEC;
DATA;
#1=MECHANICAL_DESIGN_GEOMETRIC_PRESENTATION_REPRESENTATION(' ',(#10),#6);
#2=PRODUCT_DEFINITION_CONTEXT('',#11,'design');
#3=APPLICATION_PROTOCOL_DEFINITION('INTERNATIONAL STANDARD','automotive_design',1994,#11);
#4=PRODUCT_CATEGORY_RELATIONSHIP('NONE','NONE',#12,#13);
#5=SHAPE_DEFINITION_REPRESENTATION(#14,#15);
#6= (GEOMETRIC_REPRESENTATION_CONTEXT(3)GLOBAL_UNCERTAINTY_ASSIGNED_CONTEXT((#18))GLOBAL_UNIT_ASSIGNED_CONTEXT((#20,#21,#22))REPRESENTATION_CONTEXT('NONE','WORKSPACE'));
#10=STYLED_ITEM('',(#24),#25);
#11=APPLICATION_CONTEXT(' ');
#12=PRODUCT_CATEGORY('part','NONE');
#13=PRODUCT_RELATED_PRODUCT_CATEGORY('detail',' ',(#26));
#14=PRODUCT_DEFINITION_SHAPE('NONE','NONE',#27);
#15=ADVANCED_BREP_SHAPE_REPRESENTATION('\X2\5B9E4F53\X0\11',(#25,#28),#6);
#18=UNCERTAINTY_MEASURE_WITH_UNIT(LENGTH_MEASURE(1.0E-08),#20,'','');
#20= (CONVERSION_BASED_UNIT('METRE',#31)LENGTH_UNIT()NAMED_UNIT(#34));
#21= (NAMED_UNIT(#36)PLANE_ANGLE_UNIT()SI_UNIT($,.RADIAN.));
#22= (NAMED_UNIT(#36)SOLID_ANGLE_UNIT()SI_UNIT($,.STERADIAN.));
#24=PRESENTATION_STYLE_ASSIGNMENT((#42));
#25=MANIFOLD_SOLID_BREP('\X2\5B9E4F53\X0\11',#43);
#26=PRODUCT('\X2\5B9E4F53\X0\11','','PART--DESC',(#44));
#27=PRODUCT_DEFINITION('','NONE',#45,#2);
#28=AXIS2_PLACEMENT_3D('',#46,#47,#48);
#31=LENGTH_MEASURE_WITH_UNIT(LENGTH_MEASURE(1.0),#49);
#34=DIMENSIONAL_EXPONENTS(1.0,0.0,0.0,0.0,0.0,0.0,0.0);
#36=DIMENSIONAL_EXPONENTS(0.0,0.0,0.0,0.0,0.0,0.0,0.0);
#42=SURFACE_STYLE_USAGE(.BOTH.,#50);
#43=CLOSED_SHELL('',(#51,#52,#53,#54,#55,#56,#57,#58,#59,#60,#61,#62,#63,#64,#65,#66,#67,#68));
#44=PRODUCT_CONTEXT('',#11,'mechanical');
#45=PRODUCT_DEFINITION_FORMATION_WITH_SPECIFIED_SOURCE(' ','NONE',#26,.NOT_KNOWN.);
#46=CARTESIAN_POINT('',(0.0,0.0,0.0));
#47=DIRECTION('',(0.0,0.0,1.0));
#48=DIRECTION('',(1.0,0.0,0.0));
#49= (NAMED_UNIT(#34)LENGTH_UNIT()SI_UNIT($,.METRE.));
#50=SURFACE_SIDE_STYLE('',(#70));
#51=ADVANCED_FACE('4:528',(#71),#72,.F.);
#52=ADVANCED_FACE('4:531',(#73),#74,.T.);
#53=ADVANCED_FACE('4:534',(#75,#76,#77,#78,#79),#80,.T.);
#54=ADVANCED_FACE('4:537',(#81),#82,.T.);
#55=ADVANCED_FACE('4:540',(#83),#84,.T.);
#56=ADVANCED_FACE('4:543',(#85),#86,.T.);
#57=ADVANCED_FACE('4:546',(#87),#88,.T.);
#58=ADVANCED_FACE('4:549',(#89),#90,.T.);
#59=ADVANCED_FACE('4:552',(#91),#92,.T.);
#60=ADVANCED_FACE('4:555',(#93),#94,.T.);
#61=ADVANCED_FACE('4:558',(#95),#96,.T.);
#62=ADVANCED_FACE('4:561',(#97),#98,.T.);
#63=ADVANCED_FACE('4:564',(#99),#100,.T.);
#64=ADVANCED_FACE('4:567',(#101),#102,.T.);
#65=ADVANCED_FACE('4:570',(#103),#104,.T.);
#66=ADVANCED_FACE('4:573',(#105),#106,.T.);
#67=ADVANCED_FACE('4:576',(#107),#108,.T.);
#68=ADVANCED_FACE('4:579',(#109,#110,#111,#112,#113),#114,.F.);
#70=SURFACE_STYLE_FILL_AREA(#115);
#71=FACE_OUTER_BOUND('',#116,.T.);
#72=PLANE('',#117);
#73=FACE_OUTER_BOUND('',#118,.T.);
#74=PLANE('',#119);
#75=FACE_BOUND('',#120,.T.);
#76=FACE_BOUND('',#121,.T.);
#77=FACE_BOUND('',#122,.T.);
#78=FACE_BOUND('',#123,.T.);
#79=FACE_OUTER_BOUND('',#124,.T.);
#80=PLANE('',#125);
#81=FACE_OUTER_BOUND('',#126,.T.);
#82=PLANE('',#127);
#83=FACE_OUTER_BOUND('',#128,.T.);
#84=PLANE('',#129);
#85=FACE_OUTER_BOUND('',#130,.T.);
#86=PLANE('',#131);
#87=FACE_OUTER_BOUND('',#132,.T.);
#88=PLANE('',#133);
#89=FACE_OUTER_BOUND('',#134,.T.);
#90=PLANE('',#135);
#91=FACE_OUTER_BOUND('',#136,.T.);
#92=PLANE('',#137);
#93=FACE_OUTER_BOUND('',#138,.T.);
#94=PLANE('',#139);
#95=FACE_OUTER_BOUND('',#140,.T.);
#96=PLANE('',#141);
#97=FACE_OUTER_BOUND('',#142,.T.);
#98=PLANE('',#143);
#99=FACE_OUTER_BOUND('',#144,.T.);
#100=PLANE('',#145);
#101=FACE_OUTER_BOUND('',#146,.T.);
#102=PLANE('',#147);
#103=FACE_OUTER_BOUND('',#148,.T.);
#104=PLANE('',#149);
#105=FACE_OUTER_BOUND('',#150,.T.);
#106=PLANE('',#151);
#107=FACE_OUTER_BOUND('',#152,.T.);
#108=PLANE('',#153);
#109=FACE_OUTER_BOUND('',#154,.T.);
#110=FACE_BOUND('',#155,.T.);
#111=FACE_BOUND('',#156,.T.);
#112=FACE_BOUND('',#157,.T.);
#113=FACE_BOUND('',#158,.T.);
#114=PLANE('',#159);
#115=FILL_AREA_STYLE('',(#160));
#116=EDGE_LOOP('',(#161,#162,#163,#164));
#117=AXIS2_PLACEMENT_3D('',#165,#166,#167);
#118=EDGE_LOOP('',(#168,#169,#170,#171));
#119=AXIS2_PLACEMENT_3D('',#172,#173,#174);
#120=EDGE_LOOP('',(#175,#176,#177));
#121=EDGE_LOOP('',(#178,#179,#180));
#122=EDGE_LOOP('',(#181,#182,#183));
#123=EDGE_LOOP('',(#184,#185,#186));
#124=EDGE_LOOP('',(#187,#188,#189,#190));
#125=AXIS2_PLACEMENT_3D('',#191,#192,#193);
#126=EDGE_LOOP('',(#194,#195,#196,#197));
#127=AXIS2_PLACEMENT_3D('',#198,#199,#200);
#128=EDGE_LOOP('',(#201,#202,#203,#204));
#129=AXIS2_PLACEMENT_3D('',#205,#206,#207);
#130=EDGE_LOOP('',(#208,#209,#210,#211));
#131=AXIS2_PLACEMENT_3D('',#212,#213,#214);
#132=EDGE_LOOP('',(#215,#216,#217,#218));
#133=AXIS2_PLACEMENT_3D('',#219,#220,#221);
#134=EDGE_LOOP('',(#222,#223,#224,#225));
#135=AXIS2_PLACEMENT_3D('',#226,#227,#228);
#136=EDGE_LOOP('',(#229,#230,#231,#232));
#137=AXIS2_PLACEMENT_3D('',#233,#234,#235);
#138=EDGE_LOOP('',(#236,#237,#238,#239));
#139=AXIS2_PLACEMENT_3D('',#240,#241,#242);
#140=EDGE_LOOP('',(#243,#244,#245,#246));
#141=AXIS2_PLACEMENT_3D('',#247,#248,#249);
#142=EDGE_LOOP('',(#250,#251,#252,#253));
#143=AXIS2_PLACEMENT_3D('',#254,#255,#256);
#144=EDGE_LOOP('',(#257,#258,#259,#260));
#145=AXIS2_PLACEMENT_3D('',#261,#262,#263);
#146=EDGE_LOOP('',(#264,#265,#266,#267));
#147=AXIS2_PLACEMENT_3D('',#268,#269,#270);
#148=EDGE_LOOP('',(#271,#272,#273,#274));
#149=AXIS2_PLACEMENT_3D('',#275,#276,#277);
#150=EDGE_LOOP('',(#278,#279,#280,#281));
#151=AXIS2_PLACEMENT_3D('',#282,#283,#284);
#152=EDGE_LOOP('',(#285,#286,#287,#288));
#153=AXIS2_PLACEMENT_3D('',#289,#290,#291);
#154=EDGE_LOOP('',(#292,#293,#294,#295));
#155=EDGE_LOOP('',(#296,#297,#298));
#156=EDGE_LOOP('',(#299,#300,#301));
#157=EDGE_LOOP('',(#302,#303,#304));
#158=EDGE_LOOP('',(#305,#306,#307));
#159=AXIS2_PLACEMENT_3D('',#308,#309,#310);
#160=FILL_AREA_STYLE_COLOUR('',#311);
#161=ORIENTED_EDGE('',*,*,#312,.T.);
#162=ORIENTED_EDGE('',*,*,#313,.T.);
#163=ORIENTED_EDGE('',*,*,#314,.T.);
#164=ORIENTED_EDGE('',*,*,#315,.T.);
#165=CARTESIAN_POINT('',(0.0,-0.01,0.0));
#166=DIRECTION('',(0.0,1.0,0.0));
#167=DIRECTION('',(0.0,0.0,1.0));
#168=ORIENTED_EDGE('',*,*,#313,.F.);
#169=ORIENTED_EDGE('',*,*,#316,.F.);
#170=ORIENTED_EDGE('',*,*,#317,.F.);
#171=ORIENTED_EDGE('',*,*,#318,.F.);
#172=CARTESIAN_POINT('',(0.01,-0.01,0.0));
#173=DIRECTION('',(1.0,0.0,0.0));
#174=DIRECTION('',(0.0,-1.0,0.0));
#175=ORIENTED_EDGE('',*,*,#319,.F.);
#176=ORIENTED_EDGE('',*,*,#320,.F.);
#177=ORIENTED_EDGE('',*,*,#321,.F.);
#178=ORIENTED_EDGE('',*,*,#322,.F.);
#179=ORIENTED_EDGE('',*,*,#323,.F.);
#180=ORIENTED_EDGE('',*,*,#324,.F.);
#181=ORIENTED_EDGE('',*,*,#325,.F.);
#182=ORIENTED_EDGE('',*,*,#326,.F.);
#183=ORIENTED_EDGE('',*,*,#327,.F.);
#184=ORIENTED_EDGE('',*,*,#328,.F.);
#185=ORIENTED_EDGE('',*,*,#329,.F.);
#186=ORIENTED_EDGE('',*,*,#330,.F.);
#187=ORIENTED_EDGE('',*,*,#312,.F.);
#188=ORIENTED_EDGE('',*,*,#331,.F.);
#189=ORIENTED_EDGE('',*,*,#332,.T.);
#190=ORIENTED_EDGE('',*,*,#316,.T.);
#191=CARTESIAN_POINT('',(0.01,-0.010207107,-0.000207107));
#192=DIRECTION('',(0.0,0.0,-1.0));
#193=DIRECTION('',(-1.0,0.0,0.0));
#194=ORIENTED_EDGE('',*,*,#333,.F.);
#195=ORIENTED_EDGE('',*,*,#327,.T.);
#196=ORIENTED_EDGE('',*,*,#334,.F.);
#197=ORIENTED_EDGE('',*,*,#335,.T.);
#198=CARTESIAN_POINT('',(0.005146447,0.004853553,0.0));
#199=DIRECTION('',(0.707106781186547,-0.707106781186548,0.0));
#200=DIRECTION('',(-0.707106781186548,-0.707106781186547,0.0));
#201=ORIENTED_EDGE('',*,*,#336,.F.);
#202=ORIENTED_EDGE('',*,*,#337,.T.);
#203=ORIENTED_EDGE('',*,*,#338,.F.);
#204=ORIENTED_EDGE('',*,*,#324,.T.);
#205=CARTESIAN_POINT('',(0.004853553,0.005146447,0.0));
#206=DIRECTION('',(-0.707106781186548,0.707106781186547,0.0));
#207=DIRECTION('',(0.707106781186547,0.707106781186548,0.0));
#208=ORIENTED_EDGE('',*,*,#338,.T.);
#209=ORIENTED_EDGE('',*,*,#339,.T.);
#210=ORIENTED_EDGE('',*,*,#340,.F.);
#211=ORIENTED_EDGE('',*,*,#322,.T.);
#212=CARTESIAN_POINT('',(0.0,0.009792893,0.0));
#213=DIRECTION('',(-0.0,-1.0,-0.0));
#214=DIRECTION('',(-1.0,0.0,0.0));
#215=ORIENTED_EDGE('',*,*,#315,.F.);
#216=ORIENTED_EDGE('',*,*,#341,.T.);
#217=ORIENTED_EDGE('',*,*,#342,.T.);
#218=ORIENTED_EDGE('',*,*,#331,.T.);
#219=CARTESIAN_POINT('',(-0.01,0.01,0.0));
#220=DIRECTION('',(-1.0,0.0,0.0));
#221=DIRECTION('',(0.0,1.0,0.0));
#222=ORIENTED_EDGE('',*,*,#317,.T.);
#223=ORIENTED_EDGE('',*,*,#332,.F.);
#224=ORIENTED_EDGE('',*,*,#342,.F.);
#225=ORIENTED_EDGE('',*,*,#343,.F.);
#226=CARTESIAN_POINT('',(0.01,0.01,0.0));
#227=DIRECTION('',(-0.0,1.0,0.0));
#228=DIRECTION('',(1.0,0.0,0.0));
#229=ORIENTED_EDGE('',*,*,#336,.T.);
#230=ORIENTED_EDGE('',*,*,#323,.T.);
#231=ORIENTED_EDGE('',*,*,#340,.T.);
#232=ORIENTED_EDGE('',*,*,#344,.T.);
#233=CARTESIAN_POINT('',(-0.004853553,0.005146447,0.0));
#234=DIRECTION('',(0.707106781186548,0.707106781186547,0.0));
#235=DIRECTION('',(0.707106781186547,-0.707106781186548,0.0));
#236=ORIENTED_EDGE('',*,*,#345,.F.);
#237=ORIENTED_EDGE('',*,*,#321,.T.);
#238=ORIENTED_EDGE('',*,*,#346,.F.);
#239=ORIENTED_EDGE('',*,*,#347,.T.);
#240=CARTESIAN_POINT('',(-0.005146447,0.004853553,0.0));
#241=DIRECTION('',(-0.707106781186547,-0.707106781186548,-0.0));
#242=DIRECTION('',(-0.707106781186548,0.707106781186547,0.0));
#243=ORIENTED_EDGE('',*,*,#345,.T.);
#244=ORIENTED_EDGE('',*,*,#348,.T.);
#245=ORIENTED_EDGE('',*,*,#349,.T.);
#246=ORIENTED_EDGE('',*,*,#319,.T.);
#247=CARTESIAN_POINT('',(-0.009792893,0.0,0.0));
#248=DIRECTION('',(1.0,0.0,0.0));
#249=DIRECTION('',(0.0,-1.0,0.0));
#250=ORIENTED_EDGE('',*,*,#346,.T.);
#251=ORIENTED_EDGE('',*,*,#320,.T.);
#252=ORIENTED_EDGE('',*,*,#349,.F.);
#253=ORIENTED_EDGE('',*,*,#350,.T.);
#254=CARTESIAN_POINT('',(-0.005146447,-0.004853553,0.0));
#255=DIRECTION('',(-0.707106781186547,0.707106781186548,0.0));
#256=DIRECTION('',(0.707106781186548,0.707106781186547,0.0));
#257=ORIENTED_EDGE('',*,*,#351,.F.);
#258=ORIENTED_EDGE('',*,*,#352,.T.);
#259=ORIENTED_EDGE('',*,*,#353,.F.);
#260=ORIENTED_EDGE('',*,*,#330,.T.);
#261=CARTESIAN_POINT('',(-0.004853553,-0.005146447,0.0));
#262=DIRECTION('',(0.707106781186548,-0.707106781186547,0.0));
#263=DIRECTION('',(-0.707106781186547,-0.707106781186548,0.0));
#264=ORIENTED_EDGE('',*,*,#353,.T.);
#265=ORIENTED_EDGE('',*,*,#354,.T.);
#266=ORIENTED_EDGE('',*,*,#355,.T.);
#267=ORIENTED_EDGE('',*,*,#328,.T.);
#268=CARTESIAN_POINT('',(0.0,-0.009792893,0.0));
#269=DIRECTION('',(-0.0,1.0,0.0));
#270=DIRECTION('',(1.0,0.0,0.0));
#271=ORIENTED_EDGE('',*,*,#334,.T.);
#272=ORIENTED_EDGE('',*,*,#326,.T.);
#273=ORIENTED_EDGE('',*,*,#356,.F.);
#274=ORIENTED_EDGE('',*,*,#357,.T.);
#275=CARTESIAN_POINT('',(0.009792893,0.0,0.0));
#276=DIRECTION('',(-1.0,0.0,0.0));
#277=DIRECTION('',(0.0,1.0,0.0));
#278=ORIENTED_EDGE('',*,*,#333,.T.);
#279=ORIENTED_EDGE('',*,*,#358,.T.);
#280=ORIENTED_EDGE('',*,*,#356,.T.);
#281=ORIENTED_EDGE('',*,*,#325,.T.);
#282=CARTESIAN_POINT('',(0.005146447,-0.004853553,0.0));
#283=DIRECTION('',(0.707106781186547,0.707106781186548,0.0));
#284=DIRECTION('',(0.707106781186548,-0.707106781186547,0.0));
#285=ORIENTED_EDGE('',*,*,#351,.T.);
#286=ORIENTED_EDGE('',*,*,#329,.T.);
#287=ORIENTED_EDGE('',*,*,#355,.F.);
#288=ORIENTED_EDGE('',*,*,#359,.T.);
#289=CARTESIAN_POINT('',(0.004853553,-0.005146447,0.0));
#290=DIRECTION('',(-0.707106781186548,-0.707106781186547,-0.0));
#291=DIRECTION('',(-0.707106781186547,0.707106781186548,0.0));
#292=ORIENTED_EDGE('',*,*,#314,.F.);
#293=ORIENTED_EDGE('',*,*,#318,.T.);
#294=ORIENTED_EDGE('',*,*,#343,.T.);
#295=ORIENTED_EDGE('',*,*,#341,.F.);
#296=ORIENTED_EDGE('',*,*,#350,.F.);
#297=ORIENTED_EDGE('',*,*,#348,.F.);
#298=ORIENTED_EDGE('',*,*,#347,.F.);
#299=ORIENTED_EDGE('',*,*,#359,.F.);
#300=ORIENTED_EDGE('',*,*,#354,.F.);
#301=ORIENTED_EDGE('',*,*,#352,.F.);
#302=ORIENTED_EDGE('',*,*,#357,.F.);
#303=ORIENTED_EDGE('',*,*,#358,.F.);
#304=ORIENTED_EDGE('',*,*,#335,.F.);
#305=ORIENTED_EDGE('',*,*,#339,.F.);
#306=ORIENTED_EDGE('',*,*,#337,.F.);
#307=ORIENTED_EDGE('',*,*,#344,.F.);
#308=CARTESIAN_POINT('',(0.01,-0.010207107,0.000207107));
#309=DIRECTION('',(0.0,0.0,-1.0));
#310=DIRECTION('',(-1.0,0.0,0.0));
#311=COLOUR_RGB('',0.560784339904785,0.686274528503418,0.560784339904785);
#312=EDGE_CURVE('4:582',#360,#361,#362,.T.);
#313=EDGE_CURVE('4:585',#361,#363,#364,.T.);
#314=EDGE_CURVE('4:588',#363,#365,#366,.T.);
#315=EDGE_CURVE('4:591',#365,#360,#367,.T.);
#316=EDGE_CURVE('4:594',#368,#361,#369,.T.);
#317=EDGE_CURVE('4:597',#370,#368,#371,.T.);
#318=EDGE_CURVE('4:600',#363,#370,#372,.T.);
#319=EDGE_CURVE('4:603',#373,#374,#375,.T.);
#320=EDGE_CURVE('4:606',#376,#373,#377,.T.);
#321=EDGE_CURVE('4:609',#374,#376,#378,.T.);
#322=EDGE_CURVE('4:612',#379,#380,#381,.T.);
#323=EDGE_CURVE('4:615',#382,#379,#383,.T.);
#324=EDGE_CURVE('4:618',#380,#382,#384,.T.);
#325=EDGE_CURVE('4:621',#385,#386,#387,.T.);
#326=EDGE_CURVE('4:624',#388,#385,#389,.T.);
#327=EDGE_CURVE('4:627',#386,#388,#390,.T.);
#328=EDGE_CURVE('4:630',#391,#392,#393,.T.);
#329=EDGE_CURVE('4:633',#394,#391,#395,.T.);
#330=EDGE_CURVE('4:636',#392,#394,#396,.T.);
#331=EDGE_CURVE('4:639',#397,#360,#398,.T.);
#332=EDGE_CURVE('4:642',#397,#368,#399,.T.);
#333=EDGE_CURVE('4:645',#386,#400,#401,.T.);
#334=EDGE_CURVE('4:648',#402,#388,#403,.T.);
#335=EDGE_CURVE('4:651',#402,#400,#404,.T.);
#336=EDGE_CURVE('4:654',#405,#382,#406,.T.);
#337=EDGE_CURVE('4:657',#405,#407,#408,.T.);
#338=EDGE_CURVE('4:660',#380,#407,#409,.T.);
#339=EDGE_CURVE('4:663',#407,#410,#411,.T.);
#340=EDGE_CURVE('4:666',#379,#410,#412,.T.);
#341=EDGE_CURVE('4:669',#365,#413,#414,.T.);
#342=EDGE_CURVE('4:672',#413,#397,#415,.T.);
#343=EDGE_CURVE('4:675',#370,#413,#416,.T.);
#344=EDGE_CURVE('4:678',#410,#405,#417,.T.);
#345=EDGE_CURVE('4:681',#374,#418,#419,.T.);
#346=EDGE_CURVE('4:684',#420,#376,#421,.T.);
#347=EDGE_CURVE('4:687',#420,#418,#422,.T.);
#348=EDGE_CURVE('4:690',#418,#423,#424,.T.);
#349=EDGE_CURVE('4:693',#423,#373,#425,.T.);
#350=EDGE_CURVE('4:696',#423,#420,#426,.T.);
#351=EDGE_CURVE('4:699',#427,#394,#428,.T.);
#352=EDGE_CURVE('4:702',#427,#429,#430,.T.);
#353=EDGE_CURVE('4:705',#392,#429,#431,.T.);
#354=EDGE_CURVE('4:708',#429,#432,#433,.T.);
#355=EDGE_CURVE('4:711',#432,#391,#434,.T.);
#356=EDGE_CURVE('4:714',#435,#385,#436,.T.);
#357=EDGE_CURVE('4:717',#435,#402,#437,.T.);
#358=EDGE_CURVE('4:720',#400,#435,#438,.T.);
#359=EDGE_CURVE('4:723',#432,#427,#439,.T.);
#360=VERTEX_POINT('',#440);
#361=VERTEX_POINT('',#441);
#362=LINE('',#442,#443);
#363=VERTEX_POINT('',#444);
#364=LINE('',#445,#446);
#365=VERTEX_POINT('',#447);
#366=LINE('',#448,#449);
#367=LINE('',#450,#451);
#368=VERTEX_POINT('',#452);
#369=LINE('',#453,#454);
#370=VERTEX_POINT('',#455);
#371=LINE('',#456,#457);
#372=LINE('',#458,#459);
#373=VERTEX_POINT('',#460);
#374=VERTEX_POINT('',#461);
#375=LINE('',#462,#463);
#376=VERTEX_POINT('',#464);
#377=LINE('',#465,#466);
#378=LINE('',#467,#468);
#379=VERTEX_POINT('',#469);
#380=VERTEX_POINT('',#470);
#381=LINE('',#471,#472);
#382=VERTEX_POINT('',#473);
#383=LINE('',#474,#475);
#384=LINE('',#476,#477);
#385=VERTEX_POINT('',#478);
#386=VERTEX_POINT('',#479);
#387=LINE('',#480,#481);
#388=VERTEX_POINT('',#482);
#389=LINE('',#483,#484);
#390=LINE('',#485,#486);
#391=VERTEX_POINT('',#487);
#392=VERTEX_POINT('',#488);
#393=LINE('',#489,#490);
#394=VERTEX_POINT('',#491);
#395=LINE('',#492,#493);
#396=LINE('',#494,#495);
#397=VERTEX_POINT('',#496);
#398=LINE('',#497,#498);
#399=LINE('',#499,#500);
#400=VERTEX_POINT('',#501);
#401=LINE('',#502,#503);
#402=VERTEX_POINT('',#504);
#403=LINE('',#505,#506);
#404=LINE('',#507,#508);
#405=VERTEX_POINT('',#509);
#406=LINE('',#510,#511);
#407=VERTEX_POINT('',#512);
#408=LINE('',#513,#514);
#409=LINE('',#515,#516);
#410=VERTEX_POINT('',#517);
#411=LINE('',#518,#519);
#412=LINE('',#520,#521);
#413=VERTEX_POINT('',#522);
#414=LINE('',#523,#524);
#415=LINE('',#525,#526);
#416=LINE('',#527,#528);
#417=LINE('',#529,#530);
#418=VERTEX_POINT('',#531);
#419=LINE('',#532,#533);
#420=VERTEX_POINT('',#534);
#421=LINE('',#535,#536);
#422=LINE('',#537,#538);
#423=VERTEX_POINT('',#539);
#424=LINE('',#540,#541);
#425=LINE('',#542,#543);
#426=LINE('',#544,#545);
#427=VERTEX_POINT('',#546);
#428=LINE('',#547,#548);
#429=VERTEX_POINT('',#549);
#430=LINE('',#550,#551);
#431=LINE('',#552,#553);
#432=VERTEX_POINT('',#554);
#433=LINE('',#555,#556);
#434=LINE('',#557,#558);
#435=VERTEX_POINT('',#559);
#436=LINE('',#560,#561);
#437=LINE('',#562,#563);
#438=LINE('',#564,#565);
#439=LINE('',#566,#567);
#440=CARTESIAN_POINT('',(-0.01,-0.01,-0.000207107));
#441=CARTESIAN_POINT('',(0.01,-0.01,-0.000207107));
#442=CARTESIAN_POINT('',(0.005,-0.01,-0.000207107));
#443=VECTOR('',#568,1.0);
#444=CARTESIAN_POINT('',(0.01,-0.01,0.000207107));
#445=CARTESIAN_POINT('',(0.01,-0.01,0.0));
#446=VECTOR('',#569,1.0);
#447=CARTESIAN_POINT('',(-0.01,-0.01,0.000207107));
#448=CARTESIAN_POINT('',(0.005,-0.01,0.000207107));
#449=VECTOR('',#570,1.0);
#450=CARTESIAN_POINT('',(-0.01,-0.01,0.0));
#451=VECTOR('',#571,1.0);
#452=CARTESIAN_POINT('',(0.01,0.01,-0.000207107));
#453=CARTESIAN_POINT('',(0.01,-0.0051035535,-0.000207107));
#454=VECTOR('',#572,1.0);
#455=CARTESIAN_POINT('',(0.01,0.01,0.000207107));
#456=CARTESIAN_POINT('',(0.01,0.01,0.0));
#457=VECTOR('',#573,1.0);
#458=CARTESIAN_POINT('',(0.01,-0.0051035535,0.000207107));
#459=VECTOR('',#574,1.0);
#460=CARTESIAN_POINT('',(-0.009792893,-0.009499999,-0.000207107));
#461=CARTESIAN_POINT('',(-0.009792893,0.009499999,-0.000207107));
#462=CARTESIAN_POINT('',(-0.009792893,0.01,-0.000207107));
#463=VECTOR('',#575,1.0);
#464=CARTESIAN_POINT('',(-0.000292894,0.0,-0.000207107));
#465=CARTESIAN_POINT('',(-0.010146447,-0.009853553,-0.000207107));
#466=VECTOR('',#576,1.0);
#467=CARTESIAN_POINT('',(-0.000146447,-0.000146447,-0.000207107));
#468=VECTOR('',#577,1.0);
#469=CARTESIAN_POINT('',(-0.009499999,0.009792893,-0.000207107));
#470=CARTESIAN_POINT('',(0.009499999,0.009792893,-0.000207107));
#471=CARTESIAN_POINT('',(0.01,0.009792893,-0.000207107));
#472=VECTOR('',#578,1.0);
#473=CARTESIAN_POINT('',(-4.33680868994202E-19,0.000292894,-0.000207107));
#474=CARTESIAN_POINT('',(-0.009853553,0.010146447,-0.000207107));
#475=VECTOR('',#579,1.0);
#476=CARTESIAN_POINT('',(-0.000146447,0.000146447,-0.000207107));
#477=VECTOR('',#580,1.0);
#478=CARTESIAN_POINT('',(0.009792893,-0.009499999,-0.000207107));
#479=CARTESIAN_POINT('',(0.000292893999999998,0.0,-0.000207107));
#480=CARTESIAN_POINT('',(0.000146447,0.000146447,-0.000207107));
#481=VECTOR('',#581,1.0);
#482=CARTESIAN_POINT('',(0.009792893,0.009499999,-0.000207107));
#483=CARTESIAN_POINT('',(0.009792893,-0.01,-0.000207107));
#484=VECTOR('',#582,1.0);
#485=CARTESIAN_POINT('',(0.010146447,0.009853553,-0.000207107));
#486=VECTOR('',#583,1.0);
#487=CARTESIAN_POINT('',(0.009499999,-0.009792893,-0.000207107));
#488=CARTESIAN_POINT('',(-0.009499999,-0.009792893,-0.000207107));
#489=CARTESIAN_POINT('',(-0.01,-0.009792893,-0.000207107));
#490=VECTOR('',#584,1.0);
#491=CARTESIAN_POINT('',(0.0,-0.000292894,-0.000207107));
#492=CARTESIAN_POINT('',(0.009853553,-0.010146447,-0.000207107));
#493=VECTOR('',#585,1.0);
#494=CARTESIAN_POINT('',(0.000146447,-0.000146447,-0.000207107));
#495=VECTOR('',#586,1.0);
#496=CARTESIAN_POINT('',(-0.01,0.01,-0.000207107));
#497=CARTESIAN_POINT('',(-0.01,-0.010207107,-0.000207107));
#498=VECTOR('',#587,1.0);
#499=CARTESIAN_POINT('',(0.005,0.01,-0.000207107));
#500=VECTOR('',#588,1.0);
#501=CARTESIAN_POINT('',(0.000292894,4.33680868994202E-19,0.000207107));
#502=CARTESIAN_POINT('',(0.000292894,4.33680868994202E-19,0.0));
#503=VECTOR('',#589,1.0);
#504=CARTESIAN_POINT('',(0.009792893,0.009499999,0.000207107));
#505=CARTESIAN_POINT('',(0.009792893,0.009499999,0.0));
#506=VECTOR('',#590,1.0);
#507=CARTESIAN_POINT('',(0.010146447,0.009853553,0.000207107));
#508=VECTOR('',#591,1.0);
#509=CARTESIAN_POINT('',(-4.33680868994202E-19,0.000292894,0.000207107));
#510=CARTESIAN_POINT('',(-4.33680868994202E-19,0.000292894,0.0));
#511=VECTOR('',#592,1.0);
#512=CARTESIAN_POINT('',(0.009499999,0.009792893,0.000207107));
#513=CARTESIAN_POINT('',(-0.000146447,0.000146447,0.000207107));
#514=VECTOR('',#593,1.0);
#515=CARTESIAN_POINT('',(0.009499999,0.009792893,0.0));
#516=VECTOR('',#594,1.0);
#517=CARTESIAN_POINT('',(-0.009499999,0.009792893,0.000207107));
#518=CARTESIAN_POINT('',(0.01,0.009792893,0.000207107));
#519=VECTOR('',#595,1.0);
#520=CARTESIAN_POINT('',(-0.009499999,0.009792893,0.0));
#521=VECTOR('',#596,1.0);
#522=CARTESIAN_POINT('',(-0.01,0.01,0.000207107));
#523=CARTESIAN_POINT('',(-0.01,0.009792893,0.000207107));
#524=VECTOR('',#597,1.0);
#525=CARTESIAN_POINT('',(-0.01,0.01,0.0));
#526=VECTOR('',#598,1.0);
#527=CARTESIAN_POINT('',(0.005,0.01,0.000207107));
#528=VECTOR('',#599,1.0);
#529=CARTESIAN_POINT('',(-0.009853553,0.010146447,0.000207107));
#530=VECTOR('',#600,1.0);
#531=CARTESIAN_POINT('',(-0.009792893,0.009499999,0.000207107));
#532=CARTESIAN_POINT('',(-0.009792893,0.009499999,0.0));
#533=VECTOR('',#601,1.0);
#534=CARTESIAN_POINT('',(-0.000292894,-4.33680868994202E-19,0.000207107));
#535=CARTESIAN_POINT('',(-0.000292894,-4.33680868994202E-19,0.0));
#536=VECTOR('',#602,1.0);
#537=CARTESIAN_POINT('',(-0.000146447,-0.000146447,0.000207107));
#538=VECTOR('',#603,1.0);
#539=CARTESIAN_POINT('',(-0.009792893,-0.009499999,0.000207107));
#540=CARTESIAN_POINT('',(-0.009792893,0.01,0.000207107));
#541=VECTOR('',#604,1.0);
#542=CARTESIAN_POINT('',(-0.009792893,-0.009499999,0.0));
#543=VECTOR('',#605,1.0);
#544=CARTESIAN_POINT('',(-0.010146447,-0.009853553,0.000207107));
#545=VECTOR('',#606,1.0);
#546=CARTESIAN_POINT('',(0.0,-0.000292894,0.000207107));
#547=CARTESIAN_POINT('',(4.33680868994202E-19,-0.000292894,0.0));
#548=VECTOR('',#607,1.0);
#549=CARTESIAN_POINT('',(-0.009499999,-0.009792893,0.000207107));
#550=CARTESIAN_POINT('',(0.000146447,-0.000146447,0.000207107));
#551=VECTOR('',#608,1.0);
#552=CARTESIAN_POINT('',(-0.009499999,-0.009792893,0.0));
#553=VECTOR('',#609,1.0);
#554=CARTESIAN_POINT('',(0.009499999,-0.009792893,0.000207107));
#555=CARTESIAN_POINT('',(-0.01,-0.009792893,0.000207107));
#556=VECTOR('',#610,1.0);
#557=CARTESIAN_POINT('',(0.009499999,-0.009792893,0.0));
#558=VECTOR('',#611,1.0);
#559=CARTESIAN_POINT('',(0.009792893,-0.009499999,0.000207107));
#560=CARTESIAN_POINT('',(0.009792893,-0.009499999,0.0));
#561=VECTOR('',#612,1.0);
#562=CARTESIAN_POINT('',(0.009792893,-0.01,0.000207107));
#563=VECTOR('',#613,1.0);
#564=CARTESIAN_POINT('',(0.000146447,0.000146447,0.000207107));
#565=VECTOR('',#614,1.0);
#566=CARTESIAN_POINT('',(0.009853553,-0.010146447,0.000207107));
#567=VECTOR('',#615,1.0);
#568=DIRECTION('',(1.0,-0.0,0.0));
#569=DIRECTION('',(0.0,0.0,1.0));
#570=DIRECTION('',(-1.0,0.0,0.0));
#571=DIRECTION('',(0.0,0.0,-1.0));
#572=DIRECTION('',(0.0,-1.0,0.0));
#573=DIRECTION('',(0.0,0.0,-1.0));
#574=DIRECTION('',(-0.0,1.0,0.0));
#575=DIRECTION('',(0.0,1.0,0.0));
#576=DIRECTION('',(-0.707106781186548,-0.707106781186547,-0.0));
#577=DIRECTION('',(0.707106781186548,-0.707106781186547,0.0));
#578=DIRECTION('',(1.0,0.0,0.0));
#579=DIRECTION('',(-0.707106781186547,0.707106781186548,0.0));
#580=DIRECTION('',(-0.707106781186547,-0.707106781186548,-0.0));
#581=DIRECTION('',(-0.707106781186548,0.707106781186547,0.0));
#582=DIRECTION('',(-0.0,-1.0,-0.0));
#583=DIRECTION('',(0.707106781186548,0.707106781186547,0.0));
#584=DIRECTION('',(-1.0,-0.0,-0.0));
#585=DIRECTION('',(0.707106781186547,-0.707106781186548,0.0));
#586=DIRECTION('',(0.707106781186547,0.707106781186548,0.0));
#587=DIRECTION('',(-0.0,-1.0,-0.0));
#588=DIRECTION('',(1.0,-0.0,0.0));
#589=DIRECTION('',(-0.0,0.0,1.0));
#590=DIRECTION('',(-0.0,-0.0,-1.0));
#591=DIRECTION('',(-0.707106781186548,-0.707106781186547,0.0));
#592=DIRECTION('',(0.0,0.0,-1.0));
#593=DIRECTION('',(0.707106781186547,0.707106781186548,0.0));
#594=DIRECTION('',(0.0,-0.0,1.0));
#595=DIRECTION('',(-1.0,0.0,0.0));
#596=DIRECTION('',(0.0,0.0,1.0));
#597=DIRECTION('',(0.0,1.0,0.0));
#598=DIRECTION('',(0.0,0.0,-1.0));
#599=DIRECTION('',(-1.0,0.0,0.0));
#600=DIRECTION('',(0.707106781186547,-0.707106781186548,0.0));
#601=DIRECTION('',(0.0,0.0,1.0));
#602=DIRECTION('',(0.0,0.0,-1.0));
#603=DIRECTION('',(-0.707106781186548,0.707106781186547,0.0));
#604=DIRECTION('',(0.0,-1.0,0.0));
#605=DIRECTION('',(0.0,0.0,-1.0));
#606=DIRECTION('',(0.707106781186548,0.707106781186547,0.0));
#607=DIRECTION('',(0.0,0.0,-1.0));
#608=DIRECTION('',(-0.707106781186547,-0.707106781186548,0.0));
#609=DIRECTION('',(-0.0,-0.0,1.0));
#610=DIRECTION('',(1.0,0.0,0.0));
#611=DIRECTION('',(0.0,0.0,-1.0));
#612=DIRECTION('',(0.0,0.0,-1.0));
#613=DIRECTION('',(0.0,1.0,0.0));
#614=DIRECTION('',(0.707106781186548,-0.707106781186547,0.0));
#615=DIRECTION('',(-0.707106781186547,0.707106781186548,0.0));
#616=PRESENTATION_LAYER_ASSIGNMENT('9','\X2\56FE5C42\X0\0',(#25));
ENDSEC;
END-ISO-10303-21;
