ISO-10303-21;
HEADER;
FILE_DESCRIPTION(('STEP AP214'),'1');
FILE_NAME('C2.stp','2025-02-09T03:14:56',(' '),(' '),'Spatial InterOp 3D',' ',' ');
FILE_SCHEMA(('AUTOMOTIVE_DESIGN { 1 0 10303 214 1 1 1 1 }'));
ENDSEC;
DATA;
#1=MECHANICAL_DESIGN_GEOMETRIC_PRESENTATION_REPRESENTATION(' ',(#10),#6);
#2=PRODUCT_DEFINITION_CONTEXT('',#11,'design');
#3=APPLICATION_PROTOCOL_DEFINITION('INTERNATIONAL STANDARD','automotive_design',1994,#11);
#4=PRODUCT_CATEGORY_RELATIONSHIP('NONE','NONE',#12,#13);
#5=SHAPE_DEFINITION_REPRESENTATION(#14,#15);
#6= (GEOMETRIC_REPRESENTATION_CONTEXT(3)GLOBAL_UNCERTAINTY_ASSIGNED_CONTEXT((#18))GLOBAL_UNIT_ASSIGNED_CONTEXT((#20,#21,#22))REPRESENTATION_CONTEXT('NONE','WORKSPACE'));
#10=STYLED_ITEM('',(#24),#25);
#11=APPLICATION_CONTEXT(' ');
#12=PRODUCT_CATEGORY('part','NONE');
#13=PRODUCT_RELATED_PRODUCT_CATEGORY('detail',' ',(#26));
#14=PRODUCT_DEFINITION_SHAPE('NONE','NONE',#27);
#15=ADVANCED_BREP_SHAPE_REPRESENTATION('\X2\5B9E4F53\X0\11',(#25,#28),#6);
#18=UNCERTAINTY_MEASURE_WITH_UNIT(LENGTH_MEASURE(1.0E-08),#20,'','');
#20= (CONVERSION_BASED_UNIT('METRE',#31)LENGTH_UNIT()NAMED_UNIT(#34));
#21= (NAMED_UNIT(#36)PLANE_ANGLE_UNIT()SI_UNIT($,.RADIAN.));
#22= (NAMED_UNIT(#36)SOLID_ANGLE_UNIT()SI_UNIT($,.STERADIAN.));
#24=PRESENTATION_STYLE_ASSIGNMENT((#42));
#25=MANIFOLD_SOLID_BREP('\X2\5B9E4F53\X0\11',#43);
#26=PRODUCT('\X2\5B9E4F53\X0\11','','PART--DESC',(#44));
#27=PRODUCT_DEFINITION('','NONE',#45,#2);
#28=AXIS2_PLACEMENT_3D('',#46,#47,#48);
#31=LENGTH_MEASURE_WITH_UNIT(LENGTH_MEASURE(1.0),#49);
#34=DIMENSIONAL_EXPONENTS(1.0,0.0,0.0,0.0,0.0,0.0,0.0);
#36=DIMENSIONAL_EXPONENTS(0.0,0.0,0.0,0.0,0.0,0.0,0.0);
#42=SURFACE_STYLE_USAGE(.BOTH.,#50);
#43=CLOSED_SHELL('',(#51,#52,#53,#54,#55,#56,#57,#58,#59,#60,#61,#62,#63,#64,#65,#66,#67,#68,#69,#70,#71,#72));
#44=PRODUCT_CONTEXT('',#11,'mechanical');
#45=PRODUCT_DEFINITION_FORMATION_WITH_SPECIFIED_SOURCE(' ','NONE',#26,.NOT_KNOWN.);
#46=CARTESIAN_POINT('',(0.0,0.0,0.0));
#47=DIRECTION('',(0.0,0.0,1.0));
#48=DIRECTION('',(1.0,0.0,0.0));
#49= (NAMED_UNIT(#34)LENGTH_UNIT()SI_UNIT($,.METRE.));
#50=SURFACE_SIDE_STYLE('',(#74));
#51=ADVANCED_FACE('4:7586',(#75),#76,.T.);
#52=ADVANCED_FACE('4:7363',(#77),#78,.T.);
#53=ADVANCED_FACE('4:7610',(#79,#80,#81,#82,#83),#84,.T.);
#54=ADVANCED_FACE('4:3228',(#85),#86,.T.);
#55=ADVANCED_FACE('4:3006',(#87),#88,.T.);
#56=ADVANCED_FACE('4:2796',(#89),#90,.T.);
#57=ADVANCED_FACE('4:7590',(#91),#92,.T.);
#58=ADVANCED_FACE('4:2580',(#93),#94,.T.);
#59=ADVANCED_FACE('4:2358',(#95),#96,.T.);
#60=ADVANCED_FACE('4:1710',(#97),#98,.T.);
#61=ADVANCED_FACE('4:2142',(#99),#100,.T.);
#62=ADVANCED_FACE('4:2148',(#101),#102,.T.);
#63=ADVANCED_FACE('4:1926',(#103),#104,.T.);
#64=ADVANCED_FACE('4:1932',(#105),#106,.T.);
#65=ADVANCED_FACE('4:1278',(#107),#108,.T.);
#66=ADVANCED_FACE('4:1716',(#109),#110,.T.);
#67=ADVANCED_FACE('4:1284',(#111),#112,.T.);
#68=ADVANCED_FACE('4:1500',(#113),#114,.T.);
#69=ADVANCED_FACE('4:1062',(#115),#116,.T.);
#70=ADVANCED_FACE('4:852',(#117),#118,.T.);
#71=ADVANCED_FACE('4:7603',(#119,#120,#121,#122,#123),#124,.F.);
#72=ADVANCED_FACE('4:7623',(#125),#126,.T.);
#74=SURFACE_STYLE_FILL_AREA(#127);
#75=FACE_OUTER_BOUND('',#128,.T.);
#76=PLANE('',#129);
#77=FACE_OUTER_BOUND('',#130,.T.);
#78=PLANE('',#131);
#79=FACE_OUTER_BOUND('',#132,.T.);
#80=FACE_BOUND('',#133,.T.);
#81=FACE_BOUND('',#134,.T.);
#82=FACE_BOUND('',#135,.T.);
#83=FACE_BOUND('',#136,.T.);
#84=PLANE('',#137);
#85=FACE_OUTER_BOUND('',#138,.T.);
#86=PLANE('',#139);
#87=FACE_OUTER_BOUND('',#140,.T.);
#88=PLANE('',#141);
#89=FACE_OUTER_BOUND('',#142,.T.);
#90=PLANE('',#143);
#91=FACE_OUTER_BOUND('',#144,.T.);
#92=PLANE('',#145);
#93=FACE_OUTER_BOUND('',#146,.T.);
#94=PLANE('',#147);
#95=FACE_OUTER_BOUND('',#148,.T.);
#96=PLANE('',#149);
#97=FACE_OUTER_BOUND('',#150,.T.);
#98=PLANE('',#151);
#99=FACE_OUTER_BOUND('',#152,.T.);
#100=PLANE('',#153);
#101=FACE_OUTER_BOUND('',#154,.T.);
#102=PLANE('',#155);
#103=FACE_OUTER_BOUND('',#156,.T.);
#104=PLANE('',#157);
#105=FACE_OUTER_BOUND('',#158,.T.);
#106=PLANE('',#159);
#107=FACE_OUTER_BOUND('',#160,.T.);
#108=PLANE('',#161);
#109=FACE_OUTER_BOUND('',#162,.T.);
#110=PLANE('',#163);
#111=FACE_OUTER_BOUND('',#164,.T.);
#112=PLANE('',#165);
#113=FACE_OUTER_BOUND('',#166,.T.);
#114=PLANE('',#167);
#115=FACE_OUTER_BOUND('',#168,.T.);
#116=PLANE('',#169);
#117=FACE_OUTER_BOUND('',#170,.T.);
#118=PLANE('',#171);
#119=FACE_OUTER_BOUND('',#172,.T.);
#120=FACE_BOUND('',#173,.T.);
#121=FACE_BOUND('',#174,.T.);
#122=FACE_BOUND('',#175,.T.);
#123=FACE_BOUND('',#176,.T.);
#124=PLANE('',#177);
#125=FACE_OUTER_BOUND('',#178,.T.);
#126=PLANE('',#179);
#127=FILL_AREA_STYLE('',(#180));
#128=EDGE_LOOP('',(#181,#182,#183,#184));
#129=AXIS2_PLACEMENT_3D('',#185,#186,#187);
#130=EDGE_LOOP('',(#188,#189,#190,#191));
#131=AXIS2_PLACEMENT_3D('',#192,#193,#194);
#132=EDGE_LOOP('',(#195,#196,#197,#198));
#133=EDGE_LOOP('',(#199,#200,#201,#202));
#134=EDGE_LOOP('',(#203,#204,#205,#206));
#135=EDGE_LOOP('',(#207,#208,#209,#210));
#136=EDGE_LOOP('',(#211,#212,#213,#214));
#137=AXIS2_PLACEMENT_3D('',#215,#216,#217);
#138=EDGE_LOOP('',(#218,#219,#220,#221));
#139=AXIS2_PLACEMENT_3D('',#222,#223,#224);
#140=EDGE_LOOP('',(#225,#226,#227,#228));
#141=AXIS2_PLACEMENT_3D('',#229,#230,#231);
#142=EDGE_LOOP('',(#232,#233,#234,#235));
#143=AXIS2_PLACEMENT_3D('',#236,#237,#238);
#144=EDGE_LOOP('',(#239,#240,#241,#242));
#145=AXIS2_PLACEMENT_3D('',#243,#244,#245);
#146=EDGE_LOOP('',(#246,#247,#248,#249));
#147=AXIS2_PLACEMENT_3D('',#250,#251,#252);
#148=EDGE_LOOP('',(#253,#254,#255,#256));
#149=AXIS2_PLACEMENT_3D('',#257,#258,#259);
#150=EDGE_LOOP('',(#260,#261,#262,#263));
#151=AXIS2_PLACEMENT_3D('',#264,#265,#266);
#152=EDGE_LOOP('',(#267,#268,#269,#270));
#153=AXIS2_PLACEMENT_3D('',#271,#272,#273);
#154=EDGE_LOOP('',(#274,#275,#276,#277));
#155=AXIS2_PLACEMENT_3D('',#278,#279,#280);
#156=EDGE_LOOP('',(#281,#282,#283,#284));
#157=AXIS2_PLACEMENT_3D('',#285,#286,#287);
#158=EDGE_LOOP('',(#288,#289,#290,#291));
#159=AXIS2_PLACEMENT_3D('',#292,#293,#294);
#160=EDGE_LOOP('',(#295,#296,#297,#298));
#161=AXIS2_PLACEMENT_3D('',#299,#300,#301);
#162=EDGE_LOOP('',(#302,#303,#304,#305));
#163=AXIS2_PLACEMENT_3D('',#306,#307,#308);
#164=EDGE_LOOP('',(#309,#310,#311,#312));
#165=AXIS2_PLACEMENT_3D('',#313,#314,#315);
#166=EDGE_LOOP('',(#316,#317,#318,#319));
#167=AXIS2_PLACEMENT_3D('',#320,#321,#322);
#168=EDGE_LOOP('',(#323,#324,#325,#326));
#169=AXIS2_PLACEMENT_3D('',#327,#328,#329);
#170=EDGE_LOOP('',(#330,#331,#332,#333));
#171=AXIS2_PLACEMENT_3D('',#334,#335,#336);
#172=EDGE_LOOP('',(#337,#338,#339,#340));
#173=EDGE_LOOP('',(#341,#342,#343,#344));
#174=EDGE_LOOP('',(#345,#346,#347,#348));
#175=EDGE_LOOP('',(#349,#350,#351,#352));
#176=EDGE_LOOP('',(#353,#354,#355,#356));
#177=AXIS2_PLACEMENT_3D('',#357,#358,#359);
#178=EDGE_LOOP('',(#360,#361,#362,#363));
#179=AXIS2_PLACEMENT_3D('',#364,#365,#366);
#180=FILL_AREA_STYLE_COLOUR('',#367);
#181=ORIENTED_EDGE('',*,*,#368,.F.);
#182=ORIENTED_EDGE('',*,*,#369,.F.);
#183=ORIENTED_EDGE('',*,*,#370,.F.);
#184=ORIENTED_EDGE('',*,*,#371,.F.);
#185=CARTESIAN_POINT('',(0.01,0.0,0.0));
#186=DIRECTION('',(1.0,0.0,0.0));
#187=DIRECTION('',(0.0,1.0,0.0));
#188=ORIENTED_EDGE('',*,*,#372,.T.);
#189=ORIENTED_EDGE('',*,*,#373,.T.);
#190=ORIENTED_EDGE('',*,*,#374,.T.);
#191=ORIENTED_EDGE('',*,*,#375,.T.);
#192=CARTESIAN_POINT('',(-0.01,0.01,0.0));
#193=DIRECTION('',(-1.0,0.0,0.0));
#194=DIRECTION('',(0.0,1.0,0.0));
#195=ORIENTED_EDGE('',*,*,#371,.T.);
#196=ORIENTED_EDGE('',*,*,#376,.F.);
#197=ORIENTED_EDGE('',*,*,#373,.F.);
#198=ORIENTED_EDGE('',*,*,#377,.T.);
#199=ORIENTED_EDGE('',*,*,#378,.F.);
#200=ORIENTED_EDGE('',*,*,#379,.F.);
#201=ORIENTED_EDGE('',*,*,#380,.F.);
#202=ORIENTED_EDGE('',*,*,#381,.F.);
#203=ORIENTED_EDGE('',*,*,#382,.F.);
#204=ORIENTED_EDGE('',*,*,#383,.F.);
#205=ORIENTED_EDGE('',*,*,#384,.F.);
#206=ORIENTED_EDGE('',*,*,#385,.F.);
#207=ORIENTED_EDGE('',*,*,#386,.F.);
#208=ORIENTED_EDGE('',*,*,#387,.F.);
#209=ORIENTED_EDGE('',*,*,#388,.F.);
#210=ORIENTED_EDGE('',*,*,#389,.F.);
#211=ORIENTED_EDGE('',*,*,#390,.F.);
#212=ORIENTED_EDGE('',*,*,#391,.F.);
#213=ORIENTED_EDGE('',*,*,#392,.F.);
#214=ORIENTED_EDGE('',*,*,#393,.F.);
#215=CARTESIAN_POINT('',(-0.00025,-0.01,-0.00025));
#216=DIRECTION('',(0.0,0.0,-1.0));
#217=DIRECTION('',(-1.0,0.0,0.0));
#218=ORIENTED_EDGE('',*,*,#394,.F.);
#219=ORIENTED_EDGE('',*,*,#392,.T.);
#220=ORIENTED_EDGE('',*,*,#395,.F.);
#221=ORIENTED_EDGE('',*,*,#396,.T.);
#222=CARTESIAN_POINT('',(-0.005,0.00975,0.0));
#223=DIRECTION('',(-0.0,-1.0,-0.0));
#224=DIRECTION('',(-1.0,0.0,0.0));
#225=ORIENTED_EDGE('',*,*,#397,.F.);
#226=ORIENTED_EDGE('',*,*,#389,.T.);
#227=ORIENTED_EDGE('',*,*,#398,.F.);
#228=ORIENTED_EDGE('',*,*,#399,.T.);
#229=CARTESIAN_POINT('',(0.005,0.00975,0.0));
#230=DIRECTION('',(-0.0,-1.0,-0.0));
#231=DIRECTION('',(-1.0,0.0,0.0));
#232=ORIENTED_EDGE('',*,*,#398,.T.);
#233=ORIENTED_EDGE('',*,*,#388,.T.);
#234=ORIENTED_EDGE('',*,*,#400,.F.);
#235=ORIENTED_EDGE('',*,*,#401,.T.);
#236=CARTESIAN_POINT('',(0.00975,0.005,0.0));
#237=DIRECTION('',(-1.0,0.0,0.0));
#238=DIRECTION('',(0.0,1.0,0.0));
#239=ORIENTED_EDGE('',*,*,#368,.T.);
#240=ORIENTED_EDGE('',*,*,#377,.F.);
#241=ORIENTED_EDGE('',*,*,#372,.F.);
#242=ORIENTED_EDGE('',*,*,#402,.F.);
#243=CARTESIAN_POINT('',(0.01,0.01,0.0));
#244=DIRECTION('',(-0.0,1.0,0.0));
#245=DIRECTION('',(1.0,0.0,0.0));
#246=ORIENTED_EDGE('',*,*,#403,.F.);
#247=ORIENTED_EDGE('',*,*,#384,.T.);
#248=ORIENTED_EDGE('',*,*,#404,.F.);
#249=ORIENTED_EDGE('',*,*,#405,.T.);
#250=CARTESIAN_POINT('',(0.00975,-0.005,0.0));
#251=DIRECTION('',(-1.0,0.0,0.0));
#252=DIRECTION('',(0.0,1.0,0.0));
#253=ORIENTED_EDGE('',*,*,#394,.T.);
#254=ORIENTED_EDGE('',*,*,#406,.T.);
#255=ORIENTED_EDGE('',*,*,#407,.F.);
#256=ORIENTED_EDGE('',*,*,#393,.T.);
#257=CARTESIAN_POINT('',(-0.00975,0.005,0.0));
#258=DIRECTION('',(1.0,0.0,0.0));
#259=DIRECTION('',(0.0,-1.0,0.0));
#260=ORIENTED_EDGE('',*,*,#407,.T.);
#261=ORIENTED_EDGE('',*,*,#408,.T.);
#262=ORIENTED_EDGE('',*,*,#409,.T.);
#263=ORIENTED_EDGE('',*,*,#390,.T.);
#264=CARTESIAN_POINT('',(-0.005,0.00025,0.0));
#265=DIRECTION('',(-0.0,1.0,0.0));
#266=DIRECTION('',(1.0,0.0,0.0));
#267=ORIENTED_EDGE('',*,*,#397,.T.);
#268=ORIENTED_EDGE('',*,*,#410,.T.);
#269=ORIENTED_EDGE('',*,*,#411,.F.);
#270=ORIENTED_EDGE('',*,*,#386,.T.);
#271=CARTESIAN_POINT('',(0.00025,0.005,0.0));
#272=DIRECTION('',(1.0,0.0,0.0));
#273=DIRECTION('',(0.0,-1.0,0.0));
#274=ORIENTED_EDGE('',*,*,#395,.T.);
#275=ORIENTED_EDGE('',*,*,#391,.T.);
#276=ORIENTED_EDGE('',*,*,#409,.F.);
#277=ORIENTED_EDGE('',*,*,#412,.T.);
#278=CARTESIAN_POINT('',(-0.00025,0.005,0.0));
#279=DIRECTION('',(-1.0,0.0,0.0));
#280=DIRECTION('',(0.0,1.0,0.0));
#281=ORIENTED_EDGE('',*,*,#403,.T.);
#282=ORIENTED_EDGE('',*,*,#413,.T.);
#283=ORIENTED_EDGE('',*,*,#414,.F.);
#284=ORIENTED_EDGE('',*,*,#385,.T.);
#285=CARTESIAN_POINT('',(0.005,-0.00025,0.0));
#286=DIRECTION('',(-0.0,-1.0,-0.0));
#287=DIRECTION('',(-1.0,0.0,0.0));
#288=ORIENTED_EDGE('',*,*,#400,.T.);
#289=ORIENTED_EDGE('',*,*,#387,.T.);
#290=ORIENTED_EDGE('',*,*,#411,.T.);
#291=ORIENTED_EDGE('',*,*,#415,.T.);
#292=CARTESIAN_POINT('',(0.005,0.00025,0.0));
#293=DIRECTION('',(-0.0,1.0,0.0));
#294=DIRECTION('',(1.0,0.0,0.0));
#295=ORIENTED_EDGE('',*,*,#414,.T.);
#296=ORIENTED_EDGE('',*,*,#416,.T.);
#297=ORIENTED_EDGE('',*,*,#417,.T.);
#298=ORIENTED_EDGE('',*,*,#382,.T.);
#299=CARTESIAN_POINT('',(0.00025,-0.005,0.0));
#300=DIRECTION('',(1.0,0.0,0.0));
#301=DIRECTION('',(0.0,-1.0,0.0));
#302=ORIENTED_EDGE('',*,*,#418,.F.);
#303=ORIENTED_EDGE('',*,*,#381,.T.);
#304=ORIENTED_EDGE('',*,*,#419,.F.);
#305=ORIENTED_EDGE('',*,*,#420,.T.);
#306=CARTESIAN_POINT('',(-0.005,-0.00025,0.0));
#307=DIRECTION('',(-0.0,-1.0,-0.0));
#308=DIRECTION('',(-1.0,0.0,0.0));
#309=ORIENTED_EDGE('',*,*,#419,.T.);
#310=ORIENTED_EDGE('',*,*,#380,.T.);
#311=ORIENTED_EDGE('',*,*,#421,.F.);
#312=ORIENTED_EDGE('',*,*,#422,.T.);
#313=CARTESIAN_POINT('',(-0.00025,-0.005,0.0));
#314=DIRECTION('',(-1.0,0.0,0.0));
#315=DIRECTION('',(0.0,1.0,0.0));
#316=ORIENTED_EDGE('',*,*,#404,.T.);
#317=ORIENTED_EDGE('',*,*,#383,.T.);
#318=ORIENTED_EDGE('',*,*,#417,.F.);
#319=ORIENTED_EDGE('',*,*,#423,.T.);
#320=CARTESIAN_POINT('',(0.005,-0.00975,0.0));
#321=DIRECTION('',(-0.0,1.0,0.0));
#322=DIRECTION('',(1.0,0.0,0.0));
#323=ORIENTED_EDGE('',*,*,#418,.T.);
#324=ORIENTED_EDGE('',*,*,#424,.T.);
#325=ORIENTED_EDGE('',*,*,#425,.F.);
#326=ORIENTED_EDGE('',*,*,#378,.T.);
#327=CARTESIAN_POINT('',(-0.00975,-0.005,0.0));
#328=DIRECTION('',(1.0,0.0,0.0));
#329=DIRECTION('',(0.0,-1.0,0.0));
#330=ORIENTED_EDGE('',*,*,#421,.T.);
#331=ORIENTED_EDGE('',*,*,#379,.T.);
#332=ORIENTED_EDGE('',*,*,#425,.T.);
#333=ORIENTED_EDGE('',*,*,#426,.T.);
#334=CARTESIAN_POINT('',(-0.005,-0.00975,0.0));
#335=DIRECTION('',(-0.0,1.0,0.0));
#336=DIRECTION('',(1.0,0.0,0.0));
#337=ORIENTED_EDGE('',*,*,#369,.T.);
#338=ORIENTED_EDGE('',*,*,#402,.T.);
#339=ORIENTED_EDGE('',*,*,#375,.F.);
#340=ORIENTED_EDGE('',*,*,#427,.F.);
#341=ORIENTED_EDGE('',*,*,#422,.F.);
#342=ORIENTED_EDGE('',*,*,#426,.F.);
#343=ORIENTED_EDGE('',*,*,#424,.F.);
#344=ORIENTED_EDGE('',*,*,#420,.F.);
#345=ORIENTED_EDGE('',*,*,#423,.F.);
#346=ORIENTED_EDGE('',*,*,#416,.F.);
#347=ORIENTED_EDGE('',*,*,#413,.F.);
#348=ORIENTED_EDGE('',*,*,#405,.F.);
#349=ORIENTED_EDGE('',*,*,#412,.F.);
#350=ORIENTED_EDGE('',*,*,#408,.F.);
#351=ORIENTED_EDGE('',*,*,#406,.F.);
#352=ORIENTED_EDGE('',*,*,#396,.F.);
#353=ORIENTED_EDGE('',*,*,#415,.F.);
#354=ORIENTED_EDGE('',*,*,#410,.F.);
#355=ORIENTED_EDGE('',*,*,#399,.F.);
#356=ORIENTED_EDGE('',*,*,#401,.F.);
#357=CARTESIAN_POINT('',(-0.00025,-0.01,0.00025));
#358=DIRECTION('',(0.0,0.0,-1.0));
#359=DIRECTION('',(-1.0,0.0,0.0));
#360=ORIENTED_EDGE('',*,*,#370,.T.);
#361=ORIENTED_EDGE('',*,*,#427,.T.);
#362=ORIENTED_EDGE('',*,*,#374,.F.);
#363=ORIENTED_EDGE('',*,*,#376,.T.);
#364=CARTESIAN_POINT('',(0.01,-0.01,0.0));
#365=DIRECTION('',(-0.0,-1.0,-0.0));
#366=DIRECTION('',(-1.0,0.0,0.0));
#367=COLOUR_RGB('',0.560784339904785,0.686274528503418,0.560784339904785);
#368=EDGE_CURVE('4:7653',#428,#429,#430,.T.);
#369=EDGE_CURVE('4:7656',#431,#428,#432,.T.);
#370=EDGE_CURVE('4:7662',#433,#431,#434,.T.);
#371=EDGE_CURVE('4:7659',#429,#433,#435,.T.);
#372=EDGE_CURVE('4:7400',#436,#437,#438,.T.);
#373=EDGE_CURVE('4:7410',#437,#439,#440,.T.);
#374=EDGE_CURVE('4:6872',#439,#441,#442,.T.);
#375=EDGE_CURVE('4:7417',#441,#436,#443,.T.);
#376=EDGE_CURVE('4:7700',#439,#433,#444,.T.);
#377=EDGE_CURVE('4:7678',#437,#429,#445,.T.);
#378=EDGE_CURVE('4:1080',#446,#447,#448,.T.);
#379=EDGE_CURVE('4:885',#449,#446,#450,.T.);
#380=EDGE_CURVE('4:1317',#451,#449,#452,.T.);
#381=EDGE_CURVE('4:1749',#447,#451,#453,.T.);
#382=EDGE_CURVE('4:1296',#454,#455,#456,.T.);
#383=EDGE_CURVE('4:1533',#457,#454,#458,.T.);
#384=EDGE_CURVE('4:2613',#459,#457,#460,.T.);
#385=EDGE_CURVE('4:1944',#455,#459,#461,.T.);
#386=EDGE_CURVE('4:2160',#462,#463,#464,.T.);
#387=EDGE_CURVE('4:1965',#465,#462,#466,.T.);
#388=EDGE_CURVE('4:2829',#467,#465,#468,.T.);
#389=EDGE_CURVE('4:3024',#463,#467,#469,.T.);
#390=EDGE_CURVE('4:1728',#470,#471,#472,.T.);
#391=EDGE_CURVE('4:2181',#473,#470,#474,.T.);
#392=EDGE_CURVE('4:3261',#475,#473,#476,.T.);
#393=EDGE_CURVE('4:2376',#471,#475,#477,.T.);
#394=EDGE_CURVE('4:4205',#475,#478,#479,.T.);
#395=EDGE_CURVE('4:4214',#480,#473,#481,.T.);
#396=EDGE_CURVE('4:3336',#480,#478,#482,.T.);
#397=EDGE_CURVE('4:4181',#463,#483,#484,.T.);
#398=EDGE_CURVE('4:4178',#485,#467,#486,.T.);
#399=EDGE_CURVE('4:3141',#485,#483,#487,.T.);
#400=EDGE_CURVE('4:4175',#488,#465,#489,.T.);
#401=EDGE_CURVE('4:2904',#488,#485,#490,.T.);
#402=EDGE_CURVE('4:7670',#428,#436,#491,.T.);
#403=EDGE_CURVE('4:4151',#459,#492,#493,.T.);
#404=EDGE_CURVE('4:4163',#494,#457,#495,.T.);
#405=EDGE_CURVE('4:2688',#494,#492,#496,.T.);
#406=EDGE_CURVE('4:2493',#478,#497,#498,.T.);
#407=EDGE_CURVE('4:4142',#471,#497,#499,.T.);
#408=EDGE_CURVE('4:1845',#497,#500,#501,.T.);
#409=EDGE_CURVE('4:4133',#500,#470,#502,.T.);
#410=EDGE_CURVE('4:2277',#483,#503,#504,.T.);
#411=EDGE_CURVE('4:4130',#462,#503,#505,.T.);
#412=EDGE_CURVE('4:2256',#500,#480,#506,.T.);
#413=EDGE_CURVE('4:2061',#492,#507,#508,.T.);
#414=EDGE_CURVE('4:4124',#455,#507,#509,.T.);
#415=EDGE_CURVE('4:2040',#503,#488,#510,.T.);
#416=EDGE_CURVE('4:1413',#507,#511,#512,.T.);
#417=EDGE_CURVE('4:4094',#511,#454,#513,.T.);
#418=EDGE_CURVE('4:4106',#447,#514,#515,.T.);
#419=EDGE_CURVE('4:4103',#516,#451,#517,.T.);
#420=EDGE_CURVE('4:1824',#516,#514,#518,.T.);
#421=EDGE_CURVE('4:4082',#519,#449,#520,.T.);
#422=EDGE_CURVE('4:1392',#519,#516,#521,.T.);
#423=EDGE_CURVE('4:1608',#511,#494,#522,.T.);
#424=EDGE_CURVE('4:1197',#514,#523,#524,.T.);
#425=EDGE_CURVE('4:4070',#446,#523,#525,.T.);
#426=EDGE_CURVE('4:960',#523,#519,#526,.T.);
#427=EDGE_CURVE('4:7693',#431,#441,#527,.T.);
#428=VERTEX_POINT('',#528);
#429=VERTEX_POINT('',#529);
#430=LINE('',#530,#531);
#431=VERTEX_POINT('',#532);
#432=LINE('',#533,#534);
#433=VERTEX_POINT('',#535);
#434=LINE('',#536,#537);
#435=LINE('',#538,#539);
#436=VERTEX_POINT('',#540);
#437=VERTEX_POINT('',#541);
#438=LINE('',#542,#543);
#439=VERTEX_POINT('',#544);
#440=LINE('',#545,#546);
#441=VERTEX_POINT('',#547);
#442=LINE('',#548,#549);
#443=LINE('',#550,#551);
#444=LINE('',#552,#553);
#445=LINE('',#554,#555);
#446=VERTEX_POINT('',#556);
#447=VERTEX_POINT('',#557);
#448=LINE('',#558,#559);
#449=VERTEX_POINT('',#560);
#450=LINE('',#561,#562);
#451=VERTEX_POINT('',#563);
#452=LINE('',#564,#565);
#453=LINE('',#566,#567);
#454=VERTEX_POINT('',#568);
#455=VERTEX_POINT('',#569);
#456=LINE('',#570,#571);
#457=VERTEX_POINT('',#572);
#458=LINE('',#573,#574);
#459=VERTEX_POINT('',#575);
#460=LINE('',#576,#577);
#461=LINE('',#578,#579);
#462=VERTEX_POINT('',#580);
#463=VERTEX_POINT('',#581);
#464=LINE('',#582,#583);
#465=VERTEX_POINT('',#584);
#466=LINE('',#585,#586);
#467=VERTEX_POINT('',#587);
#468=LINE('',#588,#589);
#469=LINE('',#590,#591);
#470=VERTEX_POINT('',#592);
#471=VERTEX_POINT('',#593);
#472=LINE('',#594,#595);
#473=VERTEX_POINT('',#596);
#474=LINE('',#597,#598);
#475=VERTEX_POINT('',#599);
#476=LINE('',#600,#601);
#477=LINE('',#602,#603);
#478=VERTEX_POINT('',#604);
#479=LINE('',#605,#606);
#480=VERTEX_POINT('',#607);
#481=LINE('',#608,#609);
#482=LINE('',#610,#611);
#483=VERTEX_POINT('',#612);
#484=LINE('',#613,#614);
#485=VERTEX_POINT('',#615);
#486=LINE('',#616,#617);
#487=LINE('',#618,#619);
#488=VERTEX_POINT('',#620);
#489=LINE('',#621,#622);
#490=LINE('',#623,#624);
#491=LINE('',#625,#626);
#492=VERTEX_POINT('',#627);
#493=LINE('',#628,#629);
#494=VERTEX_POINT('',#630);
#495=LINE('',#631,#632);
#496=LINE('',#633,#634);
#497=VERTEX_POINT('',#635);
#498=LINE('',#636,#637);
#499=LINE('',#638,#639);
#500=VERTEX_POINT('',#640);
#501=LINE('',#641,#642);
#502=LINE('',#643,#644);
#503=VERTEX_POINT('',#645);
#504=LINE('',#646,#647);
#505=LINE('',#648,#649);
#506=LINE('',#650,#651);
#507=VERTEX_POINT('',#652);
#508=LINE('',#653,#654);
#509=LINE('',#655,#656);
#510=LINE('',#657,#658);
#511=VERTEX_POINT('',#659);
#512=LINE('',#660,#661);
#513=LINE('',#662,#663);
#514=VERTEX_POINT('',#664);
#515=LINE('',#665,#666);
#516=VERTEX_POINT('',#667);
#517=LINE('',#668,#669);
#518=LINE('',#670,#671);
#519=VERTEX_POINT('',#672);
#520=LINE('',#673,#674);
#521=LINE('',#675,#676);
#522=LINE('',#677,#678);
#523=VERTEX_POINT('',#679);
#524=LINE('',#680,#681);
#525=LINE('',#682,#683);
#526=LINE('',#684,#685);
#527=LINE('',#686,#687);
#528=CARTESIAN_POINT('',(0.01,0.01,0.00025));
#529=CARTESIAN_POINT('',(0.01,0.01,-0.00025));
#530=CARTESIAN_POINT('',(0.01,0.01,0.0));
#531=VECTOR('',#688,1.0);
#532=CARTESIAN_POINT('',(0.01,-0.01,0.00025));
#533=CARTESIAN_POINT('',(0.01,-0.005,0.00025));
#534=VECTOR('',#689,1.0);
#535=CARTESIAN_POINT('',(0.01,-0.01,-0.00025));
#536=CARTESIAN_POINT('',(0.01,-0.01,0.0));
#537=VECTOR('',#690,1.0);
#538=CARTESIAN_POINT('',(0.01,-0.005,-0.00025));
#539=VECTOR('',#691,1.0);
#540=CARTESIAN_POINT('',(-0.01,0.01,0.00025));
#541=CARTESIAN_POINT('',(-0.01,0.01,-0.00025));
#542=CARTESIAN_POINT('',(-0.01,0.01,0.0));
#543=VECTOR('',#692,1.0);
#544=CARTESIAN_POINT('',(-0.01,-0.01,-0.00025));
#545=CARTESIAN_POINT('',(-0.01,-0.005,-0.00025));
#546=VECTOR('',#693,1.0);
#547=CARTESIAN_POINT('',(-0.01,-0.01,0.00025));
#548=CARTESIAN_POINT('',(-0.01,-0.01,0.0));
#549=VECTOR('',#694,1.0);
#550=CARTESIAN_POINT('',(-0.01,0.00975,0.00025));
#551=VECTOR('',#695,1.0);
#552=CARTESIAN_POINT('',(0.01025,-0.01,-0.00025));
#553=VECTOR('',#696,1.0);
#554=CARTESIAN_POINT('',(-0.000125,0.01,-0.00025));
#555=VECTOR('',#697,1.0);
#556=CARTESIAN_POINT('',(-0.00975,-0.00975,-0.00025));
#557=CARTESIAN_POINT('',(-0.00975,-0.00025,-0.00025));
#558=CARTESIAN_POINT('',(-0.00975,0.0,-0.00025));
#559=VECTOR('',#698,1.0);
#560=CARTESIAN_POINT('',(-0.00025,-0.00975,-0.00025));
#561=CARTESIAN_POINT('',(-0.01,-0.00975,-0.00025));
#562=VECTOR('',#699,1.0);
#563=CARTESIAN_POINT('',(-0.00025,-0.00025,-0.00025));
#564=CARTESIAN_POINT('',(-0.00025,-0.01,-0.00025));
#565=VECTOR('',#700,1.0);
#566=CARTESIAN_POINT('',(0.0,-0.00025,-0.00025));
#567=VECTOR('',#701,1.0);
#568=CARTESIAN_POINT('',(0.00025,-0.00975,-0.00025));
#569=CARTESIAN_POINT('',(0.00025,-0.00025,-0.00025));
#570=CARTESIAN_POINT('',(0.00025,0.0,-0.00025));
#571=VECTOR('',#702,1.0);
#572=CARTESIAN_POINT('',(0.00975,-0.00975,-0.00025));
#573=CARTESIAN_POINT('',(0.0,-0.00975,-0.00025));
#574=VECTOR('',#703,1.0);
#575=CARTESIAN_POINT('',(0.00975,-0.00025,-0.00025));
#576=CARTESIAN_POINT('',(0.00975,-0.01,-0.00025));
#577=VECTOR('',#704,1.0);
#578=CARTESIAN_POINT('',(0.01,-0.00025,-0.00025));
#579=VECTOR('',#705,1.0);
#580=CARTESIAN_POINT('',(0.00025,0.00025,-0.00025));
#581=CARTESIAN_POINT('',(0.00025,0.00975,-0.00025));
#582=CARTESIAN_POINT('',(0.00025,0.01,-0.00025));
#583=VECTOR('',#706,1.0);
#584=CARTESIAN_POINT('',(0.00975,0.00025,-0.00025));
#585=CARTESIAN_POINT('',(0.0,0.00025,-0.00025));
#586=VECTOR('',#707,1.0);
#587=CARTESIAN_POINT('',(0.00975,0.00975,-0.00025));
#588=CARTESIAN_POINT('',(0.00975,0.0,-0.00025));
#589=VECTOR('',#708,1.0);
#590=CARTESIAN_POINT('',(0.01,0.00975,-0.00025));
#591=VECTOR('',#709,1.0);
#592=CARTESIAN_POINT('',(-0.00025,0.00025,-0.00025));
#593=CARTESIAN_POINT('',(-0.00975,0.00025,-0.00025));
#594=CARTESIAN_POINT('',(-0.01,0.00025,-0.00025));
#595=VECTOR('',#710,1.0);
#596=CARTESIAN_POINT('',(-0.00025,0.00975,-0.00025));
#597=CARTESIAN_POINT('',(-0.00025,0.0,-0.00025));
#598=VECTOR('',#711,1.0);
#599=CARTESIAN_POINT('',(-0.00975,0.00975,-0.00025));
#600=CARTESIAN_POINT('',(0.0,0.00975,-0.00025));
#601=VECTOR('',#712,1.0);
#602=CARTESIAN_POINT('',(-0.00975,0.01,-0.00025));
#603=VECTOR('',#713,1.0);
#604=CARTESIAN_POINT('',(-0.00975,0.00975,0.00025));
#605=CARTESIAN_POINT('',(-0.00975,0.00975,0.0));
#606=VECTOR('',#714,1.0);
#607=CARTESIAN_POINT('',(-0.00025,0.00975,0.00025));
#608=CARTESIAN_POINT('',(-0.00025,0.00975,0.0));
#609=VECTOR('',#715,1.0);
#610=CARTESIAN_POINT('',(0.0,0.00975,0.00025));
#611=VECTOR('',#716,1.0);
#612=CARTESIAN_POINT('',(0.00025,0.00975,0.00025));
#613=CARTESIAN_POINT('',(0.00025,0.00975,0.0));
#614=VECTOR('',#717,1.0);
#615=CARTESIAN_POINT('',(0.00975,0.00975,0.00025));
#616=CARTESIAN_POINT('',(0.00975,0.00975,0.0));
#617=VECTOR('',#718,1.0);
#618=CARTESIAN_POINT('',(0.01,0.00975,0.00025));
#619=VECTOR('',#719,1.0);
#620=CARTESIAN_POINT('',(0.00975,0.00025,0.00025));
#621=CARTESIAN_POINT('',(0.00975,0.00025,0.0));
#622=VECTOR('',#720,1.0);
#623=CARTESIAN_POINT('',(0.00975,0.0,0.00025));
#624=VECTOR('',#721,1.0);
#625=CARTESIAN_POINT('',(-0.000125,0.01,0.00025));
#626=VECTOR('',#722,1.0);
#627=CARTESIAN_POINT('',(0.00975,-0.00025,0.00025));
#628=CARTESIAN_POINT('',(0.00975,-0.00025,0.0));
#629=VECTOR('',#723,1.0);
#630=CARTESIAN_POINT('',(0.00975,-0.00975,0.00025));
#631=CARTESIAN_POINT('',(0.00975,-0.00975,0.0));
#632=VECTOR('',#724,1.0);
#633=CARTESIAN_POINT('',(0.00975,-0.01,0.00025));
#634=VECTOR('',#725,1.0);
#635=CARTESIAN_POINT('',(-0.00975,0.00025,0.00025));
#636=CARTESIAN_POINT('',(-0.00975,0.01,0.00025));
#637=VECTOR('',#726,1.0);
#638=CARTESIAN_POINT('',(-0.00975,0.00025,0.0));
#639=VECTOR('',#727,1.0);
#640=CARTESIAN_POINT('',(-0.00025,0.00025,0.00025));
#641=CARTESIAN_POINT('',(-0.01,0.00025,0.00025));
#642=VECTOR('',#728,1.0);
#643=CARTESIAN_POINT('',(-0.00025,0.00025,0.0));
#644=VECTOR('',#729,1.0);
#645=CARTESIAN_POINT('',(0.00025,0.00025,0.00025));
#646=CARTESIAN_POINT('',(0.00025,0.01,0.00025));
#647=VECTOR('',#730,1.0);
#648=CARTESIAN_POINT('',(0.00025,0.00025,0.0));
#649=VECTOR('',#731,1.0);
#650=CARTESIAN_POINT('',(-0.00025,0.0,0.00025));
#651=VECTOR('',#732,1.0);
#652=CARTESIAN_POINT('',(0.00025,-0.00025,0.00025));
#653=CARTESIAN_POINT('',(0.01,-0.00025,0.00025));
#654=VECTOR('',#733,1.0);
#655=CARTESIAN_POINT('',(0.00025,-0.00025,0.0));
#656=VECTOR('',#734,1.0);
#657=CARTESIAN_POINT('',(0.0,0.00025,0.00025));
#658=VECTOR('',#735,1.0);
#659=CARTESIAN_POINT('',(0.00025,-0.00975,0.00025));
#660=CARTESIAN_POINT('',(0.00025,0.0,0.00025));
#661=VECTOR('',#736,1.0);
#662=CARTESIAN_POINT('',(0.00025,-0.00975,0.0));
#663=VECTOR('',#737,1.0);
#664=CARTESIAN_POINT('',(-0.00975,-0.00025,0.00025));
#665=CARTESIAN_POINT('',(-0.00975,-0.00025,0.0));
#666=VECTOR('',#738,1.0);
#667=CARTESIAN_POINT('',(-0.00025,-0.00025,0.00025));
#668=CARTESIAN_POINT('',(-0.00025,-0.00025,0.0));
#669=VECTOR('',#739,1.0);
#670=CARTESIAN_POINT('',(0.0,-0.00025,0.00025));
#671=VECTOR('',#740,1.0);
#672=CARTESIAN_POINT('',(-0.00025,-0.00975,0.00025));
#673=CARTESIAN_POINT('',(-0.00025,-0.00975,0.0));
#674=VECTOR('',#741,1.0);
#675=CARTESIAN_POINT('',(-0.00025,-0.01,0.00025));
#676=VECTOR('',#742,1.0);
#677=CARTESIAN_POINT('',(0.0,-0.00975,0.00025));
#678=VECTOR('',#743,1.0);
#679=CARTESIAN_POINT('',(-0.00975,-0.00975,0.00025));
#680=CARTESIAN_POINT('',(-0.00975,0.0,0.00025));
#681=VECTOR('',#744,1.0);
#682=CARTESIAN_POINT('',(-0.00975,-0.00975,0.0));
#683=VECTOR('',#745,1.0);
#684=CARTESIAN_POINT('',(-0.01,-0.00975,0.00025));
#685=VECTOR('',#746,1.0);
#686=CARTESIAN_POINT('',(-0.00975,-0.01,0.00025));
#687=VECTOR('',#747,1.0);
#688=DIRECTION('',(0.0,0.0,-1.0));
#689=DIRECTION('',(-0.0,1.0,0.0));
#690=DIRECTION('',(0.0,0.0,1.0));
#691=DIRECTION('',(0.0,-1.0,0.0));
#692=DIRECTION('',(0.0,0.0,-1.0));
#693=DIRECTION('',(0.0,-1.0,0.0));
#694=DIRECTION('',(0.0,0.0,1.0));
#695=DIRECTION('',(0.0,1.0,0.0));
#696=DIRECTION('',(1.0,0.0,0.0));
#697=DIRECTION('',(1.0,-0.0,0.0));
#698=DIRECTION('',(0.0,1.0,0.0));
#699=DIRECTION('',(-1.0,-0.0,-0.0));
#700=DIRECTION('',(-0.0,-1.0,-0.0));
#701=DIRECTION('',(1.0,0.0,0.0));
#702=DIRECTION('',(0.0,1.0,0.0));
#703=DIRECTION('',(-1.0,-0.0,-0.0));
#704=DIRECTION('',(-0.0,-1.0,-0.0));
#705=DIRECTION('',(1.0,0.0,0.0));
#706=DIRECTION('',(0.0,1.0,0.0));
#707=DIRECTION('',(-1.0,-0.0,-0.0));
#708=DIRECTION('',(-0.0,-1.0,-0.0));
#709=DIRECTION('',(1.0,0.0,0.0));
#710=DIRECTION('',(-1.0,-0.0,-0.0));
#711=DIRECTION('',(-0.0,-1.0,-0.0));
#712=DIRECTION('',(1.0,0.0,0.0));
#713=DIRECTION('',(0.0,1.0,0.0));
#714=DIRECTION('',(0.0,0.0,1.0));
#715=DIRECTION('',(0.0,0.0,-1.0));
#716=DIRECTION('',(-1.0,0.0,0.0));
#717=DIRECTION('',(0.0,0.0,1.0));
#718=DIRECTION('',(0.0,0.0,-1.0));
#719=DIRECTION('',(-1.0,0.0,0.0));
#720=DIRECTION('',(0.0,0.0,-1.0));
#721=DIRECTION('',(0.0,1.0,0.0));
#722=DIRECTION('',(-1.0,0.0,0.0));
#723=DIRECTION('',(0.0,-0.0,1.0));
#724=DIRECTION('',(0.0,0.0,-1.0));
#725=DIRECTION('',(0.0,1.0,0.0));
#726=DIRECTION('',(0.0,-1.0,0.0));
#727=DIRECTION('',(0.0,-0.0,1.0));
#728=DIRECTION('',(1.0,0.0,0.0));
#729=DIRECTION('',(0.0,0.0,-1.0));
#730=DIRECTION('',(0.0,-1.0,0.0));
#731=DIRECTION('',(0.0,-0.0,1.0));
#732=DIRECTION('',(0.0,1.0,0.0));
#733=DIRECTION('',(-1.0,0.0,0.0));
#734=DIRECTION('',(0.0,0.0,1.0));
#735=DIRECTION('',(1.0,0.0,0.0));
#736=DIRECTION('',(0.0,-1.0,0.0));
#737=DIRECTION('',(0.0,0.0,-1.0));
#738=DIRECTION('',(0.0,0.0,1.0));
#739=DIRECTION('',(0.0,0.0,-1.0));
#740=DIRECTION('',(-1.0,0.0,0.0));
#741=DIRECTION('',(0.0,0.0,-1.0));
#742=DIRECTION('',(0.0,1.0,0.0));
#743=DIRECTION('',(1.0,0.0,0.0));
#744=DIRECTION('',(0.0,-1.0,0.0));
#745=DIRECTION('',(0.0,-0.0,1.0));
#746=DIRECTION('',(1.0,0.0,0.0));
#747=DIRECTION('',(-1.0,0.0,0.0));
#748=PRESENTATION_LAYER_ASSIGNMENT('9','\X2\56FE5C42\X0\0',(#25));
ENDSEC;
END-ISO-10303-21;
