ISO-10303-21;
HEADER;
FILE_DESCRIPTION(('STEP AP214'),'1');
FILE_NAME('C3.stp','2025-02-09T03:47:38',(' '),(' '),'Spatial InterOp 3D',' ',' ');
FILE_SCHEMA(('AUTOMOTIVE_DESIGN { 1 0 10303 214 1 1 1 1 }'));
ENDSEC;
DATA;
#1=MECHANICAL_DESIGN_GEOMETRIC_PRESENTATION_REPRESENTATION(' ',(#10),#6);
#2=PRODUCT_DEFINITION_CONTEXT('',#11,'design');
#3=APPLICATION_PROTOCOL_DEFINITION('INTERNATIONAL STANDARD','automotive_design',1994,#11);
#4=PRODUCT_CATEGORY_RELATIONSHIP('NONE','NONE',#12,#13);
#5=SHAPE_DEFINITION_REPRESENTATION(#14,#15);
#6= (GEOMETRIC_REPRESENTATION_CONTEXT(3)GLOBAL_UNCERTAINTY_ASSIGNED_CONTEXT((#18))GLOBAL_UNIT_ASSIGNED_CONTEXT((#20,#21,#22))REPRESENTATION_CONTEXT('NONE','WORKSPACE'));
#10=STYLED_ITEM('',(#24),#25);
#11=APPLICATION_CONTEXT(' ');
#12=PRODUCT_CATEGORY('part','NONE');
#13=PRODUCT_RELATED_PRODUCT_CATEGORY('detail',' ',(#26));
#14=PRODUCT_DEFINITION_SHAPE('NONE','NONE',#27);
#15=ADVANCED_BREP_SHAPE_REPRESENTATION('\X2\5B9E4F53\X0\11',(#25,#28),#6);
#18=UNCERTAINTY_MEASURE_WITH_UNIT(LENGTH_MEASURE(1.0E-08),#20,'','');
#20= (CONVERSION_BASED_UNIT('METRE',#31)LENGTH_UNIT()NAMED_UNIT(#34));
#21= (NAMED_UNIT(#36)PLANE_ANGLE_UNIT()SI_UNIT($,.RADIAN.));
#22= (NAMED_UNIT(#36)SOLID_ANGLE_UNIT()SI_UNIT($,.STERADIAN.));
#24=PRESENTATION_STYLE_ASSIGNMENT((#42));
#25=MANIFOLD_SOLID_BREP('\X2\5B9E4F53\X0\11',#43);
#26=PRODUCT('\X2\5B9E4F53\X0\11','','PART--DESC',(#44));
#27=PRODUCT_DEFINITION('','NONE',#45,#2);
#28=AXIS2_PLACEMENT_3D('',#46,#47,#48);
#31=LENGTH_MEASURE_WITH_UNIT(LENGTH_MEASURE(1.0),#49);
#34=DIMENSIONAL_EXPONENTS(1.0,0.0,0.0,0.0,0.0,0.0,0.0);
#36=DIMENSIONAL_EXPONENTS(0.0,0.0,0.0,0.0,0.0,0.0,0.0);
#42=SURFACE_STYLE_USAGE(.BOTH.,#50);
#43=CLOSED_SHELL('',(#51,#52,#53,#54,#55,#56,#57,#58,#59,#60,#61,#62,#63,#64,#65,#66,#67,#68,#69,#70,#71,#72,#73,#74,#75,#76,#77,#78,#79,#80));
#44=PRODUCT_CONTEXT('',#11,'mechanical');
#45=PRODUCT_DEFINITION_FORMATION_WITH_SPECIFIED_SOURCE(' ','NONE',#26,.NOT_KNOWN.);
#46=CARTESIAN_POINT('',(0.0,0.0,0.0));
#47=DIRECTION('',(0.0,0.0,1.0));
#48=DIRECTION('',(1.0,0.0,0.0));
#49= (NAMED_UNIT(#34)LENGTH_UNIT()SI_UNIT($,.METRE.));
#50=SURFACE_SIDE_STYLE('',(#82));
#51=ADVANCED_FACE('5:9139',(#83),#84,.T.);
#52=ADVANCED_FACE('5:3366',(#85),#86,.T.);
#53=ADVANCED_FACE('5:3156',(#87),#88,.T.);
#54=ADVANCED_FACE('5:2934',(#89),#90,.T.);
#55=ADVANCED_FACE('5:3150',(#91),#92,.T.);
#56=ADVANCED_FACE('5:2502',(#93),#94,.T.);
#57=ADVANCED_FACE('5:2940',(#95),#96,.T.);
#58=ADVANCED_FACE('5:2724',(#97),#98,.T.);
#59=ADVANCED_FACE('5:2508',(#99),#100,.T.);
#60=ADVANCED_FACE('5:2286',(#101),#102,.T.);
#61=ADVANCED_FACE('5:2292',(#103),#104,.T.);
#62=ADVANCED_FACE('5:1860',(#105),#106,.T.);
#63=ADVANCED_FACE('5:2070',(#107),#108,.T.);
#64=ADVANCED_FACE('5:2076',(#109),#110,.T.);
#65=ADVANCED_FACE('5:1644',(#111),#112,.T.);
#66=ADVANCED_FACE('5:342',(#113),#114,.T.);
#67=ADVANCED_FACE('5:132',(#115),#116,.T.);
#68=ADVANCED_FACE('5:1638',(#117),#118,.T.);
#69=ADVANCED_FACE('5:1212',(#119),#120,.T.);
#70=ADVANCED_FACE('5:774',(#121),#122,.T.);
#71=ADVANCED_FACE('5:1422',(#123),#124,.T.);
#72=ADVANCED_FACE('5:1206',(#125),#126,.T.);
#73=ADVANCED_FACE('5:996',(#127),#128,.T.);
#74=ADVANCED_FACE('5:558',(#129),#130,.T.);
#75=ADVANCED_FACE('5:348',(#131),#132,.T.);
#76=ADVANCED_FACE('5:9163',(#133),#134,.T.);
#77=ADVANCED_FACE('5:9143',(#135,#136,#137,#138,#139,#140,#141,#142,#143),#144,.T.);
#78=ADVANCED_FACE('5:8531',(#145),#146,.T.);
#79=ADVANCED_FACE('5:9156',(#147),#148,.T.);
#80=ADVANCED_FACE('5:9176',(#149,#150,#151,#152,#153,#154,#155,#156,#157),#158,.F.);
#82=SURFACE_STYLE_FILL_AREA(#159);
#83=FACE_OUTER_BOUND('',#160,.T.);
#84=PLANE('',#161);
#85=FACE_OUTER_BOUND('',#162,.T.);
#86=PLANE('',#163);
#87=FACE_OUTER_BOUND('',#164,.T.);
#88=PLANE('',#165);
#89=FACE_OUTER_BOUND('',#166,.T.);
#90=PLANE('',#167);
#91=FACE_OUTER_BOUND('',#168,.T.);
#92=PLANE('',#169);
#93=FACE_OUTER_BOUND('',#170,.T.);
#94=PLANE('',#171);
#95=FACE_OUTER_BOUND('',#172,.T.);
#96=PLANE('',#173);
#97=FACE_OUTER_BOUND('',#174,.T.);
#98=PLANE('',#175);
#99=FACE_OUTER_BOUND('',#176,.T.);
#100=PLANE('',#177);
#101=FACE_OUTER_BOUND('',#178,.T.);
#102=PLANE('',#179);
#103=FACE_OUTER_BOUND('',#180,.T.);
#104=PLANE('',#181);
#105=FACE_OUTER_BOUND('',#182,.T.);
#106=PLANE('',#183);
#107=FACE_OUTER_BOUND('',#184,.T.);
#108=PLANE('',#185);
#109=FACE_OUTER_BOUND('',#186,.T.);
#110=PLANE('',#187);
#111=FACE_OUTER_BOUND('',#188,.T.);
#112=PLANE('',#189);
#113=FACE_OUTER_BOUND('',#190,.T.);
#114=PLANE('',#191);
#115=FACE_OUTER_BOUND('',#192,.T.);
#116=PLANE('',#193);
#117=FACE_OUTER_BOUND('',#194,.T.);
#118=PLANE('',#195);
#119=FACE_OUTER_BOUND('',#196,.T.);
#120=PLANE('',#197);
#121=FACE_OUTER_BOUND('',#198,.T.);
#122=PLANE('',#199);
#123=FACE_OUTER_BOUND('',#200,.T.);
#124=PLANE('',#201);
#125=FACE_OUTER_BOUND('',#202,.T.);
#126=PLANE('',#203);
#127=FACE_OUTER_BOUND('',#204,.T.);
#128=PLANE('',#205);
#129=FACE_OUTER_BOUND('',#206,.T.);
#130=PLANE('',#207);
#131=FACE_OUTER_BOUND('',#208,.T.);
#132=PLANE('',#209);
#133=FACE_OUTER_BOUND('',#210,.T.);
#134=PLANE('',#211);
#135=FACE_OUTER_BOUND('',#212,.T.);
#136=FACE_BOUND('',#213,.T.);
#137=FACE_BOUND('',#214,.T.);
#138=FACE_BOUND('',#215,.T.);
#139=FACE_BOUND('',#216,.T.);
#140=FACE_BOUND('',#217,.T.);
#141=FACE_BOUND('',#218,.T.);
#142=FACE_BOUND('',#219,.T.);
#143=FACE_BOUND('',#220,.T.);
#144=PLANE('',#221);
#145=FACE_OUTER_BOUND('',#222,.T.);
#146=PLANE('',#223);
#147=FACE_OUTER_BOUND('',#224,.T.);
#148=PLANE('',#225);
#149=FACE_BOUND('',#226,.T.);
#150=FACE_BOUND('',#227,.T.);
#151=FACE_BOUND('',#228,.T.);
#152=FACE_BOUND('',#229,.T.);
#153=FACE_BOUND('',#230,.T.);
#154=FACE_BOUND('',#231,.T.);
#155=FACE_BOUND('',#232,.T.);
#156=FACE_BOUND('',#233,.T.);
#157=FACE_OUTER_BOUND('',#234,.T.);
#158=PLANE('',#235);
#159=FILL_AREA_STYLE('',(#236));
#160=EDGE_LOOP('',(#237,#238,#239,#240));
#161=AXIS2_PLACEMENT_3D('',#241,#242,#243);
#162=EDGE_LOOP('',(#244,#245,#246,#247));
#163=AXIS2_PLACEMENT_3D('',#248,#249,#250);
#164=EDGE_LOOP('',(#251,#252,#253,#254));
#165=AXIS2_PLACEMENT_3D('',#255,#256,#257);
#166=EDGE_LOOP('',(#258,#259,#260,#261));
#167=AXIS2_PLACEMENT_3D('',#262,#263,#264);
#168=EDGE_LOOP('',(#265,#266,#267,#268));
#169=AXIS2_PLACEMENT_3D('',#269,#270,#271);
#170=EDGE_LOOP('',(#272,#273,#274,#275));
#171=AXIS2_PLACEMENT_3D('',#276,#277,#278);
#172=EDGE_LOOP('',(#279,#280,#281,#282));
#173=AXIS2_PLACEMENT_3D('',#283,#284,#285);
#174=EDGE_LOOP('',(#286,#287,#288,#289));
#175=AXIS2_PLACEMENT_3D('',#290,#291,#292);
#176=EDGE_LOOP('',(#293,#294,#295,#296));
#177=AXIS2_PLACEMENT_3D('',#297,#298,#299);
#178=EDGE_LOOP('',(#300,#301,#302,#303));
#179=AXIS2_PLACEMENT_3D('',#304,#305,#306);
#180=EDGE_LOOP('',(#307,#308,#309,#310));
#181=AXIS2_PLACEMENT_3D('',#311,#312,#313);
#182=EDGE_LOOP('',(#314,#315,#316,#317));
#183=AXIS2_PLACEMENT_3D('',#318,#319,#320);
#184=EDGE_LOOP('',(#321,#322,#323,#324));
#185=AXIS2_PLACEMENT_3D('',#325,#326,#327);
#186=EDGE_LOOP('',(#328,#329,#330,#331));
#187=AXIS2_PLACEMENT_3D('',#332,#333,#334);
#188=EDGE_LOOP('',(#335,#336,#337,#338));
#189=AXIS2_PLACEMENT_3D('',#339,#340,#341);
#190=EDGE_LOOP('',(#342,#343,#344,#345));
#191=AXIS2_PLACEMENT_3D('',#346,#347,#348);
#192=EDGE_LOOP('',(#349,#350,#351,#352));
#193=AXIS2_PLACEMENT_3D('',#353,#354,#355);
#194=EDGE_LOOP('',(#356,#357,#358,#359));
#195=AXIS2_PLACEMENT_3D('',#360,#361,#362);
#196=EDGE_LOOP('',(#363,#364,#365,#366));
#197=AXIS2_PLACEMENT_3D('',#367,#368,#369);
#198=EDGE_LOOP('',(#370,#371,#372,#373));
#199=AXIS2_PLACEMENT_3D('',#374,#375,#376);
#200=EDGE_LOOP('',(#377,#378,#379,#380));
#201=AXIS2_PLACEMENT_3D('',#381,#382,#383);
#202=EDGE_LOOP('',(#384,#385,#386,#387));
#203=AXIS2_PLACEMENT_3D('',#388,#389,#390);
#204=EDGE_LOOP('',(#391,#392,#393,#394));
#205=AXIS2_PLACEMENT_3D('',#395,#396,#397);
#206=EDGE_LOOP('',(#398,#399,#400,#401));
#207=AXIS2_PLACEMENT_3D('',#402,#403,#404);
#208=EDGE_LOOP('',(#405,#406,#407,#408));
#209=AXIS2_PLACEMENT_3D('',#409,#410,#411);
#210=EDGE_LOOP('',(#412,#413,#414,#415));
#211=AXIS2_PLACEMENT_3D('',#416,#417,#418);
#212=EDGE_LOOP('',(#419,#420,#421,#422));
#213=EDGE_LOOP('',(#423,#424,#425));
#214=EDGE_LOOP('',(#426,#427,#428));
#215=EDGE_LOOP('',(#429,#430,#431));
#216=EDGE_LOOP('',(#432,#433,#434));
#217=EDGE_LOOP('',(#435,#436,#437));
#218=EDGE_LOOP('',(#438,#439,#440));
#219=EDGE_LOOP('',(#441,#442,#443));
#220=EDGE_LOOP('',(#444,#445,#446));
#221=AXIS2_PLACEMENT_3D('',#447,#448,#449);
#222=EDGE_LOOP('',(#450,#451,#452,#453));
#223=AXIS2_PLACEMENT_3D('',#454,#455,#456);
#224=EDGE_LOOP('',(#457,#458,#459,#460));
#225=AXIS2_PLACEMENT_3D('',#461,#462,#463);
#226=EDGE_LOOP('',(#464,#465,#466));
#227=EDGE_LOOP('',(#467,#468,#469));
#228=EDGE_LOOP('',(#470,#471,#472));
#229=EDGE_LOOP('',(#473,#474,#475));
#230=EDGE_LOOP('',(#476,#477,#478));
#231=EDGE_LOOP('',(#479,#480,#481));
#232=EDGE_LOOP('',(#482,#483,#484));
#233=EDGE_LOOP('',(#485,#486,#487));
#234=EDGE_LOOP('',(#488,#489,#490,#491));
#235=AXIS2_PLACEMENT_3D('',#492,#493,#494);
#236=FILL_AREA_STYLE_COLOUR('',#495);
#237=ORIENTED_EDGE('',*,*,#496,.F.);
#238=ORIENTED_EDGE('',*,*,#497,.F.);
#239=ORIENTED_EDGE('',*,*,#498,.F.);
#240=ORIENTED_EDGE('',*,*,#499,.F.);
#241=CARTESIAN_POINT('',(0.0,0.01,0.0));
#242=DIRECTION('',(0.0,1.0,0.0));
#243=DIRECTION('',(0.0,0.0,1.0));
#244=ORIENTED_EDGE('',*,*,#500,.F.);
#245=ORIENTED_EDGE('',*,*,#501,.T.);
#246=ORIENTED_EDGE('',*,*,#502,.F.);
#247=ORIENTED_EDGE('',*,*,#503,.T.);
#248=CARTESIAN_POINT('',(0.005,-0.009853553,0.0));
#249=DIRECTION('',(-0.0,1.0,0.0));
#250=DIRECTION('',(1.0,0.0,0.0));
#251=ORIENTED_EDGE('',*,*,#500,.T.);
#252=ORIENTED_EDGE('',*,*,#504,.T.);
#253=ORIENTED_EDGE('',*,*,#505,.F.);
#254=ORIENTED_EDGE('',*,*,#506,.T.);
#255=CARTESIAN_POINT('',(0.000146447,-0.005,0.0));
#256=DIRECTION('',(1.0,0.0,0.0));
#257=DIRECTION('',(0.0,-1.0,0.0));
#258=ORIENTED_EDGE('',*,*,#502,.T.);
#259=ORIENTED_EDGE('',*,*,#507,.T.);
#260=ORIENTED_EDGE('',*,*,#505,.T.);
#261=ORIENTED_EDGE('',*,*,#508,.T.);
#262=CARTESIAN_POINT('',(0.004896447,-0.005103553,0.0));
#263=DIRECTION('',(-0.707106781186548,-0.707106781186548,-0.0));
#264=DIRECTION('',(-0.707106781186548,0.707106781186548,0.0));
#265=ORIENTED_EDGE('',*,*,#509,.F.);
#266=ORIENTED_EDGE('',*,*,#510,.T.);
#267=ORIENTED_EDGE('',*,*,#511,.F.);
#268=ORIENTED_EDGE('',*,*,#512,.T.);
#269=CARTESIAN_POINT('',(-0.000146447,-0.005,0.0));
#270=DIRECTION('',(-1.0,0.0,0.0));
#271=DIRECTION('',(0.0,1.0,0.0));
#272=ORIENTED_EDGE('',*,*,#511,.T.);
#273=ORIENTED_EDGE('',*,*,#513,.T.);
#274=ORIENTED_EDGE('',*,*,#514,.T.);
#275=ORIENTED_EDGE('',*,*,#515,.T.);
#276=CARTESIAN_POINT('',(-0.004896447,-0.005103553,0.0));
#277=DIRECTION('',(0.707106781186548,-0.707106781186548,0.0));
#278=DIRECTION('',(-0.707106781186548,-0.707106781186548,0.0));
#279=ORIENTED_EDGE('',*,*,#516,.F.);
#280=ORIENTED_EDGE('',*,*,#517,.T.);
#281=ORIENTED_EDGE('',*,*,#518,.F.);
#282=ORIENTED_EDGE('',*,*,#519,.T.);
#283=CARTESIAN_POINT('',(0.005103553,-0.004896447,0.0));
#284=DIRECTION('',(0.707106781186548,0.707106781186548,0.0));
#285=DIRECTION('',(0.707106781186548,-0.707106781186548,0.0));
#286=ORIENTED_EDGE('',*,*,#509,.T.);
#287=ORIENTED_EDGE('',*,*,#520,.T.);
#288=ORIENTED_EDGE('',*,*,#514,.F.);
#289=ORIENTED_EDGE('',*,*,#521,.T.);
#290=CARTESIAN_POINT('',(-0.005,-0.009853553,0.0));
#291=DIRECTION('',(-0.0,1.0,0.0));
#292=DIRECTION('',(1.0,0.0,0.0));
#293=ORIENTED_EDGE('',*,*,#522,.F.);
#294=ORIENTED_EDGE('',*,*,#523,.T.);
#295=ORIENTED_EDGE('',*,*,#524,.F.);
#296=ORIENTED_EDGE('',*,*,#525,.T.);
#297=CARTESIAN_POINT('',(-0.005103553,-0.004896447,0.0));
#298=DIRECTION('',(-0.707106781186548,0.707106781186548,0.0));
#299=DIRECTION('',(0.707106781186548,0.707106781186548,0.0));
#300=ORIENTED_EDGE('',*,*,#526,.F.);
#301=ORIENTED_EDGE('',*,*,#527,.T.);
#302=ORIENTED_EDGE('',*,*,#528,.F.);
#303=ORIENTED_EDGE('',*,*,#529,.T.);
#304=CARTESIAN_POINT('',(-0.000146447,0.005,0.0));
#305=DIRECTION('',(-1.0,0.0,0.0));
#306=DIRECTION('',(0.0,1.0,0.0));
#307=ORIENTED_EDGE('',*,*,#530,.F.);
#308=ORIENTED_EDGE('',*,*,#531,.T.);
#309=ORIENTED_EDGE('',*,*,#532,.F.);
#310=ORIENTED_EDGE('',*,*,#533,.T.);
#311=CARTESIAN_POINT('',(0.000146447,0.005,0.0));
#312=DIRECTION('',(1.0,0.0,0.0));
#313=DIRECTION('',(0.0,-1.0,0.0));
#314=ORIENTED_EDGE('',*,*,#530,.T.);
#315=ORIENTED_EDGE('',*,*,#534,.T.);
#316=ORIENTED_EDGE('',*,*,#535,.T.);
#317=ORIENTED_EDGE('',*,*,#536,.T.);
#318=CARTESIAN_POINT('',(0.005,0.009853553,0.0));
#319=DIRECTION('',(-0.0,-1.0,-0.0));
#320=DIRECTION('',(-1.0,0.0,0.0));
#321=ORIENTED_EDGE('',*,*,#532,.T.);
#322=ORIENTED_EDGE('',*,*,#537,.T.);
#323=ORIENTED_EDGE('',*,*,#535,.F.);
#324=ORIENTED_EDGE('',*,*,#538,.T.);
#325=CARTESIAN_POINT('',(0.004896447,0.005103553,0.0));
#326=DIRECTION('',(-0.707106781186548,0.707106781186548,0.0));
#327=DIRECTION('',(0.707106781186548,0.707106781186548,0.0));
#328=ORIENTED_EDGE('',*,*,#539,.F.);
#329=ORIENTED_EDGE('',*,*,#540,.T.);
#330=ORIENTED_EDGE('',*,*,#541,.F.);
#331=ORIENTED_EDGE('',*,*,#542,.T.);
#332=CARTESIAN_POINT('',(0.005103553,0.004896447,0.0));
#333=DIRECTION('',(0.707106781186548,-0.707106781186548,0.0));
#334=DIRECTION('',(-0.707106781186548,-0.707106781186548,0.0));
#335=ORIENTED_EDGE('',*,*,#528,.T.);
#336=ORIENTED_EDGE('',*,*,#543,.T.);
#337=ORIENTED_EDGE('',*,*,#544,.F.);
#338=ORIENTED_EDGE('',*,*,#545,.T.);
#339=CARTESIAN_POINT('',(-0.004896447,0.005103553,0.0));
#340=DIRECTION('',(0.707106781186548,0.707106781186548,0.0));
#341=DIRECTION('',(0.707106781186548,-0.707106781186548,0.0));
#342=ORIENTED_EDGE('',*,*,#539,.T.);
#343=ORIENTED_EDGE('',*,*,#546,.T.);
#344=ORIENTED_EDGE('',*,*,#547,.F.);
#345=ORIENTED_EDGE('',*,*,#548,.T.);
#346=CARTESIAN_POINT('',(0.005,0.000146447,0.0));
#347=DIRECTION('',(-0.0,1.0,0.0));
#348=DIRECTION('',(1.0,0.0,0.0));
#349=ORIENTED_EDGE('',*,*,#541,.T.);
#350=ORIENTED_EDGE('',*,*,#549,.T.);
#351=ORIENTED_EDGE('',*,*,#547,.T.);
#352=ORIENTED_EDGE('',*,*,#550,.T.);
#353=CARTESIAN_POINT('',(0.009853553,0.005,0.0));
#354=DIRECTION('',(-1.0,0.0,0.0));
#355=DIRECTION('',(0.0,1.0,0.0));
#356=ORIENTED_EDGE('',*,*,#551,.F.);
#357=ORIENTED_EDGE('',*,*,#552,.T.);
#358=ORIENTED_EDGE('',*,*,#553,.F.);
#359=ORIENTED_EDGE('',*,*,#554,.T.);
#360=CARTESIAN_POINT('',(-0.005103553,0.004896447,0.0));
#361=DIRECTION('',(-0.707106781186548,-0.707106781186548,-0.0));
#362=DIRECTION('',(-0.707106781186548,0.707106781186548,0.0));
#363=ORIENTED_EDGE('',*,*,#551,.T.);
#364=ORIENTED_EDGE('',*,*,#555,.T.);
#365=ORIENTED_EDGE('',*,*,#556,.F.);
#366=ORIENTED_EDGE('',*,*,#557,.T.);
#367=CARTESIAN_POINT('',(-0.005,0.000146447,0.0));
#368=DIRECTION('',(-0.0,1.0,0.0));
#369=DIRECTION('',(1.0,0.0,0.0));
#370=ORIENTED_EDGE('',*,*,#553,.T.);
#371=ORIENTED_EDGE('',*,*,#558,.T.);
#372=ORIENTED_EDGE('',*,*,#556,.T.);
#373=ORIENTED_EDGE('',*,*,#559,.T.);
#374=CARTESIAN_POINT('',(-0.009853553,0.005,0.0));
#375=DIRECTION('',(1.0,0.0,0.0));
#376=DIRECTION('',(0.0,-1.0,0.0));
#377=ORIENTED_EDGE('',*,*,#526,.T.);
#378=ORIENTED_EDGE('',*,*,#560,.T.);
#379=ORIENTED_EDGE('',*,*,#544,.T.);
#380=ORIENTED_EDGE('',*,*,#561,.T.);
#381=CARTESIAN_POINT('',(-0.005,0.009853553,0.0));
#382=DIRECTION('',(-0.0,-1.0,-0.0));
#383=DIRECTION('',(-1.0,0.0,0.0));
#384=ORIENTED_EDGE('',*,*,#522,.T.);
#385=ORIENTED_EDGE('',*,*,#562,.T.);
#386=ORIENTED_EDGE('',*,*,#563,.F.);
#387=ORIENTED_EDGE('',*,*,#564,.T.);
#388=CARTESIAN_POINT('',(-0.005,-0.000146447,0.0));
#389=DIRECTION('',(-0.0,-1.0,-0.0));
#390=DIRECTION('',(-1.0,0.0,0.0));
#391=ORIENTED_EDGE('',*,*,#524,.T.);
#392=ORIENTED_EDGE('',*,*,#565,.T.);
#393=ORIENTED_EDGE('',*,*,#563,.T.);
#394=ORIENTED_EDGE('',*,*,#566,.T.);
#395=CARTESIAN_POINT('',(-0.009853553,-0.005,0.0));
#396=DIRECTION('',(1.0,0.0,0.0));
#397=DIRECTION('',(0.0,-1.0,0.0));
#398=ORIENTED_EDGE('',*,*,#516,.T.);
#399=ORIENTED_EDGE('',*,*,#567,.T.);
#400=ORIENTED_EDGE('',*,*,#568,.F.);
#401=ORIENTED_EDGE('',*,*,#569,.T.);
#402=CARTESIAN_POINT('',(0.009853553,-0.005,0.0));
#403=DIRECTION('',(-1.0,0.0,0.0));
#404=DIRECTION('',(0.0,1.0,0.0));
#405=ORIENTED_EDGE('',*,*,#518,.T.);
#406=ORIENTED_EDGE('',*,*,#570,.T.);
#407=ORIENTED_EDGE('',*,*,#568,.T.);
#408=ORIENTED_EDGE('',*,*,#571,.T.);
#409=CARTESIAN_POINT('',(0.005,-0.000146447,0.0));
#410=DIRECTION('',(-0.0,-1.0,-0.0));
#411=DIRECTION('',(-1.0,0.0,0.0));
#412=ORIENTED_EDGE('',*,*,#499,.T.);
#413=ORIENTED_EDGE('',*,*,#572,.F.);
#414=ORIENTED_EDGE('',*,*,#573,.F.);
#415=ORIENTED_EDGE('',*,*,#574,.F.);
#416=CARTESIAN_POINT('',(0.01,-0.01,0.0));
#417=DIRECTION('',(1.0,0.0,0.0));
#418=DIRECTION('',(0.0,-1.0,0.0));
#419=ORIENTED_EDGE('',*,*,#496,.T.);
#420=ORIENTED_EDGE('',*,*,#574,.T.);
#421=ORIENTED_EDGE('',*,*,#575,.F.);
#422=ORIENTED_EDGE('',*,*,#576,.F.);
#423=ORIENTED_EDGE('',*,*,#564,.F.);
#424=ORIENTED_EDGE('',*,*,#565,.F.);
#425=ORIENTED_EDGE('',*,*,#523,.F.);
#426=ORIENTED_EDGE('',*,*,#559,.F.);
#427=ORIENTED_EDGE('',*,*,#555,.F.);
#428=ORIENTED_EDGE('',*,*,#554,.F.);
#429=ORIENTED_EDGE('',*,*,#561,.F.);
#430=ORIENTED_EDGE('',*,*,#543,.F.);
#431=ORIENTED_EDGE('',*,*,#527,.F.);
#432=ORIENTED_EDGE('',*,*,#538,.F.);
#433=ORIENTED_EDGE('',*,*,#534,.F.);
#434=ORIENTED_EDGE('',*,*,#533,.F.);
#435=ORIENTED_EDGE('',*,*,#548,.F.);
#436=ORIENTED_EDGE('',*,*,#549,.F.);
#437=ORIENTED_EDGE('',*,*,#540,.F.);
#438=ORIENTED_EDGE('',*,*,#515,.F.);
#439=ORIENTED_EDGE('',*,*,#520,.F.);
#440=ORIENTED_EDGE('',*,*,#512,.F.);
#441=ORIENTED_EDGE('',*,*,#508,.F.);
#442=ORIENTED_EDGE('',*,*,#504,.F.);
#443=ORIENTED_EDGE('',*,*,#503,.F.);
#444=ORIENTED_EDGE('',*,*,#569,.F.);
#445=ORIENTED_EDGE('',*,*,#570,.F.);
#446=ORIENTED_EDGE('',*,*,#517,.F.);
#447=CARTESIAN_POINT('',(-0.010146447,0.0,-0.0001464465));
#448=DIRECTION('',(0.0,0.0,-1.0));
#449=DIRECTION('',(-1.0,0.0,0.0));
#450=ORIENTED_EDGE('',*,*,#577,.F.);
#451=ORIENTED_EDGE('',*,*,#575,.T.);
#452=ORIENTED_EDGE('',*,*,#573,.T.);
#453=ORIENTED_EDGE('',*,*,#578,.T.);
#454=CARTESIAN_POINT('',(-0.01,-0.01,0.0));
#455=DIRECTION('',(-0.0,-1.0,-0.0));
#456=DIRECTION('',(-1.0,0.0,0.0));
#457=ORIENTED_EDGE('',*,*,#497,.T.);
#458=ORIENTED_EDGE('',*,*,#576,.T.);
#459=ORIENTED_EDGE('',*,*,#577,.T.);
#460=ORIENTED_EDGE('',*,*,#579,.T.);
#461=CARTESIAN_POINT('',(-0.01,0.01,0.0));
#462=DIRECTION('',(-1.0,0.0,0.0));
#463=DIRECTION('',(0.0,1.0,0.0));
#464=ORIENTED_EDGE('',*,*,#571,.F.);
#465=ORIENTED_EDGE('',*,*,#567,.F.);
#466=ORIENTED_EDGE('',*,*,#519,.F.);
#467=ORIENTED_EDGE('',*,*,#545,.F.);
#468=ORIENTED_EDGE('',*,*,#560,.F.);
#469=ORIENTED_EDGE('',*,*,#529,.F.);
#470=ORIENTED_EDGE('',*,*,#557,.F.);
#471=ORIENTED_EDGE('',*,*,#558,.F.);
#472=ORIENTED_EDGE('',*,*,#552,.F.);
#473=ORIENTED_EDGE('',*,*,#536,.F.);
#474=ORIENTED_EDGE('',*,*,#537,.F.);
#475=ORIENTED_EDGE('',*,*,#531,.F.);
#476=ORIENTED_EDGE('',*,*,#521,.F.);
#477=ORIENTED_EDGE('',*,*,#513,.F.);
#478=ORIENTED_EDGE('',*,*,#510,.F.);
#479=ORIENTED_EDGE('',*,*,#506,.F.);
#480=ORIENTED_EDGE('',*,*,#507,.F.);
#481=ORIENTED_EDGE('',*,*,#501,.F.);
#482=ORIENTED_EDGE('',*,*,#550,.F.);
#483=ORIENTED_EDGE('',*,*,#546,.F.);
#484=ORIENTED_EDGE('',*,*,#542,.F.);
#485=ORIENTED_EDGE('',*,*,#566,.F.);
#486=ORIENTED_EDGE('',*,*,#562,.F.);
#487=ORIENTED_EDGE('',*,*,#525,.F.);
#488=ORIENTED_EDGE('',*,*,#498,.T.);
#489=ORIENTED_EDGE('',*,*,#579,.F.);
#490=ORIENTED_EDGE('',*,*,#578,.F.);
#491=ORIENTED_EDGE('',*,*,#572,.T.);
#492=CARTESIAN_POINT('',(-0.010146447,0.0,0.0001464465));
#493=DIRECTION('',(0.0,0.0,-1.0));
#494=DIRECTION('',(-1.0,0.0,0.0));
#495=COLOUR_RGB('',0.560784339904785,0.686274528503418,0.560784339904785);
#496=EDGE_CURVE('5:9206',#580,#581,#582,.T.);
#497=EDGE_CURVE('5:9209',#583,#580,#584,.T.);
#498=EDGE_CURVE('5:9215',#585,#583,#586,.T.);
#499=EDGE_CURVE('5:9212',#581,#585,#587,.T.);
#500=EDGE_CURVE('5:4734',#588,#589,#590,.T.);
#501=EDGE_CURVE('5:3501',#588,#591,#592,.T.);
#502=EDGE_CURVE('5:4737',#593,#591,#594,.T.);
#503=EDGE_CURVE('5:3384',#593,#589,#595,.T.);
#504=EDGE_CURVE('5:3189',#589,#596,#597,.T.);
#505=EDGE_CURVE('5:4710',#598,#596,#599,.T.);
#506=EDGE_CURVE('5:3264',#598,#588,#600,.T.);
#507=EDGE_CURVE('5:3069',#591,#598,#601,.T.);
#508=EDGE_CURVE('5:2952',#596,#593,#602,.T.);
#509=EDGE_CURVE('5:4728',#603,#604,#605,.T.);
#510=EDGE_CURVE('5:3285',#603,#606,#607,.T.);
#511=EDGE_CURVE('5:4689',#608,#606,#609,.T.);
#512=EDGE_CURVE('5:3168',#608,#604,#610,.T.);
#513=EDGE_CURVE('5:2637',#606,#611,#612,.T.);
#514=EDGE_CURVE('5:4632',#611,#613,#614,.T.);
#515=EDGE_CURVE('5:2520',#613,#608,#615,.T.);
#516=EDGE_CURVE('5:4659',#616,#617,#618,.T.);
#517=EDGE_CURVE('5:2973',#616,#619,#620,.T.);
#518=EDGE_CURVE('5:4662',#621,#619,#622,.T.);
#519=EDGE_CURVE('5:3048',#621,#617,#623,.T.);
#520=EDGE_CURVE('5:2757',#604,#613,#624,.T.);
#521=EDGE_CURVE('5:2832',#611,#603,#625,.T.);
#522=EDGE_CURVE('5:4605',#626,#627,#628,.T.);
#523=EDGE_CURVE('5:2541',#626,#629,#630,.T.);
#524=EDGE_CURVE('5:4623',#631,#629,#632,.T.);
#525=EDGE_CURVE('5:2616',#631,#627,#633,.T.);
#526=EDGE_CURVE('5:4560',#634,#635,#636,.T.);
#527=EDGE_CURVE('5:2304',#634,#637,#638,.T.);
#528=EDGE_CURVE('5:4587',#639,#637,#640,.T.);
#529=EDGE_CURVE('5:2421',#639,#635,#641,.T.);
#530=EDGE_CURVE('5:4566',#642,#643,#644,.T.);
#531=EDGE_CURVE('5:2400',#642,#645,#646,.T.);
#532=EDGE_CURVE('5:4563',#647,#645,#648,.T.);
#533=EDGE_CURVE('5:2325',#647,#643,#649,.T.);
#534=EDGE_CURVE('5:1893',#643,#650,#651,.T.);
#535=EDGE_CURVE('5:4524',#650,#652,#653,.T.);
#536=EDGE_CURVE('5:1968',#652,#642,#654,.T.);
#537=EDGE_CURVE('5:2205',#645,#652,#655,.T.);
#538=EDGE_CURVE('5:2088',#650,#647,#656,.T.);
#539=EDGE_CURVE('5:4533',#657,#658,#659,.T.);
#540=EDGE_CURVE('5:2109',#657,#660,#661,.T.);
#541=EDGE_CURVE('5:4542',#662,#660,#663,.T.);
#542=EDGE_CURVE('5:2184',#662,#658,#664,.T.);
#543=EDGE_CURVE('5:1677',#637,#665,#666,.T.);
#544=EDGE_CURVE('5:4491',#667,#665,#668,.T.);
#545=EDGE_CURVE('5:1752',#667,#639,#669,.T.);
#546=EDGE_CURVE('5:477',#658,#670,#671,.T.);
#547=EDGE_CURVE('5:4434',#672,#670,#673,.T.);
#548=EDGE_CURVE('5:360',#672,#657,#674,.T.);
#549=EDGE_CURVE('5:165',#660,#672,#675,.T.);
#550=EDGE_CURVE('5:240',#670,#662,#676,.T.);
#551=EDGE_CURVE('5:4485',#677,#678,#679,.T.);
#552=EDGE_CURVE('5:1773',#677,#680,#681,.T.);
#553=EDGE_CURVE('5:4482',#682,#680,#683,.T.);
#554=EDGE_CURVE('5:1656',#682,#678,#684,.T.);
#555=EDGE_CURVE('5:1245',#678,#685,#686,.T.);
#556=EDGE_CURVE('5:4461',#687,#685,#688,.T.);
#557=EDGE_CURVE('5:1320',#687,#677,#689,.T.);
#558=EDGE_CURVE('5:909',#680,#687,#690,.T.);
#559=EDGE_CURVE('5:792',#685,#682,#691,.T.);
#560=EDGE_CURVE('5:1557',#635,#667,#692,.T.);
#561=EDGE_CURVE('5:1440',#665,#634,#693,.T.);
#562=EDGE_CURVE('5:1341',#627,#694,#695,.T.);
#563=EDGE_CURVE('5:4452',#696,#694,#697,.T.);
#564=EDGE_CURVE('5:1224',#696,#626,#698,.T.);
#565=EDGE_CURVE('5:1029',#629,#696,#699,.T.);
#566=EDGE_CURVE('5:1104',#694,#631,#700,.T.);
#567=EDGE_CURVE('5:693',#617,#701,#702,.T.);
#568=EDGE_CURVE('5:4446',#703,#701,#704,.T.);
#569=EDGE_CURVE('5:576',#703,#616,#705,.T.);
#570=EDGE_CURVE('5:381',#619,#703,#706,.T.);
#571=EDGE_CURVE('5:456',#701,#621,#707,.T.);
#572=EDGE_CURVE('5:9251',#708,#585,#709,.T.);
#573=EDGE_CURVE('5:7902',#710,#708,#711,.T.);
#574=EDGE_CURVE('5:9233',#581,#710,#712,.T.);
#575=EDGE_CURVE('5:8584',#713,#710,#714,.T.);
#576=EDGE_CURVE('5:9222',#580,#713,#715,.T.);
#577=EDGE_CURVE('5:8565',#713,#716,#717,.T.);
#578=EDGE_CURVE('5:8591',#708,#716,#718,.T.);
#579=EDGE_CURVE('5:9241',#716,#583,#719,.T.);
#580=VERTEX_POINT('',#720);
#581=VERTEX_POINT('',#721);
#582=LINE('',#722,#723);
#583=VERTEX_POINT('',#724);
#584=LINE('',#725,#726);
#585=VERTEX_POINT('',#727);
#586=LINE('',#728,#729);
#587=LINE('',#730,#731);
#588=VERTEX_POINT('',#732);
#589=VERTEX_POINT('',#733);
#590=LINE('',#734,#735);
#591=VERTEX_POINT('',#736);
#592=LINE('',#737,#738);
#593=VERTEX_POINT('',#739);
#594=LINE('',#740,#741);
#595=LINE('',#742,#743);
#596=VERTEX_POINT('',#744);
#597=LINE('',#745,#746);
#598=VERTEX_POINT('',#747);
#599=LINE('',#748,#749);
#600=LINE('',#750,#751);
#601=LINE('',#752,#753);
#602=LINE('',#754,#755);
#603=VERTEX_POINT('',#756);
#604=VERTEX_POINT('',#757);
#605=LINE('',#758,#759);
#606=VERTEX_POINT('',#760);
#607=LINE('',#761,#762);
#608=VERTEX_POINT('',#763);
#609=LINE('',#764,#765);
#610=LINE('',#766,#767);
#611=VERTEX_POINT('',#768);
#612=LINE('',#769,#770);
#613=VERTEX_POINT('',#771);
#614=LINE('',#772,#773);
#615=LINE('',#774,#775);
#616=VERTEX_POINT('',#776);
#617=VERTEX_POINT('',#777);
#618=LINE('',#778,#779);
#619=VERTEX_POINT('',#780);
#620=LINE('',#781,#782);
#621=VERTEX_POINT('',#783);
#622=LINE('',#784,#785);
#623=LINE('',#786,#787);
#624=LINE('',#788,#789);
#625=LINE('',#790,#791);
#626=VERTEX_POINT('',#792);
#627=VERTEX_POINT('',#793);
#628=LINE('',#794,#795);
#629=VERTEX_POINT('',#796);
#630=LINE('',#797,#798);
#631=VERTEX_POINT('',#799);
#632=LINE('',#800,#801);
#633=LINE('',#802,#803);
#634=VERTEX_POINT('',#804);
#635=VERTEX_POINT('',#805);
#636=LINE('',#806,#807);
#637=VERTEX_POINT('',#808);
#638=LINE('',#809,#810);
#639=VERTEX_POINT('',#811);
#640=LINE('',#812,#813);
#641=LINE('',#814,#815);
#642=VERTEX_POINT('',#816);
#643=VERTEX_POINT('',#817);
#644=LINE('',#818,#819);
#645=VERTEX_POINT('',#820);
#646=LINE('',#821,#822);
#647=VERTEX_POINT('',#823);
#648=LINE('',#824,#825);
#649=LINE('',#826,#827);
#650=VERTEX_POINT('',#828);
#651=LINE('',#829,#830);
#652=VERTEX_POINT('',#831);
#653=LINE('',#832,#833);
#654=LINE('',#834,#835);
#655=LINE('',#836,#837);
#656=LINE('',#838,#839);
#657=VERTEX_POINT('',#840);
#658=VERTEX_POINT('',#841);
#659=LINE('',#842,#843);
#660=VERTEX_POINT('',#844);
#661=LINE('',#845,#846);
#662=VERTEX_POINT('',#847);
#663=LINE('',#848,#849);
#664=LINE('',#850,#851);
#665=VERTEX_POINT('',#852);
#666=LINE('',#853,#854);
#667=VERTEX_POINT('',#855);
#668=LINE('',#856,#857);
#669=LINE('',#858,#859);
#670=VERTEX_POINT('',#860);
#671=LINE('',#861,#862);
#672=VERTEX_POINT('',#863);
#673=LINE('',#864,#865);
#674=LINE('',#866,#867);
#675=LINE('',#868,#869);
#676=LINE('',#870,#871);
#677=VERTEX_POINT('',#872);
#678=VERTEX_POINT('',#873);
#679=LINE('',#874,#875);
#680=VERTEX_POINT('',#876);
#681=LINE('',#877,#878);
#682=VERTEX_POINT('',#879);
#683=LINE('',#880,#881);
#684=LINE('',#882,#883);
#685=VERTEX_POINT('',#884);
#686=LINE('',#885,#886);
#687=VERTEX_POINT('',#887);
#688=LINE('',#888,#889);
#689=LINE('',#890,#891);
#690=LINE('',#892,#893);
#691=LINE('',#894,#895);
#692=LINE('',#896,#897);
#693=LINE('',#898,#899);
#694=VERTEX_POINT('',#900);
#695=LINE('',#901,#902);
#696=VERTEX_POINT('',#903);
#697=LINE('',#904,#905);
#698=LINE('',#906,#907);
#699=LINE('',#908,#909);
#700=LINE('',#910,#911);
#701=VERTEX_POINT('',#912);
#702=LINE('',#913,#914);
#703=VERTEX_POINT('',#915);
#704=LINE('',#916,#917);
#705=LINE('',#918,#919);
#706=LINE('',#920,#921);
#707=LINE('',#922,#923);
#708=VERTEX_POINT('',#924);
#709=LINE('',#925,#926);
#710=VERTEX_POINT('',#927);
#711=LINE('',#928,#929);
#712=LINE('',#930,#931);
#713=VERTEX_POINT('',#932);
#714=LINE('',#933,#934);
#715=LINE('',#935,#936);
#716=VERTEX_POINT('',#937);
#717=LINE('',#938,#939);
#718=LINE('',#940,#941);
#719=LINE('',#942,#943);
#720=CARTESIAN_POINT('',(-0.01,0.01,-0.0001464465));
#721=CARTESIAN_POINT('',(0.01,0.01,-0.0001464465));
#722=CARTESIAN_POINT('',(-0.0050732235,0.01,-0.0001464465));
#723=VECTOR('',#944,1.0);
#724=CARTESIAN_POINT('',(-0.01,0.01,0.0001464465));
#725=CARTESIAN_POINT('',(-0.01,0.01,0.0));
#726=VECTOR('',#945,1.0);
#727=CARTESIAN_POINT('',(0.01,0.01,0.0001464465));
#728=CARTESIAN_POINT('',(-0.0050732235,0.01,0.0001464465));
#729=VECTOR('',#946,1.0);
#730=CARTESIAN_POINT('',(0.01,0.01,0.0));
#731=VECTOR('',#947,1.0);
#732=CARTESIAN_POINT('',(0.000146447,-0.009853553,0.0001464465));
#733=CARTESIAN_POINT('',(0.000146447,-0.009853553,-0.0001464465));
#734=CARTESIAN_POINT('',(0.000146447,-0.009853553,0.0));
#735=VECTOR('',#948,1.0);
#736=CARTESIAN_POINT('',(0.009646447,-0.009853553,0.0001464465));
#737=CARTESIAN_POINT('',(0.0,-0.009853553,0.0001464465));
#738=VECTOR('',#949,1.0);
#739=CARTESIAN_POINT('',(0.009646447,-0.009853553,-0.0001464465));
#740=CARTESIAN_POINT('',(0.009646447,-0.009853553,0.0));
#741=VECTOR('',#950,1.0);
#742=CARTESIAN_POINT('',(0.0,-0.009853553,-0.0001464465));
#743=VECTOR('',#951,1.0);
#744=CARTESIAN_POINT('',(0.000146447,-0.000353552999999999,-0.0001464465));
#745=CARTESIAN_POINT('',(0.000146447,0.0,-0.0001464465));
#746=VECTOR('',#952,1.0);
#747=CARTESIAN_POINT('',(0.000146447,-0.000353552999999999,0.0001464465));
#748=CARTESIAN_POINT('',(0.000146447,-0.000353552999999999,0.0));
#749=VECTOR('',#953,1.0);
#750=CARTESIAN_POINT('',(0.000146447,0.0,0.0001464465));
#751=VECTOR('',#954,1.0);
#752=CARTESIAN_POINT('',(0.009896447,-0.010103553,0.0001464465));
#753=VECTOR('',#955,1.0);
#754=CARTESIAN_POINT('',(0.009896447,-0.010103553,-0.0001464465));
#755=VECTOR('',#956,1.0);
#756=CARTESIAN_POINT('',(-0.000146447,-0.009853553,0.0001464465));
#757=CARTESIAN_POINT('',(-0.000146447,-0.009853553,-0.0001464465));
#758=CARTESIAN_POINT('',(-0.000146447,-0.009853553,0.0));
#759=VECTOR('',#957,1.0);
#760=CARTESIAN_POINT('',(-0.000146447,-0.000353553000000001,0.0001464465));
#761=CARTESIAN_POINT('',(-0.000146447,-0.01,0.0001464465));
#762=VECTOR('',#958,1.0);
#763=CARTESIAN_POINT('',(-0.000146447,-0.000353553,-0.0001464465));
#764=CARTESIAN_POINT('',(-0.000146447,-0.000353553000000001,0.0));
#765=VECTOR('',#959,1.0);
#766=CARTESIAN_POINT('',(-0.000146447,-0.01,-0.0001464465));
#767=VECTOR('',#960,1.0);
#768=CARTESIAN_POINT('',(-0.009646447,-0.009853553,0.0001464465));
#769=CARTESIAN_POINT('',(0.000103553,-0.000103553,0.0001464465));
#770=VECTOR('',#961,1.0);
#771=CARTESIAN_POINT('',(-0.009646447,-0.009853553,-0.0001464465));
#772=CARTESIAN_POINT('',(-0.009646447,-0.009853553,0.0));
#773=VECTOR('',#962,1.0);
#774=CARTESIAN_POINT('',(0.000103553,-0.000103553,-0.0001464465));
#775=VECTOR('',#963,1.0);
#776=CARTESIAN_POINT('',(0.009853553,-0.009646447,-0.0001464465));
#777=CARTESIAN_POINT('',(0.009853553,-0.009646447,0.0001464465));
#778=CARTESIAN_POINT('',(0.009853553,-0.009646447,0.0));
#779=VECTOR('',#964,1.0);
#780=CARTESIAN_POINT('',(0.000353553000000001,-0.000146447,-0.0001464465));
#781=CARTESIAN_POINT('',(0.000103553,0.000103553,-0.0001464465));
#782=VECTOR('',#965,1.0);
#783=CARTESIAN_POINT('',(0.000353553000000001,-0.000146447,0.0001464465));
#784=CARTESIAN_POINT('',(0.000353553,-0.000146447000000001,0.0));
#785=VECTOR('',#966,1.0);
#786=CARTESIAN_POINT('',(0.000103553,0.000103553,0.0001464465));
#787=VECTOR('',#967,1.0);
#788=CARTESIAN_POINT('',(-0.01,-0.009853553,-0.0001464465));
#789=VECTOR('',#968,1.0);
#790=CARTESIAN_POINT('',(-0.01,-0.009853553,0.0001464465));
#791=VECTOR('',#969,1.0);
#792=CARTESIAN_POINT('',(-0.000353552999999998,-0.000146446999999999,-0.0001464465));
#793=CARTESIAN_POINT('',(-0.000353552999999999,-0.000146447,0.0001464465));
#794=CARTESIAN_POINT('',(-0.000353552999999998,-0.000146447000000001,0.0));
#795=VECTOR('',#970,1.0);
#796=CARTESIAN_POINT('',(-0.009853553,-0.009646447,-0.0001464465));
#797=CARTESIAN_POINT('',(-0.010103553,-0.009896447,-0.0001464465));
#798=VECTOR('',#971,1.0);
#799=CARTESIAN_POINT('',(-0.009853553,-0.009646447,0.0001464465));
#800=CARTESIAN_POINT('',(-0.009853553,-0.009646447,0.0));
#801=VECTOR('',#972,1.0);
#802=CARTESIAN_POINT('',(-0.010103553,-0.009896447,0.0001464465));
#803=VECTOR('',#973,1.0);
#804=CARTESIAN_POINT('',(-0.000146447,0.009853553,-0.0001464465));
#805=CARTESIAN_POINT('',(-0.000146447,0.009853553,0.0001464465));
#806=CARTESIAN_POINT('',(-0.000146447,0.009853553,0.0));
#807=VECTOR('',#974,1.0);
#808=CARTESIAN_POINT('',(-0.000146447,0.000353552999999999,-0.0001464465));
#809=CARTESIAN_POINT('',(-0.000146447,0.0,-0.0001464465));
#810=VECTOR('',#975,1.0);
#811=CARTESIAN_POINT('',(-0.000146446999999999,0.000353552999999998,0.0001464465));
#812=CARTESIAN_POINT('',(-0.000146447,0.000353552999999999,0.0));
#813=VECTOR('',#976,1.0);
#814=CARTESIAN_POINT('',(-0.000146447,0.0,0.0001464465));
#815=VECTOR('',#977,1.0);
#816=CARTESIAN_POINT('',(0.000146447,0.009853553,0.0001464465));
#817=CARTESIAN_POINT('',(0.000146446999999999,0.009853553,-0.0001464465));
#818=CARTESIAN_POINT('',(0.000146447,0.009853553,0.0));
#819=VECTOR('',#978,1.0);
#820=CARTESIAN_POINT('',(0.000146447,0.000353553,0.0001464465));
#821=CARTESIAN_POINT('',(0.000146447,0.01,0.0001464465));
#822=VECTOR('',#979,1.0);
#823=CARTESIAN_POINT('',(0.000146447,0.000353553,-0.0001464465));
#824=CARTESIAN_POINT('',(0.000146447,0.000353553000000001,0.0));
#825=VECTOR('',#980,1.0);
#826=CARTESIAN_POINT('',(0.000146447,0.01,-0.0001464465));
#827=VECTOR('',#981,1.0);
#828=CARTESIAN_POINT('',(0.009646447,0.009853553,-0.0001464465));
#829=CARTESIAN_POINT('',(0.01,0.009853553,-0.0001464465));
#830=VECTOR('',#982,1.0);
#831=CARTESIAN_POINT('',(0.009646447,0.009853553,0.0001464465));
#832=CARTESIAN_POINT('',(0.009646447,0.009853553,0.0));
#833=VECTOR('',#983,1.0);
#834=CARTESIAN_POINT('',(0.01,0.009853553,0.0001464465));
#835=VECTOR('',#984,1.0);
#836=CARTESIAN_POINT('',(-0.000103553,0.000103553,0.0001464465));
#837=VECTOR('',#985,1.0);
#838=CARTESIAN_POINT('',(-0.000103553,0.000103553,-0.0001464465));
#839=VECTOR('',#986,1.0);
#840=CARTESIAN_POINT('',(0.000353552999999999,0.000146447,-0.0001464465));
#841=CARTESIAN_POINT('',(0.000353552999999999,0.000146447,0.0001464465));
#842=CARTESIAN_POINT('',(0.000353552999999998,0.000146447000000001,0.0));
#843=VECTOR('',#987,1.0);
#844=CARTESIAN_POINT('',(0.009853553,0.009646447,-0.0001464465));
#845=CARTESIAN_POINT('',(0.010103553,0.009896447,-0.0001464465));
#846=VECTOR('',#988,1.0);
#847=CARTESIAN_POINT('',(0.009853553,0.009646447,0.0001464465));
#848=CARTESIAN_POINT('',(0.009853553,0.009646447,0.0));
#849=VECTOR('',#989,1.0);
#850=CARTESIAN_POINT('',(0.010103553,0.009896447,0.0001464465));
#851=VECTOR('',#990,1.0);
#852=CARTESIAN_POINT('',(-0.009646447,0.009853553,-0.0001464465));
#853=CARTESIAN_POINT('',(-0.009896447,0.010103553,-0.0001464465));
#854=VECTOR('',#991,1.0);
#855=CARTESIAN_POINT('',(-0.009646447,0.009853553,0.0001464465));
#856=CARTESIAN_POINT('',(-0.009646447,0.009853553,0.0));
#857=VECTOR('',#992,1.0);
#858=CARTESIAN_POINT('',(-0.009896447,0.010103553,0.0001464465));
#859=VECTOR('',#993,1.0);
#860=CARTESIAN_POINT('',(0.009853553,0.000146447,0.0001464465));
#861=CARTESIAN_POINT('',(0.0,0.000146447,0.0001464465));
#862=VECTOR('',#994,1.0);
#863=CARTESIAN_POINT('',(0.009853553,0.000146447,-0.0001464465));
#864=CARTESIAN_POINT('',(0.009853553,0.000146447,0.0));
#865=VECTOR('',#995,1.0);
#866=CARTESIAN_POINT('',(0.0,0.000146447,-0.0001464465));
#867=VECTOR('',#996,1.0);
#868=CARTESIAN_POINT('',(0.009853553,0.0,-0.0001464465));
#869=VECTOR('',#997,1.0);
#870=CARTESIAN_POINT('',(0.009853553,0.0,0.0001464465));
#871=VECTOR('',#998,1.0);
#872=CARTESIAN_POINT('',(-0.000353553,0.000146447,0.0001464465));
#873=CARTESIAN_POINT('',(-0.000353553000000001,0.000146447,-0.0001464465));
#874=CARTESIAN_POINT('',(-0.000353553,0.000146447000000001,0.0));
#875=VECTOR('',#999,1.0);
#876=CARTESIAN_POINT('',(-0.009853553,0.009646447,0.0001464465));
#877=CARTESIAN_POINT('',(-0.000103553,-0.000103553,0.0001464465));
#878=VECTOR('',#1000,1.0);
#879=CARTESIAN_POINT('',(-0.009853553,0.009646447,-0.0001464465));
#880=CARTESIAN_POINT('',(-0.009853553,0.009646447,0.0));
#881=VECTOR('',#1001,1.0);
#882=CARTESIAN_POINT('',(-0.000103553,-0.000103553,-0.0001464465));
#883=VECTOR('',#1002,1.0);
#884=CARTESIAN_POINT('',(-0.009853553,0.000146447,-0.0001464465));
#885=CARTESIAN_POINT('',(-0.01,0.000146447,-0.0001464465));
#886=VECTOR('',#1003,1.0);
#887=CARTESIAN_POINT('',(-0.009853553,0.000146447,0.0001464465));
#888=CARTESIAN_POINT('',(-0.009853553,0.000146447,0.0));
#889=VECTOR('',#1004,1.0);
#890=CARTESIAN_POINT('',(-0.01,0.000146447,0.0001464465));
#891=VECTOR('',#1005,1.0);
#892=CARTESIAN_POINT('',(-0.009853553,0.01,0.0001464465));
#893=VECTOR('',#1006,1.0);
#894=CARTESIAN_POINT('',(-0.009853553,0.01,-0.0001464465));
#895=VECTOR('',#1007,1.0);
#896=CARTESIAN_POINT('',(0.0,0.009853553,0.0001464465));
#897=VECTOR('',#1008,1.0);
#898=CARTESIAN_POINT('',(0.0,0.009853553,-0.0001464465));
#899=VECTOR('',#1009,1.0);
#900=CARTESIAN_POINT('',(-0.009853553,-0.000146447,0.0001464465));
#901=CARTESIAN_POINT('',(0.0,-0.000146447,0.0001464465));
#902=VECTOR('',#1010,1.0);
#903=CARTESIAN_POINT('',(-0.009853553,-0.000146447,-0.0001464465));
#904=CARTESIAN_POINT('',(-0.009853553,-0.000146447,0.0));
#905=VECTOR('',#1011,1.0);
#906=CARTESIAN_POINT('',(0.0,-0.000146447,-0.0001464465));
#907=VECTOR('',#1012,1.0);
#908=CARTESIAN_POINT('',(-0.009853553,0.0,-0.0001464465));
#909=VECTOR('',#1013,1.0);
#910=CARTESIAN_POINT('',(-0.009853553,0.0,0.0001464465));
#911=VECTOR('',#1014,1.0);
#912=CARTESIAN_POINT('',(0.009853553,-0.000146446999999999,0.0001464465));
#913=CARTESIAN_POINT('',(0.009853553,-0.01,0.0001464465));
#914=VECTOR('',#1015,1.0);
#915=CARTESIAN_POINT('',(0.009853553,-0.000146447,-0.0001464465));
#916=CARTESIAN_POINT('',(0.009853553,-0.000146447,0.0));
#917=VECTOR('',#1016,1.0);
#918=CARTESIAN_POINT('',(0.009853553,-0.01,-0.0001464465));
#919=VECTOR('',#1017,1.0);
#920=CARTESIAN_POINT('',(0.01,-0.000146447,-0.0001464465));
#921=VECTOR('',#1018,1.0);
#922=CARTESIAN_POINT('',(0.01,-0.000146447,0.0001464465));
#923=VECTOR('',#1019,1.0);
#924=CARTESIAN_POINT('',(0.01,-0.01,0.0001464465));
#925=CARTESIAN_POINT('',(0.01,0.0,0.0001464465));
#926=VECTOR('',#1020,1.0);
#927=CARTESIAN_POINT('',(0.01,-0.01,-0.0001464465));
#928=CARTESIAN_POINT('',(0.01,-0.01,0.0));
#929=VECTOR('',#1021,1.0);
#930=CARTESIAN_POINT('',(0.01,0.0,-0.0001464465));
#931=VECTOR('',#1022,1.0);
#932=CARTESIAN_POINT('',(-0.01,-0.01,-0.0001464465));
#933=CARTESIAN_POINT('',(-0.0050732235,-0.01,-0.0001464465));
#934=VECTOR('',#1023,1.0);
#935=CARTESIAN_POINT('',(-0.01,0.0,-0.0001464465));
#936=VECTOR('',#1024,1.0);
#937=CARTESIAN_POINT('',(-0.01,-0.01,0.0001464465));
#938=CARTESIAN_POINT('',(-0.01,-0.01,0.0));
#939=VECTOR('',#1025,1.0);
#940=CARTESIAN_POINT('',(-0.009853553,-0.01,0.0001464465));
#941=VECTOR('',#1026,1.0);
#942=CARTESIAN_POINT('',(-0.01,0.009853553,0.0001464465));
#943=VECTOR('',#1027,1.0);
#944=DIRECTION('',(1.0,-0.0,0.0));
#945=DIRECTION('',(0.0,0.0,-1.0));
#946=DIRECTION('',(-1.0,0.0,0.0));
#947=DIRECTION('',(0.0,0.0,1.0));
#948=DIRECTION('',(0.0,0.0,-1.0));
#949=DIRECTION('',(1.0,0.0,0.0));
#950=DIRECTION('',(0.0,-0.0,1.0));
#951=DIRECTION('',(-1.0,-0.0,-0.0));
#952=DIRECTION('',(0.0,1.0,0.0));
#953=DIRECTION('',(0.0,0.0,-1.0));
#954=DIRECTION('',(0.0,-1.0,0.0));
#955=DIRECTION('',(-0.707106781186548,0.707106781186548,0.0));
#956=DIRECTION('',(0.707106781186548,-0.707106781186548,0.0));
#957=DIRECTION('',(0.0,0.0,-1.0));
#958=DIRECTION('',(0.0,1.0,0.0));
#959=DIRECTION('',(0.0,0.0,1.0));
#960=DIRECTION('',(-0.0,-1.0,-0.0));
#961=DIRECTION('',(-0.707106781186548,-0.707106781186548,0.0));
#962=DIRECTION('',(0.0,0.0,-1.0));
#963=DIRECTION('',(0.707106781186548,0.707106781186548,0.0));
#964=DIRECTION('',(0.0,-0.0,1.0));
#965=DIRECTION('',(-0.707106781186548,0.707106781186548,0.0));
#966=DIRECTION('',(0.0,0.0,-1.0));
#967=DIRECTION('',(0.707106781186548,-0.707106781186548,0.0));
#968=DIRECTION('',(-1.0,-0.0,-0.0));
#969=DIRECTION('',(1.0,0.0,0.0));
#970=DIRECTION('',(0.0,-0.0,1.0));
#971=DIRECTION('',(-0.707106781186548,-0.707106781186548,-0.0));
#972=DIRECTION('',(0.0,0.0,-1.0));
#973=DIRECTION('',(0.707106781186548,0.707106781186548,0.0));
#974=DIRECTION('',(0.0,-0.0,1.0));
#975=DIRECTION('',(-0.0,-1.0,-0.0));
#976=DIRECTION('',(0.0,0.0,-1.0));
#977=DIRECTION('',(0.0,1.0,0.0));
#978=DIRECTION('',(0.0,0.0,-1.0));
#979=DIRECTION('',(0.0,-1.0,0.0));
#980=DIRECTION('',(0.0,-0.0,1.0));
#981=DIRECTION('',(0.0,1.0,0.0));
#982=DIRECTION('',(1.0,0.0,0.0));
#983=DIRECTION('',(0.0,-0.0,1.0));
#984=DIRECTION('',(-1.0,0.0,0.0));
#985=DIRECTION('',(0.707106781186548,0.707106781186548,0.0));
#986=DIRECTION('',(-0.707106781186548,-0.707106781186548,-0.0));
#987=DIRECTION('',(-0.0,-0.0,1.0));
#988=DIRECTION('',(0.707106781186548,0.707106781186548,0.0));
#989=DIRECTION('',(-0.0,-0.0,-1.0));
#990=DIRECTION('',(-0.707106781186548,-0.707106781186548,0.0));
#991=DIRECTION('',(-0.707106781186548,0.707106781186548,0.0));
#992=DIRECTION('',(0.0,0.0,-1.0));
#993=DIRECTION('',(0.707106781186548,-0.707106781186548,0.0));
#994=DIRECTION('',(1.0,0.0,0.0));
#995=DIRECTION('',(0.0,0.0,1.0));
#996=DIRECTION('',(-1.0,-0.0,-0.0));
#997=DIRECTION('',(-0.0,-1.0,-0.0));
#998=DIRECTION('',(0.0,1.0,0.0));
#999=DIRECTION('',(0.0,0.0,-1.0));
#1000=DIRECTION('',(-0.707106781186548,0.707106781186548,0.0));
#1001=DIRECTION('',(0.0,0.0,1.0));
#1002=DIRECTION('',(0.707106781186548,-0.707106781186548,0.0));
#1003=DIRECTION('',(-1.0,-0.0,-0.0));
#1004=DIRECTION('',(0.0,0.0,-1.0));
#1005=DIRECTION('',(1.0,0.0,0.0));
#1006=DIRECTION('',(0.0,-1.0,0.0));
#1007=DIRECTION('',(0.0,1.0,0.0));
#1008=DIRECTION('',(-1.0,0.0,0.0));
#1009=DIRECTION('',(1.0,0.0,0.0));
#1010=DIRECTION('',(-1.0,0.0,0.0));
#1011=DIRECTION('',(0.0,0.0,1.0));
#1012=DIRECTION('',(1.0,0.0,0.0));
#1013=DIRECTION('',(0.0,1.0,0.0));
#1014=DIRECTION('',(0.0,-1.0,0.0));
#1015=DIRECTION('',(0.0,1.0,0.0));
#1016=DIRECTION('',(0.0,-0.0,1.0));
#1017=DIRECTION('',(-0.0,-1.0,-0.0));
#1018=DIRECTION('',(1.0,0.0,0.0));
#1019=DIRECTION('',(-1.0,0.0,0.0));
#1020=DIRECTION('',(-0.0,1.0,0.0));
#1021=DIRECTION('',(0.0,0.0,1.0));
#1022=DIRECTION('',(0.0,-1.0,0.0));
#1023=DIRECTION('',(1.0,-0.0,0.0));
#1024=DIRECTION('',(0.0,-1.0,0.0));
#1025=DIRECTION('',(0.0,0.0,1.0));
#1026=DIRECTION('',(-1.0,0.0,0.0));
#1027=DIRECTION('',(0.0,1.0,0.0));
#1028=PRESENTATION_LAYER_ASSIGNMENT('9','\X2\56FE5C42\X0\0',(#25));
ENDSEC;
END-ISO-10303-21;
