ISO-10303-21;
HEADER;
FILE_DESCRIPTION(('STEP AP214'),'1');
FILE_NAME('C10.stp','2025-02-12T12:43:18',(' '),(' '),'Spatial InterOp 3D',' ',' ');
FILE_SCHEMA(('AUTOMOTIVE_DESIGN { 1 0 10303 214 1 1 1 1 }'));
ENDSEC;
DATA;
#1=MECHANICAL_DESIGN_GEOMETRIC_PRESENTATION_REPRESENTATION(' ',(#10),#6);
#2=PRODUCT_DEFINITION_CONTEXT('',#11,'design');
#3=APPLICATION_PROTOCOL_DEFINITION('INTERNATIONAL STANDARD','automotive_design',1994,#11);
#4=PRODUCT_CATEGORY_RELATIONSHIP('NONE','NONE',#12,#13);
#5=SHAPE_DEFINITION_REPRESENTATION(#14,#15);
#6= (GEOMETRIC_REPRESENTATION_CONTEXT(3)GLOBAL_UNCERTAINTY_ASSIGNED_CONTEXT((#18))GLOBAL_UNIT_ASSIGNED_CONTEXT((#20,#21,#22))REPRESENTATION_CONTEXT('NONE','WORKSPACE'));
#10=STYLED_ITEM('',(#24),#25);
#11=APPLICATION_CONTEXT(' ');
#12=PRODUCT_CATEGORY('part','NONE');
#13=PRODUCT_RELATED_PRODUCT_CATEGORY('detail',' ',(#26));
#14=PRODUCT_DEFINITION_SHAPE('NONE','NONE',#27);
#15=ADVANCED_BREP_SHAPE_REPRESENTATION('\X2\5B9E4F53\X0\22',(#25,#28),#6);
#18=UNCERTAINTY_MEASURE_WITH_UNIT(LENGTH_MEASURE(1.0E-08),#20,'','');
#20= (CONVERSION_BASED_UNIT('METRE',#31)LENGTH_UNIT()NAMED_UNIT(#34));
#21= (NAMED_UNIT(#36)PLANE_ANGLE_UNIT()SI_UNIT($,.RADIAN.));
#22= (NAMED_UNIT(#36)SOLID_ANGLE_UNIT()SI_UNIT($,.STERADIAN.));
#24=PRESENTATION_STYLE_ASSIGNMENT((#42));
#25=MANIFOLD_SOLID_BREP('\X2\5B9E4F53\X0\22',#43);
#26=PRODUCT('\X2\5B9E4F53\X0\22','','PART--DESC',(#44));
#27=PRODUCT_DEFINITION('','NONE',#45,#2);
#28=AXIS2_PLACEMENT_3D('',#46,#47,#48);
#31=LENGTH_MEASURE_WITH_UNIT(LENGTH_MEASURE(1.0),#49);
#34=DIMENSIONAL_EXPONENTS(1.0,0.0,0.0,0.0,0.0,0.0,0.0);
#36=DIMENSIONAL_EXPONENTS(0.0,0.0,0.0,0.0,0.0,0.0,0.0);
#42=SURFACE_STYLE_USAGE(.BOTH.,#50);
#43=CLOSED_SHELL('',(#51,#52,#53,#54,#55,#56,#57,#58,#59,#60,#61,#62,#63,#64,#65,#66,#67,#68,#69,#70,#71,#72,#73,#74,#75,#76,#77,#78,#79,#80,#81,#82,#83,#84,#85,#86,#87,#88,#89,#90,#91,#92));
#44=PRODUCT_CONTEXT('',#11,'mechanical');
#45=PRODUCT_DEFINITION_FORMATION_WITH_SPECIFIED_SOURCE(' ','NONE',#26,.NOT_KNOWN.);
#46=CARTESIAN_POINT('',(0.0,0.0,0.0));
#47=DIRECTION('',(0.0,0.0,1.0));
#48=DIRECTION('',(1.0,0.0,0.0));
#49= (NAMED_UNIT(#34)LENGTH_UNIT()SI_UNIT($,.METRE.));
#50=SURFACE_SIDE_STYLE('',(#94));
#51=ADVANCED_FACE('3:7992',(#95),#96,.F.);
#52=ADVANCED_FACE('3:7989',(#97),#98,.F.);
#53=ADVANCED_FACE('3:8002',(#99,#100,#101,#102,#103,#104,#105,#106,#107),#108,.F.);
#54=ADVANCED_FACE('3:7059',(#109),#110,.F.);
#55=ADVANCED_FACE('3:7056',(#111),#112,.F.);
#56=ADVANCED_FACE('3:7082',(#113),#114,.T.);
#57=ADVANCED_FACE('3:6709',(#115),#116,.T.);
#58=ADVANCED_FACE('3:6706',(#117),#118,.T.);
#59=ADVANCED_FACE('3:6420',(#119),#120,.T.);
#60=ADVANCED_FACE('3:6397',(#121),#122,.T.);
#61=ADVANCED_FACE('3:2163',(#123),#124,.T.);
#62=ADVANCED_FACE('3:2169',(#125),#126,.T.);
#63=ADVANCED_FACE('2:19219',(#127),#128,.T.);
#64=ADVANCED_FACE('3:651',(#129),#130,.T.);
#65=ADVANCED_FACE('3:1953',(#131),#132,.T.);
#66=ADVANCED_FACE('3:1947',(#133),#134,.T.);
#67=ADVANCED_FACE('3:1299',(#135),#136,.T.);
#68=ADVANCED_FACE('2:19435',(#137),#138,.T.);
#69=ADVANCED_FACE('3:1737',(#139),#140,.T.);
#70=ADVANCED_FACE('3:1731',(#141),#142,.T.);
#71=ADVANCED_FACE('3:1083',(#143),#144,.T.);
#72=ADVANCED_FACE('3:1305',(#145),#146,.T.);
#73=ADVANCED_FACE('3:1521',(#147),#148,.T.);
#74=ADVANCED_FACE('2:19225',(#149),#150,.T.);
#75=ADVANCED_FACE('3:867',(#151),#152,.T.);
#76=ADVANCED_FACE('3:873',(#153),#154,.T.);
#77=ADVANCED_FACE('3:225',(#155),#156,.T.);
#78=ADVANCED_FACE('3:8022',(#157,#158,#159,#160,#161,#162,#163,#164,#165),#166,.T.);
#79=ADVANCED_FACE('3:435',(#167),#168,.T.);
#80=ADVANCED_FACE('3:8012',(#169),#170,.T.);
#81=ADVANCED_FACE('3:9',(#171),#172,.T.);
#82=ADVANCED_FACE('3:8035',(#173),#174,.T.);
#83=ADVANCED_FACE('3:441',(#175),#176,.T.);
#84=ADVANCED_FACE('2:19009',(#177),#178,.T.);
#85=ADVANCED_FACE('2:18571',(#179),#180,.T.);
#86=ADVANCED_FACE('3:6723',(#181),#182,.T.);
#87=ADVANCED_FACE('3:6759',(#183),#184,.T.);
#88=ADVANCED_FACE('2:19003',(#185),#186,.T.);
#89=ADVANCED_FACE('2:18793',(#187),#188,.T.);
#90=ADVANCED_FACE('3:7102',(#189),#190,.T.);
#91=ADVANCED_FACE('3:6364',(#191),#192,.T.);
#92=ADVANCED_FACE('3:6367',(#193),#194,.T.);
#94=SURFACE_STYLE_FILL_AREA(#195);
#95=FACE_OUTER_BOUND('',#196,.T.);
#96=PLANE('',#197);
#97=FACE_OUTER_BOUND('',#198,.T.);
#98=PLANE('',#199);
#99=FACE_OUTER_BOUND('',#200,.T.);
#100=FACE_BOUND('',#201,.T.);
#101=FACE_BOUND('',#202,.T.);
#102=FACE_BOUND('',#203,.T.);
#103=FACE_BOUND('',#204,.T.);
#104=FACE_BOUND('',#205,.T.);
#105=FACE_BOUND('',#206,.T.);
#106=FACE_BOUND('',#207,.T.);
#107=FACE_BOUND('',#208,.T.);
#108=PLANE('',#209);
#109=FACE_OUTER_BOUND('',#210,.T.);
#110=PLANE('',#211);
#111=FACE_OUTER_BOUND('',#212,.T.);
#112=PLANE('',#213);
#113=FACE_OUTER_BOUND('',#214,.T.);
#114=PLANE('',#215);
#115=FACE_OUTER_BOUND('',#216,.T.);
#116=PLANE('',#217);
#117=FACE_OUTER_BOUND('',#218,.T.);
#118=PLANE('',#219);
#119=FACE_OUTER_BOUND('',#220,.T.);
#120=PLANE('',#221);
#121=FACE_OUTER_BOUND('',#222,.T.);
#122=PLANE('',#223);
#123=FACE_OUTER_BOUND('',#224,.T.);
#124=PLANE('',#225);
#125=FACE_OUTER_BOUND('',#226,.T.);
#126=PLANE('',#227);
#127=FACE_OUTER_BOUND('',#228,.T.);
#128=PLANE('',#229);
#129=FACE_OUTER_BOUND('',#230,.T.);
#130=PLANE('',#231);
#131=FACE_OUTER_BOUND('',#232,.T.);
#132=PLANE('',#233);
#133=FACE_OUTER_BOUND('',#234,.T.);
#134=PLANE('',#235);
#135=FACE_OUTER_BOUND('',#236,.T.);
#136=PLANE('',#237);
#137=FACE_OUTER_BOUND('',#238,.T.);
#138=PLANE('',#239);
#139=FACE_OUTER_BOUND('',#240,.T.);
#140=PLANE('',#241);
#141=FACE_OUTER_BOUND('',#242,.T.);
#142=PLANE('',#243);
#143=FACE_OUTER_BOUND('',#244,.T.);
#144=PLANE('',#245);
#145=FACE_OUTER_BOUND('',#246,.T.);
#146=PLANE('',#247);
#147=FACE_OUTER_BOUND('',#248,.T.);
#148=PLANE('',#249);
#149=FACE_OUTER_BOUND('',#250,.T.);
#150=PLANE('',#251);
#151=FACE_OUTER_BOUND('',#252,.T.);
#152=PLANE('',#253);
#153=FACE_OUTER_BOUND('',#254,.T.);
#154=PLANE('',#255);
#155=FACE_OUTER_BOUND('',#256,.T.);
#156=PLANE('',#257);
#157=FACE_OUTER_BOUND('',#258,.T.);
#158=FACE_BOUND('',#259,.T.);
#159=FACE_BOUND('',#260,.T.);
#160=FACE_BOUND('',#261,.T.);
#161=FACE_BOUND('',#262,.T.);
#162=FACE_BOUND('',#263,.T.);
#163=FACE_BOUND('',#264,.T.);
#164=FACE_BOUND('',#265,.T.);
#165=FACE_BOUND('',#266,.T.);
#166=PLANE('',#267);
#167=FACE_OUTER_BOUND('',#268,.T.);
#168=PLANE('',#269);
#169=FACE_OUTER_BOUND('',#270,.T.);
#170=PLANE('',#271);
#171=FACE_OUTER_BOUND('',#272,.T.);
#172=PLANE('',#273);
#173=FACE_OUTER_BOUND('',#274,.T.);
#174=PLANE('',#275);
#175=FACE_OUTER_BOUND('',#276,.T.);
#176=PLANE('',#277);
#177=FACE_OUTER_BOUND('',#278,.T.);
#178=PLANE('',#279);
#179=FACE_OUTER_BOUND('',#280,.T.);
#180=PLANE('',#281);
#181=FACE_OUTER_BOUND('',#282,.T.);
#182=PLANE('',#283);
#183=FACE_OUTER_BOUND('',#284,.T.);
#184=PLANE('',#285);
#185=FACE_OUTER_BOUND('',#286,.T.);
#186=PLANE('',#287);
#187=FACE_OUTER_BOUND('',#288,.T.);
#188=PLANE('',#289);
#189=FACE_OUTER_BOUND('',#290,.T.);
#190=PLANE('',#291);
#191=FACE_OUTER_BOUND('',#292,.T.);
#192=PLANE('',#293);
#193=FACE_OUTER_BOUND('',#294,.T.);
#194=PLANE('',#295);
#195=FILL_AREA_STYLE('',(#296));
#196=EDGE_LOOP('',(#297,#298,#299,#300));
#197=AXIS2_PLACEMENT_3D('',#301,#302,#303);
#198=EDGE_LOOP('',(#304,#305,#306,#307));
#199=AXIS2_PLACEMENT_3D('',#308,#309,#310);
#200=EDGE_LOOP('',(#311,#312,#313,#314,#315,#316,#317,#318,#319,#320,#321,#322,#323,#324,#325,#326));
#201=EDGE_LOOP('',(#327,#328,#329));
#202=EDGE_LOOP('',(#330,#331,#332));
#203=EDGE_LOOP('',(#333,#334,#335));
#204=EDGE_LOOP('',(#336,#337,#338));
#205=EDGE_LOOP('',(#339,#340,#341));
#206=EDGE_LOOP('',(#342,#343,#344));
#207=EDGE_LOOP('',(#345,#346,#347));
#208=EDGE_LOOP('',(#348,#349,#350));
#209=AXIS2_PLACEMENT_3D('',#351,#352,#353);
#210=EDGE_LOOP('',(#354,#355,#356,#357));
#211=AXIS2_PLACEMENT_3D('',#358,#359,#360);
#212=EDGE_LOOP('',(#361,#362,#363,#364));
#213=AXIS2_PLACEMENT_3D('',#365,#366,#367);
#214=EDGE_LOOP('',(#368,#369,#370,#371));
#215=AXIS2_PLACEMENT_3D('',#372,#373,#374);
#216=EDGE_LOOP('',(#375,#376,#377,#378));
#217=AXIS2_PLACEMENT_3D('',#379,#380,#381);
#218=EDGE_LOOP('',(#382,#383,#384,#385));
#219=AXIS2_PLACEMENT_3D('',#386,#387,#388);
#220=EDGE_LOOP('',(#389,#390,#391,#392));
#221=AXIS2_PLACEMENT_3D('',#393,#394,#395);
#222=EDGE_LOOP('',(#396,#397,#398,#399));
#223=AXIS2_PLACEMENT_3D('',#400,#401,#402);
#224=EDGE_LOOP('',(#403,#404,#405,#406));
#225=AXIS2_PLACEMENT_3D('',#407,#408,#409);
#226=EDGE_LOOP('',(#410,#411,#412,#413));
#227=AXIS2_PLACEMENT_3D('',#414,#415,#416);
#228=EDGE_LOOP('',(#417,#418,#419,#420));
#229=AXIS2_PLACEMENT_3D('',#421,#422,#423);
#230=EDGE_LOOP('',(#424,#425,#426,#427));
#231=AXIS2_PLACEMENT_3D('',#428,#429,#430);
#232=EDGE_LOOP('',(#431,#432,#433,#434));
#233=AXIS2_PLACEMENT_3D('',#435,#436,#437);
#234=EDGE_LOOP('',(#438,#439,#440,#441));
#235=AXIS2_PLACEMENT_3D('',#442,#443,#444);
#236=EDGE_LOOP('',(#445,#446,#447,#448));
#237=AXIS2_PLACEMENT_3D('',#449,#450,#451);
#238=EDGE_LOOP('',(#452,#453,#454,#455));
#239=AXIS2_PLACEMENT_3D('',#456,#457,#458);
#240=EDGE_LOOP('',(#459,#460,#461,#462));
#241=AXIS2_PLACEMENT_3D('',#463,#464,#465);
#242=EDGE_LOOP('',(#466,#467,#468,#469));
#243=AXIS2_PLACEMENT_3D('',#470,#471,#472);
#244=EDGE_LOOP('',(#473,#474,#475,#476));
#245=AXIS2_PLACEMENT_3D('',#477,#478,#479);
#246=EDGE_LOOP('',(#480,#481,#482,#483));
#247=AXIS2_PLACEMENT_3D('',#484,#485,#486);
#248=EDGE_LOOP('',(#487,#488,#489,#490));
#249=AXIS2_PLACEMENT_3D('',#491,#492,#493);
#250=EDGE_LOOP('',(#494,#495,#496,#497));
#251=AXIS2_PLACEMENT_3D('',#498,#499,#500);
#252=EDGE_LOOP('',(#501,#502,#503,#504));
#253=AXIS2_PLACEMENT_3D('',#505,#506,#507);
#254=EDGE_LOOP('',(#508,#509,#510,#511));
#255=AXIS2_PLACEMENT_3D('',#512,#513,#514);
#256=EDGE_LOOP('',(#515,#516,#517,#518));
#257=AXIS2_PLACEMENT_3D('',#519,#520,#521);
#258=EDGE_LOOP('',(#522,#523,#524,#525,#526,#527,#528,#529,#530,#531,#532,#533,#534,#535,#536,#537));
#259=EDGE_LOOP('',(#538,#539,#540));
#260=EDGE_LOOP('',(#541,#542,#543));
#261=EDGE_LOOP('',(#544,#545,#546));
#262=EDGE_LOOP('',(#547,#548,#549));
#263=EDGE_LOOP('',(#550,#551,#552));
#264=EDGE_LOOP('',(#553,#554,#555));
#265=EDGE_LOOP('',(#556,#557,#558));
#266=EDGE_LOOP('',(#559,#560,#561));
#267=AXIS2_PLACEMENT_3D('',#562,#563,#564);
#268=EDGE_LOOP('',(#565,#566,#567,#568));
#269=AXIS2_PLACEMENT_3D('',#569,#570,#571);
#270=EDGE_LOOP('',(#572,#573,#574,#575));
#271=AXIS2_PLACEMENT_3D('',#576,#577,#578);
#272=EDGE_LOOP('',(#579,#580,#581,#582));
#273=AXIS2_PLACEMENT_3D('',#583,#584,#585);
#274=EDGE_LOOP('',(#586,#587,#588,#589));
#275=AXIS2_PLACEMENT_3D('',#590,#591,#592);
#276=EDGE_LOOP('',(#593,#594,#595,#596));
#277=AXIS2_PLACEMENT_3D('',#597,#598,#599);
#278=EDGE_LOOP('',(#600,#601,#602,#603));
#279=AXIS2_PLACEMENT_3D('',#604,#605,#606);
#280=EDGE_LOOP('',(#607,#608,#609,#610));
#281=AXIS2_PLACEMENT_3D('',#611,#612,#613);
#282=EDGE_LOOP('',(#614,#615,#616,#617));
#283=AXIS2_PLACEMENT_3D('',#618,#619,#620);
#284=EDGE_LOOP('',(#621,#622,#623,#624));
#285=AXIS2_PLACEMENT_3D('',#625,#626,#627);
#286=EDGE_LOOP('',(#628,#629,#630,#631));
#287=AXIS2_PLACEMENT_3D('',#632,#633,#634);
#288=EDGE_LOOP('',(#635,#636,#637,#638));
#289=AXIS2_PLACEMENT_3D('',#639,#640,#641);
#290=EDGE_LOOP('',(#642,#643,#644,#645));
#291=AXIS2_PLACEMENT_3D('',#646,#647,#648);
#292=EDGE_LOOP('',(#649,#650,#651,#652));
#293=AXIS2_PLACEMENT_3D('',#653,#654,#655);
#294=EDGE_LOOP('',(#656,#657,#658,#659));
#295=AXIS2_PLACEMENT_3D('',#660,#661,#662);
#296=FILL_AREA_STYLE_COLOUR('',#663);
#297=ORIENTED_EDGE('',*,*,#664,.T.);
#298=ORIENTED_EDGE('',*,*,#665,.F.);
#299=ORIENTED_EDGE('',*,*,#666,.T.);
#300=ORIENTED_EDGE('',*,*,#667,.T.);
#301=CARTESIAN_POINT('',(-0.01,0.0,0.0));
#302=DIRECTION('',(1.0,0.0,0.0));
#303=DIRECTION('',(0.0,1.0,0.0));
#304=ORIENTED_EDGE('',*,*,#668,.F.);
#305=ORIENTED_EDGE('',*,*,#669,.T.);
#306=ORIENTED_EDGE('',*,*,#670,.T.);
#307=ORIENTED_EDGE('',*,*,#671,.T.);
#308=CARTESIAN_POINT('',(-0.01,0.0,0.0));
#309=DIRECTION('',(1.0,0.0,0.0));
#310=DIRECTION('',(0.0,1.0,0.0));
#311=ORIENTED_EDGE('',*,*,#669,.F.);
#312=ORIENTED_EDGE('',*,*,#672,.F.);
#313=ORIENTED_EDGE('',*,*,#673,.F.);
#314=ORIENTED_EDGE('',*,*,#674,.F.);
#315=ORIENTED_EDGE('',*,*,#675,.F.);
#316=ORIENTED_EDGE('',*,*,#676,.T.);
#317=ORIENTED_EDGE('',*,*,#677,.F.);
#318=ORIENTED_EDGE('',*,*,#678,.F.);
#319=ORIENTED_EDGE('',*,*,#679,.T.);
#320=ORIENTED_EDGE('',*,*,#680,.T.);
#321=ORIENTED_EDGE('',*,*,#681,.F.);
#322=ORIENTED_EDGE('',*,*,#682,.F.);
#323=ORIENTED_EDGE('',*,*,#683,.T.);
#324=ORIENTED_EDGE('',*,*,#664,.F.);
#325=ORIENTED_EDGE('',*,*,#684,.F.);
#326=ORIENTED_EDGE('',*,*,#685,.F.);
#327=ORIENTED_EDGE('',*,*,#686,.F.);
#328=ORIENTED_EDGE('',*,*,#687,.F.);
#329=ORIENTED_EDGE('',*,*,#688,.F.);
#330=ORIENTED_EDGE('',*,*,#689,.F.);
#331=ORIENTED_EDGE('',*,*,#690,.F.);
#332=ORIENTED_EDGE('',*,*,#691,.F.);
#333=ORIENTED_EDGE('',*,*,#692,.F.);
#334=ORIENTED_EDGE('',*,*,#693,.F.);
#335=ORIENTED_EDGE('',*,*,#694,.F.);
#336=ORIENTED_EDGE('',*,*,#695,.F.);
#337=ORIENTED_EDGE('',*,*,#696,.F.);
#338=ORIENTED_EDGE('',*,*,#697,.F.);
#339=ORIENTED_EDGE('',*,*,#698,.F.);
#340=ORIENTED_EDGE('',*,*,#699,.F.);
#341=ORIENTED_EDGE('',*,*,#700,.F.);
#342=ORIENTED_EDGE('',*,*,#701,.F.);
#343=ORIENTED_EDGE('',*,*,#702,.F.);
#344=ORIENTED_EDGE('',*,*,#703,.F.);
#345=ORIENTED_EDGE('',*,*,#704,.F.);
#346=ORIENTED_EDGE('',*,*,#705,.F.);
#347=ORIENTED_EDGE('',*,*,#706,.F.);
#348=ORIENTED_EDGE('',*,*,#707,.F.);
#349=ORIENTED_EDGE('',*,*,#708,.F.);
#350=ORIENTED_EDGE('',*,*,#709,.F.);
#351=CARTESIAN_POINT('',(3.7744E-05,-0.0067799,0.0001193585));
#352=DIRECTION('',(0.0,0.0,-1.0));
#353=DIRECTION('',(-1.0,0.0,0.0));
#354=ORIENTED_EDGE('',*,*,#710,.T.);
#355=ORIENTED_EDGE('',*,*,#711,.T.);
#356=ORIENTED_EDGE('',*,*,#672,.T.);
#357=ORIENTED_EDGE('',*,*,#668,.T.);
#358=CARTESIAN_POINT('',(0.0,-0.01,0.0));
#359=DIRECTION('',(0.0,1.0,0.0));
#360=DIRECTION('',(0.0,0.0,1.0));
#361=ORIENTED_EDGE('',*,*,#712,.T.);
#362=ORIENTED_EDGE('',*,*,#675,.T.);
#363=ORIENTED_EDGE('',*,*,#713,.T.);
#364=ORIENTED_EDGE('',*,*,#714,.T.);
#365=CARTESIAN_POINT('',(0.0,-0.01,0.0));
#366=DIRECTION('',(0.0,1.0,0.0));
#367=DIRECTION('',(0.0,0.0,1.0));
#368=ORIENTED_EDGE('',*,*,#711,.F.);
#369=ORIENTED_EDGE('',*,*,#715,.T.);
#370=ORIENTED_EDGE('',*,*,#716,.T.);
#371=ORIENTED_EDGE('',*,*,#673,.T.);
#372=CARTESIAN_POINT('',(-0.004962256,-0.0084465665,0.0));
#373=DIRECTION('',(0.316227737556338,-0.948683307537347,0.0));
#374=DIRECTION('',(-0.948683307537347,-0.316227737556338,0.0));
#375=ORIENTED_EDGE('',*,*,#717,.F.);
#376=ORIENTED_EDGE('',*,*,#680,.F.);
#377=ORIENTED_EDGE('',*,*,#718,.T.);
#378=ORIENTED_EDGE('',*,*,#719,.F.);
#379=CARTESIAN_POINT('',(0.0,0.01,0.0));
#380=DIRECTION('',(0.0,1.0,0.0));
#381=DIRECTION('',(0.0,0.0,1.0));
#382=ORIENTED_EDGE('',*,*,#720,.F.);
#383=ORIENTED_EDGE('',*,*,#721,.F.);
#384=ORIENTED_EDGE('',*,*,#665,.T.);
#385=ORIENTED_EDGE('',*,*,#683,.F.);
#386=CARTESIAN_POINT('',(0.0,0.01,0.0));
#387=DIRECTION('',(0.0,1.0,0.0));
#388=DIRECTION('',(0.0,0.0,1.0));
#389=ORIENTED_EDGE('',*,*,#722,.T.);
#390=ORIENTED_EDGE('',*,*,#678,.T.);
#391=ORIENTED_EDGE('',*,*,#723,.F.);
#392=ORIENTED_EDGE('',*,*,#724,.T.);
#393=CARTESIAN_POINT('',(0.0084465665,0.004962256,0.0));
#394=DIRECTION('',(0.948683307537347,-0.316227737556338,0.0));
#395=DIRECTION('',(-0.316227737556339,-0.948683307537347,0.0));
#396=ORIENTED_EDGE('',*,*,#725,.T.);
#397=ORIENTED_EDGE('',*,*,#726,.T.);
#398=ORIENTED_EDGE('',*,*,#723,.T.);
#399=ORIENTED_EDGE('',*,*,#677,.T.);
#400=CARTESIAN_POINT('',(0.0084465665,-0.004962256,0.0));
#401=DIRECTION('',(0.948683307537347,0.316227737556338,0.0));
#402=DIRECTION('',(0.316227737556338,-0.948683307537347,0.0));
#403=ORIENTED_EDGE('',*,*,#727,.F.);
#404=ORIENTED_EDGE('',*,*,#728,.T.);
#405=ORIENTED_EDGE('',*,*,#729,.F.);
#406=ORIENTED_EDGE('',*,*,#709,.T.);
#407=CARTESIAN_POINT('',(-0.004915601,0.005084399,0.0));
#408=DIRECTION('',(0.707106781186547,0.707106781186548,0.0));
#409=DIRECTION('',(0.707106781186548,-0.707106781186547,0.0));
#410=ORIENTED_EDGE('',*,*,#730,.F.);
#411=ORIENTED_EDGE('',*,*,#697,.T.);
#412=ORIENTED_EDGE('',*,*,#731,.F.);
#413=ORIENTED_EDGE('',*,*,#732,.T.);
#414=CARTESIAN_POINT('',(-0.005084399,0.004915601,0.0));
#415=DIRECTION('',(-0.707106781186548,-0.707106781186547,-0.0));
#416=DIRECTION('',(-0.707106781186547,0.707106781186548,0.0));
#417=ORIENTED_EDGE('',*,*,#727,.T.);
#418=ORIENTED_EDGE('',*,*,#708,.T.);
#419=ORIENTED_EDGE('',*,*,#733,.T.);
#420=ORIENTED_EDGE('',*,*,#734,.T.);
#421=CARTESIAN_POINT('',(-0.000119358,0.0033333335,0.0));
#422=DIRECTION('',(-1.0,0.0,0.0));
#423=DIRECTION('',(0.0,1.0,0.0));
#424=ORIENTED_EDGE('',*,*,#731,.T.);
#425=ORIENTED_EDGE('',*,*,#696,.T.);
#426=ORIENTED_EDGE('',*,*,#735,.F.);
#427=ORIENTED_EDGE('',*,*,#736,.T.);
#428=CARTESIAN_POINT('',(-0.0082201,0.005037744,0.0));
#429=DIRECTION('',(0.948683279076847,0.316227822937834,0.0));
#430=DIRECTION('',(0.316227822937834,-0.948683279076847,0.0));
#431=ORIENTED_EDGE('',*,*,#737,.F.);
#432=ORIENTED_EDGE('',*,*,#703,.T.);
#433=ORIENTED_EDGE('',*,*,#738,.F.);
#434=ORIENTED_EDGE('',*,*,#739,.T.);
#435=CARTESIAN_POINT('',(0.004915601,0.005084399,0.0));
#436=DIRECTION('',(-0.707106781186547,0.707106781186548,0.0));
#437=DIRECTION('',(0.707106781186548,0.707106781186547,0.0));
#438=ORIENTED_EDGE('',*,*,#740,.F.);
#439=ORIENTED_EDGE('',*,*,#741,.T.);
#440=ORIENTED_EDGE('',*,*,#742,.F.);
#441=ORIENTED_EDGE('',*,*,#706,.T.);
#442=CARTESIAN_POINT('',(0.005084399,0.004915601,0.0));
#443=DIRECTION('',(0.707106781186548,-0.707106781186547,0.0));
#444=DIRECTION('',(-0.707106781186547,-0.707106781186548,0.0));
#445=ORIENTED_EDGE('',*,*,#740,.T.);
#446=ORIENTED_EDGE('',*,*,#705,.T.);
#447=ORIENTED_EDGE('',*,*,#743,.T.);
#448=ORIENTED_EDGE('',*,*,#744,.T.);
#449=CARTESIAN_POINT('',(0.0033333335,0.000119358,0.0));
#450=DIRECTION('',(-0.0,1.0,0.0));
#451=DIRECTION('',(1.0,0.0,0.0));
#452=ORIENTED_EDGE('',*,*,#738,.T.);
#453=ORIENTED_EDGE('',*,*,#702,.T.);
#454=ORIENTED_EDGE('',*,*,#745,.F.);
#455=ORIENTED_EDGE('',*,*,#746,.T.);
#456=CARTESIAN_POINT('',(0.005037744,0.0082201,0.0));
#457=DIRECTION('',(0.316227822937834,-0.948683279076847,0.0));
#458=DIRECTION('',(-0.948683279076847,-0.316227822937834,0.0));
#459=ORIENTED_EDGE('',*,*,#747,.F.);
#460=ORIENTED_EDGE('',*,*,#691,.T.);
#461=ORIENTED_EDGE('',*,*,#748,.F.);
#462=ORIENTED_EDGE('',*,*,#749,.T.);
#463=CARTESIAN_POINT('',(0.004915601,-0.005084399,0.0));
#464=DIRECTION('',(-0.707106781186547,-0.707106781186548,-0.0));
#465=DIRECTION('',(-0.707106781186548,0.707106781186547,0.0));
#466=ORIENTED_EDGE('',*,*,#750,.F.);
#467=ORIENTED_EDGE('',*,*,#751,.T.);
#468=ORIENTED_EDGE('',*,*,#752,.F.);
#469=ORIENTED_EDGE('',*,*,#700,.T.);
#470=CARTESIAN_POINT('',(0.005084399,-0.004915601,0.0));
#471=DIRECTION('',(0.707106781186548,0.707106781186547,0.0));
#472=DIRECTION('',(0.707106781186547,-0.707106781186548,0.0));
#473=ORIENTED_EDGE('',*,*,#750,.T.);
#474=ORIENTED_EDGE('',*,*,#699,.T.);
#475=ORIENTED_EDGE('',*,*,#753,.T.);
#476=ORIENTED_EDGE('',*,*,#754,.T.);
#477=CARTESIAN_POINT('',(0.0082201,-0.005037744,0.0));
#478=DIRECTION('',(-0.948683279076847,-0.316227822937834,-0.0));
#479=DIRECTION('',(-0.316227822937834,0.948683279076847,0.0));
#480=ORIENTED_EDGE('',*,*,#752,.T.);
#481=ORIENTED_EDGE('',*,*,#755,.T.);
#482=ORIENTED_EDGE('',*,*,#753,.F.);
#483=ORIENTED_EDGE('',*,*,#698,.T.);
#484=CARTESIAN_POINT('',(0.0033333335,-0.000119358,0.0));
#485=DIRECTION('',(-0.0,-1.0,-0.0));
#486=DIRECTION('',(-1.0,0.0,0.0));
#487=ORIENTED_EDGE('',*,*,#742,.T.);
#488=ORIENTED_EDGE('',*,*,#756,.T.);
#489=ORIENTED_EDGE('',*,*,#743,.F.);
#490=ORIENTED_EDGE('',*,*,#704,.T.);
#491=CARTESIAN_POINT('',(0.0082201,0.005037744,0.0));
#492=DIRECTION('',(-0.948683279076847,0.316227822937834,0.0));
#493=DIRECTION('',(0.316227822937834,0.948683279076847,0.0));
#494=ORIENTED_EDGE('',*,*,#737,.T.);
#495=ORIENTED_EDGE('',*,*,#757,.T.);
#496=ORIENTED_EDGE('',*,*,#745,.T.);
#497=ORIENTED_EDGE('',*,*,#701,.T.);
#498=CARTESIAN_POINT('',(0.000119358,0.0033333335,0.0));
#499=DIRECTION('',(1.0,0.0,0.0));
#500=DIRECTION('',(0.0,-1.0,0.0));
#501=ORIENTED_EDGE('',*,*,#758,.F.);
#502=ORIENTED_EDGE('',*,*,#759,.T.);
#503=ORIENTED_EDGE('',*,*,#760,.F.);
#504=ORIENTED_EDGE('',*,*,#688,.T.);
#505=CARTESIAN_POINT('',(-0.004915601,-0.005084399,0.0));
#506=DIRECTION('',(0.707106781186547,-0.707106781186548,0.0));
#507=DIRECTION('',(-0.707106781186548,-0.707106781186547,0.0));
#508=ORIENTED_EDGE('',*,*,#761,.F.);
#509=ORIENTED_EDGE('',*,*,#694,.T.);
#510=ORIENTED_EDGE('',*,*,#762,.F.);
#511=ORIENTED_EDGE('',*,*,#763,.T.);
#512=CARTESIAN_POINT('',(-0.005084399,-0.004915601,0.0));
#513=DIRECTION('',(-0.707106781186548,0.707106781186547,0.0));
#514=DIRECTION('',(0.707106781186547,0.707106781186548,0.0));
#515=ORIENTED_EDGE('',*,*,#761,.T.);
#516=ORIENTED_EDGE('',*,*,#764,.T.);
#517=ORIENTED_EDGE('',*,*,#765,.T.);
#518=ORIENTED_EDGE('',*,*,#692,.T.);
#519=CARTESIAN_POINT('',(-0.0082201,-0.005037744,0.0));
#520=DIRECTION('',(0.948683279076847,-0.316227822937834,0.0));
#521=DIRECTION('',(-0.316227822937834,-0.948683279076847,0.0));
#522=ORIENTED_EDGE('',*,*,#671,.F.);
#523=ORIENTED_EDGE('',*,*,#766,.F.);
#524=ORIENTED_EDGE('',*,*,#767,.F.);
#525=ORIENTED_EDGE('',*,*,#666,.F.);
#526=ORIENTED_EDGE('',*,*,#721,.T.);
#527=ORIENTED_EDGE('',*,*,#768,.F.);
#528=ORIENTED_EDGE('',*,*,#769,.F.);
#529=ORIENTED_EDGE('',*,*,#719,.T.);
#530=ORIENTED_EDGE('',*,*,#770,.T.);
#531=ORIENTED_EDGE('',*,*,#724,.F.);
#532=ORIENTED_EDGE('',*,*,#726,.F.);
#533=ORIENTED_EDGE('',*,*,#771,.T.);
#534=ORIENTED_EDGE('',*,*,#714,.F.);
#535=ORIENTED_EDGE('',*,*,#772,.F.);
#536=ORIENTED_EDGE('',*,*,#715,.F.);
#537=ORIENTED_EDGE('',*,*,#710,.F.);
#538=ORIENTED_EDGE('',*,*,#773,.F.);
#539=ORIENTED_EDGE('',*,*,#774,.F.);
#540=ORIENTED_EDGE('',*,*,#749,.F.);
#541=ORIENTED_EDGE('',*,*,#775,.F.);
#542=ORIENTED_EDGE('',*,*,#776,.F.);
#543=ORIENTED_EDGE('',*,*,#759,.F.);
#544=ORIENTED_EDGE('',*,*,#777,.F.);
#545=ORIENTED_EDGE('',*,*,#764,.F.);
#546=ORIENTED_EDGE('',*,*,#763,.F.);
#547=ORIENTED_EDGE('',*,*,#754,.F.);
#548=ORIENTED_EDGE('',*,*,#755,.F.);
#549=ORIENTED_EDGE('',*,*,#751,.F.);
#550=ORIENTED_EDGE('',*,*,#744,.F.);
#551=ORIENTED_EDGE('',*,*,#756,.F.);
#552=ORIENTED_EDGE('',*,*,#741,.F.);
#553=ORIENTED_EDGE('',*,*,#734,.F.);
#554=ORIENTED_EDGE('',*,*,#778,.F.);
#555=ORIENTED_EDGE('',*,*,#728,.F.);
#556=ORIENTED_EDGE('',*,*,#736,.F.);
#557=ORIENTED_EDGE('',*,*,#779,.F.);
#558=ORIENTED_EDGE('',*,*,#732,.F.);
#559=ORIENTED_EDGE('',*,*,#746,.F.);
#560=ORIENTED_EDGE('',*,*,#757,.F.);
#561=ORIENTED_EDGE('',*,*,#739,.F.);
#562=CARTESIAN_POINT('',(-0.006553433,-3.7744E-05,-0.0001193585));
#563=DIRECTION('',(0.0,0.0,-1.0));
#564=DIRECTION('',(-1.0,0.0,0.0));
#565=ORIENTED_EDGE('',*,*,#762,.T.);
#566=ORIENTED_EDGE('',*,*,#693,.T.);
#567=ORIENTED_EDGE('',*,*,#765,.F.);
#568=ORIENTED_EDGE('',*,*,#777,.T.);
#569=CARTESIAN_POINT('',(-0.0033333335,-0.000119358,0.0));
#570=DIRECTION('',(-0.0,-1.0,-0.0));
#571=DIRECTION('',(-1.0,0.0,0.0));
#572=ORIENTED_EDGE('',*,*,#667,.F.);
#573=ORIENTED_EDGE('',*,*,#767,.T.);
#574=ORIENTED_EDGE('',*,*,#780,.F.);
#575=ORIENTED_EDGE('',*,*,#684,.T.);
#576=CARTESIAN_POINT('',(-0.0084465665,0.004962256,0.0));
#577=DIRECTION('',(-0.948683307537347,-0.316227737556338,-0.0));
#578=DIRECTION('',(-0.316227737556338,0.948683307537347,0.0));
#579=ORIENTED_EDGE('',*,*,#729,.T.);
#580=ORIENTED_EDGE('',*,*,#778,.T.);
#581=ORIENTED_EDGE('',*,*,#733,.F.);
#582=ORIENTED_EDGE('',*,*,#707,.T.);
#583=CARTESIAN_POINT('',(-0.005037744,0.0082201,0.0));
#584=DIRECTION('',(-0.316227822937834,-0.948683279076847,-0.0));
#585=DIRECTION('',(-0.948683279076847,0.316227822937834,0.0));
#586=ORIENTED_EDGE('',*,*,#670,.F.);
#587=ORIENTED_EDGE('',*,*,#685,.T.);
#588=ORIENTED_EDGE('',*,*,#780,.T.);
#589=ORIENTED_EDGE('',*,*,#766,.T.);
#590=CARTESIAN_POINT('',(-0.0084465665,-0.004962256,0.0));
#591=DIRECTION('',(-0.948683307537347,0.316227737556338,0.0));
#592=DIRECTION('',(0.316227737556339,0.948683307537347,0.0));
#593=ORIENTED_EDGE('',*,*,#730,.T.);
#594=ORIENTED_EDGE('',*,*,#779,.T.);
#595=ORIENTED_EDGE('',*,*,#735,.T.);
#596=ORIENTED_EDGE('',*,*,#695,.T.);
#597=CARTESIAN_POINT('',(-0.0033333335,0.000119358,0.0));
#598=DIRECTION('',(-0.0,1.0,0.0));
#599=DIRECTION('',(1.0,0.0,0.0));
#600=ORIENTED_EDGE('',*,*,#760,.T.);
#601=ORIENTED_EDGE('',*,*,#776,.T.);
#602=ORIENTED_EDGE('',*,*,#781,.F.);
#603=ORIENTED_EDGE('',*,*,#686,.T.);
#604=CARTESIAN_POINT('',(-0.000119358,-0.0033333335,0.0));
#605=DIRECTION('',(-1.0,0.0,0.0));
#606=DIRECTION('',(0.0,1.0,0.0));
#607=ORIENTED_EDGE('',*,*,#758,.T.);
#608=ORIENTED_EDGE('',*,*,#687,.T.);
#609=ORIENTED_EDGE('',*,*,#781,.T.);
#610=ORIENTED_EDGE('',*,*,#775,.T.);
#611=CARTESIAN_POINT('',(-0.005037744,-0.0082201,0.0));
#612=DIRECTION('',(-0.316227822937834,0.948683279076847,0.0));
#613=DIRECTION('',(0.948683279076847,0.316227822937834,0.0));
#614=ORIENTED_EDGE('',*,*,#720,.T.);
#615=ORIENTED_EDGE('',*,*,#682,.T.);
#616=ORIENTED_EDGE('',*,*,#782,.F.);
#617=ORIENTED_EDGE('',*,*,#768,.T.);
#618=CARTESIAN_POINT('',(-0.004962256,0.0084465665,0.0));
#619=DIRECTION('',(0.316227737556338,0.948683307537347,0.0));
#620=DIRECTION('',(0.948683307537347,-0.316227737556339,0.0));
#621=ORIENTED_EDGE('',*,*,#717,.T.);
#622=ORIENTED_EDGE('',*,*,#769,.T.);
#623=ORIENTED_EDGE('',*,*,#782,.T.);
#624=ORIENTED_EDGE('',*,*,#681,.T.);
#625=CARTESIAN_POINT('',(0.004962256,0.0084465665,0.0));
#626=DIRECTION('',(-0.316227737556338,0.948683307537347,0.0));
#627=DIRECTION('',(0.948683307537347,0.316227737556338,0.0));
#628=ORIENTED_EDGE('',*,*,#748,.T.);
#629=ORIENTED_EDGE('',*,*,#690,.T.);
#630=ORIENTED_EDGE('',*,*,#783,.F.);
#631=ORIENTED_EDGE('',*,*,#773,.T.);
#632=CARTESIAN_POINT('',(0.000119358,-0.0033333335,0.0));
#633=DIRECTION('',(1.0,0.0,0.0));
#634=DIRECTION('',(0.0,-1.0,0.0));
#635=ORIENTED_EDGE('',*,*,#747,.T.);
#636=ORIENTED_EDGE('',*,*,#774,.T.);
#637=ORIENTED_EDGE('',*,*,#783,.T.);
#638=ORIENTED_EDGE('',*,*,#689,.T.);
#639=CARTESIAN_POINT('',(0.005037744,-0.0082201,0.0));
#640=DIRECTION('',(0.316227822937834,0.948683279076847,0.0));
#641=DIRECTION('',(0.948683279076847,-0.316227822937834,0.0));
#642=ORIENTED_EDGE('',*,*,#713,.F.);
#643=ORIENTED_EDGE('',*,*,#674,.T.);
#644=ORIENTED_EDGE('',*,*,#716,.F.);
#645=ORIENTED_EDGE('',*,*,#772,.T.);
#646=CARTESIAN_POINT('',(0.004962256,-0.0084465665,0.0));
#647=DIRECTION('',(-0.316227737556338,-0.948683307537347,-0.0));
#648=DIRECTION('',(-0.948683307537347,0.316227737556339,0.0));
#649=ORIENTED_EDGE('',*,*,#712,.F.);
#650=ORIENTED_EDGE('',*,*,#771,.F.);
#651=ORIENTED_EDGE('',*,*,#725,.F.);
#652=ORIENTED_EDGE('',*,*,#676,.F.);
#653=CARTESIAN_POINT('',(0.01,0.0,0.0));
#654=DIRECTION('',(1.0,0.0,0.0));
#655=DIRECTION('',(0.0,1.0,0.0));
#656=ORIENTED_EDGE('',*,*,#718,.F.);
#657=ORIENTED_EDGE('',*,*,#679,.F.);
#658=ORIENTED_EDGE('',*,*,#722,.F.);
#659=ORIENTED_EDGE('',*,*,#770,.F.);
#660=CARTESIAN_POINT('',(0.01,0.0,0.0));
#661=DIRECTION('',(1.0,0.0,0.0));
#662=DIRECTION('',(0.0,1.0,0.0));
#663=COLOUR_RGB('',0.560784339904785,0.686274528503418,0.560784339904785);
#664=EDGE_CURVE('3:8059',#784,#785,#786,.T.);
#665=EDGE_CURVE('3:6816',#787,#785,#788,.T.);
#666=EDGE_CURVE('3:8062',#787,#789,#790,.T.);
#667=EDGE_CURVE('3:8068',#789,#784,#791,.T.);
#668=EDGE_CURVE('3:3287',#792,#793,#794,.T.);
#669=EDGE_CURVE('3:8056',#792,#795,#796,.T.);
#670=EDGE_CURVE('3:8071',#795,#797,#798,.T.);
#671=EDGE_CURVE('3:8065',#797,#793,#799,.T.);
#672=EDGE_CURVE('3:7138',#800,#792,#801,.T.);
#673=EDGE_CURVE('3:7176',#802,#800,#803,.T.);
#674=EDGE_CURVE('3:7199',#804,#802,#805,.T.);
#675=EDGE_CURVE('3:7135',#806,#804,#807,.T.);
#676=EDGE_CURVE('3:6459',#806,#808,#809,.T.);
#677=EDGE_CURVE('3:6491',#810,#808,#811,.T.);
#678=EDGE_CURVE('3:6504',#812,#810,#813,.T.);
#679=EDGE_CURVE('3:6465',#812,#814,#815,.T.);
#680=EDGE_CURVE('3:6810',#814,#816,#817,.T.);
#681=EDGE_CURVE('3:6843',#818,#816,#819,.T.);
#682=EDGE_CURVE('3:6836',#820,#818,#821,.T.);
#683=EDGE_CURVE('3:6804',#820,#785,#822,.T.);
#684=EDGE_CURVE('3:8099',#823,#784,#824,.T.);
#685=EDGE_CURVE('3:8132',#795,#823,#825,.T.);
#686=EDGE_CURVE('2:19117',#826,#827,#828,.T.);
#687=EDGE_CURVE('2:18706',#829,#826,#830,.T.);
#688=EDGE_CURVE('3:1002',#827,#829,#831,.T.);
#689=EDGE_CURVE('2:18901',#832,#833,#834,.T.);
#690=EDGE_CURVE('2:19138',#835,#832,#836,.T.);
#691=EDGE_CURVE('3:1845',#833,#835,#837,.T.);
#692=EDGE_CURVE('3:333',#838,#839,#840,.T.);
#693=EDGE_CURVE('3:570',#841,#838,#842,.T.);
#694=EDGE_CURVE('3:981',#839,#841,#843,.T.);
#695=EDGE_CURVE('3:549',#844,#845,#846,.T.);
#696=EDGE_CURVE('3:786',#847,#844,#848,.T.);
#697=EDGE_CURVE('3:2277',#845,#847,#849,.T.);
#698=EDGE_CURVE('3:1413',#850,#851,#852,.T.);
#699=EDGE_CURVE('3:1218',#853,#850,#854,.T.);
#700=EDGE_CURVE('3:1866',#851,#853,#855,.T.);
#701=EDGE_CURVE('2:19333',#856,#857,#858,.T.);
#702=EDGE_CURVE('2:19570',#859,#856,#860,.T.);
#703=EDGE_CURVE('3:2061',#857,#859,#861,.T.);
#704=EDGE_CURVE('3:1629',#862,#863,#864,.T.);
#705=EDGE_CURVE('3:1434',#865,#862,#866,.T.);
#706=EDGE_CURVE('3:2082',#863,#865,#867,.T.);
#707=EDGE_CURVE('3:117',#868,#869,#870,.T.);
#708=EDGE_CURVE('2:19354',#871,#868,#872,.T.);
#709=EDGE_CURVE('3:2298',#869,#871,#873,.T.);
#710=EDGE_CURVE('3:7123',#793,#874,#875,.T.);
#711=EDGE_CURVE('3:7132',#874,#800,#876,.T.);
#712=EDGE_CURVE('3:6474',#877,#806,#878,.T.);
#713=EDGE_CURVE('3:7129',#804,#879,#880,.T.);
#714=EDGE_CURVE('3:7126',#879,#877,#881,.T.);
#715=EDGE_CURVE('3:7169',#874,#882,#883,.T.);
#716=EDGE_CURVE('3:3230',#882,#802,#884,.T.);
#717=EDGE_CURVE('3:6807',#816,#885,#886,.T.);
#718=EDGE_CURVE('3:6819',#814,#887,#888,.T.);
#719=EDGE_CURVE('3:6813',#885,#887,#889,.T.);
#720=EDGE_CURVE('3:6798',#890,#820,#891,.T.);
#721=EDGE_CURVE('3:6801',#787,#890,#892,.T.);
#722=EDGE_CURVE('3:6471',#893,#812,#894,.T.);
#723=EDGE_CURVE('3:3416',#895,#810,#896,.T.);
#724=EDGE_CURVE('3:6511',#895,#893,#897,.T.);
#725=EDGE_CURVE('3:6462',#808,#898,#899,.T.);
#726=EDGE_CURVE('3:6484',#898,#895,#900,.T.);
#727=EDGE_CURVE('3:3533',#901,#871,#902,.T.);
#728=EDGE_CURVE('3:2181',#901,#903,#904,.T.);
#729=EDGE_CURVE('3:3566',#869,#903,#905,.T.);
#730=EDGE_CURVE('3:3554',#845,#906,#907,.T.);
#731=EDGE_CURVE('3:3539',#908,#847,#909,.T.);
#732=EDGE_CURVE('3:2202',#908,#906,#910,.T.);
#733=EDGE_CURVE('3:3269',#868,#911,#912,.T.);
#734=EDGE_CURVE('2:19237',#911,#901,#913,.T.);
#735=EDGE_CURVE('3:3320',#914,#844,#915,.T.);
#736=EDGE_CURVE('3:669',#914,#908,#916,.T.);
#737=EDGE_CURVE('3:3503',#857,#917,#918,.T.);
#738=EDGE_CURVE('3:3500',#919,#859,#920,.T.);
#739=EDGE_CURVE('3:1986',#919,#917,#921,.T.);
#740=EDGE_CURVE('3:3488',#922,#865,#923,.T.);
#741=EDGE_CURVE('3:1965',#922,#924,#925,.T.);
#742=EDGE_CURVE('3:3515',#863,#924,#926,.T.);
#743=EDGE_CURVE('3:3422',#862,#927,#928,.T.);
#744=EDGE_CURVE('3:1317',#927,#922,#929,.T.);
#745=EDGE_CURVE('3:3254',#930,#856,#931,.T.);
#746=EDGE_CURVE('2:19453',#930,#919,#932,.T.);
#747=EDGE_CURVE('3:3461',#833,#933,#934,.T.);
#748=EDGE_CURVE('3:3455',#935,#835,#936,.T.);
#749=EDGE_CURVE('3:1770',#935,#933,#937,.T.);
#750=EDGE_CURVE('3:3443',#938,#853,#939,.T.);
#751=EDGE_CURVE('3:1749',#938,#940,#941,.T.);
#752=EDGE_CURVE('3:3440',#851,#940,#942,.T.);
#753=EDGE_CURVE('3:3389',#850,#943,#944,.T.);
#754=EDGE_CURVE('3:1101',#943,#938,#945,.T.);
#755=EDGE_CURVE('3:1338',#940,#943,#946,.T.);
#756=EDGE_CURVE('3:1554',#924,#927,#947,.T.);
#757=EDGE_CURVE('2:19258',#917,#930,#948,.T.);
#758=EDGE_CURVE('3:3347',#949,#829,#950,.T.);
#759=EDGE_CURVE('3:885',#949,#951,#952,.T.);
#760=EDGE_CURVE('3:3344',#827,#951,#953,.T.);
#761=EDGE_CURVE('3:3356',#839,#954,#955,.T.);
#762=EDGE_CURVE('3:3350',#956,#841,#957,.T.);
#763=EDGE_CURVE('3:906',#956,#954,#958,.T.);
#764=EDGE_CURVE('3:258',#954,#959,#960,.T.);
#765=EDGE_CURVE('3:3290',#959,#838,#961,.T.);
#766=EDGE_CURVE('3:8119',#962,#797,#963,.T.);
#767=EDGE_CURVE('3:8112',#789,#962,#964,.T.);
#768=EDGE_CURVE('3:6823',#965,#890,#966,.T.);
#769=EDGE_CURVE('3:6856',#885,#965,#967,.T.);
#770=EDGE_CURVE('3:6468',#887,#893,#968,.T.);
#771=EDGE_CURVE('3:6456',#898,#877,#969,.T.);
#772=EDGE_CURVE('3:7186',#882,#879,#970,.T.);
#773=EDGE_CURVE('2:19021',#971,#935,#972,.T.);
#774=EDGE_CURVE('2:18826',#933,#971,#973,.T.);
#775=EDGE_CURVE('2:18589',#974,#949,#975,.T.);
#776=EDGE_CURVE('2:19042',#951,#974,#976,.T.);
#777=EDGE_CURVE('3:453',#959,#956,#977,.T.);
#778=EDGE_CURVE('3:42',#903,#911,#978,.T.);
#779=EDGE_CURVE('3:474',#906,#914,#979,.T.);
#780=EDGE_CURVE('3:3329',#823,#962,#980,.T.);
#781=EDGE_CURVE('3:3245',#826,#974,#981,.T.);
#782=EDGE_CURVE('3:3266',#965,#818,#982,.T.);
#783=EDGE_CURVE('3:3242',#971,#832,#983,.T.);
#784=VERTEX_POINT('',#984);
#785=VERTEX_POINT('',#985);
#786=LINE('',#986,#987);
#787=VERTEX_POINT('',#988);
#788=LINE('',#989,#990);
#789=VERTEX_POINT('',#991);
#790=LINE('',#992,#993);
#791=LINE('',#994,#995);
#792=VERTEX_POINT('',#996);
#793=VERTEX_POINT('',#997);
#794=LINE('',#998,#999);
#795=VERTEX_POINT('',#1000);
#796=LINE('',#1001,#1002);
#797=VERTEX_POINT('',#1003);
#798=LINE('',#1004,#1005);
#799=LINE('',#1006,#1007);
#800=VERTEX_POINT('',#1008);
#801=LINE('',#1009,#1010);
#802=VERTEX_POINT('',#1011);
#803=LINE('',#1012,#1013);
#804=VERTEX_POINT('',#1014);
#805=LINE('',#1015,#1016);
#806=VERTEX_POINT('',#1017);
#807=LINE('',#1018,#1019);
#808=VERTEX_POINT('',#1020);
#809=LINE('',#1021,#1022);
#810=VERTEX_POINT('',#1023);
#811=LINE('',#1024,#1025);
#812=VERTEX_POINT('',#1026);
#813=LINE('',#1027,#1028);
#814=VERTEX_POINT('',#1029);
#815=LINE('',#1030,#1031);
#816=VERTEX_POINT('',#1032);
#817=LINE('',#1033,#1034);
#818=VERTEX_POINT('',#1035);
#819=LINE('',#1036,#1037);
#820=VERTEX_POINT('',#1038);
#821=LINE('',#1039,#1040);
#822=LINE('',#1041,#1042);
#823=VERTEX_POINT('',#1043);
#824=LINE('',#1044,#1045);
#825=LINE('',#1046,#1047);
#826=VERTEX_POINT('',#1048);
#827=VERTEX_POINT('',#1049);
#828=LINE('',#1050,#1051);
#829=VERTEX_POINT('',#1052);
#830=LINE('',#1053,#1054);
#831=LINE('',#1055,#1056);
#832=VERTEX_POINT('',#1057);
#833=VERTEX_POINT('',#1058);
#834=LINE('',#1059,#1060);
#835=VERTEX_POINT('',#1061);
#836=LINE('',#1062,#1063);
#837=LINE('',#1064,#1065);
#838=VERTEX_POINT('',#1066);
#839=VERTEX_POINT('',#1067);
#840=LINE('',#1068,#1069);
#841=VERTEX_POINT('',#1070);
#842=LINE('',#1071,#1072);
#843=LINE('',#1073,#1074);
#844=VERTEX_POINT('',#1075);
#845=VERTEX_POINT('',#1076);
#846=LINE('',#1077,#1078);
#847=VERTEX_POINT('',#1079);
#848=LINE('',#1080,#1081);
#849=LINE('',#1082,#1083);
#850=VERTEX_POINT('',#1084);
#851=VERTEX_POINT('',#1085);
#852=LINE('',#1086,#1087);
#853=VERTEX_POINT('',#1088);
#854=LINE('',#1089,#1090);
#855=LINE('',#1091,#1092);
#856=VERTEX_POINT('',#1093);
#857=VERTEX_POINT('',#1094);
#858=LINE('',#1095,#1096);
#859=VERTEX_POINT('',#1097);
#860=LINE('',#1098,#1099);
#861=LINE('',#1100,#1101);
#862=VERTEX_POINT('',#1102);
#863=VERTEX_POINT('',#1103);
#864=LINE('',#1104,#1105);
#865=VERTEX_POINT('',#1106);
#866=LINE('',#1107,#1108);
#867=LINE('',#1109,#1110);
#868=VERTEX_POINT('',#1111);
#869=VERTEX_POINT('',#1112);
#870=LINE('',#1113,#1114);
#871=VERTEX_POINT('',#1115);
#872=LINE('',#1116,#1117);
#873=LINE('',#1118,#1119);
#874=VERTEX_POINT('',#1120);
#875=LINE('',#1121,#1122);
#876=LINE('',#1123,#1124);
#877=VERTEX_POINT('',#1125);
#878=LINE('',#1126,#1127);
#879=VERTEX_POINT('',#1128);
#880=LINE('',#1129,#1130);
#881=LINE('',#1131,#1132);
#882=VERTEX_POINT('',#1133);
#883=LINE('',#1134,#1135);
#884=LINE('',#1136,#1137);
#885=VERTEX_POINT('',#1138);
#886=LINE('',#1139,#1140);
#887=VERTEX_POINT('',#1141);
#888=LINE('',#1142,#1143);
#889=LINE('',#1144,#1145);
#890=VERTEX_POINT('',#1146);
#891=LINE('',#1147,#1148);
#892=LINE('',#1149,#1150);
#893=VERTEX_POINT('',#1151);
#894=LINE('',#1152,#1153);
#895=VERTEX_POINT('',#1154);
#896=LINE('',#1155,#1156);
#897=LINE('',#1157,#1158);
#898=VERTEX_POINT('',#1159);
#899=LINE('',#1160,#1161);
#900=LINE('',#1162,#1163);
#901=VERTEX_POINT('',#1164);
#902=LINE('',#1165,#1166);
#903=VERTEX_POINT('',#1167);
#904=LINE('',#1168,#1169);
#905=LINE('',#1170,#1171);
#906=VERTEX_POINT('',#1172);
#907=LINE('',#1173,#1174);
#908=VERTEX_POINT('',#1175);
#909=LINE('',#1176,#1177);
#910=LINE('',#1178,#1179);
#911=VERTEX_POINT('',#1180);
#912=LINE('',#1181,#1182);
#913=LINE('',#1183,#1184);
#914=VERTEX_POINT('',#1185);
#915=LINE('',#1186,#1187);
#916=LINE('',#1188,#1189);
#917=VERTEX_POINT('',#1190);
#918=LINE('',#1191,#1192);
#919=VERTEX_POINT('',#1193);
#920=LINE('',#1194,#1195);
#921=LINE('',#1196,#1197);
#922=VERTEX_POINT('',#1198);
#923=LINE('',#1199,#1200);
#924=VERTEX_POINT('',#1201);
#925=LINE('',#1202,#1203);
#926=LINE('',#1204,#1205);
#927=VERTEX_POINT('',#1206);
#928=LINE('',#1207,#1208);
#929=LINE('',#1209,#1210);
#930=VERTEX_POINT('',#1211);
#931=LINE('',#1212,#1213);
#932=LINE('',#1214,#1215);
#933=VERTEX_POINT('',#1216);
#934=LINE('',#1217,#1218);
#935=VERTEX_POINT('',#1219);
#936=LINE('',#1220,#1221);
#937=LINE('',#1222,#1223);
#938=VERTEX_POINT('',#1224);
#939=LINE('',#1225,#1226);
#940=VERTEX_POINT('',#1227);
#941=LINE('',#1228,#1229);
#942=LINE('',#1230,#1231);
#943=VERTEX_POINT('',#1232);
#944=LINE('',#1233,#1234);
#945=LINE('',#1235,#1236);
#946=LINE('',#1237,#1238);
#947=LINE('',#1239,#1240);
#948=LINE('',#1241,#1242);
#949=VERTEX_POINT('',#1243);
#950=LINE('',#1244,#1245);
#951=VERTEX_POINT('',#1246);
#952=LINE('',#1247,#1248);
#953=LINE('',#1249,#1250);
#954=VERTEX_POINT('',#1251);
#955=LINE('',#1252,#1253);
#956=VERTEX_POINT('',#1254);
#957=LINE('',#1255,#1256);
#958=LINE('',#1257,#1258);
#959=VERTEX_POINT('',#1259);
#960=LINE('',#1260,#1261);
#961=LINE('',#1262,#1263);
#962=VERTEX_POINT('',#1264);
#963=LINE('',#1265,#1266);
#964=LINE('',#1267,#1268);
#965=VERTEX_POINT('',#1269);
#966=LINE('',#1270,#1271);
#967=LINE('',#1272,#1273);
#968=LINE('',#1274,#1275);
#969=LINE('',#1276,#1277);
#970=LINE('',#1278,#1279);
#971=VERTEX_POINT('',#1280);
#972=LINE('',#1281,#1282);
#973=LINE('',#1283,#1284);
#974=VERTEX_POINT('',#1285);
#975=LINE('',#1286,#1287);
#976=LINE('',#1288,#1289);
#977=LINE('',#1290,#1291);
#978=LINE('',#1292,#1293);
#979=LINE('',#1294,#1295);
#980=LINE('',#1296,#1297);
#981=LINE('',#1298,#1299);
#982=LINE('',#1300,#1301);
#983=LINE('',#1302,#1303);
#984=CARTESIAN_POINT('',(-0.01,0.0096225569660301,0.0001193585));
#985=CARTESIAN_POINT('',(-0.01,0.01,0.0001193585));
#986=CARTESIAN_POINT('',(-0.01,-0.00338995,0.0001193585));
#987=VECTOR('',#1304,1.0);
#988=CARTESIAN_POINT('',(-0.01,0.01,-0.0001193585));
#989=CARTESIAN_POINT('',(-0.01,0.01,0.0));
#990=VECTOR('',#1305,1.0);
#991=CARTESIAN_POINT('',(-0.01,0.0096225569660301,-0.0001193585));
#992=CARTESIAN_POINT('',(-0.01,-1.8872E-05,-0.0001193585));
#993=VECTOR('',#1306,1.0);
#994=CARTESIAN_POINT('',(-0.01,0.0096225569660301,0.0));
#995=VECTOR('',#1307,1.0);
#996=CARTESIAN_POINT('',(-0.01,-0.01,0.0001193585));
#997=CARTESIAN_POINT('',(-0.01,-0.01,-0.0001193585));
#998=CARTESIAN_POINT('',(-0.01,-0.01,0.0));
#999=VECTOR('',#1308,1.0);
#1000=CARTESIAN_POINT('',(-0.01,-0.0096225569660301,0.0001193585));
#1001=CARTESIAN_POINT('',(-0.01,-0.00338995,0.0001193585));
#1002=VECTOR('',#1309,1.0);
#1003=CARTESIAN_POINT('',(-0.01,-0.0096225569660301,-0.0001193585));
#1004=CARTESIAN_POINT('',(-0.01,-0.0096225569660301,0.0));
#1005=VECTOR('',#1310,1.0);
#1006=CARTESIAN_POINT('',(-0.01,-1.8872E-05,-0.0001193585));
#1007=VECTOR('',#1311,1.0);
#1008=CARTESIAN_POINT('',(-0.0096225569660301,-0.01,0.0001193585));
#1009=CARTESIAN_POINT('',(1.8872E-05,-0.01,0.0001193585));
#1010=VECTOR('',#1312,1.0);
#1011=CARTESIAN_POINT('',(-1.73472347597681E-18,-0.0067924813320752,0.0001193585));
#1012=CARTESIAN_POINT('',(3.7744E-05,-0.0067799,0.0001193585));
#1013=VECTOR('',#1313,1.0);
#1014=CARTESIAN_POINT('',(0.0096225569660301,-0.01,0.0001193585));
#1015=CARTESIAN_POINT('',(0.009962256,-0.010113233,0.0001193585));
#1016=VECTOR('',#1314,1.0);
#1017=CARTESIAN_POINT('',(0.01,-0.01,0.0001193585));
#1018=CARTESIAN_POINT('',(1.8872E-05,-0.01,0.0001193585));
#1019=VECTOR('',#1315,1.0);
#1020=CARTESIAN_POINT('',(0.01,-0.0096225569660301,0.0001193585));
#1021=CARTESIAN_POINT('',(0.01,-0.00338995,0.0001193585));
#1022=VECTOR('',#1316,1.0);
#1023=CARTESIAN_POINT('',(0.0067924813320752,-1.73472347597681E-18,0.0001193585));
#1024=CARTESIAN_POINT('',(0.0067799,3.7744E-05,0.0001193585));
#1025=VECTOR('',#1317,1.0);
#1026=CARTESIAN_POINT('',(0.01,0.0096225569660301,0.0001193585));
#1027=CARTESIAN_POINT('',(0.010113233,0.009962256,0.0001193585));
#1028=VECTOR('',#1318,1.0);
#1029=CARTESIAN_POINT('',(0.01,0.01,0.0001193585));
#1030=CARTESIAN_POINT('',(0.01,-0.00338995,0.0001193585));
#1031=VECTOR('',#1319,1.0);
#1032=CARTESIAN_POINT('',(0.0096225569660301,0.01,0.0001193585));
#1033=CARTESIAN_POINT('',(1.8872E-05,0.01,0.0001193585));
#1034=VECTOR('',#1320,1.0);
#1035=CARTESIAN_POINT('',(1.73472347597681E-18,0.0067924813320752,0.0001193585));
#1036=CARTESIAN_POINT('',(-3.7744E-05,0.0067799,0.0001193585));
#1037=VECTOR('',#1321,1.0);
#1038=CARTESIAN_POINT('',(-0.0096225569660301,0.01,0.0001193585));
#1039=CARTESIAN_POINT('',(-0.009962256,0.010113233,0.0001193585));
#1040=VECTOR('',#1322,1.0);
#1041=CARTESIAN_POINT('',(1.8872E-05,0.01,0.0001193585));
#1042=VECTOR('',#1323,1.0);
#1043=CARTESIAN_POINT('',(-0.0067924813320752,-1.51788304147971E-18,0.0001193585));
#1044=CARTESIAN_POINT('',(-0.0067799,-3.7744E-05,0.0001193585));
#1045=VECTOR('',#1324,1.0);
#1046=CARTESIAN_POINT('',(-0.010113233,-0.009962256,0.0001193585));
#1047=VECTOR('',#1325,1.0);
#1048=CARTESIAN_POINT('',(-0.000119358,-0.0065806376721076,0.0001193585));
#1049=CARTESIAN_POINT('',(-0.000119358,-0.000288155999999999,0.0001193585));
#1050=CARTESIAN_POINT('',(-0.000119358,-0.006666667,0.0001193585));
#1051=VECTOR('',#1326,1.0);
#1052=CARTESIAN_POINT('',(-0.00955808145203375,-0.00972687945203375,0.0001193585));
#1053=CARTESIAN_POINT('',(-0.010037744,-0.009886767,0.0001193585));
#1054=VECTOR('',#1327,1.0);
#1055=CARTESIAN_POINT('',(8.4399E-05,-8.4399E-05,0.0001193585));
#1056=VECTOR('',#1328,1.0);
#1057=CARTESIAN_POINT('',(0.000119358,-0.0065806376721076,0.0001193585));
#1058=CARTESIAN_POINT('',(0.00955808145203375,-0.00972687945203375,0.0001193585));
#1059=CARTESIAN_POINT('',(3.7744E-05,-0.006553433,0.0001193585));
#1060=VECTOR('',#1329,1.0);
#1061=CARTESIAN_POINT('',(0.000119358,-0.000288156,0.0001193585));
#1062=CARTESIAN_POINT('',(0.000119358,0.0,0.0001193585));
#1063=VECTOR('',#1330,1.0);
#1064=CARTESIAN_POINT('',(0.009915601,-0.010084399,0.0001193585));
#1065=VECTOR('',#1331,1.0);
#1066=CARTESIAN_POINT('',(-0.0065806376721076,-0.000119358,0.0001193585));
#1067=CARTESIAN_POINT('',(-0.00972687945203375,-0.00955808145203375,0.0001193585));
#1068=CARTESIAN_POINT('',(-0.006553433,-3.7744E-05,0.0001193585));
#1069=VECTOR('',#1332,1.0);
#1070=CARTESIAN_POINT('',(-0.000288156000000001,-0.000119358,0.0001193585));
#1071=CARTESIAN_POINT('',(0.0,-0.000119358,0.0001193585));
#1072=VECTOR('',#1333,1.0);
#1073=CARTESIAN_POINT('',(-0.010084399,-0.009915601,0.0001193585));
#1074=VECTOR('',#1334,1.0);
#1075=CARTESIAN_POINT('',(-0.0065806376721076,0.000119358,0.0001193585));
#1076=CARTESIAN_POINT('',(-0.000288156,0.000119358,0.0001193585));
#1077=CARTESIAN_POINT('',(-0.006666667,0.000119358,0.0001193585));
#1078=VECTOR('',#1335,1.0);
#1079=CARTESIAN_POINT('',(-0.00972687945203375,0.00955808145203375,0.0001193585));
#1080=CARTESIAN_POINT('',(-0.009886767,0.010037744,0.0001193585));
#1081=VECTOR('',#1336,1.0);
#1082=CARTESIAN_POINT('',(-8.4399E-05,-8.4399E-05,0.0001193585));
#1083=VECTOR('',#1337,1.0);
#1084=CARTESIAN_POINT('',(0.0065806376721076,-0.000119358,0.0001193585));
#1085=CARTESIAN_POINT('',(0.000288156,-0.000119358,0.0001193585));
#1086=CARTESIAN_POINT('',(0.006666667,-0.000119358,0.0001193585));
#1087=VECTOR('',#1338,1.0);
#1088=CARTESIAN_POINT('',(0.00972687945203375,-0.00955808145203375,0.0001193585));
#1089=CARTESIAN_POINT('',(0.009886767,-0.010037744,0.0001193585));
#1090=VECTOR('',#1339,1.0);
#1091=CARTESIAN_POINT('',(8.4399E-05,8.4399E-05,0.0001193585));
#1092=VECTOR('',#1340,1.0);
#1093=CARTESIAN_POINT('',(0.000119358,0.0065806376721076,0.0001193585));
#1094=CARTESIAN_POINT('',(0.000119358,0.000288155999999999,0.0001193585));
#1095=CARTESIAN_POINT('',(0.000119358,0.006666667,0.0001193585));
#1096=VECTOR('',#1341,1.0);
#1097=CARTESIAN_POINT('',(0.00955808145203375,0.00972687945203375,0.0001193585));
#1098=CARTESIAN_POINT('',(0.010037744,0.009886767,0.0001193585));
#1099=VECTOR('',#1342,1.0);
#1100=CARTESIAN_POINT('',(-8.4399E-05,8.4399E-05,0.0001193585));
#1101=VECTOR('',#1343,1.0);
#1102=CARTESIAN_POINT('',(0.0065806376721076,0.000119358,0.0001193585));
#1103=CARTESIAN_POINT('',(0.00972687945203375,0.00955808145203375,0.0001193585));
#1104=CARTESIAN_POINT('',(0.006553433,3.7744E-05,0.0001193585));
#1105=VECTOR('',#1344,1.0);
#1106=CARTESIAN_POINT('',(0.000288156000000001,0.000119358,0.0001193585));
#1107=CARTESIAN_POINT('',(0.0,0.000119358,0.0001193585));
#1108=VECTOR('',#1345,1.0);
#1109=CARTESIAN_POINT('',(0.010084399,0.009915601,0.0001193585));
#1110=VECTOR('',#1346,1.0);
#1111=CARTESIAN_POINT('',(-0.000119358,0.0065806376721076,0.0001193585));
#1112=CARTESIAN_POINT('',(-0.00955808145203375,0.00972687945203375,0.0001193585));
#1113=CARTESIAN_POINT('',(-3.7744E-05,0.006553433,0.0001193585));
#1114=VECTOR('',#1347,1.0);
#1115=CARTESIAN_POINT('',(-0.000119358,0.000288156,0.0001193585));
#1116=CARTESIAN_POINT('',(-0.000119358,0.0,0.0001193585));
#1117=VECTOR('',#1348,1.0);
#1118=CARTESIAN_POINT('',(-0.009915601,0.010084399,0.0001193585));
#1119=VECTOR('',#1349,1.0);
#1120=CARTESIAN_POINT('',(-0.0096225569660301,-0.01,-0.0001193585));
#1121=CARTESIAN_POINT('',(-0.0032767165,-0.01,-0.0001193585));
#1122=VECTOR('',#1350,1.0);
#1123=CARTESIAN_POINT('',(-0.0096225569660301,-0.01,0.0));
#1124=VECTOR('',#1351,1.0);
#1125=CARTESIAN_POINT('',(0.01,-0.01,-0.0001193585));
#1126=CARTESIAN_POINT('',(0.01,-0.01,0.0));
#1127=VECTOR('',#1352,1.0);
#1128=CARTESIAN_POINT('',(0.0096225569660301,-0.01,-0.0001193585));
#1129=CARTESIAN_POINT('',(0.0096225569660301,-0.01,0.0));
#1130=VECTOR('',#1353,1.0);
#1131=CARTESIAN_POINT('',(-0.0032767165,-0.01,-0.0001193585));
#1132=VECTOR('',#1354,1.0);
#1133=CARTESIAN_POINT('',(-1.73472347597681E-18,-0.0067924813320752,-0.0001193585));
#1134=CARTESIAN_POINT('',(3.7744E-05,-0.0067799,-0.0001193585));
#1135=VECTOR('',#1355,1.0);
#1136=CARTESIAN_POINT('',(8.67361737988404E-19,-0.0067924813320752,0.0));
#1137=VECTOR('',#1356,1.0);
#1138=CARTESIAN_POINT('',(0.0096225569660301,0.01,-0.0001193585));
#1139=CARTESIAN_POINT('',(0.0096225569660301,0.01,0.0));
#1140=VECTOR('',#1357,1.0);
#1141=CARTESIAN_POINT('',(0.01,0.01,-0.0001193585));
#1142=CARTESIAN_POINT('',(0.01,0.01,0.0));
#1143=VECTOR('',#1358,1.0);
#1144=CARTESIAN_POINT('',(-0.0032767165,0.01,-0.0001193585));
#1145=VECTOR('',#1359,1.0);
#1146=CARTESIAN_POINT('',(-0.0096225569660301,0.01,-0.0001193585));
#1147=CARTESIAN_POINT('',(-0.0096225569660301,0.01,0.0));
#1148=VECTOR('',#1360,1.0);
#1149=CARTESIAN_POINT('',(-0.0032767165,0.01,-0.0001193585));
#1150=VECTOR('',#1361,1.0);
#1151=CARTESIAN_POINT('',(0.01,0.0096225569660301,-0.0001193585));
#1152=CARTESIAN_POINT('',(0.01,0.0096225569660301,0.0));
#1153=VECTOR('',#1362,1.0);
#1154=CARTESIAN_POINT('',(0.0067924813320752,1.51788304147971E-18,-0.0001193585));
#1155=CARTESIAN_POINT('',(0.0067924813320752,8.67361737988404E-19,0.0));
#1156=VECTOR('',#1363,1.0);
#1157=CARTESIAN_POINT('',(0.010113233,0.009962256,-0.0001193585));
#1158=VECTOR('',#1364,1.0);
#1159=CARTESIAN_POINT('',(0.01,-0.0096225569660301,-0.0001193585));
#1160=CARTESIAN_POINT('',(0.01,-0.0096225569660301,0.0));
#1161=VECTOR('',#1365,1.0);
#1162=CARTESIAN_POINT('',(0.0067799,3.7744E-05,-0.0001193585));
#1163=VECTOR('',#1366,1.0);
#1164=CARTESIAN_POINT('',(-0.000119358,0.000288156,-0.0001193585));
#1165=CARTESIAN_POINT('',(-0.000119358,0.000288156000000002,0.0));
#1166=VECTOR('',#1367,1.0);
#1167=CARTESIAN_POINT('',(-0.00955808145203375,0.00972687945203375,-0.0001193585));
#1168=CARTESIAN_POINT('',(-0.009915601,0.010084399,-0.0001193585));
#1169=VECTOR('',#1368,1.0);
#1170=CARTESIAN_POINT('',(-0.00955808145203375,0.00972687945203375,0.0));
#1171=VECTOR('',#1369,1.0);
#1172=CARTESIAN_POINT('',(-0.000288155999999999,0.000119358,-0.0001193585));
#1173=CARTESIAN_POINT('',(-0.000288155999999999,0.000119358,0.0));
#1174=VECTOR('',#1370,1.0);
#1175=CARTESIAN_POINT('',(-0.00972687945203375,0.00955808145203375,-0.0001193585));
#1176=CARTESIAN_POINT('',(-0.00972687945203375,0.00955808145203375,0.0));
#1177=VECTOR('',#1371,1.0);
#1178=CARTESIAN_POINT('',(-8.4399E-05,-8.4399E-05,-0.0001193585));
#1179=VECTOR('',#1372,1.0);
#1180=CARTESIAN_POINT('',(-0.000119358,0.0065806376721076,-0.0001193585));
#1181=CARTESIAN_POINT('',(-0.000119358,0.0065806376721076,0.0));
#1182=VECTOR('',#1373,1.0);
#1183=CARTESIAN_POINT('',(-0.000119358,0.0,-0.0001193585));
#1184=VECTOR('',#1374,1.0);
#1185=CARTESIAN_POINT('',(-0.0065806376721076,0.000119358,-0.0001193585));
#1186=CARTESIAN_POINT('',(-0.0065806376721076,0.000119358,0.0));
#1187=VECTOR('',#1375,1.0);
#1188=CARTESIAN_POINT('',(-0.009886767,0.010037744,-0.0001193585));
#1189=VECTOR('',#1376,1.0);
#1190=CARTESIAN_POINT('',(0.000119358,0.000288156,-0.0001193585));
#1191=CARTESIAN_POINT('',(0.000119358,0.000288155999999999,0.0));
#1192=VECTOR('',#1377,1.0);
#1193=CARTESIAN_POINT('',(0.00955808145203375,0.00972687945203375,-0.0001193585));
#1194=CARTESIAN_POINT('',(0.00955808145203375,0.00972687945203375,0.0));
#1195=VECTOR('',#1378,1.0);
#1196=CARTESIAN_POINT('',(-8.4399E-05,8.4399E-05,-0.0001193585));
#1197=VECTOR('',#1379,1.0);
#1198=CARTESIAN_POINT('',(0.000288156000000001,0.000119358,-0.0001193585));
#1199=CARTESIAN_POINT('',(0.000288156000000002,0.000119358,0.0));
#1200=VECTOR('',#1380,1.0);
#1201=CARTESIAN_POINT('',(0.00972687945203375,0.00955808145203375,-0.0001193585));
#1202=CARTESIAN_POINT('',(0.010084399,0.009915601,-0.0001193585));
#1203=VECTOR('',#1381,1.0);
#1204=CARTESIAN_POINT('',(0.00972687945203375,0.00955808145203375,0.0));
#1205=VECTOR('',#1382,1.0);
#1206=CARTESIAN_POINT('',(0.0065806376721076,0.000119358,-0.0001193585));
#1207=CARTESIAN_POINT('',(0.0065806376721076,0.000119358,0.0));
#1208=VECTOR('',#1383,1.0);
#1209=CARTESIAN_POINT('',(0.0,0.000119358,-0.0001193585));
#1210=VECTOR('',#1384,1.0);
#1211=CARTESIAN_POINT('',(0.000119358,0.0065806376721076,-0.0001193585));
#1212=CARTESIAN_POINT('',(0.000119358,0.0065806376721076,0.0));
#1213=VECTOR('',#1385,1.0);
#1214=CARTESIAN_POINT('',(0.010037744,0.009886767,-0.0001193585));
#1215=VECTOR('',#1386,1.0);
#1216=CARTESIAN_POINT('',(0.00955808145203375,-0.00972687945203375,-0.0001193585));
#1217=CARTESIAN_POINT('',(0.00955808145203375,-0.00972687945203375,0.0));
#1218=VECTOR('',#1387,1.0);
#1219=CARTESIAN_POINT('',(0.000119358,-0.000288156,-0.0001193585));
#1220=CARTESIAN_POINT('',(0.000119358,-0.000288156000000002,0.0));
#1221=VECTOR('',#1388,1.0);
#1222=CARTESIAN_POINT('',(0.009915601,-0.010084399,-0.0001193585));
#1223=VECTOR('',#1389,1.0);
#1224=CARTESIAN_POINT('',(0.00972687945203375,-0.00955808145203375,-0.0001193585));
#1225=CARTESIAN_POINT('',(0.00972687945203375,-0.00955808145203375,0.0));
#1226=VECTOR('',#1390,1.0);
#1227=CARTESIAN_POINT('',(0.000288155999999999,-0.000119358,-0.0001193585));
#1228=CARTESIAN_POINT('',(8.4399E-05,8.4399E-05,-0.0001193585));
#1229=VECTOR('',#1391,1.0);
#1230=CARTESIAN_POINT('',(0.000288155999999999,-0.000119358,0.0));
#1231=VECTOR('',#1392,1.0);
#1232=CARTESIAN_POINT('',(0.0065806376721076,-0.000119358,-0.0001193585));
#1233=CARTESIAN_POINT('',(0.0065806376721076,-0.000119358,0.0));
#1234=VECTOR('',#1393,1.0);
#1235=CARTESIAN_POINT('',(0.009886767,-0.010037744,-0.0001193585));
#1236=VECTOR('',#1394,1.0);
#1237=CARTESIAN_POINT('',(0.006666667,-0.000119358,-0.0001193585));
#1238=VECTOR('',#1395,1.0);
#1239=CARTESIAN_POINT('',(0.006553433,3.7744E-05,-0.0001193585));
#1240=VECTOR('',#1396,1.0);
#1241=CARTESIAN_POINT('',(0.000119358,0.006666667,-0.0001193585));
#1242=VECTOR('',#1397,1.0);
#1243=CARTESIAN_POINT('',(-0.00955808145203375,-0.00972687945203375,-0.0001193585));
#1244=CARTESIAN_POINT('',(-0.00955808145203375,-0.00972687945203375,0.0));
#1245=VECTOR('',#1398,1.0);
#1246=CARTESIAN_POINT('',(-0.000119358,-0.000288156,-0.0001193585));
#1247=CARTESIAN_POINT('',(8.4399E-05,-8.4399E-05,-0.0001193585));
#1248=VECTOR('',#1399,1.0);
#1249=CARTESIAN_POINT('',(-0.000119358,-0.000288155999999999,0.0));
#1250=VECTOR('',#1400,1.0);
#1251=CARTESIAN_POINT('',(-0.00972687945203375,-0.00955808145203375,-0.0001193585));
#1252=CARTESIAN_POINT('',(-0.00972687945203375,-0.00955808145203375,0.0));
#1253=VECTOR('',#1401,1.0);
#1254=CARTESIAN_POINT('',(-0.000288156000000001,-0.000119358,-0.0001193585));
#1255=CARTESIAN_POINT('',(-0.000288156000000002,-0.000119358,0.0));
#1256=VECTOR('',#1402,1.0);
#1257=CARTESIAN_POINT('',(-0.010084399,-0.009915601,-0.0001193585));
#1258=VECTOR('',#1403,1.0);
#1259=CARTESIAN_POINT('',(-0.0065806376721076,-0.000119358,-0.0001193585));
#1260=CARTESIAN_POINT('',(-0.006553433,-3.7744E-05,-0.0001193585));
#1261=VECTOR('',#1404,1.0);
#1262=CARTESIAN_POINT('',(-0.0065806376721076,-0.000119358,0.0));
#1263=VECTOR('',#1405,1.0);
#1264=CARTESIAN_POINT('',(-0.0067924813320752,0.0,-0.0001193585));
#1265=CARTESIAN_POINT('',(-0.010113233,-0.009962256,-0.0001193585));
#1266=VECTOR('',#1406,1.0);
#1267=CARTESIAN_POINT('',(-0.0067799,-3.7744E-05,-0.0001193585));
#1268=VECTOR('',#1407,1.0);
#1269=CARTESIAN_POINT('',(-1.51788304147971E-18,0.0067924813320752,-0.0001193585));
#1270=CARTESIAN_POINT('',(-0.009962256,0.010113233,-0.0001193585));
#1271=VECTOR('',#1408,1.0);
#1272=CARTESIAN_POINT('',(-3.7744E-05,0.0067799,-0.0001193585));
#1273=VECTOR('',#1409,1.0);
#1274=CARTESIAN_POINT('',(0.01,-1.8872E-05,-0.0001193585));
#1275=VECTOR('',#1410,1.0);
#1276=CARTESIAN_POINT('',(0.01,-1.8872E-05,-0.0001193585));
#1277=VECTOR('',#1411,1.0);
#1278=CARTESIAN_POINT('',(0.009962256,-0.010113233,-0.0001193585));
#1279=VECTOR('',#1412,1.0);
#1280=CARTESIAN_POINT('',(0.000119358,-0.0065806376721076,-0.0001193585));
#1281=CARTESIAN_POINT('',(0.000119358,0.0,-0.0001193585));
#1282=VECTOR('',#1413,1.0);
#1283=CARTESIAN_POINT('',(3.7744E-05,-0.006553433,-0.0001193585));
#1284=VECTOR('',#1414,1.0);
#1285=CARTESIAN_POINT('',(-0.000119358,-0.0065806376721076,-0.0001193585));
#1286=CARTESIAN_POINT('',(-0.010037744,-0.009886767,-0.0001193585));
#1287=VECTOR('',#1415,1.0);
#1288=CARTESIAN_POINT('',(-0.000119358,-0.006666667,-0.0001193585));
#1289=VECTOR('',#1416,1.0);
#1290=CARTESIAN_POINT('',(0.0,-0.000119358,-0.0001193585));
#1291=VECTOR('',#1417,1.0);
#1292=CARTESIAN_POINT('',(-3.7744E-05,0.006553433,-0.0001193585));
#1293=VECTOR('',#1418,1.0);
#1294=CARTESIAN_POINT('',(-0.006666667,0.000119358,-0.0001193585));
#1295=VECTOR('',#1419,1.0);
#1296=CARTESIAN_POINT('',(-0.0067924813320752,-1.95156391047391E-18,0.0));
#1297=VECTOR('',#1420,1.0);
#1298=CARTESIAN_POINT('',(-0.000119358,-0.0065806376721076,0.0));
#1299=VECTOR('',#1421,1.0);
#1300=CARTESIAN_POINT('',(-8.67361737988404E-19,0.0067924813320752,0.0));
#1301=VECTOR('',#1422,1.0);
#1302=CARTESIAN_POINT('',(0.000119358,-0.0065806376721076,0.0));
#1303=VECTOR('',#1423,1.0);
#1304=DIRECTION('',(-0.0,1.0,0.0));
#1305=DIRECTION('',(0.0,0.0,1.0));
#1306=DIRECTION('',(0.0,-1.0,0.0));
#1307=DIRECTION('',(0.0,0.0,1.0));
#1308=DIRECTION('',(0.0,0.0,-1.0));
#1309=DIRECTION('',(-0.0,1.0,0.0));
#1310=DIRECTION('',(0.0,0.0,-1.0));
#1311=DIRECTION('',(0.0,-1.0,0.0));
#1312=DIRECTION('',(-1.0,0.0,0.0));
#1313=DIRECTION('',(-0.948683307537347,-0.316227737556338,0.0));
#1314=DIRECTION('',(-0.948683307537347,0.316227737556339,0.0));
#1315=DIRECTION('',(-1.0,0.0,0.0));
#1316=DIRECTION('',(-0.0,1.0,0.0));
#1317=DIRECTION('',(0.316227737556338,-0.948683307537347,0.0));
#1318=DIRECTION('',(-0.316227737556339,-0.948683307537347,0.0));
#1319=DIRECTION('',(-0.0,1.0,0.0));
#1320=DIRECTION('',(-1.0,0.0,0.0));
#1321=DIRECTION('',(0.948683307537347,0.316227737556338,0.0));
#1322=DIRECTION('',(0.948683307537347,-0.316227737556339,0.0));
#1323=DIRECTION('',(-1.0,0.0,0.0));
#1324=DIRECTION('',(-0.316227737556338,0.948683307537347,0.0));
#1325=DIRECTION('',(0.316227737556339,0.948683307537347,0.0));
#1326=DIRECTION('',(0.0,1.0,0.0));
#1327=DIRECTION('',(0.948683279076847,0.316227822937834,0.0));
#1328=DIRECTION('',(-0.707106781186548,-0.707106781186547,0.0));
#1329=DIRECTION('',(0.948683279076846,-0.316227822937834,0.0));
#1330=DIRECTION('',(0.0,-1.0,0.0));
#1331=DIRECTION('',(-0.707106781186548,0.707106781186547,0.0));
#1332=DIRECTION('',(-0.316227822937834,-0.948683279076846,0.0));
#1333=DIRECTION('',(-1.0,0.0,0.0));
#1334=DIRECTION('',(0.707106781186547,0.707106781186548,0.0));
#1335=DIRECTION('',(1.0,0.0,0.0));
#1336=DIRECTION('',(0.316227822937834,-0.948683279076847,0.0));
#1337=DIRECTION('',(-0.707106781186547,0.707106781186548,0.0));
#1338=DIRECTION('',(-1.0,0.0,0.0));
#1339=DIRECTION('',(-0.316227822937834,0.948683279076847,0.0));
#1340=DIRECTION('',(0.707106781186547,-0.707106781186548,0.0));
#1341=DIRECTION('',(0.0,-1.0,0.0));
#1342=DIRECTION('',(-0.948683279076847,-0.316227822937834,0.0));
#1343=DIRECTION('',(0.707106781186548,0.707106781186547,0.0));
#1344=DIRECTION('',(0.316227822937834,0.948683279076846,0.0));
#1345=DIRECTION('',(1.0,0.0,0.0));
#1346=DIRECTION('',(-0.707106781186547,-0.707106781186548,0.0));
#1347=DIRECTION('',(-0.948683279076846,0.316227822937834,0.0));
#1348=DIRECTION('',(0.0,1.0,0.0));
#1349=DIRECTION('',(0.707106781186548,-0.707106781186547,0.0));
#1350=DIRECTION('',(1.0,-0.0,0.0));
#1351=DIRECTION('',(-0.0,0.0,1.0));
#1352=DIRECTION('',(0.0,0.0,1.0));
#1353=DIRECTION('',(0.0,0.0,-1.0));
#1354=DIRECTION('',(1.0,-0.0,0.0));
#1355=DIRECTION('',(0.948683307537347,0.316227737556338,0.0));
#1356=DIRECTION('',(-0.0,0.0,1.0));
#1357=DIRECTION('',(0.0,0.0,-1.0));
#1358=DIRECTION('',(0.0,0.0,-1.0));
#1359=DIRECTION('',(1.0,-0.0,0.0));
#1360=DIRECTION('',(0.0,0.0,1.0));
#1361=DIRECTION('',(1.0,-0.0,0.0));
#1362=DIRECTION('',(-0.0,0.0,1.0));
#1363=DIRECTION('',(-0.0,0.0,1.0));
#1364=DIRECTION('',(0.316227737556339,0.948683307537347,0.0));
#1365=DIRECTION('',(0.0,0.0,-1.0));
#1366=DIRECTION('',(-0.316227737556338,0.948683307537347,0.0));
#1367=DIRECTION('',(0.0,-0.0,1.0));
#1368=DIRECTION('',(-0.707106781186548,0.707106781186547,0.0));
#1369=DIRECTION('',(0.0,0.0,-1.0));
#1370=DIRECTION('',(0.0,0.0,-1.0));
#1371=DIRECTION('',(0.0,0.0,1.0));
#1372=DIRECTION('',(0.707106781186547,-0.707106781186548,0.0));
#1373=DIRECTION('',(0.0,0.0,-1.0));
#1374=DIRECTION('',(-0.0,-1.0,-0.0));
#1375=DIRECTION('',(0.0,-0.0,1.0));
#1376=DIRECTION('',(-0.316227822937834,0.948683279076847,0.0));
#1377=DIRECTION('',(0.0,0.0,-1.0));
#1378=DIRECTION('',(0.0,0.0,1.0));
#1379=DIRECTION('',(-0.707106781186548,-0.707106781186547,-0.0));
#1380=DIRECTION('',(-0.0,-0.0,1.0));
#1381=DIRECTION('',(0.707106781186547,0.707106781186548,0.0));
#1382=DIRECTION('',(-0.0,-0.0,-1.0));
#1383=DIRECTION('',(0.0,0.0,-1.0));
#1384=DIRECTION('',(-1.0,-0.0,-0.0));
#1385=DIRECTION('',(-0.0,0.0,1.0));
#1386=DIRECTION('',(0.948683279076847,0.316227822937834,0.0));
#1387=DIRECTION('',(0.0,0.0,-1.0));
#1388=DIRECTION('',(0.0,0.0,1.0));
#1389=DIRECTION('',(0.707106781186548,-0.707106781186547,0.0));
#1390=DIRECTION('',(0.0,0.0,1.0));
#1391=DIRECTION('',(-0.707106781186547,0.707106781186548,0.0));
#1392=DIRECTION('',(0.0,0.0,-1.0));
#1393=DIRECTION('',(0.0,0.0,-1.0));
#1394=DIRECTION('',(0.316227822937834,-0.948683279076847,0.0));
#1395=DIRECTION('',(1.0,0.0,0.0));
#1396=DIRECTION('',(-0.316227822937834,-0.948683279076846,-0.0));
#1397=DIRECTION('',(0.0,1.0,0.0));
#1398=DIRECTION('',(-0.0,-0.0,1.0));
#1399=DIRECTION('',(0.707106781186548,0.707106781186547,0.0));
#1400=DIRECTION('',(-0.0,-0.0,-1.0));
#1401=DIRECTION('',(0.0,0.0,-1.0));
#1402=DIRECTION('',(0.0,-0.0,1.0));
#1403=DIRECTION('',(-0.707106781186547,-0.707106781186548,-0.0));
#1404=DIRECTION('',(0.316227822937834,0.948683279076846,0.0));
#1405=DIRECTION('',(-0.0,0.0,1.0));
#1406=DIRECTION('',(-0.316227737556339,-0.948683307537347,-0.0));
#1407=DIRECTION('',(0.316227737556338,-0.948683307537347,0.0));
#1408=DIRECTION('',(-0.948683307537347,0.316227737556339,0.0));
#1409=DIRECTION('',(-0.948683307537347,-0.316227737556338,-0.0));
#1410=DIRECTION('',(0.0,-1.0,0.0));
#1411=DIRECTION('',(0.0,-1.0,0.0));
#1412=DIRECTION('',(0.948683307537347,-0.316227737556339,0.0));
#1413=DIRECTION('',(0.0,1.0,0.0));
#1414=DIRECTION('',(-0.948683279076846,0.316227822937834,0.0));
#1415=DIRECTION('',(-0.948683279076847,-0.316227822937834,-0.0));
#1416=DIRECTION('',(-0.0,-1.0,-0.0));
#1417=DIRECTION('',(1.0,0.0,0.0));
#1418=DIRECTION('',(0.948683279076846,-0.316227822937834,0.0));
#1419=DIRECTION('',(-1.0,-0.0,-0.0));
#1420=DIRECTION('',(0.0,0.0,-1.0));
#1421=DIRECTION('',(0.0,0.0,-1.0));
#1422=DIRECTION('',(0.0,-0.0,1.0));
#1423=DIRECTION('',(0.0,0.0,1.0));
#1424=PRESENTATION_LAYER_ASSIGNMENT('9','\X2\56FE5C42\X0\0',(#25));
ENDSEC;
END-ISO-10303-21;
