ISO-10303-21;
HEADER;
FILE_DESCRIPTION(('STEP AP214'),'1');
FILE_NAME('C8.stp','2025-02-12T12:39:20',(' '),(' '),'Spatial InterOp 3D',' ',' ');
FILE_SCHEMA(('AUTOMOTIVE_DESIGN { 1 0 10303 214 1 1 1 1 }'));
ENDSEC;
DATA;
#1=MECHANICAL_DESIGN_GEOMETRIC_PRESENTATION_REPRESENTATION(' ',(#10),#6);
#2=PRODUCT_DEFINITION_CONTEXT('',#11,'design');
#3=APPLICATION_PROTOCOL_DEFINITION('INTERNATIONAL STANDARD','automotive_design',1994,#11);
#4=PRODUCT_CATEGORY_RELATIONSHIP('NONE','NONE',#12,#13);
#5=SHAPE_DEFINITION_REPRESENTATION(#14,#15);
#6= (GEOMETRIC_REPRESENTATION_CONTEXT(3)GLOBAL_UNCERTAINTY_ASSIGNED_CONTEXT((#18))GLOBAL_UNIT_ASSIGNED_CONTEXT((#20,#21,#22))REPRESENTATION_CONTEXT('NONE','WORKSPACE'));
#10=STYLED_ITEM('',(#24),#25);
#11=APPLICATION_CONTEXT(' ');
#12=PRODUCT_CATEGORY('part','NONE');
#13=PRODUCT_RELATED_PRODUCT_CATEGORY('detail',' ',(#26));
#14=PRODUCT_DEFINITION_SHAPE('NONE','NONE',#27);
#15=ADVANCED_BREP_SHAPE_REPRESENTATION('\X2\5B9E4F53\X0\22',(#25,#28),#6);
#18=UNCERTAINTY_MEASURE_WITH_UNIT(LENGTH_MEASURE(1.0E-08),#20,'','');
#20= (CONVERSION_BASED_UNIT('METRE',#31)LENGTH_UNIT()NAMED_UNIT(#34));
#21= (NAMED_UNIT(#36)PLANE_ANGLE_UNIT()SI_UNIT($,.RADIAN.));
#22= (NAMED_UNIT(#36)SOLID_ANGLE_UNIT()SI_UNIT($,.STERADIAN.));
#24=PRESENTATION_STYLE_ASSIGNMENT((#42));
#25=MANIFOLD_SOLID_BREP('\X2\5B9E4F53\X0\22',#43);
#26=PRODUCT('\X2\5B9E4F53\X0\22','','PART--DESC',(#44));
#27=PRODUCT_DEFINITION('','NONE',#45,#2);
#28=AXIS2_PLACEMENT_3D('',#46,#47,#48);
#31=LENGTH_MEASURE_WITH_UNIT(LENGTH_MEASURE(1.0),#49);
#34=DIMENSIONAL_EXPONENTS(1.0,0.0,0.0,0.0,0.0,0.0,0.0);
#36=DIMENSIONAL_EXPONENTS(0.0,0.0,0.0,0.0,0.0,0.0,0.0);
#42=SURFACE_STYLE_USAGE(.BOTH.,#50);
#43=CLOSED_SHELL('',(#51,#52,#53,#54,#55,#56,#57,#58,#59,#60,#61,#62,#63,#64,#65,#66,#67,#68,#69,#70,#71,#72,#73,#74,#75,#76,#77,#78,#79,#80,#81,#82,#83,#84));
#44=PRODUCT_CONTEXT('',#11,'mechanical');
#45=PRODUCT_DEFINITION_FORMATION_WITH_SPECIFIED_SOURCE(' ','NONE',#26,.NOT_KNOWN.);
#46=CARTESIAN_POINT('',(0.0,0.0,0.0));
#47=DIRECTION('',(0.0,0.0,1.0));
#48=DIRECTION('',(1.0,0.0,0.0));
#49= (NAMED_UNIT(#34)LENGTH_UNIT()SI_UNIT($,.METRE.));
#50=SURFACE_SIDE_STYLE('',(#86));
#51=ADVANCED_FACE('2:7288',(#87),#88,.F.);
#52=ADVANCED_FACE('2:7285',(#89),#90,.F.);
#53=ADVANCED_FACE('2:7324',(#91),#92,.T.);
#54=ADVANCED_FACE('2:7311',(#93,#94,#95,#96,#97),#98,.F.);
#55=ADVANCED_FACE('2:6450',(#99),#100,.F.);
#56=ADVANCED_FACE('2:6447',(#101),#102,.F.);
#57=ADVANCED_FACE('2:6483',(#103),#104,.T.);
#58=ADVANCED_FACE('2:6069',(#105),#106,.T.);
#59=ADVANCED_FACE('2:6066',(#107),#108,.T.);
#60=ADVANCED_FACE('2:5736',(#109),#110,.T.);
#61=ADVANCED_FACE('2:7295',(#111,#112,#113,#114,#115),#116,.T.);
#62=ADVANCED_FACE('2:5703',(#117),#118,.T.);
#63=ADVANCED_FACE('2:2636',(#119),#120,.T.);
#64=ADVANCED_FACE('2:2630',(#121),#122,.T.);
#65=ADVANCED_FACE('2:1766',(#123),#124,.T.);
#66=ADVANCED_FACE('2:2414',(#125),#126,.T.);
#67=ADVANCED_FACE('2:2420',(#127),#128,.T.);
#68=ADVANCED_FACE('2:2198',(#129),#130,.T.);
#69=ADVANCED_FACE('2:2204',(#131),#132,.T.);
#70=ADVANCED_FACE('2:1334',(#133),#134,.T.);
#71=ADVANCED_FACE('2:1988',(#135),#136,.T.);
#72=ADVANCED_FACE('2:1982',(#137),#138,.T.);
#73=ADVANCED_FACE('2:6129',(#139),#140,.T.);
#74=ADVANCED_FACE('2:1772',(#141),#142,.T.);
#75=ADVANCED_FACE('2:1550',(#143),#144,.T.);
#76=ADVANCED_FACE('2:1124',(#145),#146,.T.);
#77=ADVANCED_FACE('2:1556',(#147),#148,.T.);
#78=ADVANCED_FACE('2:1340',(#149),#150,.T.);
#79=ADVANCED_FACE('2:1118',(#151),#152,.T.);
#80=ADVANCED_FACE('2:7331',(#153),#154,.T.);
#81=ADVANCED_FACE('2:6503',(#155),#156,.T.);
#82=ADVANCED_FACE('2:6083',(#157),#158,.T.);
#83=ADVANCED_FACE('2:5660',(#159),#160,.T.);
#84=ADVANCED_FACE('2:5663',(#161),#162,.T.);
#86=SURFACE_STYLE_FILL_AREA(#163);
#87=FACE_OUTER_BOUND('',#164,.T.);
#88=PLANE('',#165);
#89=FACE_OUTER_BOUND('',#166,.T.);
#90=PLANE('',#167);
#91=FACE_OUTER_BOUND('',#168,.T.);
#92=PLANE('',#169);
#93=FACE_BOUND('',#170,.T.);
#94=FACE_BOUND('',#171,.T.);
#95=FACE_BOUND('',#172,.T.);
#96=FACE_BOUND('',#173,.T.);
#97=FACE_OUTER_BOUND('',#174,.T.);
#98=PLANE('',#175);
#99=FACE_OUTER_BOUND('',#176,.T.);
#100=PLANE('',#177);
#101=FACE_OUTER_BOUND('',#178,.T.);
#102=PLANE('',#179);
#103=FACE_OUTER_BOUND('',#180,.T.);
#104=PLANE('',#181);
#105=FACE_OUTER_BOUND('',#182,.T.);
#106=PLANE('',#183);
#107=FACE_OUTER_BOUND('',#184,.T.);
#108=PLANE('',#185);
#109=FACE_OUTER_BOUND('',#186,.T.);
#110=PLANE('',#187);
#111=FACE_OUTER_BOUND('',#188,.T.);
#112=FACE_BOUND('',#189,.T.);
#113=FACE_BOUND('',#190,.T.);
#114=FACE_BOUND('',#191,.T.);
#115=FACE_BOUND('',#192,.T.);
#116=PLANE('',#193);
#117=FACE_OUTER_BOUND('',#194,.T.);
#118=PLANE('',#195);
#119=FACE_OUTER_BOUND('',#196,.T.);
#120=PLANE('',#197);
#121=FACE_OUTER_BOUND('',#198,.T.);
#122=PLANE('',#199);
#123=FACE_OUTER_BOUND('',#200,.T.);
#124=PLANE('',#201);
#125=FACE_OUTER_BOUND('',#202,.T.);
#126=PLANE('',#203);
#127=FACE_OUTER_BOUND('',#204,.T.);
#128=PLANE('',#205);
#129=FACE_OUTER_BOUND('',#206,.T.);
#130=PLANE('',#207);
#131=FACE_OUTER_BOUND('',#208,.T.);
#132=PLANE('',#209);
#133=FACE_OUTER_BOUND('',#210,.T.);
#134=PLANE('',#211);
#135=FACE_OUTER_BOUND('',#212,.T.);
#136=PLANE('',#213);
#137=FACE_OUTER_BOUND('',#214,.T.);
#138=PLANE('',#215);
#139=FACE_OUTER_BOUND('',#216,.T.);
#140=PLANE('',#217);
#141=FACE_OUTER_BOUND('',#218,.T.);
#142=PLANE('',#219);
#143=FACE_OUTER_BOUND('',#220,.T.);
#144=PLANE('',#221);
#145=FACE_OUTER_BOUND('',#222,.T.);
#146=PLANE('',#223);
#147=FACE_OUTER_BOUND('',#224,.T.);
#148=PLANE('',#225);
#149=FACE_OUTER_BOUND('',#226,.T.);
#150=PLANE('',#227);
#151=FACE_OUTER_BOUND('',#228,.T.);
#152=PLANE('',#229);
#153=FACE_OUTER_BOUND('',#230,.T.);
#154=PLANE('',#231);
#155=FACE_OUTER_BOUND('',#232,.T.);
#156=PLANE('',#233);
#157=FACE_OUTER_BOUND('',#234,.T.);
#158=PLANE('',#235);
#159=FACE_OUTER_BOUND('',#236,.T.);
#160=PLANE('',#237);
#161=FACE_OUTER_BOUND('',#238,.T.);
#162=PLANE('',#239);
#163=FILL_AREA_STYLE('',(#240));
#164=EDGE_LOOP('',(#241,#242,#243,#244));
#165=AXIS2_PLACEMENT_3D('',#245,#246,#247);
#166=EDGE_LOOP('',(#248,#249,#250,#251));
#167=AXIS2_PLACEMENT_3D('',#252,#253,#254);
#168=EDGE_LOOP('',(#255,#256,#257,#258));
#169=AXIS2_PLACEMENT_3D('',#259,#260,#261);
#170=EDGE_LOOP('',(#262,#263,#264));
#171=EDGE_LOOP('',(#265,#266,#267));
#172=EDGE_LOOP('',(#268,#269,#270));
#173=EDGE_LOOP('',(#271,#272,#273));
#174=EDGE_LOOP('',(#274,#275,#276,#277,#278,#279,#280,#281,#282,#283,#284,#285,#286,#287,#288,#289,#290,#291,#292,#293));
#175=AXIS2_PLACEMENT_3D('',#294,#295,#296);
#176=EDGE_LOOP('',(#297,#298,#299,#300));
#177=AXIS2_PLACEMENT_3D('',#301,#302,#303);
#178=EDGE_LOOP('',(#304,#305,#306,#307));
#179=AXIS2_PLACEMENT_3D('',#308,#309,#310);
#180=EDGE_LOOP('',(#311,#312,#313,#314));
#181=AXIS2_PLACEMENT_3D('',#315,#316,#317);
#182=EDGE_LOOP('',(#318,#319,#320,#321));
#183=AXIS2_PLACEMENT_3D('',#322,#323,#324);
#184=EDGE_LOOP('',(#325,#326,#327,#328));
#185=AXIS2_PLACEMENT_3D('',#329,#330,#331);
#186=EDGE_LOOP('',(#332,#333,#334,#335));
#187=AXIS2_PLACEMENT_3D('',#336,#337,#338);
#188=EDGE_LOOP('',(#339,#340,#341,#342,#343,#344,#345,#346,#347,#348,#349,#350,#351,#352,#353,#354,#355,#356,#357,#358));
#189=EDGE_LOOP('',(#359,#360,#361));
#190=EDGE_LOOP('',(#362,#363,#364));
#191=EDGE_LOOP('',(#365,#366,#367));
#192=EDGE_LOOP('',(#368,#369,#370));
#193=AXIS2_PLACEMENT_3D('',#371,#372,#373);
#194=EDGE_LOOP('',(#374,#375,#376,#377));
#195=AXIS2_PLACEMENT_3D('',#378,#379,#380);
#196=EDGE_LOOP('',(#381,#382,#383,#384));
#197=AXIS2_PLACEMENT_3D('',#385,#386,#387);
#198=EDGE_LOOP('',(#388,#389,#390,#391));
#199=AXIS2_PLACEMENT_3D('',#392,#393,#394);
#200=EDGE_LOOP('',(#395,#396,#397,#398));
#201=AXIS2_PLACEMENT_3D('',#399,#400,#401);
#202=EDGE_LOOP('',(#402,#403,#404,#405));
#203=AXIS2_PLACEMENT_3D('',#406,#407,#408);
#204=EDGE_LOOP('',(#409,#410,#411,#412));
#205=AXIS2_PLACEMENT_3D('',#413,#414,#415);
#206=EDGE_LOOP('',(#416,#417,#418,#419));
#207=AXIS2_PLACEMENT_3D('',#420,#421,#422);
#208=EDGE_LOOP('',(#423,#424,#425,#426));
#209=AXIS2_PLACEMENT_3D('',#427,#428,#429);
#210=EDGE_LOOP('',(#430,#431,#432,#433));
#211=AXIS2_PLACEMENT_3D('',#434,#435,#436);
#212=EDGE_LOOP('',(#437,#438,#439,#440));
#213=AXIS2_PLACEMENT_3D('',#441,#442,#443);
#214=EDGE_LOOP('',(#444,#445,#446,#447));
#215=AXIS2_PLACEMENT_3D('',#448,#449,#450);
#216=EDGE_LOOP('',(#451,#452,#453,#454));
#217=AXIS2_PLACEMENT_3D('',#455,#456,#457);
#218=EDGE_LOOP('',(#458,#459,#460,#461));
#219=AXIS2_PLACEMENT_3D('',#462,#463,#464);
#220=EDGE_LOOP('',(#465,#466,#467,#468));
#221=AXIS2_PLACEMENT_3D('',#469,#470,#471);
#222=EDGE_LOOP('',(#472,#473,#474,#475));
#223=AXIS2_PLACEMENT_3D('',#476,#477,#478);
#224=EDGE_LOOP('',(#479,#480,#481,#482));
#225=AXIS2_PLACEMENT_3D('',#483,#484,#485);
#226=EDGE_LOOP('',(#486,#487,#488,#489));
#227=AXIS2_PLACEMENT_3D('',#490,#491,#492);
#228=EDGE_LOOP('',(#493,#494,#495,#496));
#229=AXIS2_PLACEMENT_3D('',#497,#498,#499);
#230=EDGE_LOOP('',(#500,#501,#502,#503));
#231=AXIS2_PLACEMENT_3D('',#504,#505,#506);
#232=EDGE_LOOP('',(#507,#508,#509,#510));
#233=AXIS2_PLACEMENT_3D('',#511,#512,#513);
#234=EDGE_LOOP('',(#514,#515,#516,#517));
#235=AXIS2_PLACEMENT_3D('',#518,#519,#520);
#236=EDGE_LOOP('',(#521,#522,#523,#524));
#237=AXIS2_PLACEMENT_3D('',#525,#526,#527);
#238=EDGE_LOOP('',(#528,#529,#530,#531));
#239=AXIS2_PLACEMENT_3D('',#532,#533,#534);
#240=FILL_AREA_STYLE_COLOUR('',#535);
#241=ORIENTED_EDGE('',*,*,#536,.T.);
#242=ORIENTED_EDGE('',*,*,#537,.T.);
#243=ORIENTED_EDGE('',*,*,#538,.T.);
#244=ORIENTED_EDGE('',*,*,#539,.T.);
#245=CARTESIAN_POINT('',(-0.01,0.0,0.0));
#246=DIRECTION('',(1.0,0.0,0.0));
#247=DIRECTION('',(0.0,1.0,0.0));
#248=ORIENTED_EDGE('',*,*,#540,.F.);
#249=ORIENTED_EDGE('',*,*,#541,.T.);
#250=ORIENTED_EDGE('',*,*,#542,.T.);
#251=ORIENTED_EDGE('',*,*,#543,.T.);
#252=CARTESIAN_POINT('',(-0.01,0.0,0.0));
#253=DIRECTION('',(1.0,0.0,0.0));
#254=DIRECTION('',(0.0,1.0,0.0));
#255=ORIENTED_EDGE('',*,*,#537,.F.);
#256=ORIENTED_EDGE('',*,*,#544,.T.);
#257=ORIENTED_EDGE('',*,*,#545,.T.);
#258=ORIENTED_EDGE('',*,*,#546,.T.);
#259=CARTESIAN_POINT('',(-0.008135243,0.007864757,0.0));
#260=DIRECTION('',(-0.707106781186548,-0.707106781186547,-0.0));
#261=DIRECTION('',(-0.707106781186547,0.707106781186548,0.0));
#262=ORIENTED_EDGE('',*,*,#547,.F.);
#263=ORIENTED_EDGE('',*,*,#548,.F.);
#264=ORIENTED_EDGE('',*,*,#549,.F.);
#265=ORIENTED_EDGE('',*,*,#550,.F.);
#266=ORIENTED_EDGE('',*,*,#551,.F.);
#267=ORIENTED_EDGE('',*,*,#552,.F.);
#268=ORIENTED_EDGE('',*,*,#553,.F.);
#269=ORIENTED_EDGE('',*,*,#554,.F.);
#270=ORIENTED_EDGE('',*,*,#555,.F.);
#271=ORIENTED_EDGE('',*,*,#556,.F.);
#272=ORIENTED_EDGE('',*,*,#557,.F.);
#273=ORIENTED_EDGE('',*,*,#558,.F.);
#274=ORIENTED_EDGE('',*,*,#541,.F.);
#275=ORIENTED_EDGE('',*,*,#559,.F.);
#276=ORIENTED_EDGE('',*,*,#560,.F.);
#277=ORIENTED_EDGE('',*,*,#561,.F.);
#278=ORIENTED_EDGE('',*,*,#562,.F.);
#279=ORIENTED_EDGE('',*,*,#563,.F.);
#280=ORIENTED_EDGE('',*,*,#564,.T.);
#281=ORIENTED_EDGE('',*,*,#565,.F.);
#282=ORIENTED_EDGE('',*,*,#566,.F.);
#283=ORIENTED_EDGE('',*,*,#567,.F.);
#284=ORIENTED_EDGE('',*,*,#568,.T.);
#285=ORIENTED_EDGE('',*,*,#569,.T.);
#286=ORIENTED_EDGE('',*,*,#570,.F.);
#287=ORIENTED_EDGE('',*,*,#571,.F.);
#288=ORIENTED_EDGE('',*,*,#572,.F.);
#289=ORIENTED_EDGE('',*,*,#573,.T.);
#290=ORIENTED_EDGE('',*,*,#538,.F.);
#291=ORIENTED_EDGE('',*,*,#546,.F.);
#292=ORIENTED_EDGE('',*,*,#574,.F.);
#293=ORIENTED_EDGE('',*,*,#575,.F.);
#294=CARTESIAN_POINT('',(-0.010135243,-0.009864757,0.000191262));
#295=DIRECTION('',(0.0,0.0,-1.0));
#296=DIRECTION('',(-1.0,0.0,0.0));
#297=ORIENTED_EDGE('',*,*,#576,.T.);
#298=ORIENTED_EDGE('',*,*,#577,.T.);
#299=ORIENTED_EDGE('',*,*,#559,.T.);
#300=ORIENTED_EDGE('',*,*,#540,.T.);
#301=CARTESIAN_POINT('',(0.0,-0.01,0.0));
#302=DIRECTION('',(0.0,1.0,0.0));
#303=DIRECTION('',(0.0,0.0,1.0));
#304=ORIENTED_EDGE('',*,*,#578,.T.);
#305=ORIENTED_EDGE('',*,*,#563,.T.);
#306=ORIENTED_EDGE('',*,*,#579,.T.);
#307=ORIENTED_EDGE('',*,*,#580,.T.);
#308=CARTESIAN_POINT('',(0.0,-0.01,0.0));
#309=DIRECTION('',(0.0,1.0,0.0));
#310=DIRECTION('',(0.0,0.0,1.0));
#311=ORIENTED_EDGE('',*,*,#577,.F.);
#312=ORIENTED_EDGE('',*,*,#581,.T.);
#313=ORIENTED_EDGE('',*,*,#582,.T.);
#314=ORIENTED_EDGE('',*,*,#560,.T.);
#315=CARTESIAN_POINT('',(-0.007864757,-0.008135243,0.0));
#316=DIRECTION('',(0.707106781186547,-0.707106781186548,0.0));
#317=DIRECTION('',(-0.707106781186548,-0.707106781186547,0.0));
#318=ORIENTED_EDGE('',*,*,#583,.T.);
#319=ORIENTED_EDGE('',*,*,#568,.F.);
#320=ORIENTED_EDGE('',*,*,#584,.F.);
#321=ORIENTED_EDGE('',*,*,#585,.F.);
#322=CARTESIAN_POINT('',(0.01,0.0,0.0));
#323=DIRECTION('',(1.0,0.0,0.0));
#324=DIRECTION('',(0.0,1.0,0.0));
#325=ORIENTED_EDGE('',*,*,#586,.F.);
#326=ORIENTED_EDGE('',*,*,#564,.F.);
#327=ORIENTED_EDGE('',*,*,#578,.F.);
#328=ORIENTED_EDGE('',*,*,#587,.F.);
#329=CARTESIAN_POINT('',(0.01,0.0,0.0));
#330=DIRECTION('',(1.0,0.0,0.0));
#331=DIRECTION('',(0.0,1.0,0.0));
#332=ORIENTED_EDGE('',*,*,#588,.T.);
#333=ORIENTED_EDGE('',*,*,#589,.T.);
#334=ORIENTED_EDGE('',*,*,#590,.T.);
#335=ORIENTED_EDGE('',*,*,#570,.T.);
#336=CARTESIAN_POINT('',(0.007864757,0.008135243,0.0));
#337=DIRECTION('',(-0.707106781186547,0.707106781186548,0.0));
#338=DIRECTION('',(0.707106781186548,0.707106781186547,0.0));
#339=ORIENTED_EDGE('',*,*,#543,.F.);
#340=ORIENTED_EDGE('',*,*,#591,.F.);
#341=ORIENTED_EDGE('',*,*,#592,.F.);
#342=ORIENTED_EDGE('',*,*,#544,.F.);
#343=ORIENTED_EDGE('',*,*,#536,.F.);
#344=ORIENTED_EDGE('',*,*,#593,.T.);
#345=ORIENTED_EDGE('',*,*,#594,.F.);
#346=ORIENTED_EDGE('',*,*,#595,.F.);
#347=ORIENTED_EDGE('',*,*,#589,.F.);
#348=ORIENTED_EDGE('',*,*,#596,.T.);
#349=ORIENTED_EDGE('',*,*,#585,.T.);
#350=ORIENTED_EDGE('',*,*,#597,.F.);
#351=ORIENTED_EDGE('',*,*,#598,.F.);
#352=ORIENTED_EDGE('',*,*,#599,.F.);
#353=ORIENTED_EDGE('',*,*,#587,.T.);
#354=ORIENTED_EDGE('',*,*,#580,.F.);
#355=ORIENTED_EDGE('',*,*,#600,.F.);
#356=ORIENTED_EDGE('',*,*,#601,.F.);
#357=ORIENTED_EDGE('',*,*,#581,.F.);
#358=ORIENTED_EDGE('',*,*,#576,.F.);
#359=ORIENTED_EDGE('',*,*,#602,.F.);
#360=ORIENTED_EDGE('',*,*,#603,.F.);
#361=ORIENTED_EDGE('',*,*,#604,.F.);
#362=ORIENTED_EDGE('',*,*,#605,.F.);
#363=ORIENTED_EDGE('',*,*,#606,.F.);
#364=ORIENTED_EDGE('',*,*,#607,.F.);
#365=ORIENTED_EDGE('',*,*,#608,.F.);
#366=ORIENTED_EDGE('',*,*,#609,.F.);
#367=ORIENTED_EDGE('',*,*,#610,.F.);
#368=ORIENTED_EDGE('',*,*,#611,.F.);
#369=ORIENTED_EDGE('',*,*,#612,.F.);
#370=ORIENTED_EDGE('',*,*,#613,.F.);
#371=CARTESIAN_POINT('',(-0.010135243,-0.009864757,-0.000191262));
#372=DIRECTION('',(0.0,0.0,-1.0));
#373=DIRECTION('',(-1.0,0.0,0.0));
#374=ORIENTED_EDGE('',*,*,#614,.T.);
#375=ORIENTED_EDGE('',*,*,#572,.T.);
#376=ORIENTED_EDGE('',*,*,#615,.T.);
#377=ORIENTED_EDGE('',*,*,#594,.T.);
#378=CARTESIAN_POINT('',(-0.007864757,0.008135243,0.0));
#379=DIRECTION('',(0.707106781186547,0.707106781186548,0.0));
#380=DIRECTION('',(0.707106781186548,-0.707106781186547,0.0));
#381=ORIENTED_EDGE('',*,*,#616,.F.);
#382=ORIENTED_EDGE('',*,*,#552,.T.);
#383=ORIENTED_EDGE('',*,*,#617,.F.);
#384=ORIENTED_EDGE('',*,*,#607,.T.);
#385=CARTESIAN_POINT('',(0.002864757,0.003135243,0.0));
#386=DIRECTION('',(-0.707106781186548,0.707106781186548,0.0));
#387=DIRECTION('',(0.707106781186548,0.707106781186548,0.0));
#388=ORIENTED_EDGE('',*,*,#618,.F.);
#389=ORIENTED_EDGE('',*,*,#610,.T.);
#390=ORIENTED_EDGE('',*,*,#619,.F.);
#391=ORIENTED_EDGE('',*,*,#555,.T.);
#392=CARTESIAN_POINT('',(0.003135243,0.002864757,0.0));
#393=DIRECTION('',(0.707106781186548,-0.707106781186548,0.0));
#394=DIRECTION('',(-0.707106781186548,-0.707106781186548,0.0));
#395=ORIENTED_EDGE('',*,*,#618,.T.);
#396=ORIENTED_EDGE('',*,*,#554,.T.);
#397=ORIENTED_EDGE('',*,*,#620,.T.);
#398=ORIENTED_EDGE('',*,*,#608,.T.);
#399=CARTESIAN_POINT('',(0.003135243,-0.002864757,0.0));
#400=DIRECTION('',(0.707106781186548,0.707106781186548,0.0));
#401=DIRECTION('',(0.707106781186548,-0.707106781186548,0.0));
#402=ORIENTED_EDGE('',*,*,#617,.T.);
#403=ORIENTED_EDGE('',*,*,#551,.T.);
#404=ORIENTED_EDGE('',*,*,#621,.F.);
#405=ORIENTED_EDGE('',*,*,#605,.T.);
#406=CARTESIAN_POINT('',(0.0,0.005808738,0.0));
#407=DIRECTION('',(-0.0,-1.0,-0.0));
#408=DIRECTION('',(-1.0,0.0,0.0));
#409=ORIENTED_EDGE('',*,*,#590,.F.);
#410=ORIENTED_EDGE('',*,*,#595,.T.);
#411=ORIENTED_EDGE('',*,*,#615,.F.);
#412=ORIENTED_EDGE('',*,*,#571,.T.);
#413=CARTESIAN_POINT('',(0.0,0.006191262,0.0));
#414=DIRECTION('',(-0.0,1.0,0.0));
#415=DIRECTION('',(1.0,0.0,0.0));
#416=ORIENTED_EDGE('',*,*,#622,.F.);
#417=ORIENTED_EDGE('',*,*,#558,.T.);
#418=ORIENTED_EDGE('',*,*,#623,.F.);
#419=ORIENTED_EDGE('',*,*,#604,.T.);
#420=CARTESIAN_POINT('',(-0.003135243,0.002864757,0.0));
#421=DIRECTION('',(-0.707106781186548,-0.707106781186548,-0.0));
#422=DIRECTION('',(-0.707106781186548,0.707106781186548,0.0));
#423=ORIENTED_EDGE('',*,*,#616,.T.);
#424=ORIENTED_EDGE('',*,*,#606,.T.);
#425=ORIENTED_EDGE('',*,*,#621,.T.);
#426=ORIENTED_EDGE('',*,*,#550,.T.);
#427=CARTESIAN_POINT('',(-0.002864757,0.003135243,0.0));
#428=DIRECTION('',(0.707106781186548,0.707106781186548,0.0));
#429=DIRECTION('',(0.707106781186548,-0.707106781186548,0.0));
#430=ORIENTED_EDGE('',*,*,#623,.T.);
#431=ORIENTED_EDGE('',*,*,#557,.T.);
#432=ORIENTED_EDGE('',*,*,#624,.T.);
#433=ORIENTED_EDGE('',*,*,#602,.T.);
#434=CARTESIAN_POINT('',(-0.005808738,0.0,0.0));
#435=DIRECTION('',(1.0,0.0,0.0));
#436=DIRECTION('',(0.0,-1.0,0.0));
#437=ORIENTED_EDGE('',*,*,#619,.T.);
#438=ORIENTED_EDGE('',*,*,#609,.T.);
#439=ORIENTED_EDGE('',*,*,#620,.F.);
#440=ORIENTED_EDGE('',*,*,#553,.T.);
#441=CARTESIAN_POINT('',(0.005808738,0.0,0.0));
#442=DIRECTION('',(-1.0,0.0,0.0));
#443=DIRECTION('',(0.0,1.0,0.0));
#444=ORIENTED_EDGE('',*,*,#625,.F.);
#445=ORIENTED_EDGE('',*,*,#598,.T.);
#446=ORIENTED_EDGE('',*,*,#626,.F.);
#447=ORIENTED_EDGE('',*,*,#566,.T.);
#448=CARTESIAN_POINT('',(0.006191262,0.0,0.0));
#449=DIRECTION('',(1.0,0.0,0.0));
#450=DIRECTION('',(0.0,-1.0,0.0));
#451=ORIENTED_EDGE('',*,*,#584,.T.);
#452=ORIENTED_EDGE('',*,*,#567,.T.);
#453=ORIENTED_EDGE('',*,*,#626,.T.);
#454=ORIENTED_EDGE('',*,*,#597,.T.);
#455=CARTESIAN_POINT('',(0.008135243,0.007864757,0.0));
#456=DIRECTION('',(0.707106781186548,-0.707106781186547,0.0));
#457=DIRECTION('',(-0.707106781186547,-0.707106781186548,0.0));
#458=ORIENTED_EDGE('',*,*,#627,.F.);
#459=ORIENTED_EDGE('',*,*,#613,.T.);
#460=ORIENTED_EDGE('',*,*,#628,.F.);
#461=ORIENTED_EDGE('',*,*,#549,.T.);
#462=CARTESIAN_POINT('',(0.002864757,-0.003135243,0.0));
#463=DIRECTION('',(-0.707106781186548,-0.707106781186548,-0.0));
#464=DIRECTION('',(-0.707106781186548,0.707106781186548,0.0));
#465=ORIENTED_EDGE('',*,*,#627,.T.);
#466=ORIENTED_EDGE('',*,*,#548,.T.);
#467=ORIENTED_EDGE('',*,*,#629,.F.);
#468=ORIENTED_EDGE('',*,*,#611,.T.);
#469=CARTESIAN_POINT('',(-0.002864757,-0.003135243,0.0));
#470=DIRECTION('',(0.707106781186548,-0.707106781186548,0.0));
#471=DIRECTION('',(-0.707106781186548,-0.707106781186548,0.0));
#472=ORIENTED_EDGE('',*,*,#628,.T.);
#473=ORIENTED_EDGE('',*,*,#612,.T.);
#474=ORIENTED_EDGE('',*,*,#629,.T.);
#475=ORIENTED_EDGE('',*,*,#547,.T.);
#476=CARTESIAN_POINT('',(0.0,-0.005808738,0.0));
#477=DIRECTION('',(-0.0,1.0,0.0));
#478=DIRECTION('',(1.0,0.0,0.0));
#479=ORIENTED_EDGE('',*,*,#622,.T.);
#480=ORIENTED_EDGE('',*,*,#603,.T.);
#481=ORIENTED_EDGE('',*,*,#624,.F.);
#482=ORIENTED_EDGE('',*,*,#556,.T.);
#483=CARTESIAN_POINT('',(-0.003135243,-0.002864757,0.0));
#484=DIRECTION('',(-0.707106781186548,0.707106781186548,0.0));
#485=DIRECTION('',(0.707106781186548,0.707106781186548,0.0));
#486=ORIENTED_EDGE('',*,*,#630,.F.);
#487=ORIENTED_EDGE('',*,*,#574,.T.);
#488=ORIENTED_EDGE('',*,*,#545,.F.);
#489=ORIENTED_EDGE('',*,*,#592,.T.);
#490=CARTESIAN_POINT('',(-0.006191262,0.0,0.0));
#491=DIRECTION('',(-1.0,0.0,0.0));
#492=DIRECTION('',(0.0,1.0,0.0));
#493=ORIENTED_EDGE('',*,*,#631,.F.);
#494=ORIENTED_EDGE('',*,*,#561,.T.);
#495=ORIENTED_EDGE('',*,*,#582,.F.);
#496=ORIENTED_EDGE('',*,*,#601,.T.);
#497=CARTESIAN_POINT('',(0.0,-0.006191262,0.0));
#498=DIRECTION('',(-0.0,-1.0,-0.0));
#499=DIRECTION('',(-1.0,0.0,0.0));
#500=ORIENTED_EDGE('',*,*,#542,.F.);
#501=ORIENTED_EDGE('',*,*,#575,.T.);
#502=ORIENTED_EDGE('',*,*,#630,.T.);
#503=ORIENTED_EDGE('',*,*,#591,.T.);
#504=CARTESIAN_POINT('',(-0.008135243,-0.007864757,0.0));
#505=DIRECTION('',(-0.707106781186548,0.707106781186547,0.0));
#506=DIRECTION('',(0.707106781186547,0.707106781186548,0.0));
#507=ORIENTED_EDGE('',*,*,#579,.F.);
#508=ORIENTED_EDGE('',*,*,#562,.T.);
#509=ORIENTED_EDGE('',*,*,#631,.T.);
#510=ORIENTED_EDGE('',*,*,#600,.T.);
#511=CARTESIAN_POINT('',(0.007864757,-0.008135243,0.0));
#512=DIRECTION('',(-0.707106781186547,-0.707106781186548,-0.0));
#513=DIRECTION('',(-0.707106781186548,0.707106781186547,0.0));
#514=ORIENTED_EDGE('',*,*,#586,.T.);
#515=ORIENTED_EDGE('',*,*,#599,.T.);
#516=ORIENTED_EDGE('',*,*,#625,.T.);
#517=ORIENTED_EDGE('',*,*,#565,.T.);
#518=CARTESIAN_POINT('',(0.008135243,-0.007864757,0.0));
#519=DIRECTION('',(0.707106781186548,0.707106781186547,0.0));
#520=DIRECTION('',(0.707106781186547,-0.707106781186548,0.0));
#521=ORIENTED_EDGE('',*,*,#539,.F.);
#522=ORIENTED_EDGE('',*,*,#573,.F.);
#523=ORIENTED_EDGE('',*,*,#614,.F.);
#524=ORIENTED_EDGE('',*,*,#593,.F.);
#525=CARTESIAN_POINT('',(0.0,0.01,0.0));
#526=DIRECTION('',(0.0,1.0,0.0));
#527=DIRECTION('',(0.0,0.0,1.0));
#528=ORIENTED_EDGE('',*,*,#583,.F.);
#529=ORIENTED_EDGE('',*,*,#596,.F.);
#530=ORIENTED_EDGE('',*,*,#588,.F.);
#531=ORIENTED_EDGE('',*,*,#569,.F.);
#532=CARTESIAN_POINT('',(0.0,0.01,0.0));
#533=DIRECTION('',(0.0,1.0,0.0));
#534=DIRECTION('',(0.0,0.0,1.0));
#535=COLOUR_RGB('',0.560784339904785,0.686274528503418,0.560784339904785);
#536=EDGE_CURVE('2:7358',#632,#633,#634,.T.);
#537=EDGE_CURVE('2:7364',#633,#635,#636,.T.);
#538=EDGE_CURVE('2:7355',#635,#637,#638,.T.);
#539=EDGE_CURVE('2:5778',#637,#632,#639,.T.);
#540=EDGE_CURVE('2:6533',#640,#641,#642,.T.);
#541=EDGE_CURVE('2:7352',#640,#643,#644,.T.);
#542=EDGE_CURVE('2:7367',#643,#645,#646,.T.);
#543=EDGE_CURVE('2:7361',#645,#641,#647,.T.);
#544=EDGE_CURVE('2:7398',#633,#648,#649,.T.);
#545=EDGE_CURVE('2:3506',#648,#650,#651,.T.);
#546=EDGE_CURVE('2:7405',#650,#635,#652,.T.);
#547=EDGE_CURVE('2:1232',#653,#654,#655,.T.);
#548=EDGE_CURVE('2:1685',#656,#653,#657,.T.);
#549=EDGE_CURVE('2:1880',#654,#656,#658,.T.);
#550=EDGE_CURVE('2:2312',#659,#660,#661,.T.);
#551=EDGE_CURVE('2:2549',#662,#659,#663,.T.);
#552=EDGE_CURVE('2:2744',#660,#662,#664,.T.);
#553=EDGE_CURVE('2:2096',#665,#666,#667,.T.);
#554=EDGE_CURVE('2:1901',#668,#665,#669,.T.);
#555=EDGE_CURVE('2:2765',#666,#668,#670,.T.);
#556=EDGE_CURVE('2:1664',#671,#672,#673,.T.);
#557=EDGE_CURVE('2:1469',#674,#671,#675,.T.);
#558=EDGE_CURVE('2:2333',#672,#674,#676,.T.);
#559=EDGE_CURVE('2:6542',#677,#640,#678,.T.);
#560=EDGE_CURVE('2:6600',#679,#677,#680,.T.);
#561=EDGE_CURVE('2:1253',#681,#679,#682,.T.);
#562=EDGE_CURVE('2:6623',#683,#681,#684,.T.);
#563=EDGE_CURVE('2:6539',#685,#683,#686,.T.);
#564=EDGE_CURVE('2:6174',#685,#687,#688,.T.);
#565=EDGE_CURVE('2:6196',#689,#687,#690,.T.);
#566=EDGE_CURVE('2:2117',#691,#689,#692,.T.);
#567=EDGE_CURVE('2:6249',#693,#691,#694,.T.);
#568=EDGE_CURVE('2:6186',#693,#695,#696,.T.);
#569=EDGE_CURVE('2:5796',#695,#697,#698,.T.);
#570=EDGE_CURVE('2:5873',#699,#697,#700,.T.);
#571=EDGE_CURVE('2:2528',#701,#699,#702,.T.);
#572=EDGE_CURVE('2:5826',#703,#701,#704,.T.);
#573=EDGE_CURVE('2:5781',#703,#637,#705,.T.);
#574=EDGE_CURVE('2:1448',#706,#650,#707,.T.);
#575=EDGE_CURVE('2:7428',#643,#706,#708,.T.);
#576=EDGE_CURVE('2:6524',#641,#709,#710,.T.);
#577=EDGE_CURVE('2:6530',#709,#677,#711,.T.);
#578=EDGE_CURVE('2:6180',#712,#685,#713,.T.);
#579=EDGE_CURVE('2:6536',#683,#714,#715,.T.);
#580=EDGE_CURVE('2:6527',#714,#712,#716,.T.);
#581=EDGE_CURVE('2:6583',#709,#717,#718,.T.);
#582=EDGE_CURVE('2:3479',#717,#679,#719,.T.);
#583=EDGE_CURVE('2:6192',#720,#695,#721,.T.);
#584=EDGE_CURVE('2:6189',#722,#693,#723,.T.);
#585=EDGE_CURVE('2:6183',#720,#722,#724,.T.);
#586=EDGE_CURVE('2:6171',#687,#725,#726,.T.);
#587=EDGE_CURVE('2:6177',#725,#712,#727,.T.);
#588=EDGE_CURVE('2:5799',#697,#728,#729,.T.);
#589=EDGE_CURVE('2:5866',#728,#730,#731,.T.);
#590=EDGE_CURVE('2:3602',#730,#699,#732,.T.);
#591=EDGE_CURVE('2:7415',#733,#645,#734,.T.);
#592=EDGE_CURVE('2:1373',#648,#733,#735,.T.);
#593=EDGE_CURVE('2:5784',#632,#736,#737,.T.);
#594=EDGE_CURVE('2:5833',#738,#736,#739,.T.);
#595=EDGE_CURVE('2:2453',#730,#738,#740,.T.);
#596=EDGE_CURVE('2:5793',#728,#720,#741,.T.);
#597=EDGE_CURVE('2:6236',#742,#722,#743,.T.);
#598=EDGE_CURVE('2:2000',#744,#742,#745,.T.);
#599=EDGE_CURVE('2:6209',#725,#744,#746,.T.);
#600=EDGE_CURVE('2:6610',#747,#714,#748,.T.);
#601=EDGE_CURVE('2:1136',#717,#747,#749,.T.);
#602=EDGE_CURVE('2:1352',#750,#751,#752,.T.);
#603=EDGE_CURVE('2:1589',#753,#750,#754,.T.);
#604=EDGE_CURVE('2:2216',#751,#753,#755,.T.);
#605=EDGE_CURVE('2:2432',#756,#757,#758,.T.);
#606=EDGE_CURVE('2:2237',#759,#756,#760,.T.);
#607=EDGE_CURVE('2:2669',#757,#759,#761,.T.);
#608=EDGE_CURVE('2:1784',#762,#763,#764,.T.);
#609=EDGE_CURVE('2:2021',#765,#762,#766,.T.);
#610=EDGE_CURVE('2:2648',#763,#765,#767,.T.);
#611=EDGE_CURVE('2:1568',#768,#769,#770,.T.);
#612=EDGE_CURVE('2:1157',#771,#768,#772,.T.);
#613=EDGE_CURVE('2:1805',#769,#771,#773,.T.);
#614=EDGE_CURVE('2:5787',#736,#703,#774,.T.);
#615=EDGE_CURVE('2:3605',#701,#738,#775,.T.);
#616=EDGE_CURVE('2:3638',#660,#759,#776,.T.);
#617=EDGE_CURVE('2:3629',#757,#662,#777,.T.);
#618=EDGE_CURVE('2:3626',#763,#668,#778,.T.);
#619=EDGE_CURVE('2:3641',#666,#765,#779,.T.);
#620=EDGE_CURVE('2:3554',#665,#762,#780,.T.);
#621=EDGE_CURVE('2:3593',#756,#659,#781,.T.);
#622=EDGE_CURVE('2:3587',#672,#753,#782,.T.);
#623=EDGE_CURVE('2:3584',#751,#674,#783,.T.);
#624=EDGE_CURVE('2:3524',#671,#750,#784,.T.);
#625=EDGE_CURVE('2:3551',#744,#689,#785,.T.);
#626=EDGE_CURVE('2:3560',#691,#742,#786,.T.);
#627=EDGE_CURVE('2:3536',#769,#656,#787,.T.);
#628=EDGE_CURVE('2:3545',#654,#771,#788,.T.);
#629=EDGE_CURVE('2:3521',#768,#653,#789,.T.);
#630=EDGE_CURVE('2:3512',#706,#733,#790,.T.);
#631=EDGE_CURVE('2:3473',#681,#747,#791,.T.);
#632=VERTEX_POINT('',#792);
#633=VERTEX_POINT('',#793);
#634=LINE('',#794,#795);
#635=VERTEX_POINT('',#796);
#636=LINE('',#797,#798);
#637=VERTEX_POINT('',#799);
#638=LINE('',#800,#801);
#639=LINE('',#802,#803);
#640=VERTEX_POINT('',#804);
#641=VERTEX_POINT('',#805);
#642=LINE('',#806,#807);
#643=VERTEX_POINT('',#808);
#644=LINE('',#809,#810);
#645=VERTEX_POINT('',#811);
#646=LINE('',#812,#813);
#647=LINE('',#814,#815);
#648=VERTEX_POINT('',#816);
#649=LINE('',#817,#818);
#650=VERTEX_POINT('',#819);
#651=LINE('',#820,#821);
#652=LINE('',#822,#823);
#653=VERTEX_POINT('',#824);
#654=VERTEX_POINT('',#825);
#655=LINE('',#826,#827);
#656=VERTEX_POINT('',#828);
#657=LINE('',#829,#830);
#658=LINE('',#831,#832);
#659=VERTEX_POINT('',#833);
#660=VERTEX_POINT('',#834);
#661=LINE('',#835,#836);
#662=VERTEX_POINT('',#837);
#663=LINE('',#838,#839);
#664=LINE('',#840,#841);
#665=VERTEX_POINT('',#842);
#666=VERTEX_POINT('',#843);
#667=LINE('',#844,#845);
#668=VERTEX_POINT('',#846);
#669=LINE('',#847,#848);
#670=LINE('',#849,#850);
#671=VERTEX_POINT('',#851);
#672=VERTEX_POINT('',#852);
#673=LINE('',#853,#854);
#674=VERTEX_POINT('',#855);
#675=LINE('',#856,#857);
#676=LINE('',#858,#859);
#677=VERTEX_POINT('',#860);
#678=LINE('',#861,#862);
#679=VERTEX_POINT('',#863);
#680=LINE('',#864,#865);
#681=VERTEX_POINT('',#866);
#682=LINE('',#867,#868);
#683=VERTEX_POINT('',#869);
#684=LINE('',#870,#871);
#685=VERTEX_POINT('',#872);
#686=LINE('',#873,#874);
#687=VERTEX_POINT('',#875);
#688=LINE('',#876,#877);
#689=VERTEX_POINT('',#878);
#690=LINE('',#879,#880);
#691=VERTEX_POINT('',#881);
#692=LINE('',#882,#883);
#693=VERTEX_POINT('',#884);
#694=LINE('',#885,#886);
#695=VERTEX_POINT('',#887);
#696=LINE('',#888,#889);
#697=VERTEX_POINT('',#890);
#698=LINE('',#891,#892);
#699=VERTEX_POINT('',#893);
#700=LINE('',#894,#895);
#701=VERTEX_POINT('',#896);
#702=LINE('',#897,#898);
#703=VERTEX_POINT('',#899);
#704=LINE('',#900,#901);
#705=LINE('',#902,#903);
#706=VERTEX_POINT('',#904);
#707=LINE('',#905,#906);
#708=LINE('',#907,#908);
#709=VERTEX_POINT('',#909);
#710=LINE('',#910,#911);
#711=LINE('',#912,#913);
#712=VERTEX_POINT('',#914);
#713=LINE('',#915,#916);
#714=VERTEX_POINT('',#917);
#715=LINE('',#918,#919);
#716=LINE('',#920,#921);
#717=VERTEX_POINT('',#922);
#718=LINE('',#923,#924);
#719=LINE('',#925,#926);
#720=VERTEX_POINT('',#927);
#721=LINE('',#928,#929);
#722=VERTEX_POINT('',#930);
#723=LINE('',#931,#932);
#724=LINE('',#933,#934);
#725=VERTEX_POINT('',#935);
#726=LINE('',#936,#937);
#727=LINE('',#938,#939);
#728=VERTEX_POINT('',#940);
#729=LINE('',#941,#942);
#730=VERTEX_POINT('',#943);
#731=LINE('',#944,#945);
#732=LINE('',#946,#947);
#733=VERTEX_POINT('',#948);
#734=LINE('',#949,#950);
#735=LINE('',#951,#952);
#736=VERTEX_POINT('',#953);
#737=LINE('',#954,#955);
#738=VERTEX_POINT('',#956);
#739=LINE('',#957,#958);
#740=LINE('',#959,#960);
#741=LINE('',#961,#962);
#742=VERTEX_POINT('',#963);
#743=LINE('',#964,#965);
#744=VERTEX_POINT('',#966);
#745=LINE('',#967,#968);
#746=LINE('',#969,#970);
#747=VERTEX_POINT('',#971);
#748=LINE('',#972,#973);
#749=LINE('',#974,#975);
#750=VERTEX_POINT('',#976);
#751=VERTEX_POINT('',#977);
#752=LINE('',#978,#979);
#753=VERTEX_POINT('',#980);
#754=LINE('',#981,#982);
#755=LINE('',#983,#984);
#756=VERTEX_POINT('',#985);
#757=VERTEX_POINT('',#986);
#758=LINE('',#987,#988);
#759=VERTEX_POINT('',#989);
#760=LINE('',#990,#991);
#761=LINE('',#992,#993);
#762=VERTEX_POINT('',#994);
#763=VERTEX_POINT('',#995);
#764=LINE('',#996,#997);
#765=VERTEX_POINT('',#998);
#766=LINE('',#999,#1000);
#767=LINE('',#1001,#1002);
#768=VERTEX_POINT('',#1003);
#769=VERTEX_POINT('',#1004);
#770=LINE('',#1005,#1006);
#771=VERTEX_POINT('',#1007);
#772=LINE('',#1008,#1009);
#773=LINE('',#1010,#1011);
#774=LINE('',#1012,#1013);
#775=LINE('',#1014,#1015);
#776=LINE('',#1016,#1017);
#777=LINE('',#1018,#1019);
#778=LINE('',#1020,#1021);
#779=LINE('',#1022,#1023);
#780=LINE('',#1024,#1025);
#781=LINE('',#1026,#1027);
#782=LINE('',#1028,#1029);
#783=LINE('',#1030,#1031);
#784=LINE('',#1032,#1033);
#785=LINE('',#1034,#1035);
#786=LINE('',#1036,#1037);
#787=LINE('',#1038,#1039);
#788=LINE('',#1040,#1041);
#789=LINE('',#1042,#1043);
#790=LINE('',#1044,#1045);
#791=LINE('',#1046,#1047);
#792=CARTESIAN_POINT('',(-0.01,0.01,-0.000191262));
#793=CARTESIAN_POINT('',(-0.01,0.009729514,-0.000191262));
#794=CARTESIAN_POINT('',(-0.01,-0.0049323785,-0.000191262));
#795=VECTOR('',#1048,1.0);
#796=CARTESIAN_POINT('',(-0.01,0.009729514,0.000191262));
#797=CARTESIAN_POINT('',(-0.01,0.009729514,0.0));
#798=VECTOR('',#1049,1.0);
#799=CARTESIAN_POINT('',(-0.01,0.01,0.000191262));
#800=CARTESIAN_POINT('',(-0.01,-0.0049323785,0.000191262));
#801=VECTOR('',#1050,1.0);
#802=CARTESIAN_POINT('',(-0.01,0.01,0.0));
#803=VECTOR('',#1051,1.0);
#804=CARTESIAN_POINT('',(-0.01,-0.01,0.000191262));
#805=CARTESIAN_POINT('',(-0.01,-0.01,-0.000191262));
#806=CARTESIAN_POINT('',(-0.01,-0.01,0.0));
#807=VECTOR('',#1052,1.0);
#808=CARTESIAN_POINT('',(-0.01,-0.009729514,0.000191262));
#809=CARTESIAN_POINT('',(-0.01,-0.0049323785,0.000191262));
#810=VECTOR('',#1053,1.0);
#811=CARTESIAN_POINT('',(-0.01,-0.009729514,-0.000191262));
#812=CARTESIAN_POINT('',(-0.01,-0.00972951400000001,0.0));
#813=VECTOR('',#1054,1.0);
#814=CARTESIAN_POINT('',(-0.01,-0.0049323785,-0.000191262));
#815=VECTOR('',#1055,1.0);
#816=CARTESIAN_POINT('',(-0.006191262,0.005920776,-0.000191262));
#817=CARTESIAN_POINT('',(-0.006135243,0.005864757,-0.000191262));
#818=VECTOR('',#1056,1.0);
#819=CARTESIAN_POINT('',(-0.006191262,0.005920776,0.000191262));
#820=CARTESIAN_POINT('',(-0.006191262,0.005920776,0.0));
#821=VECTOR('',#1057,1.0);
#822=CARTESIAN_POINT('',(-0.006135243,0.005864757,0.000191262));
#823=VECTOR('',#1058,1.0);
#824=CARTESIAN_POINT('',(-0.005538252,-0.005808738,0.000191262));
#825=CARTESIAN_POINT('',(0.005538252,-0.005808738,0.000191262));
#826=CARTESIAN_POINT('',(-0.006,-0.005808738,0.000191262));
#827=VECTOR('',#1059,1.0);
#828=CARTESIAN_POINT('',(-1.62630325872826E-19,-0.000270486,0.000191262));
#829=CARTESIAN_POINT('',(0.000135243,-0.000135243,0.000191262));
#830=VECTOR('',#1060,1.0);
#831=CARTESIAN_POINT('',(0.005864757,-0.006135243,0.000191262));
#832=VECTOR('',#1061,1.0);
#833=CARTESIAN_POINT('',(-0.005538252,0.005808738,0.000191262));
#834=CARTESIAN_POINT('',(1.62630325872826E-19,0.000270486,0.000191262));
#835=CARTESIAN_POINT('',(-0.005864757,0.006135243,0.000191262));
#836=VECTOR('',#1062,1.0);
#837=CARTESIAN_POINT('',(0.005538252,0.005808738,0.000191262));
#838=CARTESIAN_POINT('',(0.006,0.005808738,0.000191262));
#839=VECTOR('',#1063,1.0);
#840=CARTESIAN_POINT('',(-0.000135243,0.000135243,0.000191262));
#841=VECTOR('',#1064,1.0);
#842=CARTESIAN_POINT('',(0.005808738,-0.005538252,0.000191262));
#843=CARTESIAN_POINT('',(0.005808738,0.005538252,0.000191262));
#844=CARTESIAN_POINT('',(0.005808738,-0.006,0.000191262));
#845=VECTOR('',#1065,1.0);
#846=CARTESIAN_POINT('',(0.000270486,-1.62630325872826E-19,0.000191262));
#847=CARTESIAN_POINT('',(0.000135243,0.000135243,0.000191262));
#848=VECTOR('',#1066,1.0);
#849=CARTESIAN_POINT('',(0.006135243,0.005864757,0.000191262));
#850=VECTOR('',#1067,1.0);
#851=CARTESIAN_POINT('',(-0.005808738,-0.005538252,0.000191262));
#852=CARTESIAN_POINT('',(-0.000270486000000001,-8.67361737988404E-19,0.000191262));
#853=CARTESIAN_POINT('',(-0.006135243,-0.005864757,0.000191262));
#854=VECTOR('',#1068,1.0);
#855=CARTESIAN_POINT('',(-0.005808738,0.005538252,0.000191262));
#856=CARTESIAN_POINT('',(-0.005808738,0.006,0.000191262));
#857=VECTOR('',#1069,1.0);
#858=CARTESIAN_POINT('',(-0.000135243,-0.000135243,0.000191262));
#859=VECTOR('',#1070,1.0);
#860=CARTESIAN_POINT('',(-0.009729514,-0.01,0.000191262));
#861=CARTESIAN_POINT('',(-0.0050676215,-0.01,0.000191262));
#862=VECTOR('',#1071,1.0);
#863=CARTESIAN_POINT('',(-0.005920776,-0.006191262,0.000191262));
#864=CARTESIAN_POINT('',(-0.005864757,-0.006135243,0.000191262));
#865=VECTOR('',#1072,1.0);
#866=CARTESIAN_POINT('',(0.005920776,-0.006191262,0.000191262));
#867=CARTESIAN_POINT('',(0.006,-0.006191262,0.000191262));
#868=VECTOR('',#1073,1.0);
#869=CARTESIAN_POINT('',(0.009729514,-0.01,0.000191262));
#870=CARTESIAN_POINT('',(0.009864757,-0.010135243,0.000191262));
#871=VECTOR('',#1074,1.0);
#872=CARTESIAN_POINT('',(0.01,-0.01,0.000191262));
#873=CARTESIAN_POINT('',(-0.0050676215,-0.01,0.000191262));
#874=VECTOR('',#1075,1.0);
#875=CARTESIAN_POINT('',(0.01,-0.009729514,0.000191262));
#876=CARTESIAN_POINT('',(0.01,-0.0049323785,0.000191262));
#877=VECTOR('',#1076,1.0);
#878=CARTESIAN_POINT('',(0.006191262,-0.005920776,0.000191262));
#879=CARTESIAN_POINT('',(0.006135243,-0.005864757,0.000191262));
#880=VECTOR('',#1077,1.0);
#881=CARTESIAN_POINT('',(0.006191262,0.005920776,0.000191262));
#882=CARTESIAN_POINT('',(0.006191262,0.006,0.000191262));
#883=VECTOR('',#1078,1.0);
#884=CARTESIAN_POINT('',(0.01,0.009729514,0.000191262));
#885=CARTESIAN_POINT('',(0.010135243,0.009864757,0.000191262));
#886=VECTOR('',#1079,1.0);
#887=CARTESIAN_POINT('',(0.01,0.01,0.000191262));
#888=CARTESIAN_POINT('',(0.01,-0.0049323785,0.000191262));
#889=VECTOR('',#1080,1.0);
#890=CARTESIAN_POINT('',(0.009729514,0.01,0.000191262));
#891=CARTESIAN_POINT('',(-0.0050676215,0.01,0.000191262));
#892=VECTOR('',#1081,1.0);
#893=CARTESIAN_POINT('',(0.005920776,0.006191262,0.000191262));
#894=CARTESIAN_POINT('',(0.005864757,0.006135243,0.000191262));
#895=VECTOR('',#1082,1.0);
#896=CARTESIAN_POINT('',(-0.005920776,0.006191262,0.000191262));
#897=CARTESIAN_POINT('',(-0.006,0.006191262,0.000191262));
#898=VECTOR('',#1083,1.0);
#899=CARTESIAN_POINT('',(-0.009729514,0.01,0.000191262));
#900=CARTESIAN_POINT('',(-0.009864757,0.010135243,0.000191262));
#901=VECTOR('',#1084,1.0);
#902=CARTESIAN_POINT('',(-0.0050676215,0.01,0.000191262));
#903=VECTOR('',#1085,1.0);
#904=CARTESIAN_POINT('',(-0.006191262,-0.005920776,0.000191262));
#905=CARTESIAN_POINT('',(-0.006191262,-0.006,0.000191262));
#906=VECTOR('',#1086,1.0);
#907=CARTESIAN_POINT('',(-0.010135243,-0.009864757,0.000191262));
#908=VECTOR('',#1087,1.0);
#909=CARTESIAN_POINT('',(-0.009729514,-0.01,-0.000191262));
#910=CARTESIAN_POINT('',(-0.0050676215,-0.01,-0.000191262));
#911=VECTOR('',#1088,1.0);
#912=CARTESIAN_POINT('',(-0.009729514,-0.01,0.0));
#913=VECTOR('',#1089,1.0);
#914=CARTESIAN_POINT('',(0.01,-0.01,-0.000191262));
#915=CARTESIAN_POINT('',(0.01,-0.01,0.0));
#916=VECTOR('',#1090,1.0);
#917=CARTESIAN_POINT('',(0.009729514,-0.01,-0.000191262));
#918=CARTESIAN_POINT('',(0.00972951400000001,-0.01,0.0));
#919=VECTOR('',#1091,1.0);
#920=CARTESIAN_POINT('',(-0.0050676215,-0.01,-0.000191262));
#921=VECTOR('',#1092,1.0);
#922=CARTESIAN_POINT('',(-0.005920776,-0.006191262,-0.000191262));
#923=CARTESIAN_POINT('',(-0.005864757,-0.006135243,-0.000191262));
#924=VECTOR('',#1093,1.0);
#925=CARTESIAN_POINT('',(-0.005920776,-0.006191262,0.0));
#926=VECTOR('',#1094,1.0);
#927=CARTESIAN_POINT('',(0.01,0.01,-0.000191262));
#928=CARTESIAN_POINT('',(0.01,0.01,0.0));
#929=VECTOR('',#1095,1.0);
#930=CARTESIAN_POINT('',(0.01,0.009729514,-0.000191262));
#931=CARTESIAN_POINT('',(0.01,0.00972951400000001,0.0));
#932=VECTOR('',#1096,1.0);
#933=CARTESIAN_POINT('',(0.01,-0.0049323785,-0.000191262));
#934=VECTOR('',#1097,1.0);
#935=CARTESIAN_POINT('',(0.01,-0.009729514,-0.000191262));
#936=CARTESIAN_POINT('',(0.01,-0.009729514,0.0));
#937=VECTOR('',#1098,1.0);
#938=CARTESIAN_POINT('',(0.01,-0.0049323785,-0.000191262));
#939=VECTOR('',#1099,1.0);
#940=CARTESIAN_POINT('',(0.009729514,0.01,-0.000191262));
#941=CARTESIAN_POINT('',(0.009729514,0.01,0.0));
#942=VECTOR('',#1100,1.0);
#943=CARTESIAN_POINT('',(0.005920776,0.006191262,-0.000191262));
#944=CARTESIAN_POINT('',(0.005864757,0.006135243,-0.000191262));
#945=VECTOR('',#1101,1.0);
#946=CARTESIAN_POINT('',(0.005920776,0.006191262,0.0));
#947=VECTOR('',#1102,1.0);
#948=CARTESIAN_POINT('',(-0.006191262,-0.005920776,-0.000191262));
#949=CARTESIAN_POINT('',(-0.010135243,-0.009864757,-0.000191262));
#950=VECTOR('',#1103,1.0);
#951=CARTESIAN_POINT('',(-0.006191262,-0.006,-0.000191262));
#952=VECTOR('',#1104,1.0);
#953=CARTESIAN_POINT('',(-0.009729514,0.01,-0.000191262));
#954=CARTESIAN_POINT('',(-0.0050676215,0.01,-0.000191262));
#955=VECTOR('',#1105,1.0);
#956=CARTESIAN_POINT('',(-0.005920776,0.006191262,-0.000191262));
#957=CARTESIAN_POINT('',(-0.009864757,0.010135243,-0.000191262));
#958=VECTOR('',#1106,1.0);
#959=CARTESIAN_POINT('',(-0.006,0.006191262,-0.000191262));
#960=VECTOR('',#1107,1.0);
#961=CARTESIAN_POINT('',(-0.0050676215,0.01,-0.000191262));
#962=VECTOR('',#1108,1.0);
#963=CARTESIAN_POINT('',(0.006191262,0.005920776,-0.000191262));
#964=CARTESIAN_POINT('',(0.010135243,0.009864757,-0.000191262));
#965=VECTOR('',#1109,1.0);
#966=CARTESIAN_POINT('',(0.006191262,-0.005920776,-0.000191262));
#967=CARTESIAN_POINT('',(0.006191262,0.006,-0.000191262));
#968=VECTOR('',#1110,1.0);
#969=CARTESIAN_POINT('',(0.006135243,-0.005864757,-0.000191262));
#970=VECTOR('',#1111,1.0);
#971=CARTESIAN_POINT('',(0.005920776,-0.006191262,-0.000191262));
#972=CARTESIAN_POINT('',(0.009864757,-0.010135243,-0.000191262));
#973=VECTOR('',#1112,1.0);
#974=CARTESIAN_POINT('',(0.006,-0.006191262,-0.000191262));
#975=VECTOR('',#1113,1.0);
#976=CARTESIAN_POINT('',(-0.005808738,-0.005538252,-0.000191262));
#977=CARTESIAN_POINT('',(-0.005808738,0.005538252,-0.000191262));
#978=CARTESIAN_POINT('',(-0.005808738,0.006,-0.000191262));
#979=VECTOR('',#1114,1.0);
#980=CARTESIAN_POINT('',(-0.000270486000000001,-8.67361737988404E-19,-0.000191262));
#981=CARTESIAN_POINT('',(-0.006135243,-0.005864757,-0.000191262));
#982=VECTOR('',#1115,1.0);
#983=CARTESIAN_POINT('',(-0.000135243,-0.000135243,-0.000191262));
#984=VECTOR('',#1116,1.0);
#985=CARTESIAN_POINT('',(-0.005538252,0.005808738,-0.000191262));
#986=CARTESIAN_POINT('',(0.005538252,0.005808738,-0.000191262));
#987=CARTESIAN_POINT('',(0.006,0.005808738,-0.000191262));
#988=VECTOR('',#1117,1.0);
#989=CARTESIAN_POINT('',(-8.67361737988404E-19,0.000270486000000001,-0.000191262));
#990=CARTESIAN_POINT('',(-0.005864757,0.006135243,-0.000191262));
#991=VECTOR('',#1118,1.0);
#992=CARTESIAN_POINT('',(-0.000135243,0.000135243,-0.000191262));
#993=VECTOR('',#1119,1.0);
#994=CARTESIAN_POINT('',(0.005808738,-0.005538252,-0.000191262));
#995=CARTESIAN_POINT('',(0.000270486000000001,8.67361737988404E-19,-0.000191262));
#996=CARTESIAN_POINT('',(0.000135243,0.000135243,-0.000191262));
#997=VECTOR('',#1120,1.0);
#998=CARTESIAN_POINT('',(0.005808738,0.005538252,-0.000191262));
#999=CARTESIAN_POINT('',(0.005808738,-0.006,-0.000191262));
#1000=VECTOR('',#1121,1.0);
#1001=CARTESIAN_POINT('',(0.006135243,0.005864757,-0.000191262));
#1002=VECTOR('',#1122,1.0);
#1003=CARTESIAN_POINT('',(-0.005538252,-0.005808738,-0.000191262));
#1004=CARTESIAN_POINT('',(-1.62630325872826E-19,-0.000270486,-0.000191262));
#1005=CARTESIAN_POINT('',(0.000135243,-0.000135243,-0.000191262));
#1006=VECTOR('',#1123,1.0);
#1007=CARTESIAN_POINT('',(0.005538252,-0.005808738,-0.000191262));
#1008=CARTESIAN_POINT('',(-0.006,-0.005808738,-0.000191262));
#1009=VECTOR('',#1124,1.0);
#1010=CARTESIAN_POINT('',(0.005864757,-0.006135243,-0.000191262));
#1011=VECTOR('',#1125,1.0);
#1012=CARTESIAN_POINT('',(-0.00972951400000001,0.01,0.0));
#1013=VECTOR('',#1126,1.0);
#1014=CARTESIAN_POINT('',(-0.005920776,0.006191262,0.0));
#1015=VECTOR('',#1127,1.0);
#1016=CARTESIAN_POINT('',(2.16840434497101E-19,0.000270486000000001,0.0));
#1017=VECTOR('',#1128,1.0);
#1018=CARTESIAN_POINT('',(0.005538252,0.005808738,0.0));
#1019=VECTOR('',#1129,1.0);
#1020=CARTESIAN_POINT('',(0.000270486000000001,6.50521303491303E-19,0.0));
#1021=VECTOR('',#1130,1.0);
#1022=CARTESIAN_POINT('',(0.005808738,0.005538252,0.0));
#1023=VECTOR('',#1131,1.0);
#1024=CARTESIAN_POINT('',(0.005808738,-0.005538252,0.0));
#1025=VECTOR('',#1132,1.0);
#1026=CARTESIAN_POINT('',(-0.005538252,0.005808738,0.0));
#1027=VECTOR('',#1133,1.0);
#1028=CARTESIAN_POINT('',(-0.000270486000000001,2.16840434497101E-19,0.0));
#1029=VECTOR('',#1134,1.0);
#1030=CARTESIAN_POINT('',(-0.005808738,0.005538252,0.0));
#1031=VECTOR('',#1135,1.0);
#1032=CARTESIAN_POINT('',(-0.005808738,-0.005538252,0.0));
#1033=VECTOR('',#1136,1.0);
#1034=CARTESIAN_POINT('',(0.006191262,-0.005920776,0.0));
#1035=VECTOR('',#1137,1.0);
#1036=CARTESIAN_POINT('',(0.006191262,0.005920776,0.0));
#1037=VECTOR('',#1138,1.0);
#1038=CARTESIAN_POINT('',(6.50521303491303E-19,-0.000270486000000001,0.0));
#1039=VECTOR('',#1139,1.0);
#1040=CARTESIAN_POINT('',(0.005538252,-0.005808738,0.0));
#1041=VECTOR('',#1140,1.0);
#1042=CARTESIAN_POINT('',(-0.005538252,-0.005808738,0.0));
#1043=VECTOR('',#1141,1.0);
#1044=CARTESIAN_POINT('',(-0.006191262,-0.005920776,0.0));
#1045=VECTOR('',#1142,1.0);
#1046=CARTESIAN_POINT('',(0.005920776,-0.006191262,0.0));
#1047=VECTOR('',#1143,1.0);
#1048=DIRECTION('',(0.0,-1.0,0.0));
#1049=DIRECTION('',(0.0,0.0,1.0));
#1050=DIRECTION('',(-0.0,1.0,0.0));
#1051=DIRECTION('',(0.0,0.0,-1.0));
#1052=DIRECTION('',(0.0,0.0,-1.0));
#1053=DIRECTION('',(-0.0,1.0,0.0));
#1054=DIRECTION('',(0.0,0.0,-1.0));
#1055=DIRECTION('',(0.0,-1.0,0.0));
#1056=DIRECTION('',(0.707106781186547,-0.707106781186548,0.0));
#1057=DIRECTION('',(0.0,-0.0,1.0));
#1058=DIRECTION('',(-0.707106781186547,0.707106781186548,0.0));
#1059=DIRECTION('',(1.0,0.0,0.0));
#1060=DIRECTION('',(-0.707106781186548,-0.707106781186548,0.0));
#1061=DIRECTION('',(-0.707106781186548,0.707106781186548,0.0));
#1062=DIRECTION('',(0.707106781186548,-0.707106781186548,0.0));
#1063=DIRECTION('',(-1.0,0.0,0.0));
#1064=DIRECTION('',(0.707106781186548,0.707106781186548,0.0));
#1065=DIRECTION('',(0.0,1.0,0.0));
#1066=DIRECTION('',(0.707106781186548,-0.707106781186548,0.0));
#1067=DIRECTION('',(-0.707106781186548,-0.707106781186548,0.0));
#1068=DIRECTION('',(0.707106781186548,0.707106781186548,0.0));
#1069=DIRECTION('',(0.0,-1.0,0.0));
#1070=DIRECTION('',(-0.707106781186548,0.707106781186548,0.0));
#1071=DIRECTION('',(-1.0,0.0,0.0));
#1072=DIRECTION('',(-0.707106781186548,-0.707106781186547,0.0));
#1073=DIRECTION('',(-1.0,0.0,0.0));
#1074=DIRECTION('',(-0.707106781186548,0.707106781186547,0.0));
#1075=DIRECTION('',(-1.0,0.0,0.0));
#1076=DIRECTION('',(-0.0,1.0,0.0));
#1077=DIRECTION('',(0.707106781186547,-0.707106781186548,0.0));
#1078=DIRECTION('',(0.0,-1.0,0.0));
#1079=DIRECTION('',(-0.707106781186547,-0.707106781186548,0.0));
#1080=DIRECTION('',(-0.0,1.0,0.0));
#1081=DIRECTION('',(-1.0,0.0,0.0));
#1082=DIRECTION('',(0.707106781186548,0.707106781186547,0.0));
#1083=DIRECTION('',(1.0,0.0,0.0));
#1084=DIRECTION('',(0.707106781186548,-0.707106781186547,0.0));
#1085=DIRECTION('',(-1.0,0.0,0.0));
#1086=DIRECTION('',(0.0,1.0,0.0));
#1087=DIRECTION('',(0.707106781186547,0.707106781186548,0.0));
#1088=DIRECTION('',(1.0,-0.0,0.0));
#1089=DIRECTION('',(-0.0,0.0,1.0));
#1090=DIRECTION('',(-0.0,0.0,1.0));
#1091=DIRECTION('',(0.0,0.0,-1.0));
#1092=DIRECTION('',(1.0,-0.0,0.0));
#1093=DIRECTION('',(0.707106781186548,0.707106781186547,0.0));
#1094=DIRECTION('',(-0.0,0.0,1.0));
#1095=DIRECTION('',(0.0,0.0,1.0));
#1096=DIRECTION('',(-0.0,0.0,1.0));
#1097=DIRECTION('',(0.0,-1.0,0.0));
#1098=DIRECTION('',(0.0,0.0,-1.0));
#1099=DIRECTION('',(0.0,-1.0,0.0));
#1100=DIRECTION('',(0.0,0.0,-1.0));
#1101=DIRECTION('',(-0.707106781186548,-0.707106781186547,-0.0));
#1102=DIRECTION('',(0.0,0.0,1.0));
#1103=DIRECTION('',(-0.707106781186547,-0.707106781186548,-0.0));
#1104=DIRECTION('',(-0.0,-1.0,-0.0));
#1105=DIRECTION('',(1.0,-0.0,0.0));
#1106=DIRECTION('',(-0.707106781186548,0.707106781186547,0.0));
#1107=DIRECTION('',(-1.0,-0.0,-0.0));
#1108=DIRECTION('',(1.0,-0.0,0.0));
#1109=DIRECTION('',(0.707106781186547,0.707106781186548,0.0));
#1110=DIRECTION('',(0.0,1.0,0.0));
#1111=DIRECTION('',(-0.707106781186547,0.707106781186548,0.0));
#1112=DIRECTION('',(0.707106781186548,-0.707106781186547,0.0));
#1113=DIRECTION('',(1.0,0.0,0.0));
#1114=DIRECTION('',(0.0,1.0,0.0));
#1115=DIRECTION('',(-0.707106781186548,-0.707106781186548,-0.0));
#1116=DIRECTION('',(0.707106781186548,-0.707106781186548,0.0));
#1117=DIRECTION('',(1.0,0.0,0.0));
#1118=DIRECTION('',(-0.707106781186548,0.707106781186548,0.0));
#1119=DIRECTION('',(-0.707106781186548,-0.707106781186548,-0.0));
#1120=DIRECTION('',(-0.707106781186548,0.707106781186548,0.0));
#1121=DIRECTION('',(-0.0,-1.0,-0.0));
#1122=DIRECTION('',(0.707106781186548,0.707106781186548,0.0));
#1123=DIRECTION('',(0.707106781186548,0.707106781186548,0.0));
#1124=DIRECTION('',(-1.0,-0.0,-0.0));
#1125=DIRECTION('',(0.707106781186548,-0.707106781186548,0.0));
#1126=DIRECTION('',(0.0,0.0,1.0));
#1127=DIRECTION('',(0.0,0.0,-1.0));
#1128=DIRECTION('',(0.0,0.0,-1.0));
#1129=DIRECTION('',(0.0,-0.0,1.0));
#1130=DIRECTION('',(-0.0,0.0,1.0));
#1131=DIRECTION('',(-0.0,-0.0,-1.0));
#1132=DIRECTION('',(0.0,0.0,-1.0));
#1133=DIRECTION('',(0.0,0.0,1.0));
#1134=DIRECTION('',(0.0,0.0,-1.0));
#1135=DIRECTION('',(0.0,0.0,1.0));
#1136=DIRECTION('',(0.0,0.0,-1.0));
#1137=DIRECTION('',(0.0,0.0,1.0));
#1138=DIRECTION('',(0.0,0.0,-1.0));
#1139=DIRECTION('',(-0.0,0.0,1.0));
#1140=DIRECTION('',(0.0,0.0,-1.0));
#1141=DIRECTION('',(-0.0,-0.0,1.0));
#1142=DIRECTION('',(0.0,0.0,-1.0));
#1143=DIRECTION('',(0.0,0.0,-1.0));
#1144=PRESENTATION_LAYER_ASSIGNMENT('9','\X2\56FE5C42\X0\0',(#25));
ENDSEC;
END-ISO-10303-21;
