ISO-10303-21;
HEADER;
FILE_DESCRIPTION(('STEP AP214'),'1');
FILE_NAME('1.stp','2025-01-06T02:16:00',(' '),(' '),'Spatial InterOp 3D',' ',' ');
FILE_SCHEMA(('AUTOMOTIVE_DESIGN { 1 0 10303 214 1 1 1 1 }'));
ENDSEC;
DATA;
#1=MECHANICAL_DESIGN_GEOMETRIC_PRESENTATION_REPRESENTATION(' ',(#10),#6);
#2=PRODUCT_DEFINITION_CONTEXT('',#11,'design');
#3=APPLICATION_PROTOCOL_DEFINITION('INTERNATIONAL STANDARD','automotive_design',1994,#11);
#4=PRODUCT_CATEGORY_RELATIONSHIP('NONE','NONE',#12,#13);
#5=SHAPE_DEFINITION_REPRESENTATION(#14,#15);
#6= (GEOMETRIC_REPRESENTATION_CONTEXT(3)GLOBAL_UNCERTAINTY_ASSIGNED_CONTEXT((#18))GLOBAL_UNIT_ASSIGNED_CONTEXT((#20,#21,#22))REPRESENTATION_CONTEXT('NONE','WORKSPACE'));
#10=STYLED_ITEM('',(#24),#25);
#11=APPLICATION_CONTEXT(' ');
#12=PRODUCT_CATEGORY('part','NONE');
#13=PRODUCT_RELATED_PRODUCT_CATEGORY('detail',' ',(#26));
#14=PRODUCT_DEFINITION_SHAPE('NONE','NONE',#27);
#15=ADVANCED_BREP_SHAPE_REPRESENTATION('\X2\5B9E4F53\X0\111',(#25,#28),#6);
#18=UNCERTAINTY_MEASURE_WITH_UNIT(LENGTH_MEASURE(1.0E-08),#20,'','');
#20= (CONVERSION_BASED_UNIT('METRE',#31)LENGTH_UNIT()NAMED_UNIT(#34));
#21= (NAMED_UNIT(#36)PLANE_ANGLE_UNIT()SI_UNIT($,.RADIAN.));
#22= (NAMED_UNIT(#36)SOLID_ANGLE_UNIT()SI_UNIT($,.STERADIAN.));
#24=PRESENTATION_STYLE_ASSIGNMENT((#42));
#25=MANIFOLD_SOLID_BREP('\X2\5B9E4F53\X0\111',#43);
#26=PRODUCT('\X2\5B9E4F53\X0\111','','PART--DESC',(#44));
#27=PRODUCT_DEFINITION('','NONE',#45,#2);
#28=AXIS2_PLACEMENT_3D('',#46,#47,#48);
#31=LENGTH_MEASURE_WITH_UNIT(LENGTH_MEASURE(1.0),#49);
#34=DIMENSIONAL_EXPONENTS(1.0,0.0,0.0,0.0,0.0,0.0,0.0);
#36=DIMENSIONAL_EXPONENTS(0.0,0.0,0.0,0.0,0.0,0.0,0.0);
#42=SURFACE_STYLE_USAGE(.BOTH.,#50);
#43=CLOSED_SHELL('',(#51,#52,#53,#54,#55,#56,#57,#58,#59,#60,#61,#62,#63,#64,#65,#66,#67,#68));
#44=PRODUCT_CONTEXT('',#11,'mechanical');
#45=PRODUCT_DEFINITION_FORMATION_WITH_SPECIFIED_SOURCE(' ','NONE',#26,.NOT_KNOWN.);
#46=CARTESIAN_POINT('',(0.0,0.0,0.0));
#47=DIRECTION('',(0.0,0.0,1.0));
#48=DIRECTION('',(1.0,0.0,0.0));
#49= (NAMED_UNIT(#34)LENGTH_UNIT()SI_UNIT($,.METRE.));
#50=SURFACE_SIDE_STYLE('',(#70));
#51=ADVANCED_FACE('0:4174',(#71,#72),#73,.F.);
#52=ADVANCED_FACE('0:4257',(#74),#75,.T.);
#53=ADVANCED_FACE('0:4227',(#76),#77,.T.);
#54=ADVANCED_FACE('0:4217',(#78,#79),#80,.T.);
#55=ADVANCED_FACE('0:4187',(#81,#82),#83,.T.);
#56=ADVANCED_FACE('0:3773',(#84,#85),#86,.T.);
#57=ADVANCED_FACE('0:3001',(#87),#88,.T.);
#58=ADVANCED_FACE('0:3339',(#89),#90,.T.);
#59=ADVANCED_FACE('0:4234',(#91),#92,.T.);
#60=ADVANCED_FACE('0:2968',(#93),#94,.T.);
#61=ADVANCED_FACE('0:4244',(#95),#96,.T.);
#62=ADVANCED_FACE('0:3800',(#97),#98,.T.);
#63=ADVANCED_FACE('0:3780',(#99),#100,.T.);
#64=ADVANCED_FACE('0:3332',(#101),#102,.T.);
#65=ADVANCED_FACE('0:4194',(#103,#104),#105,.F.);
#66=ADVANCED_FACE('0:3793',(#106),#107,.T.);
#67=ADVANCED_FACE('0:3813',(#108),#109,.T.);
#68=ADVANCED_FACE('0:4204',(#110,#111),#112,.F.);
#70=SURFACE_STYLE_FILL_AREA(#113);
#71=FACE_OUTER_BOUND('',#114,.T.);
#72=FACE_BOUND('',#115,.T.);
#73=PLANE('',#116);
#74=FACE_OUTER_BOUND('',#117,.T.);
#75=CYLINDRICAL_SURFACE('',#118,0.000651499999999999);
#76=FACE_OUTER_BOUND('',#119,.T.);
#77=CYLINDRICAL_SURFACE('',#120,0.000651499999999999);
#78=FACE_BOUND('',#121,.T.);
#79=FACE_OUTER_BOUND('',#122,.T.);
#80=PLANE('',#123);
#81=FACE_BOUND('',#124,.T.);
#82=FACE_OUTER_BOUND('',#125,.T.);
#83=PLANE('',#126);
#84=FACE_BOUND('',#127,.T.);
#85=FACE_OUTER_BOUND('',#128,.T.);
#86=PLANE('',#129);
#87=FACE_OUTER_BOUND('',#130,.T.);
#88=CYLINDRICAL_SURFACE('',#131,0.000651499999999999);
#89=FACE_OUTER_BOUND('',#132,.T.);
#90=CYLINDRICAL_SURFACE('',#133,0.000651499999999999);
#91=FACE_OUTER_BOUND('',#134,.T.);
#92=CYLINDRICAL_SURFACE('',#135,0.000651499999999999);
#93=FACE_OUTER_BOUND('',#136,.T.);
#94=CYLINDRICAL_SURFACE('',#137,0.000651499999999999);
#95=FACE_OUTER_BOUND('',#138,.T.);
#96=CYLINDRICAL_SURFACE('',#139,0.000651499999999999);
#97=FACE_OUTER_BOUND('',#140,.T.);
#98=CYLINDRICAL_SURFACE('',#141,0.000651499999999999);
#99=FACE_OUTER_BOUND('',#142,.T.);
#100=CYLINDRICAL_SURFACE('',#143,0.000651499999999999);
#101=FACE_OUTER_BOUND('',#144,.T.);
#102=CYLINDRICAL_SURFACE('',#145,0.000651499999999999);
#103=FACE_OUTER_BOUND('',#146,.T.);
#104=FACE_BOUND('',#147,.T.);
#105=PLANE('',#148);
#106=FACE_OUTER_BOUND('',#149,.T.);
#107=CYLINDRICAL_SURFACE('',#150,0.000651499999999999);
#108=FACE_OUTER_BOUND('',#151,.T.);
#109=CYLINDRICAL_SURFACE('',#152,0.000651499999999999);
#110=FACE_OUTER_BOUND('',#153,.T.);
#111=FACE_BOUND('',#154,.T.);
#112=PLANE('',#155);
#113=FILL_AREA_STYLE('',(#156));
#114=EDGE_LOOP('',(#157,#158,#159,#160));
#115=EDGE_LOOP('',(#161,#162,#163,#164));
#116=AXIS2_PLACEMENT_3D('',#165,#166,#167);
#117=EDGE_LOOP('',(#168,#169,#170,#171,#172,#173));
#118=AXIS2_PLACEMENT_3D('',#174,#175,#176);
#119=EDGE_LOOP('',(#177,#178,#179,#180,#181,#182));
#120=AXIS2_PLACEMENT_3D('',#183,#184,#185);
#121=EDGE_LOOP('',(#186,#187,#188,#189));
#122=EDGE_LOOP('',(#190,#191,#192,#193));
#123=AXIS2_PLACEMENT_3D('',#194,#195,#196);
#124=EDGE_LOOP('',(#197,#198,#199,#200));
#125=EDGE_LOOP('',(#201,#202,#203,#204));
#126=AXIS2_PLACEMENT_3D('',#205,#206,#207);
#127=EDGE_LOOP('',(#208,#209,#210,#211));
#128=EDGE_LOOP('',(#212,#213,#214,#215));
#129=AXIS2_PLACEMENT_3D('',#216,#217,#218);
#130=EDGE_LOOP('',(#219,#220,#221,#222,#223,#224));
#131=AXIS2_PLACEMENT_3D('',#225,#226,#227);
#132=EDGE_LOOP('',(#228,#229,#230,#231,#232,#233));
#133=AXIS2_PLACEMENT_3D('',#234,#235,#236);
#134=EDGE_LOOP('',(#237,#238,#239,#240,#241,#242));
#135=AXIS2_PLACEMENT_3D('',#243,#244,#245);
#136=EDGE_LOOP('',(#246,#247,#248,#249,#250,#251));
#137=AXIS2_PLACEMENT_3D('',#252,#253,#254);
#138=EDGE_LOOP('',(#255,#256,#257,#258,#259,#260));
#139=AXIS2_PLACEMENT_3D('',#261,#262,#263);
#140=EDGE_LOOP('',(#264,#265,#266,#267,#268,#269));
#141=AXIS2_PLACEMENT_3D('',#270,#271,#272);
#142=EDGE_LOOP('',(#273,#274,#275,#276,#277,#278));
#143=AXIS2_PLACEMENT_3D('',#279,#280,#281);
#144=EDGE_LOOP('',(#282,#283,#284,#285,#286,#287));
#145=AXIS2_PLACEMENT_3D('',#288,#289,#290);
#146=EDGE_LOOP('',(#291,#292,#293,#294));
#147=EDGE_LOOP('',(#295,#296,#297,#298));
#148=AXIS2_PLACEMENT_3D('',#299,#300,#301);
#149=EDGE_LOOP('',(#302,#303,#304,#305,#306,#307));
#150=AXIS2_PLACEMENT_3D('',#308,#309,#310);
#151=EDGE_LOOP('',(#311,#312,#313,#314,#315,#316));
#152=AXIS2_PLACEMENT_3D('',#317,#318,#319);
#153=EDGE_LOOP('',(#320,#321,#322,#323));
#154=EDGE_LOOP('',(#324,#325,#326,#327));
#155=AXIS2_PLACEMENT_3D('',#328,#329,#330);
#156=FILL_AREA_STYLE_COLOUR('',#331);
#157=ORIENTED_EDGE('',*,*,#332,.T.);
#158=ORIENTED_EDGE('',*,*,#333,.T.);
#159=ORIENTED_EDGE('',*,*,#334,.T.);
#160=ORIENTED_EDGE('',*,*,#335,.T.);
#161=ORIENTED_EDGE('',*,*,#336,.T.);
#162=ORIENTED_EDGE('',*,*,#337,.T.);
#163=ORIENTED_EDGE('',*,*,#338,.T.);
#164=ORIENTED_EDGE('',*,*,#339,.T.);
#165=CARTESIAN_POINT('',(0.0,0.0,-0.01));
#166=DIRECTION('',(0.0,0.0,1.0));
#167=DIRECTION('',(1.0,0.0,0.0));
#168=ORIENTED_EDGE('',*,*,#337,.F.);
#169=ORIENTED_EDGE('',*,*,#340,.F.);
#170=ORIENTED_EDGE('',*,*,#341,.T.);
#171=ORIENTED_EDGE('',*,*,#342,.T.);
#172=ORIENTED_EDGE('',*,*,#343,.T.);
#173=ORIENTED_EDGE('',*,*,#344,.T.);
#174=CARTESIAN_POINT('',(0.01,-0.01,-0.01));
#175=DIRECTION('',(0.0,1.0,0.0));
#176=DIRECTION('',(-1.0,0.0,0.0));
#177=ORIENTED_EDGE('',*,*,#336,.F.);
#178=ORIENTED_EDGE('',*,*,#345,.T.);
#179=ORIENTED_EDGE('',*,*,#346,.T.);
#180=ORIENTED_EDGE('',*,*,#347,.F.);
#181=ORIENTED_EDGE('',*,*,#348,.T.);
#182=ORIENTED_EDGE('',*,*,#340,.T.);
#183=CARTESIAN_POINT('',(-0.01,-0.01,-0.01));
#184=DIRECTION('',(1.0,0.0,0.0));
#185=DIRECTION('',(0.0,1.0,0.0));
#186=ORIENTED_EDGE('',*,*,#349,.F.);
#187=ORIENTED_EDGE('',*,*,#350,.F.);
#188=ORIENTED_EDGE('',*,*,#351,.F.);
#189=ORIENTED_EDGE('',*,*,#342,.F.);
#190=ORIENTED_EDGE('',*,*,#333,.F.);
#191=ORIENTED_EDGE('',*,*,#352,.F.);
#192=ORIENTED_EDGE('',*,*,#353,.T.);
#193=ORIENTED_EDGE('',*,*,#354,.F.);
#194=CARTESIAN_POINT('',(0.01,0.0,0.0));
#195=DIRECTION('',(1.0,0.0,0.0));
#196=DIRECTION('',(0.0,1.0,0.0));
#197=ORIENTED_EDGE('',*,*,#355,.F.);
#198=ORIENTED_EDGE('',*,*,#356,.F.);
#199=ORIENTED_EDGE('',*,*,#357,.F.);
#200=ORIENTED_EDGE('',*,*,#358,.F.);
#201=ORIENTED_EDGE('',*,*,#332,.F.);
#202=ORIENTED_EDGE('',*,*,#359,.F.);
#203=ORIENTED_EDGE('',*,*,#360,.T.);
#204=ORIENTED_EDGE('',*,*,#352,.T.);
#205=CARTESIAN_POINT('',(0.0,0.01,0.0));
#206=DIRECTION('',(0.0,1.0,-0.0));
#207=DIRECTION('',(-1.0,0.0,0.0));
#208=ORIENTED_EDGE('',*,*,#361,.F.);
#209=ORIENTED_EDGE('',*,*,#362,.F.);
#210=ORIENTED_EDGE('',*,*,#363,.F.);
#211=ORIENTED_EDGE('',*,*,#364,.F.);
#212=ORIENTED_EDGE('',*,*,#365,.F.);
#213=ORIENTED_EDGE('',*,*,#366,.F.);
#214=ORIENTED_EDGE('',*,*,#353,.F.);
#215=ORIENTED_EDGE('',*,*,#360,.F.);
#216=CARTESIAN_POINT('',(0.0,0.0,0.01));
#217=DIRECTION('',(0.0,0.0,1.0));
#218=DIRECTION('',(1.0,0.0,0.0));
#219=ORIENTED_EDGE('',*,*,#351,.T.);
#220=ORIENTED_EDGE('',*,*,#367,.T.);
#221=ORIENTED_EDGE('',*,*,#368,.T.);
#222=ORIENTED_EDGE('',*,*,#358,.T.);
#223=ORIENTED_EDGE('',*,*,#369,.F.);
#224=ORIENTED_EDGE('',*,*,#343,.F.);
#225=CARTESIAN_POINT('',(0.01,0.01,0.01));
#226=DIRECTION('',(0.0,0.0,-1.0));
#227=DIRECTION('',(-1.0,0.0,0.0));
#228=ORIENTED_EDGE('',*,*,#370,.F.);
#229=ORIENTED_EDGE('',*,*,#371,.T.);
#230=ORIENTED_EDGE('',*,*,#372,.T.);
#231=ORIENTED_EDGE('',*,*,#373,.F.);
#232=ORIENTED_EDGE('',*,*,#346,.F.);
#233=ORIENTED_EDGE('',*,*,#374,.F.);
#234=CARTESIAN_POINT('',(-0.01,-0.01,-0.01));
#235=DIRECTION('',(0.0,0.0,1.0));
#236=DIRECTION('',(1.0,0.0,0.0));
#237=ORIENTED_EDGE('',*,*,#339,.F.);
#238=ORIENTED_EDGE('',*,*,#375,.T.);
#239=ORIENTED_EDGE('',*,*,#376,.T.);
#240=ORIENTED_EDGE('',*,*,#377,.F.);
#241=ORIENTED_EDGE('',*,*,#374,.T.);
#242=ORIENTED_EDGE('',*,*,#345,.F.);
#243=CARTESIAN_POINT('',(-0.01,-0.01,-0.01));
#244=DIRECTION('',(0.0,1.0,0.0));
#245=DIRECTION('',(-1.0,0.0,0.0));
#246=ORIENTED_EDGE('',*,*,#349,.T.);
#247=ORIENTED_EDGE('',*,*,#341,.F.);
#248=ORIENTED_EDGE('',*,*,#348,.F.);
#249=ORIENTED_EDGE('',*,*,#378,.F.);
#250=ORIENTED_EDGE('',*,*,#379,.T.);
#251=ORIENTED_EDGE('',*,*,#380,.T.);
#252=CARTESIAN_POINT('',(0.01,-0.01,-0.01));
#253=DIRECTION('',(0.0,0.0,1.0));
#254=DIRECTION('',(1.0,0.0,0.0));
#255=ORIENTED_EDGE('',*,*,#338,.F.);
#256=ORIENTED_EDGE('',*,*,#344,.F.);
#257=ORIENTED_EDGE('',*,*,#369,.T.);
#258=ORIENTED_EDGE('',*,*,#357,.T.);
#259=ORIENTED_EDGE('',*,*,#381,.T.);
#260=ORIENTED_EDGE('',*,*,#375,.F.);
#261=CARTESIAN_POINT('',(-0.01,0.01,-0.01));
#262=DIRECTION('',(1.0,0.0,0.0));
#263=DIRECTION('',(0.0,1.0,0.0));
#264=ORIENTED_EDGE('',*,*,#364,.T.);
#265=ORIENTED_EDGE('',*,*,#382,.T.);
#266=ORIENTED_EDGE('',*,*,#379,.F.);
#267=ORIENTED_EDGE('',*,*,#383,.F.);
#268=ORIENTED_EDGE('',*,*,#372,.F.);
#269=ORIENTED_EDGE('',*,*,#384,.T.);
#270=CARTESIAN_POINT('',(-0.01,-0.01,0.01));
#271=DIRECTION('',(1.0,0.0,0.0));
#272=DIRECTION('',(0.0,1.0,0.0));
#273=ORIENTED_EDGE('',*,*,#361,.T.);
#274=ORIENTED_EDGE('',*,*,#384,.F.);
#275=ORIENTED_EDGE('',*,*,#371,.F.);
#276=ORIENTED_EDGE('',*,*,#385,.F.);
#277=ORIENTED_EDGE('',*,*,#386,.F.);
#278=ORIENTED_EDGE('',*,*,#387,.T.);
#279=CARTESIAN_POINT('',(-0.01,-0.01,0.01));
#280=DIRECTION('',(0.0,1.0,0.0));
#281=DIRECTION('',(-1.0,0.0,0.0));
#282=ORIENTED_EDGE('',*,*,#388,.F.);
#283=ORIENTED_EDGE('',*,*,#376,.F.);
#284=ORIENTED_EDGE('',*,*,#381,.F.);
#285=ORIENTED_EDGE('',*,*,#356,.T.);
#286=ORIENTED_EDGE('',*,*,#389,.T.);
#287=ORIENTED_EDGE('',*,*,#386,.T.);
#288=CARTESIAN_POINT('',(-0.01,0.01,-0.01));
#289=DIRECTION('',(0.0,0.0,1.0));
#290=DIRECTION('',(1.0,0.0,0.0));
#291=ORIENTED_EDGE('',*,*,#335,.F.);
#292=ORIENTED_EDGE('',*,*,#390,.T.);
#293=ORIENTED_EDGE('',*,*,#365,.T.);
#294=ORIENTED_EDGE('',*,*,#359,.T.);
#295=ORIENTED_EDGE('',*,*,#388,.T.);
#296=ORIENTED_EDGE('',*,*,#385,.T.);
#297=ORIENTED_EDGE('',*,*,#370,.T.);
#298=ORIENTED_EDGE('',*,*,#377,.T.);
#299=CARTESIAN_POINT('',(-0.01,0.0,0.0));
#300=DIRECTION('',(1.0,0.0,0.0));
#301=DIRECTION('',(0.0,1.0,0.0));
#302=ORIENTED_EDGE('',*,*,#362,.T.);
#303=ORIENTED_EDGE('',*,*,#387,.F.);
#304=ORIENTED_EDGE('',*,*,#389,.F.);
#305=ORIENTED_EDGE('',*,*,#355,.T.);
#306=ORIENTED_EDGE('',*,*,#368,.F.);
#307=ORIENTED_EDGE('',*,*,#391,.F.);
#308=CARTESIAN_POINT('',(0.01,0.01,0.01));
#309=DIRECTION('',(-1.0,0.0,0.0));
#310=DIRECTION('',(0.0,-1.0,0.0));
#311=ORIENTED_EDGE('',*,*,#363,.T.);
#312=ORIENTED_EDGE('',*,*,#391,.T.);
#313=ORIENTED_EDGE('',*,*,#367,.F.);
#314=ORIENTED_EDGE('',*,*,#350,.T.);
#315=ORIENTED_EDGE('',*,*,#380,.F.);
#316=ORIENTED_EDGE('',*,*,#382,.F.);
#317=CARTESIAN_POINT('',(0.01,0.01,0.01));
#318=DIRECTION('',(0.0,-1.0,0.0));
#319=DIRECTION('',(1.0,0.0,0.0));
#320=ORIENTED_EDGE('',*,*,#334,.F.);
#321=ORIENTED_EDGE('',*,*,#354,.T.);
#322=ORIENTED_EDGE('',*,*,#366,.T.);
#323=ORIENTED_EDGE('',*,*,#390,.F.);
#324=ORIENTED_EDGE('',*,*,#347,.T.);
#325=ORIENTED_EDGE('',*,*,#373,.T.);
#326=ORIENTED_EDGE('',*,*,#383,.T.);
#327=ORIENTED_EDGE('',*,*,#378,.T.);
#328=CARTESIAN_POINT('',(0.0,-0.01,0.0));
#329=DIRECTION('',(0.0,1.0,-0.0));
#330=DIRECTION('',(-1.0,0.0,0.0));
#331=COLOUR_RGB('',0.560784339904785,0.686274528503418,0.560784339904785);
#332=EDGE_CURVE('0:4278',#392,#393,#394,.T.);
#333=EDGE_CURVE('0:4296',#393,#395,#396,.T.);
#334=EDGE_CURVE('0:4293',#395,#397,#398,.T.);
#335=EDGE_CURVE('0:4290',#397,#392,#399,.T.);
#336=EDGE_CURVE('0:4275',#400,#401,#402,.T.);
#337=EDGE_CURVE('0:4287',#401,#403,#404,.T.);
#338=EDGE_CURVE('0:4284',#403,#405,#406,.T.);
#339=EDGE_CURVE('0:4281',#405,#400,#407,.T.);
#340=EDGE_CURVE('0:4374',#408,#401,#409,.T.);
#341=EDGE_CURVE('0:3098',#408,#410,#411,.T.);
#342=EDGE_CURVE('0:3069',#410,#412,#413,.T.);
#343=EDGE_CURVE('0:3121',#412,#414,#415,.T.);
#344=EDGE_CURVE('0:4394',#414,#403,#416,.T.);
#345=EDGE_CURVE('0:4367',#400,#417,#418,.T.);
#346=EDGE_CURVE('0:2619',#417,#419,#420,.T.);
#347=EDGE_CURVE('0:2548',#421,#419,#422,.T.);
#348=EDGE_CURVE('0:2612',#421,#408,#423,.T.);
#349=EDGE_CURVE('0:3063',#424,#410,#425,.T.);
#350=EDGE_CURVE('0:3066',#426,#424,#427,.T.);
#351=EDGE_CURVE('0:3072',#412,#426,#428,.T.);
#352=EDGE_CURVE('0:4334',#429,#393,#430,.T.);
#353=EDGE_CURVE('0:3916',#429,#431,#432,.T.);
#354=EDGE_CURVE('0:4357',#395,#431,#433,.T.);
#355=EDGE_CURVE('0:2213',#434,#435,#436,.T.);
#356=EDGE_CURVE('0:2216',#437,#434,#438,.T.);
#357=EDGE_CURVE('0:2222',#439,#437,#440,.T.);
#358=EDGE_CURVE('0:2219',#435,#439,#441,.T.);
#359=EDGE_CURVE('0:4324',#442,#392,#443,.T.);
#360=EDGE_CURVE('0:3913',#442,#429,#444,.T.);
#361=EDGE_CURVE('0:3895',#445,#446,#447,.T.);
#362=EDGE_CURVE('0:3898',#448,#445,#449,.T.);
#363=EDGE_CURVE('0:3904',#450,#448,#451,.T.);
#364=EDGE_CURVE('0:3901',#446,#450,#452,.T.);
#365=EDGE_CURVE('0:3907',#453,#442,#454,.T.);
#366=EDGE_CURVE('0:3910',#431,#453,#455,.T.);
#367=EDGE_CURVE('0:3111',#426,#456,#457,.T.);
#368=EDGE_CURVE('0:2260',#456,#435,#458,.T.);
#369=EDGE_CURVE('0:2280',#414,#439,#459,.T.);
#370=EDGE_CURVE('0:3378',#460,#461,#462,.T.);
#371=EDGE_CURVE('0:3442',#460,#463,#464,.T.);
#372=EDGE_CURVE('0:2639',#463,#465,#466,.T.);
#373=EDGE_CURVE('0:2566',#419,#465,#467,.T.);
#374=EDGE_CURVE('0:3432',#461,#417,#468,.T.);
#375=EDGE_CURVE('0:4387',#405,#469,#470,.T.);
#376=EDGE_CURVE('0:3409',#469,#471,#472,.T.);
#377=EDGE_CURVE('0:3369',#461,#471,#473,.T.);
#378=EDGE_CURVE('0:2557',#474,#421,#475,.T.);
#379=EDGE_CURVE('0:2632',#474,#476,#477,.T.);
#380=EDGE_CURVE('0:3088',#476,#424,#478,.T.);
#381=EDGE_CURVE('0:2273',#437,#469,#479,.T.);
#382=EDGE_CURVE('0:3953',#450,#476,#480,.T.);
#383=EDGE_CURVE('0:2563',#465,#474,#481,.T.);
#384=EDGE_CURVE('0:3930',#463,#446,#482,.T.);
#385=EDGE_CURVE('0:3366',#483,#460,#484,.T.);
#386=EDGE_CURVE('0:3419',#485,#483,#486,.T.);
#387=EDGE_CURVE('0:3920',#485,#445,#487,.T.);
#388=EDGE_CURVE('0:3360',#471,#483,#488,.T.);
#389=EDGE_CURVE('0:2253',#434,#485,#489,.T.);
#390=EDGE_CURVE('0:4347',#397,#453,#490,.T.);
#391=EDGE_CURVE('0:3943',#448,#456,#491,.T.);
#392=VERTEX_POINT('',#492);
#393=VERTEX_POINT('',#493);
#394=LINE('',#494,#495);
#395=VERTEX_POINT('',#496);
#396=LINE('',#497,#498);
#397=VERTEX_POINT('',#499);
#398=LINE('',#500,#501);
#399=LINE('',#502,#503);
#400=VERTEX_POINT('',#504);
#401=VERTEX_POINT('',#505);
#402=LINE('',#506,#507);
#403=VERTEX_POINT('',#508);
#404=LINE('',#509,#510);
#405=VERTEX_POINT('',#511);
#406=LINE('',#512,#513);
#407=LINE('',#514,#515);
#408=VERTEX_POINT('',#516);
#409=ELLIPSE('',#517,0.00092136013588607,0.000651499999999999);
#410=VERTEX_POINT('',#518);
#411=ELLIPSE('',#519,0.00092136013588607,0.000651499999999999);
#412=VERTEX_POINT('',#520);
#413=LINE('',#521,#522);
#414=VERTEX_POINT('',#523);
#415=ELLIPSE('',#524,0.00092136013588607,0.000651499999999999);
#416=ELLIPSE('',#525,0.00092136013588607,0.000651499999999999);
#417=VERTEX_POINT('',#526);
#418=ELLIPSE('',#527,0.00092136013588607,0.000651499999999999);
#419=VERTEX_POINT('',#528);
#420=ELLIPSE('',#529,0.00092136013588607,0.000651499999999999);
#421=VERTEX_POINT('',#530);
#422=LINE('',#531,#532);
#423=ELLIPSE('',#533,0.00092136013588607,0.000651499999999999);
#424=VERTEX_POINT('',#534);
#425=LINE('',#535,#536);
#426=VERTEX_POINT('',#537);
#427=LINE('',#538,#539);
#428=LINE('',#540,#541);
#429=VERTEX_POINT('',#542);
#430=LINE('',#543,#544);
#431=VERTEX_POINT('',#545);
#432=LINE('',#546,#547);
#433=LINE('',#548,#549);
#434=VERTEX_POINT('',#550);
#435=VERTEX_POINT('',#551);
#436=LINE('',#552,#553);
#437=VERTEX_POINT('',#554);
#438=LINE('',#555,#556);
#439=VERTEX_POINT('',#557);
#440=LINE('',#558,#559);
#441=LINE('',#560,#561);
#442=VERTEX_POINT('',#562);
#443=LINE('',#563,#564);
#444=LINE('',#565,#566);
#445=VERTEX_POINT('',#567);
#446=VERTEX_POINT('',#568);
#447=LINE('',#569,#570);
#448=VERTEX_POINT('',#571);
#449=LINE('',#572,#573);
#450=VERTEX_POINT('',#574);
#451=LINE('',#575,#576);
#452=LINE('',#577,#578);
#453=VERTEX_POINT('',#579);
#454=LINE('',#580,#581);
#455=LINE('',#582,#583);
#456=VERTEX_POINT('',#584);
#457=ELLIPSE('',#585,0.00092136013588607,0.000651499999999999);
#458=ELLIPSE('',#586,0.00092136013588607,0.000651499999999999);
#459=ELLIPSE('',#587,0.00092136013588607,0.000651499999999999);
#460=VERTEX_POINT('',#588);
#461=VERTEX_POINT('',#589);
#462=LINE('',#590,#591);
#463=VERTEX_POINT('',#592);
#464=ELLIPSE('',#593,0.00092136013588607,0.000651499999999999);
#465=VERTEX_POINT('',#594);
#466=ELLIPSE('',#595,0.00092136013588607,0.000651499999999999);
#467=LINE('',#596,#597);
#468=ELLIPSE('',#598,0.00092136013588607,0.000651499999999999);
#469=VERTEX_POINT('',#599);
#470=ELLIPSE('',#600,0.00092136013588607,0.000651499999999999);
#471=VERTEX_POINT('',#601);
#472=ELLIPSE('',#602,0.00092136013588607,0.000651499999999999);
#473=LINE('',#603,#604);
#474=VERTEX_POINT('',#605);
#475=LINE('',#606,#607);
#476=VERTEX_POINT('',#608);
#477=ELLIPSE('',#609,0.00092136013588607,0.000651499999999999);
#478=ELLIPSE('',#610,0.00092136013588607,0.000651499999999999);
#479=ELLIPSE('',#611,0.00092136013588607,0.000651499999999999);
#480=ELLIPSE('',#612,0.00092136013588607,0.000651499999999999);
#481=LINE('',#613,#614);
#482=ELLIPSE('',#615,0.00092136013588607,0.000651499999999999);
#483=VERTEX_POINT('',#616);
#484=LINE('',#617,#618);
#485=VERTEX_POINT('',#619);
#486=ELLIPSE('',#620,0.00092136013588607,0.000651499999999999);
#487=ELLIPSE('',#621,0.00092136013588607,0.000651499999999999);
#488=LINE('',#622,#623);
#489=ELLIPSE('',#624,0.00092136013588607,0.000651499999999999);
#490=LINE('',#625,#626);
#491=ELLIPSE('',#627,0.00092136013588607,0.000651499999999999);
#492=CARTESIAN_POINT('',(-0.01,0.01,-0.01));
#493=CARTESIAN_POINT('',(0.01,0.01,-0.01));
#494=CARTESIAN_POINT('',(0.0,0.01,-0.01));
#495=VECTOR('',#628,1.0);
#496=CARTESIAN_POINT('',(0.01,-0.01,-0.01));
#497=CARTESIAN_POINT('',(0.01,0.0,-0.01));
#498=VECTOR('',#629,1.0);
#499=CARTESIAN_POINT('',(-0.01,-0.01,-0.01));
#500=CARTESIAN_POINT('',(0.0,-0.01,-0.01));
#501=VECTOR('',#630,1.0);
#502=CARTESIAN_POINT('',(-0.01,0.0,-0.01));
#503=VECTOR('',#631,1.0);
#504=CARTESIAN_POINT('',(-0.0093485,-0.0093485,-0.01));
#505=CARTESIAN_POINT('',(0.0093485,-0.0093485,-0.01));
#506=CARTESIAN_POINT('',(-0.01,-0.0093485,-0.01));
#507=VECTOR('',#632,1.0);
#508=CARTESIAN_POINT('',(0.0093485,0.0093485,-0.01));
#509=CARTESIAN_POINT('',(0.0093485,-0.01,-0.01));
#510=VECTOR('',#633,1.0);
#511=CARTESIAN_POINT('',(-0.0093485,0.0093485,-0.01));
#512=CARTESIAN_POINT('',(-0.01,0.0093485,-0.01));
#513=VECTOR('',#634,1.0);
#514=CARTESIAN_POINT('',(-0.0093485,-0.01,-0.01));
#515=VECTOR('',#635,1.0);
#516=CARTESIAN_POINT('',(0.00953931993205697,-0.00953931993205697,-0.00953931993205697));
#517=AXIS2_PLACEMENT_3D('',#636,#637,#638);
#518=CARTESIAN_POINT('',(0.01,-0.0093485,-0.0093485));
#519=AXIS2_PLACEMENT_3D('',#639,#640,#641);
#520=CARTESIAN_POINT('',(0.01,0.0093485,-0.0093485));
#521=CARTESIAN_POINT('',(0.01,-0.01,-0.0093485));
#522=VECTOR('',#642,1.0);
#523=CARTESIAN_POINT('',(0.00953931993205697,0.00953931993205697,-0.00953931993205697));
#524=AXIS2_PLACEMENT_3D('',#643,#644,#645);
#525=AXIS2_PLACEMENT_3D('',#646,#647,#648);
#526=CARTESIAN_POINT('',(-0.00953931993205697,-0.00953931993205697,-0.00953931993205697));
#527=AXIS2_PLACEMENT_3D('',#649,#650,#651);
#528=CARTESIAN_POINT('',(-0.0093485,-0.01,-0.0093485));
#529=AXIS2_PLACEMENT_3D('',#652,#653,#654);
#530=CARTESIAN_POINT('',(0.0093485,-0.01,-0.0093485));
#531=CARTESIAN_POINT('',(-0.01,-0.01,-0.0093485));
#532=VECTOR('',#655,1.0);
#533=AXIS2_PLACEMENT_3D('',#656,#657,#658);
#534=CARTESIAN_POINT('',(0.01,-0.0093485,0.0093485));
#535=CARTESIAN_POINT('',(0.01,-0.0093485,-0.01));
#536=VECTOR('',#659,1.0);
#537=CARTESIAN_POINT('',(0.01,0.0093485,0.0093485));
#538=CARTESIAN_POINT('',(0.01,0.01,0.0093485));
#539=VECTOR('',#660,1.0);
#540=CARTESIAN_POINT('',(0.01,0.0093485,0.01));
#541=VECTOR('',#661,1.0);
#542=CARTESIAN_POINT('',(0.01,0.01,0.01));
#543=CARTESIAN_POINT('',(0.01,0.01,0.0));
#544=VECTOR('',#662,1.0);
#545=CARTESIAN_POINT('',(0.01,-0.01,0.01));
#546=CARTESIAN_POINT('',(0.01,0.0,0.01));
#547=VECTOR('',#663,1.0);
#548=CARTESIAN_POINT('',(0.01,-0.01,0.0));
#549=VECTOR('',#664,1.0);
#550=CARTESIAN_POINT('',(-0.0093485,0.01,0.0093485));
#551=CARTESIAN_POINT('',(0.0093485,0.01,0.0093485));
#552=CARTESIAN_POINT('',(0.01,0.01,0.0093485));
#553=VECTOR('',#665,1.0);
#554=CARTESIAN_POINT('',(-0.0093485,0.01,-0.0093485));
#555=CARTESIAN_POINT('',(-0.0093485,0.01,-0.01));
#556=VECTOR('',#666,1.0);
#557=CARTESIAN_POINT('',(0.0093485,0.01,-0.0093485));
#558=CARTESIAN_POINT('',(-0.01,0.01,-0.0093485));
#559=VECTOR('',#667,1.0);
#560=CARTESIAN_POINT('',(0.0093485,0.01,0.01));
#561=VECTOR('',#668,1.0);
#562=CARTESIAN_POINT('',(-0.01,0.01,0.01));
#563=CARTESIAN_POINT('',(-0.01,0.01,0.0));
#564=VECTOR('',#669,1.0);
#565=CARTESIAN_POINT('',(0.0,0.01,0.01));
#566=VECTOR('',#670,1.0);
#567=CARTESIAN_POINT('',(-0.0093485,0.0093485,0.01));
#568=CARTESIAN_POINT('',(-0.0093485,-0.0093485,0.01));
#569=CARTESIAN_POINT('',(-0.0093485,-0.01,0.01));
#570=VECTOR('',#671,1.0);
#571=CARTESIAN_POINT('',(0.0093485,0.0093485,0.01));
#572=CARTESIAN_POINT('',(0.01,0.0093485,0.01));
#573=VECTOR('',#672,1.0);
#574=CARTESIAN_POINT('',(0.0093485,-0.0093485,0.01));
#575=CARTESIAN_POINT('',(0.0093485,0.01,0.01));
#576=VECTOR('',#673,1.0);
#577=CARTESIAN_POINT('',(-0.01,-0.0093485,0.01));
#578=VECTOR('',#674,1.0);
#579=CARTESIAN_POINT('',(-0.01,-0.01,0.01));
#580=CARTESIAN_POINT('',(-0.01,0.0,0.01));
#581=VECTOR('',#675,1.0);
#582=CARTESIAN_POINT('',(0.0,-0.01,0.01));
#583=VECTOR('',#676,1.0);
#584=CARTESIAN_POINT('',(0.00953931993205697,0.00953931993205697,0.00953931993205697));
#585=AXIS2_PLACEMENT_3D('',#677,#678,#679);
#586=AXIS2_PLACEMENT_3D('',#680,#681,#682);
#587=AXIS2_PLACEMENT_3D('',#683,#684,#685);
#588=CARTESIAN_POINT('',(-0.01,-0.0093485,0.0093485));
#589=CARTESIAN_POINT('',(-0.01,-0.0093485,-0.0093485));
#590=CARTESIAN_POINT('',(-0.01,-0.0093485,-0.01));
#591=VECTOR('',#686,1.0);
#592=CARTESIAN_POINT('',(-0.00953931993205697,-0.00953931993205697,0.00953931993205697));
#593=AXIS2_PLACEMENT_3D('',#687,#688,#689);
#594=CARTESIAN_POINT('',(-0.0093485,-0.01,0.0093485));
#595=AXIS2_PLACEMENT_3D('',#690,#691,#692);
#596=CARTESIAN_POINT('',(-0.0093485,-0.01,-0.01));
#597=VECTOR('',#693,1.0);
#598=AXIS2_PLACEMENT_3D('',#694,#695,#696);
#599=CARTESIAN_POINT('',(-0.00953931993205697,0.00953931993205697,-0.00953931993205697));
#600=AXIS2_PLACEMENT_3D('',#697,#698,#699);
#601=CARTESIAN_POINT('',(-0.01,0.0093485,-0.0093485));
#602=AXIS2_PLACEMENT_3D('',#700,#701,#702);
#603=CARTESIAN_POINT('',(-0.01,-0.01,-0.0093485));
#604=VECTOR('',#703,1.0);
#605=CARTESIAN_POINT('',(0.0093485,-0.01,0.0093485));
#606=CARTESIAN_POINT('',(0.0093485,-0.01,-0.01));
#607=VECTOR('',#704,1.0);
#608=CARTESIAN_POINT('',(0.00953931993205697,-0.00953931993205697,0.00953931993205697));
#609=AXIS2_PLACEMENT_3D('',#705,#706,#707);
#610=AXIS2_PLACEMENT_3D('',#708,#709,#710);
#611=AXIS2_PLACEMENT_3D('',#711,#712,#713);
#612=AXIS2_PLACEMENT_3D('',#714,#715,#716);
#613=CARTESIAN_POINT('',(-0.01,-0.01,0.0093485));
#614=VECTOR('',#717,1.0);
#615=AXIS2_PLACEMENT_3D('',#718,#719,#720);
#616=CARTESIAN_POINT('',(-0.01,0.0093485,0.0093485));
#617=CARTESIAN_POINT('',(-0.01,-0.01,0.0093485));
#618=VECTOR('',#721,1.0);
#619=CARTESIAN_POINT('',(-0.00953931993205697,0.00953931993205697,0.00953931993205697));
#620=AXIS2_PLACEMENT_3D('',#722,#723,#724);
#621=AXIS2_PLACEMENT_3D('',#725,#726,#727);
#622=CARTESIAN_POINT('',(-0.01,0.0093485,-0.01));
#623=VECTOR('',#728,1.0);
#624=AXIS2_PLACEMENT_3D('',#729,#730,#731);
#625=CARTESIAN_POINT('',(-0.01,-0.01,0.0));
#626=VECTOR('',#732,1.0);
#627=AXIS2_PLACEMENT_3D('',#733,#734,#735);
#628=DIRECTION('',(1.0,-0.0,0.0));
#629=DIRECTION('',(0.0,-1.0,0.0));
#630=DIRECTION('',(-1.0,0.0,0.0));
#631=DIRECTION('',(0.0,1.0,0.0));
#632=DIRECTION('',(1.0,0.0,0.0));
#633=DIRECTION('',(0.0,1.0,0.0));
#634=DIRECTION('',(-1.0,-0.0,-0.0));
#635=DIRECTION('',(-0.0,-1.0,-0.0));
#636=CARTESIAN_POINT('',(0.01,-0.01,-0.01));
#637=DIRECTION('',(-0.707106781186548,-0.707106781186548,0.0));
#638=DIRECTION('',(-0.707106781186548,0.707106781186548,0.0));
#639=CARTESIAN_POINT('',(0.01,-0.01,-0.01));
#640=DIRECTION('',(-0.0,0.707106781186548,-0.707106781186548));
#641=DIRECTION('',(0.0,0.707106781186548,0.707106781186548));
#642=DIRECTION('',(0.0,1.0,0.0));
#643=CARTESIAN_POINT('',(0.01,0.01,-0.01));
#644=DIRECTION('',(0.0,-0.707106781186548,-0.707106781186548));
#645=DIRECTION('',(0.0,0.707106781186548,-0.707106781186548));
#646=CARTESIAN_POINT('',(0.01,0.01,-0.01));
#647=DIRECTION('',(0.707106781186548,-0.707106781186548,0.0));
#648=DIRECTION('',(0.707106781186548,0.707106781186548,0.0));
#649=CARTESIAN_POINT('',(-0.01,-0.01,-0.01));
#650=DIRECTION('',(0.707106781186548,-0.707106781186548,-0.0));
#651=DIRECTION('',(-0.707106781186548,-0.707106781186548,0.0));
#652=CARTESIAN_POINT('',(-0.01,-0.01,-0.01));
#653=DIRECTION('',(0.707106781186548,0.0,-0.707106781186548));
#654=DIRECTION('',(0.707106781186548,0.0,0.707106781186548));
#655=DIRECTION('',(-1.0,-0.0,-0.0));
#656=CARTESIAN_POINT('',(0.01,-0.01,-0.01));
#657=DIRECTION('',(-0.707106781186548,-0.0,-0.707106781186548));
#658=DIRECTION('',(0.707106781186548,0.0,-0.707106781186548));
#659=DIRECTION('',(-0.0,-0.0,-1.0));
#660=DIRECTION('',(0.0,-1.0,0.0));
#661=DIRECTION('',(-0.0,-0.0,1.0));
#662=DIRECTION('',(0.0,-0.0,-1.0));
#663=DIRECTION('',(0.0,-1.0,0.0));
#664=DIRECTION('',(-0.0,0.0,1.0));
#665=DIRECTION('',(1.0,-0.0,-0.0));
#666=DIRECTION('',(0.0,0.0,1.0));
#667=DIRECTION('',(-1.0,-0.0,-0.0));
#668=DIRECTION('',(0.0,0.0,-1.0));
#669=DIRECTION('',(0.0,-0.0,-1.0));
#670=DIRECTION('',(1.0,-0.0,0.0));
#671=DIRECTION('',(-0.0,-1.0,-0.0));
#672=DIRECTION('',(-1.0,0.0,0.0));
#673=DIRECTION('',(-0.0,1.0,-0.0));
#674=DIRECTION('',(1.0,0.0,0.0));
#675=DIRECTION('',(0.0,1.0,0.0));
#676=DIRECTION('',(-1.0,0.0,0.0));
#677=CARTESIAN_POINT('',(0.01,0.01,0.01));
#678=DIRECTION('',(-0.0,0.707106781186548,-0.707106781186548));
#679=DIRECTION('',(0.0,0.707106781186548,0.707106781186548));
#680=CARTESIAN_POINT('',(0.01,0.01,0.01));
#681=DIRECTION('',(0.707106781186548,0.0,-0.707106781186548));
#682=DIRECTION('',(0.707106781186548,0.0,0.707106781186548));
#683=CARTESIAN_POINT('',(0.01,0.01,-0.01));
#684=DIRECTION('',(-0.707106781186548,0.0,-0.707106781186548));
#685=DIRECTION('',(-0.707106781186548,0.0,0.707106781186548));
#686=DIRECTION('',(-0.0,-0.0,-1.0));
#687=CARTESIAN_POINT('',(-0.01,-0.01,0.01));
#688=DIRECTION('',(-0.0,-0.707106781186548,-0.707106781186548));
#689=DIRECTION('',(0.0,-0.707106781186548,0.707106781186548));
#690=CARTESIAN_POINT('',(-0.01,-0.01,0.01));
#691=DIRECTION('',(-0.707106781186548,0.0,-0.707106781186548));
#692=DIRECTION('',(-0.707106781186548,0.0,0.707106781186548));
#693=DIRECTION('',(0.0,0.0,1.0));
#694=CARTESIAN_POINT('',(-0.01,-0.01,-0.01));
#695=DIRECTION('',(-0.0,0.707106781186548,-0.707106781186548));
#696=DIRECTION('',(0.0,0.707106781186548,0.707106781186548));
#697=CARTESIAN_POINT('',(-0.01,0.01,-0.01));
#698=DIRECTION('',(-0.707106781186548,-0.707106781186548,-0.0));
#699=DIRECTION('',(-0.707106781186548,0.707106781186548,0.0));
#700=CARTESIAN_POINT('',(-0.01,0.01,-0.01));
#701=DIRECTION('',(0.0,-0.707106781186548,-0.707106781186548));
#702=DIRECTION('',(0.0,0.707106781186548,-0.707106781186548));
#703=DIRECTION('',(0.0,1.0,0.0));
#704=DIRECTION('',(-0.0,-0.0,-1.0));
#705=CARTESIAN_POINT('',(0.01,-0.01,0.01));
#706=DIRECTION('',(0.707106781186548,0.0,-0.707106781186548));
#707=DIRECTION('',(0.707106781186548,0.0,0.707106781186548));
#708=CARTESIAN_POINT('',(0.01,-0.01,0.01));
#709=DIRECTION('',(0.0,-0.707106781186548,-0.707106781186548));
#710=DIRECTION('',(0.0,-0.707106781186548,0.707106781186548));
#711=CARTESIAN_POINT('',(-0.01,0.01,-0.01));
#712=DIRECTION('',(0.707106781186548,0.0,-0.707106781186548));
#713=DIRECTION('',(0.707106781186548,0.0,0.707106781186548));
#714=CARTESIAN_POINT('',(0.01,-0.01,0.01));
#715=DIRECTION('',(-0.707106781186548,-0.707106781186548,0.0));
#716=DIRECTION('',(0.707106781186548,-0.707106781186548,0.0));
#717=DIRECTION('',(1.0,0.0,0.0));
#718=CARTESIAN_POINT('',(-0.01,-0.01,0.01));
#719=DIRECTION('',(0.707106781186548,-0.707106781186548,-0.0));
#720=DIRECTION('',(-0.707106781186548,-0.707106781186548,0.0));
#721=DIRECTION('',(-0.0,-1.0,-0.0));
#722=CARTESIAN_POINT('',(-0.01,0.01,0.01));
#723=DIRECTION('',(0.0,0.707106781186548,-0.707106781186548));
#724=DIRECTION('',(0.0,0.707106781186548,0.707106781186548));
#725=CARTESIAN_POINT('',(-0.01,0.01,0.01));
#726=DIRECTION('',(-0.707106781186548,-0.707106781186548,0.0));
#727=DIRECTION('',(0.707106781186548,-0.707106781186548,0.0));
#728=DIRECTION('',(0.0,0.0,1.0));
#729=CARTESIAN_POINT('',(-0.01,0.01,0.01));
#730=DIRECTION('',(-0.707106781186548,0.0,-0.707106781186548));
#731=DIRECTION('',(-0.707106781186548,0.0,0.707106781186548));
#732=DIRECTION('',(-0.0,0.0,1.0));
#733=CARTESIAN_POINT('',(0.01,0.01,0.01));
#734=DIRECTION('',(0.707106781186548,-0.707106781186548,-0.0));
#735=DIRECTION('',(-0.707106781186548,-0.707106781186548,0.0));
#736=PRESENTATION_LAYER_ASSIGNMENT('9','\X2\56FE5C42\X0\0',(#25));
ENDSEC;
END-ISO-10303-21;
