ISO-10303-21;
HEADER;
FILE_DESCRIPTION(('STEP AP214'),'1');
FILE_NAME('2.stp','2025-01-06T02:19:54',(' '),(' '),'Spatial InterOp 3D',' ',' ');
FILE_SCHEMA(('AUTOMOTIVE_DESIGN { 1 0 10303 214 1 1 1 1 }'));
ENDSEC;
DATA;
#1=MECHANICAL_DESIGN_GEOMETRIC_PRESENTATION_REPRESENTATION(' ',(#10),#6);
#2=PRODUCT_DEFINITION_CONTEXT('',#11,'design');
#3=APPLICATION_PROTOCOL_DEFINITION('INTERNATIONAL STANDARD','automotive_design',1994,#11);
#4=PRODUCT_CATEGORY_RELATIONSHIP('NONE','NONE',#12,#13);
#5=SHAPE_DEFINITION_REPRESENTATION(#14,#15);
#6= (GEOMETRIC_REPRESENTATION_CONTEXT(3)GLOBAL_UNCERTAINTY_ASSIGNED_CONTEXT((#18))GLOBAL_UNIT_ASSIGNED_CONTEXT((#20,#21,#22))REPRESENTATION_CONTEXT('NONE','WORKSPACE'));
#10=STYLED_ITEM('',(#24),#25);
#11=APPLICATION_CONTEXT(' ');
#12=PRODUCT_CATEGORY('part','NONE');
#13=PRODUCT_RELATED_PRODUCT_CATEGORY('detail',' ',(#26));
#14=PRODUCT_DEFINITION_SHAPE('NONE','NONE',#27);
#15=ADVANCED_BREP_SHAPE_REPRESENTATION('\X2\5B9E4F53\X0\111',(#25,#28),#6);
#18=UNCERTAINTY_MEASURE_WITH_UNIT(LENGTH_MEASURE(1.0E-08),#20,'','');
#20= (CONVERSION_BASED_UNIT('METRE',#31)LENGTH_UNIT()NAMED_UNIT(#34));
#21= (NAMED_UNIT(#36)PLANE_ANGLE_UNIT()SI_UNIT($,.RADIAN.));
#22= (NAMED_UNIT(#36)SOLID_ANGLE_UNIT()SI_UNIT($,.STERADIAN.));
#24=PRESENTATION_STYLE_ASSIGNMENT((#42));
#25=MANIFOLD_SOLID_BREP('\X2\5B9E4F53\X0\111',#43);
#26=PRODUCT('\X2\5B9E4F53\X0\111','','PART--DESC',(#44));
#27=PRODUCT_DEFINITION('','NONE',#45,#2);
#28=AXIS2_PLACEMENT_3D('',#46,#47,#48);
#31=LENGTH_MEASURE_WITH_UNIT(LENGTH_MEASURE(1.0),#49);
#34=DIMENSIONAL_EXPONENTS(1.0,0.0,0.0,0.0,0.0,0.0,0.0);
#36=DIMENSIONAL_EXPONENTS(0.0,0.0,0.0,0.0,0.0,0.0,0.0);
#42=SURFACE_STYLE_USAGE(.BOTH.,#50);
#43=CLOSED_SHELL('',(#51,#52,#53,#54,#55,#56,#57,#58,#59,#60,#61,#62,#63,#64,#65,#66,#67,#68,#69,#70,#71,#72,#73,#74,#75,#76,#77,#78,#79,#80,#81,#82,#83,#84));
#44=PRODUCT_CONTEXT('',#11,'mechanical');
#45=PRODUCT_DEFINITION_FORMATION_WITH_SPECIFIED_SOURCE(' ','NONE',#26,.NOT_KNOWN.);
#46=CARTESIAN_POINT('',(0.0,0.0,0.0));
#47=DIRECTION('',(0.0,0.0,1.0));
#48=DIRECTION('',(1.0,0.0,0.0));
#49= (NAMED_UNIT(#34)LENGTH_UNIT()SI_UNIT($,.METRE.));
#50=SURFACE_SIDE_STYLE('',(#86));
#51=ADVANCED_FACE('1:7100',(#87),#88,.T.);
#52=ADVANCED_FACE('1:7060',(#89),#90,.T.);
#53=ADVANCED_FACE('1:7639',(#91),#92,.T.);
#54=ADVANCED_FACE('1:7117',(#93),#94,.T.);
#55=ADVANCED_FACE('1:7067',(#95),#96,.T.);
#56=ADVANCED_FACE('1:7679',(#97),#98,.T.);
#57=ADVANCED_FACE('1:7652',(#99),#100,.T.);
#58=ADVANCED_FACE('1:7692',(#101),#102,.T.);
#59=ADVANCED_FACE('1:7619',(#103,#104),#105,.F.);
#60=ADVANCED_FACE('1:7742',(#106,#107),#108,.T.);
#61=ADVANCED_FACE('1:7712',(#109,#110),#111,.T.);
#62=ADVANCED_FACE('1:7692',(#112),#113,.T.);
#63=ADVANCED_FACE('1:7672',(#114),#115,.T.);
#64=ADVANCED_FACE('1:7652',(#116),#117,.T.);
#65=ADVANCED_FACE('1:7632',(#118),#119,.T.);
#66=ADVANCED_FACE('1:7040',(#120,#121),#122,.T.);
#67=ADVANCED_FACE('1:5824',(#123),#124,.T.);
#68=ADVANCED_FACE('1:7087',(#125),#126,.T.);
#69=ADVANCED_FACE('1:7679',(#127),#128,.T.);
#70=ADVANCED_FACE('1:7067',(#129),#130,.T.);
#71=ADVANCED_FACE('1:7659',(#131),#132,.T.);
#72=ADVANCED_FACE('1:7699',(#133),#134,.T.);
#73=ADVANCED_FACE('1:5761',(#135),#136,.T.);
#74=ADVANCED_FACE('1:7047',(#137),#138,.T.);
#75=ADVANCED_FACE('1:7117',(#139),#140,.T.);
#76=ADVANCED_FACE('1:6353',(#141),#142,.T.);
#77=ADVANCED_FACE('1:6306',(#143),#144,.T.);
#78=ADVANCED_FACE('1:7639',(#145),#146,.T.);
#79=ADVANCED_FACE('1:7719',(#147,#148),#149,.F.);
#80=ADVANCED_FACE('1:7060',(#150),#151,.T.);
#81=ADVANCED_FACE('1:7080',(#152),#153,.T.);
#82=ADVANCED_FACE('1:7100',(#154),#155,.T.);
#83=ADVANCED_FACE('1:7110',(#156),#157,.T.);
#84=ADVANCED_FACE('1:7729',(#158,#159),#160,.F.);
#86=SURFACE_STYLE_FILL_AREA(#161);
#87=FACE_OUTER_BOUND('',#162,.T.);
#88=CYLINDRICAL_SURFACE('',#163,0.000358100000000001);
#89=FACE_OUTER_BOUND('',#164,.T.);
#90=CYLINDRICAL_SURFACE('',#165,0.0003581);
#91=FACE_OUTER_BOUND('',#166,.T.);
#92=CYLINDRICAL_SURFACE('',#167,0.000358100000000001);
#93=FACE_OUTER_BOUND('',#168,.T.);
#94=CYLINDRICAL_SURFACE('',#169,0.000358100000000001);
#95=FACE_OUTER_BOUND('',#170,.T.);
#96=CYLINDRICAL_SURFACE('',#171,0.0003581);
#97=FACE_OUTER_BOUND('',#172,.T.);
#98=CYLINDRICAL_SURFACE('',#173,0.000358100000000001);
#99=FACE_OUTER_BOUND('',#174,.T.);
#100=CYLINDRICAL_SURFACE('',#175,0.000358100000000001);
#101=FACE_OUTER_BOUND('',#176,.T.);
#102=CYLINDRICAL_SURFACE('',#177,0.000358100000000001);
#103=FACE_BOUND('',#178,.T.);
#104=FACE_OUTER_BOUND('',#179,.T.);
#105=PLANE('',#180);
#106=FACE_BOUND('',#181,.T.);
#107=FACE_OUTER_BOUND('',#182,.T.);
#108=PLANE('',#183);
#109=FACE_BOUND('',#184,.T.);
#110=FACE_OUTER_BOUND('',#185,.T.);
#111=PLANE('',#186);
#112=FACE_OUTER_BOUND('',#187,.T.);
#113=CYLINDRICAL_SURFACE('',#188,0.000358100000000001);
#114=FACE_OUTER_BOUND('',#189,.T.);
#115=CYLINDRICAL_SURFACE('',#190,0.0003581);
#116=FACE_OUTER_BOUND('',#191,.T.);
#117=CYLINDRICAL_SURFACE('',#192,0.000358100000000001);
#118=FACE_OUTER_BOUND('',#193,.T.);
#119=CYLINDRICAL_SURFACE('',#194,0.0003581);
#120=FACE_BOUND('',#195,.T.);
#121=FACE_OUTER_BOUND('',#196,.T.);
#122=PLANE('',#197);
#123=FACE_OUTER_BOUND('',#198,.T.);
#124=CYLINDRICAL_SURFACE('',#199,0.0003581);
#125=FACE_OUTER_BOUND('',#200,.T.);
#126=CYLINDRICAL_SURFACE('',#201,0.0003581);
#127=FACE_OUTER_BOUND('',#202,.T.);
#128=CYLINDRICAL_SURFACE('',#203,0.000358100000000001);
#129=FACE_OUTER_BOUND('',#204,.T.);
#130=CYLINDRICAL_SURFACE('',#205,0.0003581);
#131=FACE_OUTER_BOUND('',#206,.T.);
#132=CYLINDRICAL_SURFACE('',#207,0.0003581);
#133=FACE_OUTER_BOUND('',#208,.T.);
#134=CYLINDRICAL_SURFACE('',#209,0.0003581);
#135=FACE_OUTER_BOUND('',#210,.T.);
#136=CYLINDRICAL_SURFACE('',#211,0.0003581);
#137=FACE_OUTER_BOUND('',#212,.T.);
#138=CYLINDRICAL_SURFACE('',#213,0.0003581);
#139=FACE_OUTER_BOUND('',#214,.T.);
#140=CYLINDRICAL_SURFACE('',#215,0.000358100000000001);
#141=FACE_OUTER_BOUND('',#216,.T.);
#142=CYLINDRICAL_SURFACE('',#217,0.0003581);
#143=FACE_OUTER_BOUND('',#218,.T.);
#144=CYLINDRICAL_SURFACE('',#219,0.0003581);
#145=FACE_OUTER_BOUND('',#220,.T.);
#146=CYLINDRICAL_SURFACE('',#221,0.000358100000000001);
#147=FACE_OUTER_BOUND('',#222,.T.);
#148=FACE_BOUND('',#223,.T.);
#149=PLANE('',#224);
#150=FACE_OUTER_BOUND('',#225,.T.);
#151=CYLINDRICAL_SURFACE('',#226,0.0003581);
#152=FACE_OUTER_BOUND('',#227,.T.);
#153=CYLINDRICAL_SURFACE('',#228,0.0003581);
#154=FACE_OUTER_BOUND('',#229,.T.);
#155=CYLINDRICAL_SURFACE('',#230,0.000358100000000001);
#156=FACE_OUTER_BOUND('',#231,.T.);
#157=CYLINDRICAL_SURFACE('',#232,0.0003581);
#158=FACE_OUTER_BOUND('',#233,.T.);
#159=FACE_BOUND('',#234,.T.);
#160=PLANE('',#235);
#161=FILL_AREA_STYLE('',(#236));
#162=EDGE_LOOP('',(#237,#238,#239,#240,#241,#242,#243));
#163=AXIS2_PLACEMENT_3D('',#244,#245,#246);
#164=EDGE_LOOP('',(#247,#248,#249,#250,#251,#252,#253));
#165=AXIS2_PLACEMENT_3D('',#254,#255,#256);
#166=EDGE_LOOP('',(#257,#258,#259,#260,#261,#262,#263,#264,#265,#266));
#167=AXIS2_PLACEMENT_3D('',#267,#268,#269);
#168=EDGE_LOOP('',(#270,#271,#272,#273,#274,#275,#276));
#169=AXIS2_PLACEMENT_3D('',#277,#278,#279);
#170=EDGE_LOOP('',(#280,#281,#282,#283,#284,#285,#286));
#171=AXIS2_PLACEMENT_3D('',#287,#288,#289);
#172=EDGE_LOOP('',(#290,#291,#292,#293,#294,#295,#296,#297,#298,#299));
#173=AXIS2_PLACEMENT_3D('',#300,#301,#302);
#174=EDGE_LOOP('',(#303,#304,#305,#306,#307,#308,#309,#310,#311,#312));
#175=AXIS2_PLACEMENT_3D('',#313,#314,#315);
#176=EDGE_LOOP('',(#316,#317,#318,#319,#320,#321,#322,#323,#324,#325));
#177=AXIS2_PLACEMENT_3D('',#326,#327,#328);
#178=EDGE_LOOP('',(#329,#330,#331,#332,#333,#334,#335,#336));
#179=EDGE_LOOP('',(#337,#338,#339,#340));
#180=AXIS2_PLACEMENT_3D('',#341,#342,#343);
#181=EDGE_LOOP('',(#344,#345,#346,#347,#348,#349,#350,#351));
#182=EDGE_LOOP('',(#352,#353,#354,#355));
#183=AXIS2_PLACEMENT_3D('',#356,#357,#358);
#184=EDGE_LOOP('',(#359,#360,#361,#362,#363,#364,#365,#366));
#185=EDGE_LOOP('',(#367,#368,#369,#370));
#186=AXIS2_PLACEMENT_3D('',#371,#372,#373);
#187=EDGE_LOOP('',(#374,#375,#376,#377,#378,#379,#380));
#188=AXIS2_PLACEMENT_3D('',#381,#382,#383);
#189=EDGE_LOOP('',(#384,#385,#386,#387,#388,#389));
#190=AXIS2_PLACEMENT_3D('',#390,#391,#392);
#191=EDGE_LOOP('',(#393,#394,#395,#396,#397,#398,#399));
#192=AXIS2_PLACEMENT_3D('',#400,#401,#402);
#193=EDGE_LOOP('',(#403,#404,#405,#406,#407,#408));
#194=AXIS2_PLACEMENT_3D('',#409,#410,#411);
#195=EDGE_LOOP('',(#412,#413,#414,#415,#416,#417,#418,#419));
#196=EDGE_LOOP('',(#420,#421,#422,#423));
#197=AXIS2_PLACEMENT_3D('',#424,#425,#426);
#198=EDGE_LOOP('',(#427,#428,#429,#430));
#199=AXIS2_PLACEMENT_3D('',#431,#432,#433);
#200=EDGE_LOOP('',(#434,#435,#436,#437,#438,#439));
#201=AXIS2_PLACEMENT_3D('',#440,#441,#442);
#202=EDGE_LOOP('',(#443,#444,#445,#446,#447,#448,#449));
#203=AXIS2_PLACEMENT_3D('',#450,#451,#452);
#204=EDGE_LOOP('',(#453,#454,#455,#456,#457,#458,#459,#460,#461,#462));
#205=AXIS2_PLACEMENT_3D('',#463,#464,#465);
#206=EDGE_LOOP('',(#466,#467,#468,#469,#470,#471));
#207=AXIS2_PLACEMENT_3D('',#472,#473,#474);
#208=EDGE_LOOP('',(#475,#476,#477,#478,#479,#480));
#209=AXIS2_PLACEMENT_3D('',#481,#482,#483);
#210=EDGE_LOOP('',(#484,#485,#486,#487));
#211=AXIS2_PLACEMENT_3D('',#488,#489,#490);
#212=EDGE_LOOP('',(#491,#492,#493,#494,#495,#496));
#213=AXIS2_PLACEMENT_3D('',#497,#498,#499);
#214=EDGE_LOOP('',(#500,#501,#502,#503,#504,#505,#506,#507,#508,#509));
#215=AXIS2_PLACEMENT_3D('',#510,#511,#512);
#216=EDGE_LOOP('',(#513,#514,#515,#516));
#217=AXIS2_PLACEMENT_3D('',#517,#518,#519);
#218=EDGE_LOOP('',(#520,#521,#522,#523));
#219=AXIS2_PLACEMENT_3D('',#524,#525,#526);
#220=EDGE_LOOP('',(#527,#528,#529,#530,#531,#532,#533));
#221=AXIS2_PLACEMENT_3D('',#534,#535,#536);
#222=EDGE_LOOP('',(#537,#538,#539,#540));
#223=EDGE_LOOP('',(#541,#542,#543,#544,#545,#546,#547,#548));
#224=AXIS2_PLACEMENT_3D('',#549,#550,#551);
#225=EDGE_LOOP('',(#552,#553,#554,#555,#556,#557,#558,#559,#560,#561));
#226=AXIS2_PLACEMENT_3D('',#562,#563,#564);
#227=EDGE_LOOP('',(#565,#566,#567,#568,#569,#570));
#228=AXIS2_PLACEMENT_3D('',#571,#572,#573);
#229=EDGE_LOOP('',(#574,#575,#576,#577,#578,#579,#580,#581,#582,#583));
#230=AXIS2_PLACEMENT_3D('',#584,#585,#586);
#231=EDGE_LOOP('',(#587,#588,#589,#590,#591,#592));
#232=AXIS2_PLACEMENT_3D('',#593,#594,#595);
#233=EDGE_LOOP('',(#596,#597,#598,#599));
#234=EDGE_LOOP('',(#600,#601,#602,#603,#604,#605,#606,#607));
#235=AXIS2_PLACEMENT_3D('',#608,#609,#610);
#236=FILL_AREA_STYLE_COLOUR('',#611);
#237=ORIENTED_EDGE('',*,*,#612,.F.);
#238=ORIENTED_EDGE('',*,*,#613,.T.);
#239=ORIENTED_EDGE('',*,*,#614,.T.);
#240=ORIENTED_EDGE('',*,*,#615,.T.);
#241=ORIENTED_EDGE('',*,*,#616,.F.);
#242=ORIENTED_EDGE('',*,*,#617,.F.);
#243=ORIENTED_EDGE('',*,*,#618,.T.);
#244=CARTESIAN_POINT('',(-0.01,0.01,0.01));
#245=DIRECTION('',(0.577350269189626,-0.577350269189626,-0.577350269189626));
#246=DIRECTION('',(0.707106781186548,0.707106781186548,0.0));
#247=ORIENTED_EDGE('',*,*,#619,.F.);
#248=ORIENTED_EDGE('',*,*,#620,.T.);
#249=ORIENTED_EDGE('',*,*,#617,.T.);
#250=ORIENTED_EDGE('',*,*,#621,.F.);
#251=ORIENTED_EDGE('',*,*,#622,.T.);
#252=ORIENTED_EDGE('',*,*,#623,.T.);
#253=ORIENTED_EDGE('',*,*,#624,.T.);
#254=CARTESIAN_POINT('',(0.0,0.0,0.0));
#255=DIRECTION('',(-0.577350269189626,-0.577350269189626,0.577350269189626));
#256=DIRECTION('',(0.707106781186548,-0.707106781186548,0.0));
#257=ORIENTED_EDGE('',*,*,#625,.F.);
#258=ORIENTED_EDGE('',*,*,#626,.F.);
#259=ORIENTED_EDGE('',*,*,#627,.T.);
#260=ORIENTED_EDGE('',*,*,#628,.T.);
#261=ORIENTED_EDGE('',*,*,#629,.F.);
#262=ORIENTED_EDGE('',*,*,#630,.F.);
#263=ORIENTED_EDGE('',*,*,#631,.F.);
#264=ORIENTED_EDGE('',*,*,#632,.T.);
#265=ORIENTED_EDGE('',*,*,#633,.T.);
#266=ORIENTED_EDGE('',*,*,#634,.T.);
#267=CARTESIAN_POINT('',(-0.01,0.01,-0.01));
#268=DIRECTION('',(0.577350269189626,-0.577350269189626,0.577350269189626));
#269=DIRECTION('',(0.707106781186548,0.707106781186548,0.0));
#270=ORIENTED_EDGE('',*,*,#635,.F.);
#271=ORIENTED_EDGE('',*,*,#636,.T.);
#272=ORIENTED_EDGE('',*,*,#637,.T.);
#273=ORIENTED_EDGE('',*,*,#638,.T.);
#274=ORIENTED_EDGE('',*,*,#639,.F.);
#275=ORIENTED_EDGE('',*,*,#618,.F.);
#276=ORIENTED_EDGE('',*,*,#640,.F.);
#277=CARTESIAN_POINT('',(0.01,0.01,0.01));
#278=DIRECTION('',(-0.577350269189626,-0.577350269189626,-0.577350269189626));
#279=DIRECTION('',(0.707106781186548,-0.707106781186548,0.0));
#280=ORIENTED_EDGE('',*,*,#641,.F.);
#281=ORIENTED_EDGE('',*,*,#640,.T.);
#282=ORIENTED_EDGE('',*,*,#620,.F.);
#283=ORIENTED_EDGE('',*,*,#642,.F.);
#284=ORIENTED_EDGE('',*,*,#643,.T.);
#285=ORIENTED_EDGE('',*,*,#644,.T.);
#286=ORIENTED_EDGE('',*,*,#645,.T.);
#287=CARTESIAN_POINT('',(0.0,0.0,0.0));
#288=DIRECTION('',(0.577350269189626,-0.577350269189626,0.577350269189626));
#289=DIRECTION('',(0.707106781186548,0.707106781186548,0.0));
#290=ORIENTED_EDGE('',*,*,#646,.F.);
#291=ORIENTED_EDGE('',*,*,#647,.F.);
#292=ORIENTED_EDGE('',*,*,#648,.T.);
#293=ORIENTED_EDGE('',*,*,#649,.T.);
#294=ORIENTED_EDGE('',*,*,#650,.T.);
#295=ORIENTED_EDGE('',*,*,#651,.F.);
#296=ORIENTED_EDGE('',*,*,#652,.F.);
#297=ORIENTED_EDGE('',*,*,#634,.F.);
#298=ORIENTED_EDGE('',*,*,#653,.T.);
#299=ORIENTED_EDGE('',*,*,#654,.F.);
#300=CARTESIAN_POINT('',(0.01,0.01,-0.01));
#301=DIRECTION('',(-0.577350269189626,-0.577350269189626,0.577350269189626));
#302=DIRECTION('',(0.707106781186548,-0.707106781186548,0.0));
#303=ORIENTED_EDGE('',*,*,#655,.F.);
#304=ORIENTED_EDGE('',*,*,#656,.F.);
#305=ORIENTED_EDGE('',*,*,#657,.F.);
#306=ORIENTED_EDGE('',*,*,#658,.T.);
#307=ORIENTED_EDGE('',*,*,#659,.F.);
#308=ORIENTED_EDGE('',*,*,#660,.F.);
#309=ORIENTED_EDGE('',*,*,#661,.F.);
#310=ORIENTED_EDGE('',*,*,#662,.F.);
#311=ORIENTED_EDGE('',*,*,#663,.T.);
#312=ORIENTED_EDGE('',*,*,#632,.F.);
#313=CARTESIAN_POINT('',(-0.01,-0.01,-0.01));
#314=DIRECTION('',(0.577350269189626,0.577350269189626,0.577350269189626));
#315=DIRECTION('',(-0.707106781186548,0.707106781186548,0.0));
#316=ORIENTED_EDGE('',*,*,#664,.F.);
#317=ORIENTED_EDGE('',*,*,#665,.F.);
#318=ORIENTED_EDGE('',*,*,#666,.F.);
#319=ORIENTED_EDGE('',*,*,#667,.T.);
#320=ORIENTED_EDGE('',*,*,#668,.T.);
#321=ORIENTED_EDGE('',*,*,#669,.F.);
#322=ORIENTED_EDGE('',*,*,#670,.F.);
#323=ORIENTED_EDGE('',*,*,#654,.T.);
#324=ORIENTED_EDGE('',*,*,#671,.T.);
#325=ORIENTED_EDGE('',*,*,#662,.T.);
#326=CARTESIAN_POINT('',(0.01,-0.01,-0.01));
#327=DIRECTION('',(-0.577350269189626,0.577350269189626,0.577350269189626));
#328=DIRECTION('',(-0.707106781186548,-0.707106781186548,0.0));
#329=ORIENTED_EDGE('',*,*,#672,.T.);
#330=ORIENTED_EDGE('',*,*,#673,.T.);
#331=ORIENTED_EDGE('',*,*,#674,.T.);
#332=ORIENTED_EDGE('',*,*,#675,.T.);
#333=ORIENTED_EDGE('',*,*,#676,.T.);
#334=ORIENTED_EDGE('',*,*,#677,.T.);
#335=ORIENTED_EDGE('',*,*,#678,.T.);
#336=ORIENTED_EDGE('',*,*,#679,.T.);
#337=ORIENTED_EDGE('',*,*,#680,.T.);
#338=ORIENTED_EDGE('',*,*,#681,.T.);
#339=ORIENTED_EDGE('',*,*,#682,.T.);
#340=ORIENTED_EDGE('',*,*,#683,.T.);
#341=CARTESIAN_POINT('',(0.0,0.0,-0.01));
#342=DIRECTION('',(0.0,0.0,1.0));
#343=DIRECTION('',(1.0,0.0,0.0));
#344=ORIENTED_EDGE('',*,*,#684,.F.);
#345=ORIENTED_EDGE('',*,*,#648,.F.);
#346=ORIENTED_EDGE('',*,*,#685,.F.);
#347=ORIENTED_EDGE('',*,*,#668,.F.);
#348=ORIENTED_EDGE('',*,*,#686,.F.);
#349=ORIENTED_EDGE('',*,*,#687,.F.);
#350=ORIENTED_EDGE('',*,*,#688,.F.);
#351=ORIENTED_EDGE('',*,*,#689,.F.);
#352=ORIENTED_EDGE('',*,*,#681,.F.);
#353=ORIENTED_EDGE('',*,*,#690,.F.);
#354=ORIENTED_EDGE('',*,*,#691,.T.);
#355=ORIENTED_EDGE('',*,*,#692,.F.);
#356=CARTESIAN_POINT('',(0.01,0.0,0.0));
#357=DIRECTION('',(1.0,0.0,0.0));
#358=DIRECTION('',(0.0,1.0,0.0));
#359=ORIENTED_EDGE('',*,*,#693,.F.);
#360=ORIENTED_EDGE('',*,*,#627,.F.);
#361=ORIENTED_EDGE('',*,*,#694,.F.);
#362=ORIENTED_EDGE('',*,*,#650,.F.);
#363=ORIENTED_EDGE('',*,*,#695,.F.);
#364=ORIENTED_EDGE('',*,*,#696,.F.);
#365=ORIENTED_EDGE('',*,*,#697,.F.);
#366=ORIENTED_EDGE('',*,*,#698,.F.);
#367=ORIENTED_EDGE('',*,*,#680,.F.);
#368=ORIENTED_EDGE('',*,*,#699,.F.);
#369=ORIENTED_EDGE('',*,*,#700,.T.);
#370=ORIENTED_EDGE('',*,*,#690,.T.);
#371=CARTESIAN_POINT('',(0.0,0.01,0.0));
#372=DIRECTION('',(0.0,1.0,-0.0));
#373=DIRECTION('',(-1.0,0.0,0.0));
#374=ORIENTED_EDGE('',*,*,#664,.T.);
#375=ORIENTED_EDGE('',*,*,#701,.T.);
#376=ORIENTED_EDGE('',*,*,#702,.T.);
#377=ORIENTED_EDGE('',*,*,#670,.T.);
#378=ORIENTED_EDGE('',*,*,#703,.F.);
#379=ORIENTED_EDGE('',*,*,#675,.F.);
#380=ORIENTED_EDGE('',*,*,#704,.F.);
#381=CARTESIAN_POINT('',(0.01,-0.01,-0.01));
#382=DIRECTION('',(-0.577350269189626,0.577350269189626,0.577350269189626));
#383=DIRECTION('',(-0.707106781186548,-0.707106781186548,0.0));
#384=ORIENTED_EDGE('',*,*,#674,.F.);
#385=ORIENTED_EDGE('',*,*,#705,.T.);
#386=ORIENTED_EDGE('',*,*,#660,.T.);
#387=ORIENTED_EDGE('',*,*,#706,.F.);
#388=ORIENTED_EDGE('',*,*,#665,.T.);
#389=ORIENTED_EDGE('',*,*,#704,.T.);
#390=CARTESIAN_POINT('',(0.01,-0.01,-0.01));
#391=DIRECTION('',(-1.0,0.0,0.0));
#392=DIRECTION('',(0.0,-1.0,0.0));
#393=ORIENTED_EDGE('',*,*,#655,.T.);
#394=ORIENTED_EDGE('',*,*,#707,.F.);
#395=ORIENTED_EDGE('',*,*,#701,.F.);
#396=ORIENTED_EDGE('',*,*,#661,.T.);
#397=ORIENTED_EDGE('',*,*,#705,.F.);
#398=ORIENTED_EDGE('',*,*,#673,.F.);
#399=ORIENTED_EDGE('',*,*,#708,.F.);
#400=CARTESIAN_POINT('',(-0.01,-0.01,-0.01));
#401=DIRECTION('',(0.577350269189626,0.577350269189626,0.577350269189626));
#402=DIRECTION('',(-0.707106781186548,0.707106781186548,0.0));
#403=ORIENTED_EDGE('',*,*,#672,.F.);
#404=ORIENTED_EDGE('',*,*,#709,.T.);
#405=ORIENTED_EDGE('',*,*,#630,.T.);
#406=ORIENTED_EDGE('',*,*,#710,.F.);
#407=ORIENTED_EDGE('',*,*,#656,.T.);
#408=ORIENTED_EDGE('',*,*,#708,.T.);
#409=CARTESIAN_POINT('',(-0.01,0.01,-0.01));
#410=DIRECTION('',(0.0,-1.0,0.0));
#411=DIRECTION('',(1.0,0.0,0.0));
#412=ORIENTED_EDGE('',*,*,#711,.F.);
#413=ORIENTED_EDGE('',*,*,#623,.F.);
#414=ORIENTED_EDGE('',*,*,#712,.F.);
#415=ORIENTED_EDGE('',*,*,#614,.F.);
#416=ORIENTED_EDGE('',*,*,#713,.F.);
#417=ORIENTED_EDGE('',*,*,#637,.F.);
#418=ORIENTED_EDGE('',*,*,#714,.F.);
#419=ORIENTED_EDGE('',*,*,#644,.F.);
#420=ORIENTED_EDGE('',*,*,#715,.F.);
#421=ORIENTED_EDGE('',*,*,#716,.F.);
#422=ORIENTED_EDGE('',*,*,#691,.F.);
#423=ORIENTED_EDGE('',*,*,#700,.F.);
#424=CARTESIAN_POINT('',(0.0,0.0,0.01));
#425=DIRECTION('',(0.0,0.0,1.0));
#426=DIRECTION('',(1.0,0.0,0.0));
#427=ORIENTED_EDGE('',*,*,#686,.T.);
#428=ORIENTED_EDGE('',*,*,#667,.F.);
#429=ORIENTED_EDGE('',*,*,#717,.F.);
#430=ORIENTED_EDGE('',*,*,#718,.T.);
#431=CARTESIAN_POINT('',(0.01,-0.01,-0.01));
#432=DIRECTION('',(0.0,0.0,1.0));
#433=DIRECTION('',(1.0,0.0,0.0));
#434=ORIENTED_EDGE('',*,*,#714,.T.);
#435=ORIENTED_EDGE('',*,*,#636,.F.);
#436=ORIENTED_EDGE('',*,*,#719,.F.);
#437=ORIENTED_EDGE('',*,*,#688,.T.);
#438=ORIENTED_EDGE('',*,*,#720,.F.);
#439=ORIENTED_EDGE('',*,*,#645,.F.);
#440=CARTESIAN_POINT('',(0.01,0.01,0.01));
#441=DIRECTION('',(0.0,-1.0,0.0));
#442=DIRECTION('',(1.0,0.0,0.0));
#443=ORIENTED_EDGE('',*,*,#646,.T.);
#444=ORIENTED_EDGE('',*,*,#702,.F.);
#445=ORIENTED_EDGE('',*,*,#721,.F.);
#446=ORIENTED_EDGE('',*,*,#652,.T.);
#447=ORIENTED_EDGE('',*,*,#722,.F.);
#448=ORIENTED_EDGE('',*,*,#677,.F.);
#449=ORIENTED_EDGE('',*,*,#723,.F.);
#450=CARTESIAN_POINT('',(0.01,0.01,-0.01));
#451=DIRECTION('',(-0.577350269189626,-0.577350269189626,0.577350269189626));
#452=DIRECTION('',(0.707106781186548,-0.707106781186548,0.0));
#453=ORIENTED_EDGE('',*,*,#641,.T.);
#454=ORIENTED_EDGE('',*,*,#720,.T.);
#455=ORIENTED_EDGE('',*,*,#687,.T.);
#456=ORIENTED_EDGE('',*,*,#718,.F.);
#457=ORIENTED_EDGE('',*,*,#724,.F.);
#458=ORIENTED_EDGE('',*,*,#725,.T.);
#459=ORIENTED_EDGE('',*,*,#642,.T.);
#460=ORIENTED_EDGE('',*,*,#726,.F.);
#461=ORIENTED_EDGE('',*,*,#671,.F.);
#462=ORIENTED_EDGE('',*,*,#727,.T.);
#463=CARTESIAN_POINT('',(0.0,0.0,0.0));
#464=DIRECTION('',(0.577350269189626,-0.577350269189626,0.577350269189626));
#465=DIRECTION('',(0.707106781186548,0.707106781186548,0.0));
#466=ORIENTED_EDGE('',*,*,#678,.F.);
#467=ORIENTED_EDGE('',*,*,#722,.T.);
#468=ORIENTED_EDGE('',*,*,#651,.T.);
#469=ORIENTED_EDGE('',*,*,#694,.T.);
#470=ORIENTED_EDGE('',*,*,#626,.T.);
#471=ORIENTED_EDGE('',*,*,#728,.T.);
#472=CARTESIAN_POINT('',(-0.01,0.01,-0.01));
#473=DIRECTION('',(1.0,0.0,0.0));
#474=DIRECTION('',(0.0,1.0,0.0));
#475=ORIENTED_EDGE('',*,*,#676,.F.);
#476=ORIENTED_EDGE('',*,*,#703,.T.);
#477=ORIENTED_EDGE('',*,*,#669,.T.);
#478=ORIENTED_EDGE('',*,*,#685,.T.);
#479=ORIENTED_EDGE('',*,*,#647,.T.);
#480=ORIENTED_EDGE('',*,*,#723,.T.);
#481=CARTESIAN_POINT('',(0.01,-0.01,-0.01));
#482=DIRECTION('',(0.0,1.0,0.0));
#483=DIRECTION('',(-1.0,0.0,0.0));
#484=ORIENTED_EDGE('',*,*,#684,.T.);
#485=ORIENTED_EDGE('',*,*,#729,.T.);
#486=ORIENTED_EDGE('',*,*,#695,.T.);
#487=ORIENTED_EDGE('',*,*,#649,.F.);
#488=CARTESIAN_POINT('',(0.01,0.01,0.01));
#489=DIRECTION('',(0.0,0.0,-1.0));
#490=DIRECTION('',(-1.0,0.0,0.0));
#491=ORIENTED_EDGE('',*,*,#711,.T.);
#492=ORIENTED_EDGE('',*,*,#643,.F.);
#493=ORIENTED_EDGE('',*,*,#725,.F.);
#494=ORIENTED_EDGE('',*,*,#730,.F.);
#495=ORIENTED_EDGE('',*,*,#731,.F.);
#496=ORIENTED_EDGE('',*,*,#624,.F.);
#497=CARTESIAN_POINT('',(-0.01,-0.01,0.01));
#498=DIRECTION('',(1.0,0.0,0.0));
#499=DIRECTION('',(0.0,1.0,0.0));
#500=ORIENTED_EDGE('',*,*,#635,.T.);
#501=ORIENTED_EDGE('',*,*,#727,.F.);
#502=ORIENTED_EDGE('',*,*,#653,.F.);
#503=ORIENTED_EDGE('',*,*,#732,.F.);
#504=ORIENTED_EDGE('',*,*,#639,.T.);
#505=ORIENTED_EDGE('',*,*,#733,.T.);
#506=ORIENTED_EDGE('',*,*,#696,.T.);
#507=ORIENTED_EDGE('',*,*,#729,.F.);
#508=ORIENTED_EDGE('',*,*,#689,.T.);
#509=ORIENTED_EDGE('',*,*,#719,.T.);
#510=CARTESIAN_POINT('',(0.01,0.01,0.01));
#511=DIRECTION('',(-0.577350269189626,-0.577350269189626,-0.577350269189626));
#512=DIRECTION('',(0.707106781186548,-0.707106781186548,0.0));
#513=ORIENTED_EDGE('',*,*,#734,.F.);
#514=ORIENTED_EDGE('',*,*,#628,.F.);
#515=ORIENTED_EDGE('',*,*,#693,.T.);
#516=ORIENTED_EDGE('',*,*,#735,.T.);
#517=CARTESIAN_POINT('',(-0.01,0.01,0.01));
#518=DIRECTION('',(0.0,0.0,-1.0));
#519=DIRECTION('',(-1.0,0.0,0.0));
#520=ORIENTED_EDGE('',*,*,#736,.F.);
#521=ORIENTED_EDGE('',*,*,#737,.T.);
#522=ORIENTED_EDGE('',*,*,#738,.F.);
#523=ORIENTED_EDGE('',*,*,#658,.F.);
#524=CARTESIAN_POINT('',(-0.01,-0.01,-0.01));
#525=DIRECTION('',(0.0,0.0,1.0));
#526=DIRECTION('',(1.0,0.0,0.0));
#527=ORIENTED_EDGE('',*,*,#625,.T.);
#528=ORIENTED_EDGE('',*,*,#721,.T.);
#529=ORIENTED_EDGE('',*,*,#707,.T.);
#530=ORIENTED_EDGE('',*,*,#631,.T.);
#531=ORIENTED_EDGE('',*,*,#709,.F.);
#532=ORIENTED_EDGE('',*,*,#679,.F.);
#533=ORIENTED_EDGE('',*,*,#728,.F.);
#534=CARTESIAN_POINT('',(-0.01,0.01,-0.01));
#535=DIRECTION('',(0.577350269189626,-0.577350269189626,0.577350269189626));
#536=DIRECTION('',(0.707106781186548,0.707106781186548,0.0));
#537=ORIENTED_EDGE('',*,*,#683,.F.);
#538=ORIENTED_EDGE('',*,*,#739,.T.);
#539=ORIENTED_EDGE('',*,*,#715,.T.);
#540=ORIENTED_EDGE('',*,*,#699,.T.);
#541=ORIENTED_EDGE('',*,*,#736,.T.);
#542=ORIENTED_EDGE('',*,*,#657,.T.);
#543=ORIENTED_EDGE('',*,*,#710,.T.);
#544=ORIENTED_EDGE('',*,*,#629,.T.);
#545=ORIENTED_EDGE('',*,*,#734,.T.);
#546=ORIENTED_EDGE('',*,*,#740,.T.);
#547=ORIENTED_EDGE('',*,*,#741,.T.);
#548=ORIENTED_EDGE('',*,*,#742,.T.);
#549=CARTESIAN_POINT('',(-0.01,0.0,0.0));
#550=DIRECTION('',(1.0,0.0,0.0));
#551=DIRECTION('',(0.0,1.0,0.0));
#552=ORIENTED_EDGE('',*,*,#619,.T.);
#553=ORIENTED_EDGE('',*,*,#731,.T.);
#554=ORIENTED_EDGE('',*,*,#743,.F.);
#555=ORIENTED_EDGE('',*,*,#737,.F.);
#556=ORIENTED_EDGE('',*,*,#742,.F.);
#557=ORIENTED_EDGE('',*,*,#744,.T.);
#558=ORIENTED_EDGE('',*,*,#621,.T.);
#559=ORIENTED_EDGE('',*,*,#745,.T.);
#560=ORIENTED_EDGE('',*,*,#663,.F.);
#561=ORIENTED_EDGE('',*,*,#726,.T.);
#562=CARTESIAN_POINT('',(0.0,0.0,0.0));
#563=DIRECTION('',(-0.577350269189626,-0.577350269189626,0.577350269189626));
#564=DIRECTION('',(0.707106781186548,-0.707106781186548,0.0));
#565=ORIENTED_EDGE('',*,*,#712,.T.);
#566=ORIENTED_EDGE('',*,*,#622,.F.);
#567=ORIENTED_EDGE('',*,*,#744,.F.);
#568=ORIENTED_EDGE('',*,*,#741,.F.);
#569=ORIENTED_EDGE('',*,*,#746,.F.);
#570=ORIENTED_EDGE('',*,*,#615,.F.);
#571=CARTESIAN_POINT('',(-0.01,0.01,0.01));
#572=DIRECTION('',(0.0,-1.0,0.0));
#573=DIRECTION('',(1.0,0.0,0.0));
#574=ORIENTED_EDGE('',*,*,#612,.T.);
#575=ORIENTED_EDGE('',*,*,#732,.T.);
#576=ORIENTED_EDGE('',*,*,#633,.F.);
#577=ORIENTED_EDGE('',*,*,#745,.F.);
#578=ORIENTED_EDGE('',*,*,#616,.T.);
#579=ORIENTED_EDGE('',*,*,#746,.T.);
#580=ORIENTED_EDGE('',*,*,#740,.F.);
#581=ORIENTED_EDGE('',*,*,#735,.F.);
#582=ORIENTED_EDGE('',*,*,#698,.T.);
#583=ORIENTED_EDGE('',*,*,#747,.T.);
#584=CARTESIAN_POINT('',(-0.01,0.01,0.01));
#585=DIRECTION('',(0.577350269189626,-0.577350269189626,-0.577350269189626));
#586=DIRECTION('',(0.707106781186548,0.707106781186548,0.0));
#587=ORIENTED_EDGE('',*,*,#713,.T.);
#588=ORIENTED_EDGE('',*,*,#613,.F.);
#589=ORIENTED_EDGE('',*,*,#747,.F.);
#590=ORIENTED_EDGE('',*,*,#697,.T.);
#591=ORIENTED_EDGE('',*,*,#733,.F.);
#592=ORIENTED_EDGE('',*,*,#638,.F.);
#593=CARTESIAN_POINT('',(-0.01,0.01,0.01));
#594=DIRECTION('',(1.0,0.0,0.0));
#595=DIRECTION('',(0.0,1.0,0.0));
#596=ORIENTED_EDGE('',*,*,#682,.F.);
#597=ORIENTED_EDGE('',*,*,#692,.T.);
#598=ORIENTED_EDGE('',*,*,#716,.T.);
#599=ORIENTED_EDGE('',*,*,#739,.F.);
#600=ORIENTED_EDGE('',*,*,#743,.T.);
#601=ORIENTED_EDGE('',*,*,#730,.T.);
#602=ORIENTED_EDGE('',*,*,#724,.T.);
#603=ORIENTED_EDGE('',*,*,#717,.T.);
#604=ORIENTED_EDGE('',*,*,#666,.T.);
#605=ORIENTED_EDGE('',*,*,#706,.T.);
#606=ORIENTED_EDGE('',*,*,#659,.T.);
#607=ORIENTED_EDGE('',*,*,#738,.T.);
#608=CARTESIAN_POINT('',(0.0,-0.01,0.0));
#609=DIRECTION('',(0.0,1.0,-0.0));
#610=DIRECTION('',(-1.0,0.0,0.0));
#611=COLOUR_RGB('',0.560784339904785,0.686274528503418,0.560784339904785);
#612=EDGE_CURVE('',#748,#749,#750,.T.);
#613=EDGE_CURVE('1:7311',#748,#751,#752,.T.);
#614=EDGE_CURVE('1:7229',#751,#753,#754,.T.);
#615=EDGE_CURVE('1:7294',#753,#755,#756,.T.);
#616=EDGE_CURVE('',#757,#755,#758,.T.);
#617=EDGE_CURVE('1:2207',#759,#757,#760,.T.);
#618=EDGE_CURVE('1:2261',#759,#749,#761,.T.);
#619=EDGE_CURVE('',#762,#763,#764,.T.);
#620=EDGE_CURVE('1:2141',#762,#759,#765,.T.);
#621=EDGE_CURVE('',#766,#757,#767,.T.);
#622=EDGE_CURVE('1:7271',#766,#768,#769,.T.);
#623=EDGE_CURVE('1:7217',#768,#770,#771,.T.);
#624=EDGE_CURVE('1:7254',#770,#763,#772,.T.);
#625=EDGE_CURVE('',#773,#774,#775,.T.);
#626=EDGE_CURVE('1:7853',#776,#773,#777,.T.);
#627=EDGE_CURVE('1:4586',#776,#778,#779,.T.);
#628=EDGE_CURVE('1:6517',#778,#780,#781,.T.);
#629=EDGE_CURVE('1:6374',#782,#780,#783,.T.);
#630=EDGE_CURVE('1:7836',#784,#782,#785,.T.);
#631=EDGE_CURVE('',#786,#784,#787,.T.);
#632=EDGE_CURVE('1:1985',#786,#788,#789,.T.);
#633=EDGE_CURVE('1:2237',#788,#790,#791,.T.);
#634=EDGE_CURVE('1:2246',#790,#774,#792,.T.);
#635=EDGE_CURVE('',#793,#794,#795,.T.);
#636=EDGE_CURVE('1:7301',#793,#796,#797,.T.);
#637=EDGE_CURVE('1:7232',#796,#798,#799,.T.);
#638=EDGE_CURVE('1:7324',#798,#800,#801,.T.);
#639=EDGE_CURVE('',#749,#800,#802,.T.);
#640=EDGE_CURVE('1:2282',#794,#759,#803,.T.);
#641=EDGE_CURVE('',#794,#804,#805,.T.);
#642=EDGE_CURVE('',#806,#762,#807,.T.);
#643=EDGE_CURVE('1:7261',#806,#808,#809,.T.);
#644=EDGE_CURVE('1:7220',#808,#810,#811,.T.);
#645=EDGE_CURVE('1:7284',#810,#804,#812,.T.);
#646=EDGE_CURVE('',#813,#814,#815,.T.);
#647=EDGE_CURVE('1:7893',#816,#813,#817,.T.);
#648=EDGE_CURVE('1:5911',#816,#818,#819,.T.);
#649=EDGE_CURVE('1:5948',#818,#820,#821,.T.);
#650=EDGE_CURVE('1:4598',#820,#822,#823,.T.);
#651=EDGE_CURVE('1:7876',#824,#822,#825,.T.);
#652=EDGE_CURVE('',#774,#824,#826,.T.);
#653=EDGE_CURVE('1:2312',#790,#827,#828,.T.);
#654=EDGE_CURVE('1:1880',#814,#827,#829,.T.);
#655=EDGE_CURVE('',#830,#786,#831,.T.);
#656=EDGE_CURVE('1:7843',#832,#830,#833,.T.);
#657=EDGE_CURVE('1:6398',#834,#832,#835,.T.);
#658=EDGE_CURVE('1:6460',#834,#836,#837,.T.);
#659=EDGE_CURVE('1:5092',#838,#836,#839,.T.);
#660=EDGE_CURVE('1:7866',#840,#838,#841,.T.);
#661=EDGE_CURVE('',#842,#840,#843,.T.);
#662=EDGE_CURVE('1:2129',#844,#842,#845,.T.);
#663=EDGE_CURVE('1:2099',#844,#788,#846,.T.);
#664=EDGE_CURVE('',#847,#842,#848,.T.);
#665=EDGE_CURVE('1:7883',#849,#847,#850,.T.);
#666=EDGE_CURVE('1:5095',#851,#849,#852,.T.);
#667=EDGE_CURVE('1:6005',#851,#853,#854,.T.);
#668=EDGE_CURVE('1:5923',#853,#855,#856,.T.);
#669=EDGE_CURVE('1:7906',#857,#855,#858,.T.);
#670=EDGE_CURVE('',#814,#857,#859,.T.);
#671=EDGE_CURVE('1:2144',#827,#844,#860,.T.);
#672=EDGE_CURVE('1:7778',#861,#862,#863,.T.);
#673=EDGE_CURVE('1:7781',#862,#864,#865,.T.);
#674=EDGE_CURVE('1:7766',#864,#866,#867,.T.);
#675=EDGE_CURVE('1:7760',#866,#868,#869,.T.);
#676=EDGE_CURVE('1:7775',#868,#870,#871,.T.);
#677=EDGE_CURVE('1:7763',#870,#872,#873,.T.);
#678=EDGE_CURVE('1:7772',#872,#874,#875,.T.);
#679=EDGE_CURVE('1:7784',#874,#861,#876,.T.);
#680=EDGE_CURVE('1:7769',#877,#878,#879,.T.);
#681=EDGE_CURVE('1:7793',#878,#880,#881,.T.);
#682=EDGE_CURVE('1:7790',#880,#882,#883,.T.);
#683=EDGE_CURVE('1:7787',#882,#877,#884,.T.);
#684=EDGE_CURVE('1:5908',#818,#885,#886,.T.);
#685=EDGE_CURVE('1:5917',#855,#816,#887,.T.);
#686=EDGE_CURVE('1:5929',#888,#853,#889,.T.);
#687=EDGE_CURVE('1:5926',#890,#888,#891,.T.);
#688=EDGE_CURVE('1:5920',#892,#890,#893,.T.);
#689=EDGE_CURVE('1:5914',#885,#892,#894,.T.);
#690=EDGE_CURVE('1:7923',#895,#878,#896,.T.);
#691=EDGE_CURVE('1:7247',#895,#897,#898,.T.);
#692=EDGE_CURVE('1:7946',#880,#897,#899,.T.);
#693=EDGE_CURVE('1:4583',#778,#900,#901,.T.);
#694=EDGE_CURVE('1:4592',#822,#776,#902,.T.);
#695=EDGE_CURVE('1:4604',#903,#820,#904,.T.);
#696=EDGE_CURVE('1:4601',#905,#903,#906,.T.);
#697=EDGE_CURVE('1:4595',#907,#905,#908,.T.);
#698=EDGE_CURVE('1:4589',#900,#907,#909,.T.);
#699=EDGE_CURVE('1:7913',#910,#877,#911,.T.);
#700=EDGE_CURVE('1:7244',#910,#895,#912,.T.);
#701=EDGE_CURVE('1:2129',#842,#913,#914,.T.);
#702=EDGE_CURVE('1:1880',#913,#814,#915,.T.);
#703=EDGE_CURVE('1:7906',#868,#857,#916,.T.);
#704=EDGE_CURVE('1:7883',#847,#866,#917,.T.);
#705=EDGE_CURVE('1:7866',#864,#840,#918,.T.);
#706=EDGE_CURVE('1:5086',#849,#838,#919,.T.);
#707=EDGE_CURVE('1:1985',#913,#786,#920,.T.);
#708=EDGE_CURVE('1:7843',#830,#862,#921,.T.);
#709=EDGE_CURVE('1:7836',#861,#784,#922,.T.);
#710=EDGE_CURVE('1:6392',#832,#782,#923,.T.);
#711=EDGE_CURVE('1:7214',#770,#808,#924,.T.);
#712=EDGE_CURVE('1:7223',#753,#768,#925,.T.);
#713=EDGE_CURVE('1:7235',#798,#751,#926,.T.);
#714=EDGE_CURVE('1:7226',#810,#796,#927,.T.);
#715=EDGE_CURVE('1:7238',#928,#910,#929,.T.);
#716=EDGE_CURVE('1:7241',#897,#928,#930,.T.);
#717=EDGE_CURVE('1:5101',#931,#851,#932,.T.);
#718=EDGE_CURVE('1:6015',#931,#888,#933,.T.);
#719=EDGE_CURVE('1:7301',#892,#793,#934,.T.);
#720=EDGE_CURVE('1:7284',#804,#890,#935,.T.);
#721=EDGE_CURVE('1:2246',#774,#913,#936,.T.);
#722=EDGE_CURVE('1:7876',#872,#824,#937,.T.);
#723=EDGE_CURVE('1:7893',#813,#870,#938,.T.);
#724=EDGE_CURVE('1:5113',#939,#931,#940,.T.);
#725=EDGE_CURVE('1:7261',#939,#806,#941,.T.);
#726=EDGE_CURVE('1:2141',#844,#762,#942,.T.);
#727=EDGE_CURVE('1:2282',#827,#794,#943,.T.);
#728=EDGE_CURVE('1:7853',#773,#874,#944,.T.);
#729=EDGE_CURVE('1:5958',#885,#903,#945,.T.);
#730=EDGE_CURVE('1:5119',#946,#939,#947,.T.);
#731=EDGE_CURVE('1:7254',#763,#946,#948,.T.);
#732=EDGE_CURVE('1:2261',#749,#790,#949,.T.);
#733=EDGE_CURVE('1:7324',#800,#905,#950,.T.);
#734=EDGE_CURVE('1:6377',#780,#951,#952,.T.);
#735=EDGE_CURVE('1:6507',#900,#951,#953,.T.);
#736=EDGE_CURVE('1:6389',#954,#834,#955,.T.);
#737=EDGE_CURVE('1:6450',#954,#956,#957,.T.);
#738=EDGE_CURVE('1:5107',#836,#956,#958,.T.);
#739=EDGE_CURVE('1:7936',#882,#928,#959,.T.);
#740=EDGE_CURVE('1:6380',#951,#960,#961,.T.);
#741=EDGE_CURVE('1:6386',#960,#962,#963,.T.);
#742=EDGE_CURVE('1:6404',#962,#954,#964,.T.);
#743=EDGE_CURVE('1:5104',#956,#946,#965,.T.);
#744=EDGE_CURVE('1:7271',#962,#766,#966,.T.);
#745=EDGE_CURVE('1:2207',#757,#788,#967,.T.);
#746=EDGE_CURVE('1:7294',#755,#960,#968,.T.);
#747=EDGE_CURVE('1:7311',#907,#748,#969,.T.);
#748=VERTEX_POINT('',#970);
#749=VERTEX_POINT('',#971);
#750=LINE('',#972,#973);
#751=VERTEX_POINT('',#974);
#752=ELLIPSE('',#975,0.000778984866258382,0.0003581);
#753=VERTEX_POINT('',#976);
#754=ELLIPSE('',#977,0.000620247394190416,0.000358100000000001);
#755=VERTEX_POINT('',#978);
#756=ELLIPSE('',#979,0.000778984866258382,0.0003581);
#757=VERTEX_POINT('',#980);
#758=LINE('',#981,#982);
#759=VERTEX_POINT('',#983);
#760=ELLIPSE('',#984,0.000620247394190417,0.000358100000000001);
#761=ELLIPSE('',#985,0.000620247394190414,0.000358100000000001);
#762=VERTEX_POINT('',#986);
#763=VERTEX_POINT('',#987);
#764=LINE('',#988,#989);
#765=ELLIPSE('',#990,0.000620247394190415,0.0003581);
#766=VERTEX_POINT('',#991);
#767=LINE('',#992,#993);
#768=VERTEX_POINT('',#994);
#769=ELLIPSE('',#995,0.000778984866258379,0.0003581);
#770=VERTEX_POINT('',#996);
#771=ELLIPSE('',#997,0.000620247394190415,0.0003581);
#772=ELLIPSE('',#998,0.000778984866258382,0.0003581);
#773=VERTEX_POINT('',#999);
#774=VERTEX_POINT('',#1000);
#775=LINE('',#1001,#1002);
#776=VERTEX_POINT('',#1003);
#777=ELLIPSE('',#1004,0.000778984866258383,0.000358100000000001);
#778=VERTEX_POINT('',#1005);
#779=ELLIPSE('',#1006,0.000620247394190416,0.000358100000000001);
#780=VERTEX_POINT('',#1007);
#781=ELLIPSE('',#1008,0.00077898486625838,0.0003581);
#782=VERTEX_POINT('',#1009);
#783=ELLIPSE('',#1010,0.000620247394190416,0.000358100000000001);
#784=VERTEX_POINT('',#1011);
#785=ELLIPSE('',#1012,0.000778984866258383,0.000358100000000001);
#786=VERTEX_POINT('',#1013);
#787=LINE('',#1014,#1015);
#788=VERTEX_POINT('',#1016);
#789=ELLIPSE('',#1017,0.000620247394190414,0.000358100000000001);
#790=VERTEX_POINT('',#1018);
#791=ELLIPSE('',#1019,0.000620247394190414,0.000358100000000001);
#792=ELLIPSE('',#1020,0.000620247394190414,0.000358100000000001);
#793=VERTEX_POINT('',#1021);
#794=VERTEX_POINT('',#1022);
#795=LINE('',#1023,#1024);
#796=VERTEX_POINT('',#1025);
#797=ELLIPSE('',#1026,0.000778984866258382,0.0003581);
#798=VERTEX_POINT('',#1027);
#799=ELLIPSE('',#1028,0.000620247394190416,0.000358100000000001);
#800=VERTEX_POINT('',#1029);
#801=ELLIPSE('',#1030,0.000778984866258381,0.0003581);
#802=LINE('',#1031,#1032);
#803=ELLIPSE('',#1033,0.000620247394190417,0.000358100000000001);
#804=VERTEX_POINT('',#1034);
#805=LINE('',#1035,#1036);
#806=VERTEX_POINT('',#1037);
#807=LINE('',#1038,#1039);
#808=VERTEX_POINT('',#1040);
#809=ELLIPSE('',#1041,0.000778984866258379,0.0003581);
#810=VERTEX_POINT('',#1042);
#811=ELLIPSE('',#1043,0.000620247394190415,0.0003581);
#812=ELLIPSE('',#1044,0.000778984866258379,0.0003581);
#813=VERTEX_POINT('',#1045);
#814=VERTEX_POINT('',#1046);
#815=LINE('',#1047,#1048);
#816=VERTEX_POINT('',#1049);
#817=ELLIPSE('',#1050,0.000778984866258383,0.000358100000000001);
#818=VERTEX_POINT('',#1051);
#819=ELLIPSE('',#1052,0.000620247394190416,0.000358100000000001);
#820=VERTEX_POINT('',#1053);
#821=ELLIPSE('',#1054,0.00077898486625838,0.0003581);
#822=VERTEX_POINT('',#1055);
#823=ELLIPSE('',#1056,0.000620247394190416,0.000358100000000001);
#824=VERTEX_POINT('',#1057);
#825=ELLIPSE('',#1058,0.000778984866258383,0.000358100000000001);
#826=LINE('',#1059,#1060);
#827=VERTEX_POINT('',#1061);
#828=ELLIPSE('',#1062,0.000620247394190414,0.000358100000000001);
#829=ELLIPSE('',#1063,0.000620247394190414,0.000358100000000001);
#830=VERTEX_POINT('',#1064);
#831=LINE('',#1065,#1066);
#832=VERTEX_POINT('',#1067);
#833=ELLIPSE('',#1068,0.000778984866258383,0.000358100000000001);
#834=VERTEX_POINT('',#1069);
#835=ELLIPSE('',#1070,0.000620247394190416,0.000358100000000001);
#836=VERTEX_POINT('',#1071);
#837=ELLIPSE('',#1072,0.000778984866258382,0.0003581);
#838=VERTEX_POINT('',#1073);
#839=ELLIPSE('',#1074,0.000620247394190416,0.000358100000000001);
#840=VERTEX_POINT('',#1075);
#841=ELLIPSE('',#1076,0.000778984866258383,0.000358100000000001);
#842=VERTEX_POINT('',#1077);
#843=LINE('',#1078,#1079);
#844=VERTEX_POINT('',#1080);
#845=ELLIPSE('',#1081,0.000620247394190414,0.000358100000000001);
#846=ELLIPSE('',#1082,0.000620247394190413,0.0003581);
#847=VERTEX_POINT('',#1083);
#848=LINE('',#1084,#1085);
#849=VERTEX_POINT('',#1086);
#850=ELLIPSE('',#1087,0.000778984866258383,0.000358100000000001);
#851=VERTEX_POINT('',#1088);
#852=ELLIPSE('',#1089,0.000620247394190416,0.000358100000000001);
#853=VERTEX_POINT('',#1090);
#854=ELLIPSE('',#1091,0.000778984866258382,0.0003581);
#855=VERTEX_POINT('',#1092);
#856=ELLIPSE('',#1093,0.000620247394190416,0.000358100000000001);
#857=VERTEX_POINT('',#1094);
#858=ELLIPSE('',#1095,0.000778984866258383,0.000358100000000001);
#859=LINE('',#1096,#1097);
#860=ELLIPSE('',#1098,0.000620247394190413,0.0003581);
#861=VERTEX_POINT('',#1099);
#862=VERTEX_POINT('',#1100);
#863=LINE('',#1101,#1102);
#864=VERTEX_POINT('',#1103);
#865=ELLIPSE('',#1104,0.000620247394190416,0.000358100000000001);
#866=VERTEX_POINT('',#1105);
#867=LINE('',#1106,#1107);
#868=VERTEX_POINT('',#1108);
#869=ELLIPSE('',#1109,0.000620247394190416,0.000358100000000001);
#870=VERTEX_POINT('',#1110);
#871=LINE('',#1111,#1112);
#872=VERTEX_POINT('',#1113);
#873=ELLIPSE('',#1114,0.000620247394190416,0.000358100000000001);
#874=VERTEX_POINT('',#1115);
#875=LINE('',#1116,#1117);
#876=ELLIPSE('',#1118,0.000620247394190416,0.000358100000000001);
#877=VERTEX_POINT('',#1119);
#878=VERTEX_POINT('',#1120);
#879=LINE('',#1121,#1122);
#880=VERTEX_POINT('',#1123);
#881=LINE('',#1124,#1125);
#882=VERTEX_POINT('',#1126);
#883=LINE('',#1127,#1128);
#884=LINE('',#1129,#1130);
#885=VERTEX_POINT('',#1131);
#886=LINE('',#1132,#1133);
#887=LINE('',#1134,#1135);
#888=VERTEX_POINT('',#1136);
#889=LINE('',#1137,#1138);
#890=VERTEX_POINT('',#1139);
#891=ELLIPSE('',#1140,0.000620247394190415,0.0003581);
#892=VERTEX_POINT('',#1141);
#893=LINE('',#1142,#1143);
#894=ELLIPSE('',#1144,0.000620247394190416,0.000358100000000001);
#895=VERTEX_POINT('',#1145);
#896=LINE('',#1146,#1147);
#897=VERTEX_POINT('',#1148);
#898=LINE('',#1149,#1150);
#899=LINE('',#1151,#1152);
#900=VERTEX_POINT('',#1153);
#901=LINE('',#1154,#1155);
#902=LINE('',#1156,#1157);
#903=VERTEX_POINT('',#1158);
#904=LINE('',#1159,#1160);
#905=VERTEX_POINT('',#1161);
#906=ELLIPSE('',#1162,0.000620247394190416,0.000358100000000001);
#907=VERTEX_POINT('',#1163);
#908=LINE('',#1164,#1165);
#909=ELLIPSE('',#1166,0.000620247394190416,0.000358100000000001);
#910=VERTEX_POINT('',#1167);
#911=LINE('',#1168,#1169);
#912=LINE('',#1170,#1171);
#913=VERTEX_POINT('',#1172);
#914=ELLIPSE('',#1173,0.000620247394190414,0.000358100000000001);
#915=ELLIPSE('',#1174,0.000620247394190414,0.000358100000000001);
#916=ELLIPSE('',#1175,0.000778984866258383,0.000358100000000001);
#917=ELLIPSE('',#1176,0.000778984866258383,0.000358100000000001);
#918=ELLIPSE('',#1177,0.000778984866258383,0.000358100000000001);
#919=LINE('',#1178,#1179);
#920=ELLIPSE('',#1180,0.000620247394190414,0.000358100000000001);
#921=ELLIPSE('',#1181,0.000778984866258383,0.000358100000000001);
#922=ELLIPSE('',#1182,0.000778984866258383,0.000358100000000001);
#923=LINE('',#1183,#1184);
#924=LINE('',#1185,#1186);
#925=LINE('',#1187,#1188);
#926=LINE('',#1189,#1190);
#927=LINE('',#1191,#1192);
#928=VERTEX_POINT('',#1193);
#929=LINE('',#1194,#1195);
#930=LINE('',#1196,#1197);
#931=VERTEX_POINT('',#1198);
#932=LINE('',#1199,#1200);
#933=ELLIPSE('',#1201,0.000778984866258389,0.0003581);
#934=ELLIPSE('',#1202,0.000778984866258382,0.0003581);
#935=ELLIPSE('',#1203,0.000778984866258379,0.0003581);
#936=ELLIPSE('',#1204,0.000620247394190414,0.000358100000000001);
#937=ELLIPSE('',#1205,0.000778984866258383,0.000358100000000001);
#938=ELLIPSE('',#1206,0.000778984866258383,0.000358100000000001);
#939=VERTEX_POINT('',#1207);
#940=ELLIPSE('',#1208,0.000620247394190415,0.0003581);
#941=ELLIPSE('',#1209,0.000778984866258379,0.0003581);
#942=ELLIPSE('',#1210,0.000620247394190415,0.0003581);
#943=ELLIPSE('',#1211,0.000620247394190417,0.000358100000000001);
#944=ELLIPSE('',#1212,0.000778984866258383,0.000358100000000001);
#945=ELLIPSE('',#1213,0.000778984866258382,0.000358100000000001);
#946=VERTEX_POINT('',#1214);
#947=LINE('',#1215,#1216);
#948=ELLIPSE('',#1217,0.000778984866258382,0.0003581);
#949=ELLIPSE('',#1218,0.000620247394190414,0.000358100000000001);
#950=ELLIPSE('',#1219,0.000778984866258381,0.0003581);
#951=VERTEX_POINT('',#1220);
#952=LINE('',#1221,#1222);
#953=ELLIPSE('',#1223,0.000778984866258382,0.000358100000000001);
#954=VERTEX_POINT('',#1224);
#955=LINE('',#1225,#1226);
#956=VERTEX_POINT('',#1227);
#957=ELLIPSE('',#1228,0.000778984866258389,0.0003581);
#958=LINE('',#1229,#1230);
#959=LINE('',#1231,#1232);
#960=VERTEX_POINT('',#1233);
#961=ELLIPSE('',#1234,0.000620247394190416,0.000358100000000001);
#962=VERTEX_POINT('',#1235);
#963=LINE('',#1236,#1237);
#964=ELLIPSE('',#1238,0.000620247394190415,0.0003581);
#965=ELLIPSE('',#1239,0.000620247394190415,0.0003581);
#966=ELLIPSE('',#1240,0.000778984866258379,0.0003581);
#967=ELLIPSE('',#1241,0.000620247394190417,0.000358100000000001);
#968=ELLIPSE('',#1242,0.000778984866258382,0.0003581);
#969=ELLIPSE('',#1243,0.000778984866258382,0.0003581);
#970=CARTESIAN_POINT('',(-0.00940088702326298,0.00990731689994879,0.00965410196160589));
#971=CARTESIAN_POINT('',(-1.46159651652323E-18,0.000506429876685805,0.000253214938342902));
#972=CARTESIAN_POINT('',(-0.0097467850616571,0.0102532149383429,0.01));
#973=VECTOR('',#1244,1.0);
#974=CARTESIAN_POINT('',(-0.00951082630290479,0.0096419,0.01));
#975=AXIS2_PLACEMENT_3D('',#1245,#1246,#1247);
#976=CARTESIAN_POINT('',(-0.0096419,0.00951082630290479,0.01));
#977=AXIS2_PLACEMENT_3D('',#1248,#1249,#1250);
#978=CARTESIAN_POINT('',(-0.00990731689994879,0.00940088702326298,0.00965410196160589));
#979=AXIS2_PLACEMENT_3D('',#1251,#1252,#1253);
#980=CARTESIAN_POINT('',(-0.000506429876685805,-1.40862015754913E-18,0.000253214938342903));
#981=CARTESIAN_POINT('',(-0.0102532149383429,0.0097467850616571,0.01));
#982=VECTOR('',#1254,1.0);
#983=CARTESIAN_POINT('',(0.0,-2.01663594912797E-18,0.000438581138445329));
#984=AXIS2_PLACEMENT_3D('',#1255,#1256,#1257);
#985=AXIS2_PLACEMENT_3D('',#1258,#1259,#1260);
#986=CARTESIAN_POINT('',(0.0,-0.000506429876685805,0.000253214938342903));
#987=CARTESIAN_POINT('',(-0.00940088702326298,-0.00990731689994879,0.00965410196160589));
#988=CARTESIAN_POINT('',(0.000253214938342903,-0.000253214938342902,6.78380078611191E-19));
#989=VECTOR('',#1261,1.0);
#990=AXIS2_PLACEMENT_3D('',#1262,#1263,#1264);
#991=CARTESIAN_POINT('',(-0.00990731689994879,-0.00940088702326298,0.00965410196160589));
#992=CARTESIAN_POINT('',(-0.000253214938342902,0.000253214938342903,7.38015708378932E-19));
#993=VECTOR('',#1265,1.0);
#994=CARTESIAN_POINT('',(-0.0096419,-0.0095108263029048,0.01));
#995=AXIS2_PLACEMENT_3D('',#1266,#1267,#1268);
#996=CARTESIAN_POINT('',(-0.00951082630290479,-0.0096419,0.01));
#997=AXIS2_PLACEMENT_3D('',#1269,#1270,#1271);
#998=AXIS2_PLACEMENT_3D('',#1272,#1273,#1274);
#999=CARTESIAN_POINT('',(-0.00940088702326298,0.00990731689994879,-0.00965410196160588));
#1000=CARTESIAN_POINT('',(-1.46159651652323E-18,0.000506429876685805,-0.000253214938342902));
#1001=CARTESIAN_POINT('',(-0.0097467850616571,0.0102532149383429,-0.01));
#1002=VECTOR('',#1275,1.0);
#1003=CARTESIAN_POINT('',(-0.00951082630290479,0.01,-0.0096419));
#1004=AXIS2_PLACEMENT_3D('',#1276,#1277,#1278);
#1005=CARTESIAN_POINT('',(-0.0096419,0.01,-0.00951082630290479));
#1006=AXIS2_PLACEMENT_3D('',#1279,#1280,#1281);
#1007=CARTESIAN_POINT('',(-0.01,0.0096419,-0.00951082630290479));
#1008=AXIS2_PLACEMENT_3D('',#1282,#1283,#1284);
#1009=CARTESIAN_POINT('',(-0.01,0.00951082630290479,-0.0096419));
#1010=AXIS2_PLACEMENT_3D('',#1285,#1286,#1287);
#1011=CARTESIAN_POINT('',(-0.00990731689994879,0.00940088702326298,-0.00965410196160588));
#1012=AXIS2_PLACEMENT_3D('',#1288,#1289,#1290);
#1013=CARTESIAN_POINT('',(-0.000506429876685805,1.46159651652323E-18,-0.000253214938342902));
#1014=CARTESIAN_POINT('',(-0.0102532149383429,0.0097467850616571,-0.01));
#1015=VECTOR('',#1291,1.0);
#1016=CARTESIAN_POINT('',(-0.000438581138445328,8.43853142261305E-19,9.48119886530313E-19));
#1017=AXIS2_PLACEMENT_3D('',#1292,#1293,#1294);
#1018=CARTESIAN_POINT('',(-8.43853142261313E-19,0.000438581138445329,-1.89623977306063E-18));
#1019=AXIS2_PLACEMENT_3D('',#1295,#1296,#1297);
#1020=AXIS2_PLACEMENT_3D('',#1298,#1299,#1300);
#1021=CARTESIAN_POINT('',(0.00990731689994879,0.00940088702326298,0.00965410196160589));
#1022=CARTESIAN_POINT('',(0.000506429876685805,-1.40862015754913E-18,0.000253214938342904));
#1023=CARTESIAN_POINT('',(0.0102532149383429,0.0097467850616571,0.01));
#1024=VECTOR('',#1301,1.0);
#1025=CARTESIAN_POINT('',(0.0096419,0.00951082630290479,0.01));
#1026=AXIS2_PLACEMENT_3D('',#1302,#1303,#1304);
#1027=CARTESIAN_POINT('',(0.00951082630290479,0.0096419,0.01));
#1028=AXIS2_PLACEMENT_3D('',#1305,#1306,#1307);
#1029=CARTESIAN_POINT('',(0.00940088702326298,0.00990731689994879,0.00965410196160589));
#1030=AXIS2_PLACEMENT_3D('',#1308,#1309,#1310);
#1031=CARTESIAN_POINT('',(0.0097467850616571,0.0102532149383429,0.01));
#1032=VECTOR('',#1311,1.0);
#1033=AXIS2_PLACEMENT_3D('',#1312,#1313,#1314);
#1034=CARTESIAN_POINT('',(0.00990731689994879,-0.00940088702326298,0.00965410196160589));
#1035=CARTESIAN_POINT('',(0.000253214938342902,0.000253214938342903,6.78380078611191E-19));
#1036=VECTOR('',#1315,1.0);
#1037=CARTESIAN_POINT('',(0.00940088702326298,-0.00990731689994879,0.00965410196160589));
#1038=CARTESIAN_POINT('',(-0.000253214938342903,-0.000253214938342902,7.38015708378932E-19));
#1039=VECTOR('',#1316,1.0);
#1040=CARTESIAN_POINT('',(0.0095108263029048,-0.0096419,0.01));
#1041=AXIS2_PLACEMENT_3D('',#1317,#1318,#1319);
#1042=CARTESIAN_POINT('',(0.0096419,-0.0095108263029048,0.01));
#1043=AXIS2_PLACEMENT_3D('',#1320,#1321,#1322);
#1044=AXIS2_PLACEMENT_3D('',#1323,#1324,#1325);
#1045=CARTESIAN_POINT('',(0.00990731689994879,0.00940088702326298,-0.00965410196160588));
#1046=CARTESIAN_POINT('',(0.000506429876685805,-1.46159651652323E-18,-0.000253214938342904));
#1047=CARTESIAN_POINT('',(0.0102532149383429,0.0097467850616571,-0.01));
#1048=VECTOR('',#1326,1.0);
#1049=CARTESIAN_POINT('',(0.01,0.00951082630290479,-0.0096419));
#1050=AXIS2_PLACEMENT_3D('',#1327,#1328,#1329);
#1051=CARTESIAN_POINT('',(0.01,0.0096419,-0.00951082630290479));
#1052=AXIS2_PLACEMENT_3D('',#1330,#1331,#1332);
#1053=CARTESIAN_POINT('',(0.0096419,0.01,-0.00951082630290479));
#1054=AXIS2_PLACEMENT_3D('',#1333,#1334,#1335);
#1055=CARTESIAN_POINT('',(0.00951082630290479,0.01,-0.0096419));
#1056=AXIS2_PLACEMENT_3D('',#1336,#1337,#1338);
#1057=CARTESIAN_POINT('',(0.00940088702326298,0.00990731689994879,-0.00965410196160588));
#1058=AXIS2_PLACEMENT_3D('',#1339,#1340,#1341);
#1059=CARTESIAN_POINT('',(0.0097467850616571,0.0102532149383429,-0.01));
#1060=VECTOR('',#1342,1.0);
#1061=CARTESIAN_POINT('',(0.000438581138445329,-8.43853142261307E-19,2.85940918159935E-19));
#1062=AXIS2_PLACEMENT_3D('',#1343,#1344,#1345);
#1063=AXIS2_PLACEMENT_3D('',#1346,#1347,#1348);
#1064=CARTESIAN_POINT('',(-0.00990731689994879,-0.00940088702326298,-0.00965410196160588));
#1065=CARTESIAN_POINT('',(-0.0102532149383429,-0.0097467850616571,-0.01));
#1066=VECTOR('',#1349,1.0);
#1067=CARTESIAN_POINT('',(-0.01,-0.00951082630290479,-0.0096419));
#1068=AXIS2_PLACEMENT_3D('',#1350,#1351,#1352);
#1069=CARTESIAN_POINT('',(-0.01,-0.0096419,-0.00951082630290479));
#1070=AXIS2_PLACEMENT_3D('',#1353,#1354,#1355);
#1071=CARTESIAN_POINT('',(-0.0096419,-0.01,-0.00951082630290479));
#1072=AXIS2_PLACEMENT_3D('',#1356,#1357,#1358);
#1073=CARTESIAN_POINT('',(-0.00951082630290479,-0.01,-0.0096419));
#1074=AXIS2_PLACEMENT_3D('',#1359,#1360,#1361);
#1075=CARTESIAN_POINT('',(-0.00940088702326298,-0.00990731689994879,-0.00965410196160588));
#1076=AXIS2_PLACEMENT_3D('',#1362,#1363,#1364);
#1077=CARTESIAN_POINT('',(1.46159651652323E-18,-0.000506429876685805,-0.000253214938342904));
#1078=CARTESIAN_POINT('',(-0.0097467850616571,-0.0102532149383429,-0.01));
#1079=VECTOR('',#1365,1.0);
#1080=CARTESIAN_POINT('',(8.43853142261305E-19,-0.000438581138445328,1.11366462862291E-18));
#1081=AXIS2_PLACEMENT_3D('',#1366,#1367,#1368);
#1082=AXIS2_PLACEMENT_3D('',#1369,#1370,#1371);
#1083=CARTESIAN_POINT('',(0.00940088702326298,-0.00990731689994879,-0.00965410196160588));
#1084=CARTESIAN_POINT('',(0.0097467850616571,-0.0102532149383429,-0.01));
#1085=VECTOR('',#1372,1.0);
#1086=CARTESIAN_POINT('',(0.00951082630290479,-0.01,-0.0096419));
#1087=AXIS2_PLACEMENT_3D('',#1373,#1374,#1375);
#1088=CARTESIAN_POINT('',(0.0096419,-0.01,-0.00951082630290479));
#1089=AXIS2_PLACEMENT_3D('',#1376,#1377,#1378);
#1090=CARTESIAN_POINT('',(0.01,-0.0096419,-0.00951082630290479));
#1091=AXIS2_PLACEMENT_3D('',#1379,#1380,#1381);
#1092=CARTESIAN_POINT('',(0.01,-0.00951082630290479,-0.0096419));
#1093=AXIS2_PLACEMENT_3D('',#1382,#1383,#1384);
#1094=CARTESIAN_POINT('',(0.00990731689994879,-0.00940088702326298,-0.00965410196160588));
#1095=AXIS2_PLACEMENT_3D('',#1385,#1386,#1387);
#1096=CARTESIAN_POINT('',(0.0102532149383429,-0.0097467850616571,-0.01));
#1097=VECTOR('',#1388,1.0);
#1098=AXIS2_PLACEMENT_3D('',#1389,#1390,#1391);
#1099=CARTESIAN_POINT('',(-0.0096419,0.00951082630290479,-0.01));
#1100=CARTESIAN_POINT('',(-0.0096419,-0.00951082630290479,-0.01));
#1101=CARTESIAN_POINT('',(-0.0096419,0.01,-0.01));
#1102=VECTOR('',#1392,1.0);
#1103=CARTESIAN_POINT('',(-0.00951082630290479,-0.0096419,-0.01));
#1104=AXIS2_PLACEMENT_3D('',#1393,#1394,#1395);
#1105=CARTESIAN_POINT('',(0.00951082630290479,-0.0096419,-0.01));
#1106=CARTESIAN_POINT('',(0.01,-0.0096419,-0.01));
#1107=VECTOR('',#1396,1.0);
#1108=CARTESIAN_POINT('',(0.0096419,-0.00951082630290479,-0.01));
#1109=AXIS2_PLACEMENT_3D('',#1397,#1398,#1399);
#1110=CARTESIAN_POINT('',(0.0096419,0.00951082630290479,-0.01));
#1111=CARTESIAN_POINT('',(0.0096419,-0.01,-0.01));
#1112=VECTOR('',#1400,1.0);
#1113=CARTESIAN_POINT('',(0.00951082630290479,0.0096419,-0.01));
#1114=AXIS2_PLACEMENT_3D('',#1401,#1402,#1403);
#1115=CARTESIAN_POINT('',(-0.00951082630290479,0.0096419,-0.01));
#1116=CARTESIAN_POINT('',(-0.01,0.0096419,-0.01));
#1117=VECTOR('',#1404,1.0);
#1118=AXIS2_PLACEMENT_3D('',#1405,#1406,#1407);
#1119=CARTESIAN_POINT('',(-0.01,0.01,-0.01));
#1120=CARTESIAN_POINT('',(0.01,0.01,-0.01));
#1121=CARTESIAN_POINT('',(0.0,0.01,-0.01));
#1122=VECTOR('',#1408,1.0);
#1123=CARTESIAN_POINT('',(0.01,-0.01,-0.01));
#1124=CARTESIAN_POINT('',(0.01,0.0,-0.01));
#1125=VECTOR('',#1409,1.0);
#1126=CARTESIAN_POINT('',(-0.01,-0.01,-0.01));
#1127=CARTESIAN_POINT('',(0.0,-0.01,-0.01));
#1128=VECTOR('',#1410,1.0);
#1129=CARTESIAN_POINT('',(-0.01,0.0,-0.01));
#1130=VECTOR('',#1411,1.0);
#1131=CARTESIAN_POINT('',(0.01,0.0096419,0.00951082630290479));
#1132=CARTESIAN_POINT('',(0.01,0.0096419,0.01));
#1133=VECTOR('',#1412,1.0);
#1134=CARTESIAN_POINT('',(0.01,-0.01,-0.0096419));
#1135=VECTOR('',#1413,1.0);
#1136=CARTESIAN_POINT('',(0.01,-0.00964189999999999,0.00951082630290479));
#1137=CARTESIAN_POINT('',(0.01,-0.0096419,-0.01));
#1138=VECTOR('',#1414,1.0);
#1139=CARTESIAN_POINT('',(0.01,-0.00951082630290479,0.0096419));
#1140=AXIS2_PLACEMENT_3D('',#1415,#1416,#1417);
#1141=CARTESIAN_POINT('',(0.01,0.00951082630290479,0.0096419));
#1142=CARTESIAN_POINT('',(0.01,0.01,0.0096419));
#1143=VECTOR('',#1418,1.0);
#1144=AXIS2_PLACEMENT_3D('',#1419,#1420,#1421);
#1145=CARTESIAN_POINT('',(0.01,0.01,0.01));
#1146=CARTESIAN_POINT('',(0.01,0.01,0.0));
#1147=VECTOR('',#1422,1.0);
#1148=CARTESIAN_POINT('',(0.01,-0.01,0.01));
#1149=CARTESIAN_POINT('',(0.01,0.0,0.01));
#1150=VECTOR('',#1423,1.0);
#1151=CARTESIAN_POINT('',(0.01,-0.01,0.0));
#1152=VECTOR('',#1424,1.0);
#1153=CARTESIAN_POINT('',(-0.0096419,0.01,0.00951082630290479));
#1154=CARTESIAN_POINT('',(-0.0096419,0.01,0.01));
#1155=VECTOR('',#1425,1.0);
#1156=CARTESIAN_POINT('',(-0.01,0.01,-0.0096419));
#1157=VECTOR('',#1426,1.0);
#1158=CARTESIAN_POINT('',(0.0096419,0.01,0.00951082630290479));
#1159=CARTESIAN_POINT('',(0.0096419,0.01,0.01));
#1160=VECTOR('',#1427,1.0);
#1161=CARTESIAN_POINT('',(0.00951082630290479,0.01,0.0096419));
#1162=AXIS2_PLACEMENT_3D('',#1428,#1429,#1430);
#1163=CARTESIAN_POINT('',(-0.00951082630290479,0.01,0.0096419));
#1164=CARTESIAN_POINT('',(-0.01,0.01,0.0096419));
#1165=VECTOR('',#1431,1.0);
#1166=AXIS2_PLACEMENT_3D('',#1432,#1433,#1434);
#1167=CARTESIAN_POINT('',(-0.01,0.01,0.01));
#1168=CARTESIAN_POINT('',(-0.01,0.01,0.0));
#1169=VECTOR('',#1435,1.0);
#1170=CARTESIAN_POINT('',(0.0,0.01,0.01));
#1171=VECTOR('',#1436,1.0);
#1172=CARTESIAN_POINT('',(5.17316054155663E-18,-5.23518031430421E-18,-0.000438581138445324));
#1173=AXIS2_PLACEMENT_3D('',#1437,#1438,#1439);
#1174=AXIS2_PLACEMENT_3D('',#1440,#1441,#1442);
#1175=AXIS2_PLACEMENT_3D('',#1443,#1444,#1445);
#1176=AXIS2_PLACEMENT_3D('',#1446,#1447,#1448);
#1177=AXIS2_PLACEMENT_3D('',#1449,#1450,#1451);
#1178=CARTESIAN_POINT('',(0.01,-0.01,-0.0096419));
#1179=VECTOR('',#1452,1.0);
#1180=AXIS2_PLACEMENT_3D('',#1453,#1454,#1455);
#1181=AXIS2_PLACEMENT_3D('',#1456,#1457,#1458);
#1182=AXIS2_PLACEMENT_3D('',#1459,#1460,#1461);
#1183=CARTESIAN_POINT('',(-0.01,0.01,-0.0096419));
#1184=VECTOR('',#1462,1.0);
#1185=CARTESIAN_POINT('',(-0.01,-0.0096419,0.01));
#1186=VECTOR('',#1463,1.0);
#1187=CARTESIAN_POINT('',(-0.0096419,0.01,0.01));
#1188=VECTOR('',#1464,1.0);
#1189=CARTESIAN_POINT('',(-0.01,0.0096419,0.01));
#1190=VECTOR('',#1465,1.0);
#1191=CARTESIAN_POINT('',(0.0096419,0.01,0.01));
#1192=VECTOR('',#1466,1.0);
#1193=CARTESIAN_POINT('',(-0.01,-0.01,0.01));
#1194=CARTESIAN_POINT('',(-0.01,0.0,0.01));
#1195=VECTOR('',#1467,1.0);
#1196=CARTESIAN_POINT('',(0.0,-0.01,0.01));
#1197=VECTOR('',#1468,1.0);
#1198=CARTESIAN_POINT('',(0.00964189999999999,-0.01,0.00951082630290479));
#1199=CARTESIAN_POINT('',(0.0096419,-0.01,-0.01));
#1200=VECTOR('',#1469,1.0);
#1201=AXIS2_PLACEMENT_3D('',#1470,#1471,#1472);
#1202=AXIS2_PLACEMENT_3D('',#1473,#1474,#1475);
#1203=AXIS2_PLACEMENT_3D('',#1476,#1477,#1478);
#1204=AXIS2_PLACEMENT_3D('',#1479,#1480,#1481);
#1205=AXIS2_PLACEMENT_3D('',#1482,#1483,#1484);
#1206=AXIS2_PLACEMENT_3D('',#1485,#1486,#1487);
#1207=CARTESIAN_POINT('',(0.00951082630290479,-0.01,0.0096419));
#1208=AXIS2_PLACEMENT_3D('',#1488,#1489,#1490);
#1209=AXIS2_PLACEMENT_3D('',#1491,#1492,#1493);
#1210=AXIS2_PLACEMENT_3D('',#1494,#1495,#1496);
#1211=AXIS2_PLACEMENT_3D('',#1497,#1498,#1499);
#1212=AXIS2_PLACEMENT_3D('',#1500,#1501,#1502);
#1213=AXIS2_PLACEMENT_3D('',#1503,#1504,#1505);
#1214=CARTESIAN_POINT('',(-0.00951082630290479,-0.01,0.0096419));
#1215=CARTESIAN_POINT('',(-0.01,-0.01,0.0096419));
#1216=VECTOR('',#1506,1.0);
#1217=AXIS2_PLACEMENT_3D('',#1507,#1508,#1509);
#1218=AXIS2_PLACEMENT_3D('',#1510,#1511,#1512);
#1219=AXIS2_PLACEMENT_3D('',#1513,#1514,#1515);
#1220=CARTESIAN_POINT('',(-0.01,0.0096419,0.00951082630290479));
#1221=CARTESIAN_POINT('',(-0.01,0.0096419,0.01));
#1222=VECTOR('',#1516,1.0);
#1223=AXIS2_PLACEMENT_3D('',#1517,#1518,#1519);
#1224=CARTESIAN_POINT('',(-0.01,-0.00964189999999999,0.00951082630290479));
#1225=CARTESIAN_POINT('',(-0.01,-0.0096419,-0.01));
#1226=VECTOR('',#1520,1.0);
#1227=CARTESIAN_POINT('',(-0.00964189999999999,-0.01,0.00951082630290479));
#1228=AXIS2_PLACEMENT_3D('',#1521,#1522,#1523);
#1229=CARTESIAN_POINT('',(-0.0096419,-0.01,-0.01));
#1230=VECTOR('',#1524,1.0);
#1231=CARTESIAN_POINT('',(-0.01,-0.01,0.0));
#1232=VECTOR('',#1525,1.0);
#1233=CARTESIAN_POINT('',(-0.01,0.00951082630290479,0.0096419));
#1234=AXIS2_PLACEMENT_3D('',#1526,#1527,#1528);
#1235=CARTESIAN_POINT('',(-0.01,-0.00951082630290479,0.0096419));
#1236=CARTESIAN_POINT('',(-0.01,0.01,0.0096419));
#1237=VECTOR('',#1529,1.0);
#1238=AXIS2_PLACEMENT_3D('',#1530,#1531,#1532);
#1239=AXIS2_PLACEMENT_3D('',#1533,#1534,#1535);
#1240=AXIS2_PLACEMENT_3D('',#1536,#1537,#1538);
#1241=AXIS2_PLACEMENT_3D('',#1539,#1540,#1541);
#1242=AXIS2_PLACEMENT_3D('',#1542,#1543,#1544);
#1243=AXIS2_PLACEMENT_3D('',#1545,#1546,#1547);
#1244=DIRECTION('',(0.577350269189626,-0.577350269189626,-0.577350269189626));
#1245=CARTESIAN_POINT('',(-0.01,0.01,0.01));
#1246=DIRECTION('',(-0.459700843380982,-0.627963030199555,-0.627963030199555));
#1247=DIRECTION('',(-0.888073833977116,0.325057583671868,0.325057583671868));
#1248=CARTESIAN_POINT('',(-0.01,0.01,0.01));
#1249=DIRECTION('',(0.0,-0.0,-1.0));
#1250=DIRECTION('',(0.707106781186548,-0.707106781186548,0.0));
#1251=CARTESIAN_POINT('',(-0.01,0.01,0.01));
#1252=DIRECTION('',(0.627963030199555,0.459700843380982,-0.627963030199555));
#1253=DIRECTION('',(0.325057583671868,-0.888073833977116,-0.325057583671868));
#1254=DIRECTION('',(-0.577350269189626,0.577350269189626,0.577350269189626));
#1255=CARTESIAN_POINT('',(1.73472347597681E-18,-1.73472347597681E-18,-1.73472347597681E-18));
#1256=DIRECTION('',(-4.32611810114616E-16,-1.0,4.32611810114616E-16));
#1257=DIRECTION('',(0.707106781186548,-6.11805489106865E-16,-0.707106781186547));
#1258=CARTESIAN_POINT('',(0.0,0.0,0.0));
#1259=DIRECTION('',(-1.0,-1.97765398909538E-15,-1.97765398909538E-15));
#1260=DIRECTION('',(2.79682509305994E-15,-0.707106781186548,-0.707106781186547));
#1261=DIRECTION('',(-0.577350269189626,-0.577350269189626,0.577350269189626));
#1262=CARTESIAN_POINT('',(0.0,0.0,0.0));
#1263=DIRECTION('',(-1.0,0.0,-0.0));
#1264=DIRECTION('',(0.0,0.707106781186548,-0.707106781186547));
#1265=DIRECTION('',(0.577350269189626,0.577350269189626,-0.577350269189626));
#1266=CARTESIAN_POINT('',(-0.01,-0.01,0.01));
#1267=DIRECTION('',(0.627963030199554,-0.459700843380984,-0.627963030199554));
#1268=DIRECTION('',(0.325057583671869,0.888073833977115,-0.325057583671869));
#1269=CARTESIAN_POINT('',(-0.01,-0.01,0.01));
#1270=DIRECTION('',(0.0,0.0,-1.0));
#1271=DIRECTION('',(0.707106781186547,0.707106781186547,0.0));
#1272=CARTESIAN_POINT('',(-0.01,-0.01,0.01));
#1273=DIRECTION('',(-0.459700843380982,0.627963030199555,-0.627963030199555));
#1274=DIRECTION('',(0.888073833977116,0.325057583671868,-0.325057583671868));
#1275=DIRECTION('',(0.577350269189626,-0.577350269189626,0.577350269189626));
#1276=CARTESIAN_POINT('',(-0.01,0.01,-0.01));
#1277=DIRECTION('',(0.459700843380983,0.627963030199554,-0.627963030199554));
#1278=DIRECTION('',(0.888073833977115,-0.325057583671868,0.325057583671868));
#1279=CARTESIAN_POINT('',(-0.01,0.01,-0.01));
#1280=DIRECTION('',(0.0,-1.0,0.0));
#1281=DIRECTION('',(0.707106781186548,0.0,0.707106781186547));
#1282=CARTESIAN_POINT('',(-0.01,0.01,-0.01));
#1283=DIRECTION('',(0.627963030199554,-0.627963030199554,-0.459700843380983));
#1284=DIRECTION('',(-0.325057583671868,0.325057583671868,-0.888073833977115));
#1285=CARTESIAN_POINT('',(-0.01,0.01,-0.01));
#1286=DIRECTION('',(-1.0,0.0,-0.0));
#1287=DIRECTION('',(0.0,0.707106781186548,-0.707106781186547));
#1288=CARTESIAN_POINT('',(-0.01,0.01,-0.01));
#1289=DIRECTION('',(-0.627963030199554,-0.459700843380983,-0.627963030199554));
#1290=DIRECTION('',(-0.325057583671868,0.888073833977115,-0.325057583671868));
#1291=DIRECTION('',(-0.577350269189626,0.577350269189626,-0.577350269189626));
#1292=CARTESIAN_POINT('',(0.0,0.0,0.0));
#1293=DIRECTION('',(1.97765398909538E-15,1.0,1.97765398909538E-15));
#1294=DIRECTION('',(-0.707106781186548,2.79682509305994E-15,-0.707106781186547));
#1295=CARTESIAN_POINT('',(0.0,0.0,0.0));
#1296=DIRECTION('',(1.97765398909538E-15,-1.97765398909538E-15,-1.0));
#1297=DIRECTION('',(0.707106781186547,-0.707106781186547,2.79682509305994E-15));
#1298=CARTESIAN_POINT('',(0.0,0.0,0.0));
#1299=DIRECTION('',(-1.0,-1.97765398909538E-15,1.97765398909538E-15));
#1300=DIRECTION('',(2.79682509305994E-15,-0.707106781186548,0.707106781186547));
#1301=DIRECTION('',(-0.577350269189626,-0.577350269189626,-0.577350269189626));
#1302=CARTESIAN_POINT('',(0.01,0.01,0.01));
#1303=DIRECTION('',(-0.627963030199555,0.459700843380982,-0.627963030199555));
#1304=DIRECTION('',(0.325057583671868,0.888073833977116,0.325057583671868));
#1305=CARTESIAN_POINT('',(0.01,0.01,0.01));
#1306=DIRECTION('',(-0.0,0.0,-1.0));
#1307=DIRECTION('',(-0.707106781186548,-0.707106781186548,0.0));
#1308=CARTESIAN_POINT('',(0.01,0.01,0.01));
#1309=DIRECTION('',(0.459700843380983,-0.627963030199554,-0.627963030199554));
#1310=DIRECTION('',(0.888073833977115,0.325057583671868,0.325057583671868));
#1311=DIRECTION('',(0.577350269189626,0.577350269189626,0.577350269189626));
#1312=CARTESIAN_POINT('',(-1.73472347597681E-18,-1.73472347597681E-18,-1.73472347597681E-18));
#1313=DIRECTION('',(4.32611810114616E-16,-1.0,4.32611810114616E-16));
#1314=DIRECTION('',(0.707106781186548,6.11805489106865E-16,0.707106781186547));
#1315=DIRECTION('',(0.577350269189626,-0.577350269189626,0.577350269189626));
#1316=DIRECTION('',(-0.577350269189626,0.577350269189626,-0.577350269189626));
#1317=CARTESIAN_POINT('',(0.01,-0.01,0.01));
#1318=DIRECTION('',(0.459700843380984,0.627963030199554,-0.627963030199554));
#1319=DIRECTION('',(-0.888073833977115,0.325057583671869,-0.325057583671869));
#1320=CARTESIAN_POINT('',(0.01,-0.01,0.01));
#1321=DIRECTION('',(-0.0,0.0,-1.0));
#1322=DIRECTION('',(-0.707106781186547,0.707106781186547,0.0));
#1323=CARTESIAN_POINT('',(0.01,-0.01,0.01));
#1324=DIRECTION('',(-0.627963030199554,-0.459700843380984,-0.627963030199554));
#1325=DIRECTION('',(0.325057583671869,-0.888073833977115,0.325057583671869));
#1326=DIRECTION('',(-0.577350269189626,-0.577350269189626,0.577350269189626));
#1327=CARTESIAN_POINT('',(0.01,0.01,-0.01));
#1328=DIRECTION('',(0.627963030199554,-0.459700843380983,-0.627963030199554));
#1329=DIRECTION('',(-0.325057583671868,-0.888073833977115,0.325057583671868));
#1330=CARTESIAN_POINT('',(0.01,0.01,-0.01));
#1331=DIRECTION('',(-1.0,-0.0,0.0));
#1332=DIRECTION('',(0.0,-0.707106781186548,0.707106781186547));
#1333=CARTESIAN_POINT('',(0.01,0.01,-0.01));
#1334=DIRECTION('',(-0.627963030199554,-0.627963030199554,-0.459700843380983));
#1335=DIRECTION('',(-0.325057583671868,-0.325057583671868,0.888073833977115));
#1336=CARTESIAN_POINT('',(0.01,0.01,-0.01));
#1337=DIRECTION('',(0.0,-1.0,0.0));
#1338=DIRECTION('',(0.707106781186548,0.0,-0.707106781186547));
#1339=CARTESIAN_POINT('',(0.01,0.01,-0.01));
#1340=DIRECTION('',(-0.459700843380983,0.627963030199554,-0.627963030199554));
#1341=DIRECTION('',(0.888073833977115,0.325057583671868,-0.325057583671868));
#1342=DIRECTION('',(0.577350269189626,0.577350269189626,-0.577350269189626));
#1343=CARTESIAN_POINT('',(0.0,0.0,0.0));
#1344=DIRECTION('',(-1.97765398909538E-15,-1.97765398909538E-15,-1.0));
#1345=DIRECTION('',(-0.707106781186547,-0.707106781186547,2.79682509305994E-15));
#1346=CARTESIAN_POINT('',(0.0,0.0,0.0));
#1347=DIRECTION('',(-1.97765398909538E-15,-1.0,1.97765398909538E-15));
#1348=DIRECTION('',(0.707106781186548,-2.79682509305994E-15,-0.707106781186547));
#1349=DIRECTION('',(0.577350269189626,0.577350269189626,0.577350269189626));
#1350=CARTESIAN_POINT('',(-0.01,-0.01,-0.01));
#1351=DIRECTION('',(-0.627963030199554,0.459700843380983,-0.627963030199554));
#1352=DIRECTION('',(0.325057583671868,0.888073833977115,0.325057583671868));
#1353=CARTESIAN_POINT('',(-0.01,-0.01,-0.01));
#1354=DIRECTION('',(-1.0,0.0,0.0));
#1355=DIRECTION('',(0.0,0.707106781186548,0.707106781186547));
#1356=CARTESIAN_POINT('',(-0.01,-0.01,-0.01));
#1357=DIRECTION('',(0.627963030199555,0.627963030199555,-0.459700843380982));
#1358=DIRECTION('',(0.325057583671868,0.325057583671868,0.888073833977116));
#1359=CARTESIAN_POINT('',(-0.01,-0.01,-0.01));
#1360=DIRECTION('',(-0.0,-1.0,0.0));
#1361=DIRECTION('',(-0.707106781186548,0.0,-0.707106781186547));
#1362=CARTESIAN_POINT('',(-0.01,-0.01,-0.01));
#1363=DIRECTION('',(0.459700843380983,-0.627963030199554,-0.627963030199554));
#1364=DIRECTION('',(-0.888073833977115,-0.325057583671868,-0.325057583671868));
#1365=DIRECTION('',(-0.577350269189626,-0.577350269189626,-0.577350269189626));
#1366=CARTESIAN_POINT('',(0.0,0.0,0.0));
#1367=DIRECTION('',(1.0,1.97765398909538E-15,1.97765398909538E-15));
#1368=DIRECTION('',(-2.79682509305994E-15,0.707106781186548,0.707106781186547));
#1369=CARTESIAN_POINT('',(-5.63367974526435E-19,-5.63367974526435E-19,5.63367974526435E-19));
#1370=DIRECTION('',(1.33539201617579E-15,1.33539201617579E-15,-1.0));
#1371=DIRECTION('',(0.707106781186548,0.707106781186548,1.88852950036055E-15));
#1372=DIRECTION('',(-0.577350269189626,0.577350269189626,0.577350269189626));
#1373=CARTESIAN_POINT('',(0.01,-0.01,-0.01));
#1374=DIRECTION('',(-0.459700843380983,-0.627963030199554,-0.627963030199554));
#1375=DIRECTION('',(-0.888073833977115,0.325057583671868,0.325057583671868));
#1376=CARTESIAN_POINT('',(0.01,-0.01,-0.01));
#1377=DIRECTION('',(-0.0,-1.0,0.0));
#1378=DIRECTION('',(-0.707106781186548,0.0,0.707106781186547));
#1379=CARTESIAN_POINT('',(0.01,-0.01,-0.01));
#1380=DIRECTION('',(-0.627963030199555,0.627963030199555,-0.459700843380982));
#1381=DIRECTION('',(0.325057583671868,-0.325057583671868,-0.888073833977116));
#1382=CARTESIAN_POINT('',(0.01,-0.01,-0.01));
#1383=DIRECTION('',(-1.0,-0.0,0.0));
#1384=DIRECTION('',(0.0,-0.707106781186548,-0.707106781186547));
#1385=CARTESIAN_POINT('',(0.01,-0.01,-0.01));
#1386=DIRECTION('',(0.627963030199554,0.459700843380983,-0.627963030199554));
#1387=DIRECTION('',(0.325057583671868,-0.888073833977115,-0.325057583671868));
#1388=DIRECTION('',(0.577350269189626,-0.577350269189626,-0.577350269189626));
#1389=CARTESIAN_POINT('',(5.63367974526435E-19,-5.63367974526435E-19,5.63367974526435E-19));
#1390=DIRECTION('',(-1.33539201617579E-15,1.33539201617579E-15,-1.0));
#1391=DIRECTION('',(-0.707106781186548,0.707106781186548,1.88852950036055E-15));
#1392=DIRECTION('',(0.0,-1.0,0.0));
#1393=CARTESIAN_POINT('',(-0.01,-0.01,-0.01));
#1394=DIRECTION('',(-0.0,0.0,-1.0));
#1395=DIRECTION('',(-0.707106781186548,-0.707106781186548,0.0));
#1396=DIRECTION('',(1.0,-0.0,-0.0));
#1397=CARTESIAN_POINT('',(0.01,-0.01,-0.01));
#1398=DIRECTION('',(0.0,-0.0,-1.0));
#1399=DIRECTION('',(0.707106781186548,-0.707106781186548,0.0));
#1400=DIRECTION('',(0.0,1.0,0.0));
#1401=CARTESIAN_POINT('',(0.01,0.01,-0.01));
#1402=DIRECTION('',(0.0,0.0,-1.0));
#1403=DIRECTION('',(0.707106781186548,0.707106781186548,0.0));
#1404=DIRECTION('',(-1.0,-0.0,-0.0));
#1405=CARTESIAN_POINT('',(-0.01,0.01,-0.01));
#1406=DIRECTION('',(-0.0,0.0,-1.0));
#1407=DIRECTION('',(-0.707106781186548,0.707106781186548,0.0));
#1408=DIRECTION('',(1.0,-0.0,0.0));
#1409=DIRECTION('',(0.0,-1.0,0.0));
#1410=DIRECTION('',(-1.0,0.0,0.0));
#1411=DIRECTION('',(0.0,1.0,0.0));
#1412=DIRECTION('',(-0.0,-0.0,1.0));
#1413=DIRECTION('',(0.0,1.0,0.0));
#1414=DIRECTION('',(-0.0,-0.0,-1.0));
#1415=CARTESIAN_POINT('',(0.01,-0.01,0.01));
#1416=DIRECTION('',(-1.0,0.0,-0.0));
#1417=DIRECTION('',(0.0,0.707106781186548,-0.707106781186547));
#1418=DIRECTION('',(0.0,-1.0,0.0));
#1419=CARTESIAN_POINT('',(0.01,0.01,0.01));
#1420=DIRECTION('',(-1.0,-0.0,0.0));
#1421=DIRECTION('',(0.0,-0.707106781186548,-0.707106781186547));
#1422=DIRECTION('',(0.0,-0.0,-1.0));
#1423=DIRECTION('',(0.0,-1.0,0.0));
#1424=DIRECTION('',(-0.0,0.0,1.0));
#1425=DIRECTION('',(-0.0,-0.0,1.0));
#1426=DIRECTION('',(-1.0,-0.0,-0.0));
#1427=DIRECTION('',(0.0,0.0,-1.0));
#1428=CARTESIAN_POINT('',(0.01,0.01,0.01));
#1429=DIRECTION('',(0.0,-1.0,0.0));
#1430=DIRECTION('',(0.707106781186548,0.0,0.707106781186547));
#1431=DIRECTION('',(1.0,0.0,0.0));
#1432=CARTESIAN_POINT('',(-0.01,0.01,0.01));
#1433=DIRECTION('',(0.0,-1.0,0.0));
#1434=DIRECTION('',(0.707106781186548,0.0,-0.707106781186547));
#1435=DIRECTION('',(0.0,-0.0,-1.0));
#1436=DIRECTION('',(1.0,-0.0,0.0));
#1437=CARTESIAN_POINT('',(0.0,0.0,0.0));
#1438=DIRECTION('',(1.0,1.97765398909538E-15,1.97765398909538E-15));
#1439=DIRECTION('',(-2.79682509305994E-15,0.707106781186548,0.707106781186547));
#1440=CARTESIAN_POINT('',(0.0,0.0,0.0));
#1441=DIRECTION('',(-1.97765398909538E-15,-1.0,1.97765398909538E-15));
#1442=DIRECTION('',(0.707106781186548,-2.79682509305994E-15,-0.707106781186547));
#1443=CARTESIAN_POINT('',(0.01,-0.01,-0.01));
#1444=DIRECTION('',(0.627963030199554,0.459700843380983,-0.627963030199554));
#1445=DIRECTION('',(0.325057583671868,-0.888073833977115,-0.325057583671868));
#1446=CARTESIAN_POINT('',(0.01,-0.01,-0.01));
#1447=DIRECTION('',(-0.459700843380983,-0.627963030199554,-0.627963030199554));
#1448=DIRECTION('',(-0.888073833977115,0.325057583671868,0.325057583671868));
#1449=CARTESIAN_POINT('',(-0.01,-0.01,-0.01));
#1450=DIRECTION('',(0.459700843380983,-0.627963030199554,-0.627963030199554));
#1451=DIRECTION('',(-0.888073833977115,-0.325057583671868,-0.325057583671868));
#1452=DIRECTION('',(-1.0,0.0,0.0));
#1453=CARTESIAN_POINT('',(0.0,0.0,0.0));
#1454=DIRECTION('',(1.97765398909538E-15,1.0,1.97765398909538E-15));
#1455=DIRECTION('',(-0.707106781186548,2.79682509305994E-15,-0.707106781186547));
#1456=CARTESIAN_POINT('',(-0.01,-0.01,-0.01));
#1457=DIRECTION('',(-0.627963030199554,0.459700843380983,-0.627963030199554));
#1458=DIRECTION('',(0.325057583671868,0.888073833977115,0.325057583671868));
#1459=CARTESIAN_POINT('',(-0.01,0.01,-0.01));
#1460=DIRECTION('',(-0.627963030199554,-0.459700843380983,-0.627963030199554));
#1461=DIRECTION('',(-0.325057583671868,0.888073833977115,-0.325057583671868));
#1462=DIRECTION('',(-0.0,1.0,-0.0));
#1463=DIRECTION('',(1.0,0.0,0.0));
#1464=DIRECTION('',(0.0,-1.0,0.0));
#1465=DIRECTION('',(-1.0,-0.0,-0.0));
#1466=DIRECTION('',(-0.0,1.0,-0.0));
#1467=DIRECTION('',(0.0,1.0,0.0));
#1468=DIRECTION('',(-1.0,0.0,0.0));
#1469=DIRECTION('',(-0.0,-0.0,-1.0));
#1470=CARTESIAN_POINT('',(0.01,-0.01,0.01));
#1471=DIRECTION('',(0.627963030199553,-0.627963030199553,-0.459700843380988));
#1472=DIRECTION('',(0.325057583671872,-0.325057583671872,0.888073833977113));
#1473=CARTESIAN_POINT('',(0.01,0.01,0.01));
#1474=DIRECTION('',(-0.627963030199555,0.459700843380982,-0.627963030199555));
#1475=DIRECTION('',(0.325057583671868,0.888073833977116,0.325057583671868));
#1476=CARTESIAN_POINT('',(0.01,-0.01,0.01));
#1477=DIRECTION('',(-0.627963030199554,-0.459700843380984,-0.627963030199554));
#1478=DIRECTION('',(0.325057583671869,-0.888073833977115,0.325057583671869));
#1479=CARTESIAN_POINT('',(0.0,0.0,0.0));
#1480=DIRECTION('',(-1.0,-1.97765398909538E-15,1.97765398909538E-15));
#1481=DIRECTION('',(2.79682509305994E-15,-0.707106781186548,0.707106781186547));
#1482=CARTESIAN_POINT('',(0.01,0.01,-0.01));
#1483=DIRECTION('',(-0.459700843380983,0.627963030199554,-0.627963030199554));
#1484=DIRECTION('',(0.888073833977115,0.325057583671868,-0.325057583671868));
#1485=CARTESIAN_POINT('',(0.01,0.01,-0.01));
#1486=DIRECTION('',(0.627963030199554,-0.459700843380983,-0.627963030199554));
#1487=DIRECTION('',(-0.325057583671868,-0.888073833977115,0.325057583671868));
#1488=CARTESIAN_POINT('',(0.01,-0.01,0.01));
#1489=DIRECTION('',(0.0,-1.0,0.0));
#1490=DIRECTION('',(0.707106781186548,0.0,0.707106781186547));
#1491=CARTESIAN_POINT('',(0.01,-0.01,0.01));
#1492=DIRECTION('',(0.459700843380984,0.627963030199554,-0.627963030199554));
#1493=DIRECTION('',(-0.888073833977115,0.325057583671869,-0.325057583671869));
#1494=CARTESIAN_POINT('',(0.0,0.0,0.0));
#1495=DIRECTION('',(-1.0,0.0,-0.0));
#1496=DIRECTION('',(0.0,0.707106781186548,-0.707106781186547));
#1497=CARTESIAN_POINT('',(-1.73472347597681E-18,-1.73472347597681E-18,-1.73472347597681E-18));
#1498=DIRECTION('',(4.32611810114616E-16,-1.0,4.32611810114616E-16));
#1499=DIRECTION('',(0.707106781186548,6.11805489106865E-16,0.707106781186547));
#1500=CARTESIAN_POINT('',(-0.01,0.01,-0.01));
#1501=DIRECTION('',(0.459700843380983,0.627963030199554,-0.627963030199554));
#1502=DIRECTION('',(0.888073833977115,-0.325057583671868,0.325057583671868));
#1503=CARTESIAN_POINT('',(0.01,0.01,0.01));
#1504=DIRECTION('',(0.627963030199555,0.627963030199555,-0.459700843380982));
#1505=DIRECTION('',(0.325057583671868,0.325057583671868,0.888073833977116));
#1506=DIRECTION('',(1.0,0.0,0.0));
#1507=CARTESIAN_POINT('',(-0.01,-0.01,0.01));
#1508=DIRECTION('',(-0.459700843380982,0.627963030199555,-0.627963030199555));
#1509=DIRECTION('',(0.888073833977116,0.325057583671868,-0.325057583671868));
#1510=CARTESIAN_POINT('',(0.0,0.0,0.0));
#1511=DIRECTION('',(-1.0,-1.97765398909538E-15,-1.97765398909538E-15));
#1512=DIRECTION('',(2.79682509305994E-15,-0.707106781186548,-0.707106781186547));
#1513=CARTESIAN_POINT('',(0.01,0.01,0.01));
#1514=DIRECTION('',(0.459700843380983,-0.627963030199554,-0.627963030199554));
#1515=DIRECTION('',(0.888073833977115,0.325057583671868,0.325057583671868));
#1516=DIRECTION('',(-0.0,-0.0,1.0));
#1517=CARTESIAN_POINT('',(-0.01,0.01,0.01));
#1518=DIRECTION('',(-0.627963030199555,0.627963030199555,-0.459700843380982));
#1519=DIRECTION('',(-0.325057583671868,0.325057583671868,0.888073833977116));
#1520=DIRECTION('',(-0.0,-0.0,-1.0));
#1521=CARTESIAN_POINT('',(-0.01,-0.01,0.01));
#1522=DIRECTION('',(-0.627963030199553,-0.627963030199553,-0.459700843380988));
#1523=DIRECTION('',(-0.325057583671872,-0.325057583671872,0.888073833977113));
#1524=DIRECTION('',(0.0,0.0,1.0));
#1525=DIRECTION('',(-0.0,0.0,1.0));
#1526=CARTESIAN_POINT('',(-0.01,0.01,0.01));
#1527=DIRECTION('',(-1.0,0.0,0.0));
#1528=DIRECTION('',(0.0,0.707106781186548,0.707106781186547));
#1529=DIRECTION('',(0.0,-1.0,0.0));
#1530=CARTESIAN_POINT('',(-0.01,-0.01,0.01));
#1531=DIRECTION('',(-1.0,-0.0,0.0));
#1532=DIRECTION('',(0.0,-0.707106781186548,0.707106781186547));
#1533=CARTESIAN_POINT('',(-0.01,-0.01,0.01));
#1534=DIRECTION('',(0.0,-1.0,0.0));
#1535=DIRECTION('',(0.707106781186548,0.0,-0.707106781186547));
#1536=CARTESIAN_POINT('',(-0.01,-0.01,0.01));
#1537=DIRECTION('',(0.627963030199554,-0.459700843380984,-0.627963030199554));
#1538=DIRECTION('',(0.325057583671869,0.888073833977115,-0.325057583671869));
#1539=CARTESIAN_POINT('',(1.73472347597681E-18,-1.73472347597681E-18,-1.73472347597681E-18));
#1540=DIRECTION('',(-4.32611810114616E-16,-1.0,4.32611810114616E-16));
#1541=DIRECTION('',(0.707106781186548,-6.11805489106865E-16,-0.707106781186547));
#1542=CARTESIAN_POINT('',(-0.01,0.01,0.01));
#1543=DIRECTION('',(0.627963030199555,0.459700843380982,-0.627963030199555));
#1544=DIRECTION('',(0.325057583671868,-0.888073833977116,-0.325057583671868));
#1545=CARTESIAN_POINT('',(-0.01,0.01,0.01));
#1546=DIRECTION('',(-0.459700843380982,-0.627963030199555,-0.627963030199555));
#1547=DIRECTION('',(-0.888073833977116,0.325057583671868,0.325057583671868));
#1548=PRESENTATION_LAYER_ASSIGNMENT('9','\X2\56FE5C42\X0\0',(#25));
ENDSEC;
END-ISO-10303-21;
