ISO-10303-21;
HEADER;
FILE_DESCRIPTION(('STEP AP214'),'1');
FILE_NAME('cell4.stp','2026-06-24T13:30:40',(' '),(' '),'Spatial InterOp 3D',' ',' ');
FILE_SCHEMA(('AUTOMOTIVE_DESIGN { 1 0 10303 214 1 1 1 1 }'));
ENDSEC;
DATA;
#1=MECHANICAL_DESIGN_GEOMETRIC_PRESENTATION_REPRESENTATION(' ',(#10),#6);
#2=PRODUCT_DEFINITION_CONTEXT('',#11,'design');
#3=APPLICATION_PROTOCOL_DEFINITION('INTERNATIONAL STANDARD','automotive_design',1994,#11);
#4=PRODUCT_CATEGORY_RELATIONSHIP('NONE','NONE',#12,#13);
#5=SHAPE_DEFINITION_REPRESENTATION(#14,#15);
#6= (GEOMETRIC_REPRESENTATION_CONTEXT(3)GLOBAL_UNCERTAINTY_ASSIGNED_CONTEXT((#18))GLOBAL_UNIT_ASSIGNED_CONTEXT((#20,#21,#22))REPRESENTATION_CONTEXT('NONE','WORKSPACE'));
#10=STYLED_ITEM('',(#24),#25);
#11=APPLICATION_CONTEXT(' ');
#12=PRODUCT_CATEGORY('part','NONE');
#13=PRODUCT_RELATED_PRODUCT_CATEGORY('detail',' ',(#26));
#14=PRODUCT_DEFINITION_SHAPE('NONE','NONE',#27);
#15=ADVANCED_BREP_SHAPE_REPRESENTATION('\X2\5B9E4F53\X0\',(#25,#28),#6);
#18=UNCERTAINTY_MEASURE_WITH_UNIT(LENGTH_MEASURE(1.0E-08),#20,'','');
#20= (CONVERSION_BASED_UNIT('METRE',#31)LENGTH_UNIT()NAMED_UNIT(#34));
#21= (NAMED_UNIT(#36)PLANE_ANGLE_UNIT()SI_UNIT($,.RADIAN.));
#22= (NAMED_UNIT(#36)SOLID_ANGLE_UNIT()SI_UNIT($,.STERADIAN.));
#24=PRESENTATION_STYLE_ASSIGNMENT((#42));
#25=MANIFOLD_SOLID_BREP('\X2\5B9E4F53\X0\',#43);
#26=PRODUCT('\X2\5B9E4F53\X0\','','PART--DESC',(#44));
#27=PRODUCT_DEFINITION('','NONE',#45,#2);
#28=AXIS2_PLACEMENT_3D('',#46,#47,#48);
#31=LENGTH_MEASURE_WITH_UNIT(LENGTH_MEASURE(1.0),#49);
#34=DIMENSIONAL_EXPONENTS(1.0,0.0,0.0,0.0,0.0,0.0,0.0);
#36=DIMENSIONAL_EXPONENTS(0.0,0.0,0.0,0.0,0.0,0.0,0.0);
#42=SURFACE_STYLE_USAGE(.BOTH.,#50);
#43=CLOSED_SHELL('',(#51,#52,#53,#54,#55,#56,#57,#58,#59,#60,#61,#62,#63,#64,#65,#66,#67,#68,#69,#70,#71,#72,#73,#74,#75,#76,#77,#78,#79,#80,#81,#82,#83,#84));
#44=PRODUCT_CONTEXT('',#11,'mechanical');
#45=PRODUCT_DEFINITION_FORMATION_WITH_SPECIFIED_SOURCE(' ','NONE',#26,.NOT_KNOWN.);
#46=CARTESIAN_POINT('',(0.0,0.0,0.0));
#47=DIRECTION('',(0.0,0.0,1.0));
#48=DIRECTION('',(1.0,0.0,0.0));
#49= (NAMED_UNIT(#34)LENGTH_UNIT()SI_UNIT($,.METRE.));
#50=SURFACE_SIDE_STYLE('',(#86));
#51=ADVANCED_FACE('1:1192',(#87),#88,.T.);
#52=ADVANCED_FACE('1:1189',(#89),#90,.T.);
#53=ADVANCED_FACE('1:856',(#91),#92,.T.);
#54=ADVANCED_FACE('1:438',(#93),#94,.T.);
#55=ADVANCED_FACE('1:435',(#95),#96,.T.);
#56=ADVANCED_FACE('1:84',(#97),#98,.T.);
#57=ADVANCED_FACE('1:41',(#99),#100,.T.);
#58=ADVANCED_FACE('0:2442',(#101),#102,.T.);
#59=ADVANCED_FACE('0:2436',(#103),#104,.T.);
#60=ADVANCED_FACE('0:1572',(#105),#106,.T.);
#61=ADVANCED_FACE('0:2220',(#107),#108,.T.);
#62=ADVANCED_FACE('0:2226',(#109),#110,.T.);
#63=ADVANCED_FACE('1:1242',(#111),#112,.T.);
#64=ADVANCED_FACE('1:1232',(#113),#114,.T.);
#65=ADVANCED_FACE('0:2004',(#115),#116,.T.);
#66=ADVANCED_FACE('0:2010',(#117),#118,.T.);
#67=ADVANCED_FACE('0:1140',(#119),#120,.T.);
#68=ADVANCED_FACE('0:1794',(#121),#122,.T.);
#69=ADVANCED_FACE('0:1788',(#123),#124,.T.);
#70=ADVANCED_FACE('0:1578',(#125),#126,.T.);
#71=ADVANCED_FACE('0:1356',(#127),#128,.T.);
#72=ADVANCED_FACE('0:930',(#129),#130,.T.);
#73=ADVANCED_FACE('0:1362',(#131),#132,.T.);
#74=ADVANCED_FACE('0:1146',(#133),#134,.T.);
#75=ADVANCED_FACE('0:924',(#135),#136,.T.);
#76=ADVANCED_FACE('1:498',(#137),#138,.T.);
#77=ADVANCED_FACE('1:1219',(#139,#140,#141,#142,#143),#144,.F.);
#78=ADVANCED_FACE('1:452',(#145),#146,.T.);
#79=ADVANCED_FACE('1:876',(#147),#148,.T.);
#80=ADVANCED_FACE('1:8',(#149),#150,.T.);
#81=ADVANCED_FACE('1:11',(#151),#152,.T.);
#82=ADVANCED_FACE('1:813',(#153),#154,.T.);
#83=ADVANCED_FACE('1:816',(#155),#156,.T.);
#84=ADVANCED_FACE('1:1209',(#157,#158,#159,#160,#161),#162,.T.);
#86=SURFACE_STYLE_FILL_AREA(#163);
#87=FACE_OUTER_BOUND('',#164,.T.);
#88=PLANE('',#165);
#89=FACE_OUTER_BOUND('',#166,.T.);
#90=PLANE('',#167);
#91=FACE_OUTER_BOUND('',#168,.T.);
#92=PLANE('',#169);
#93=FACE_OUTER_BOUND('',#170,.T.);
#94=PLANE('',#171);
#95=FACE_OUTER_BOUND('',#172,.T.);
#96=PLANE('',#173);
#97=FACE_OUTER_BOUND('',#174,.T.);
#98=PLANE('',#175);
#99=FACE_OUTER_BOUND('',#176,.T.);
#100=PLANE('',#177);
#101=FACE_OUTER_BOUND('',#178,.T.);
#102=PLANE('',#179);
#103=FACE_OUTER_BOUND('',#180,.T.);
#104=PLANE('',#181);
#105=FACE_OUTER_BOUND('',#182,.T.);
#106=PLANE('',#183);
#107=FACE_OUTER_BOUND('',#184,.T.);
#108=PLANE('',#185);
#109=FACE_OUTER_BOUND('',#186,.T.);
#110=PLANE('',#187);
#111=FACE_OUTER_BOUND('',#188,.T.);
#112=PLANE('',#189);
#113=FACE_OUTER_BOUND('',#190,.T.);
#114=PLANE('',#191);
#115=FACE_OUTER_BOUND('',#192,.T.);
#116=PLANE('',#193);
#117=FACE_OUTER_BOUND('',#194,.T.);
#118=PLANE('',#195);
#119=FACE_OUTER_BOUND('',#196,.T.);
#120=PLANE('',#197);
#121=FACE_OUTER_BOUND('',#198,.T.);
#122=PLANE('',#199);
#123=FACE_OUTER_BOUND('',#200,.T.);
#124=PLANE('',#201);
#125=FACE_OUTER_BOUND('',#202,.T.);
#126=PLANE('',#203);
#127=FACE_OUTER_BOUND('',#204,.T.);
#128=PLANE('',#205);
#129=FACE_OUTER_BOUND('',#206,.T.);
#130=PLANE('',#207);
#131=FACE_OUTER_BOUND('',#208,.T.);
#132=PLANE('',#209);
#133=FACE_OUTER_BOUND('',#210,.T.);
#134=PLANE('',#211);
#135=FACE_OUTER_BOUND('',#212,.T.);
#136=PLANE('',#213);
#137=FACE_OUTER_BOUND('',#214,.T.);
#138=PLANE('',#215);
#139=FACE_OUTER_BOUND('',#216,.T.);
#140=FACE_BOUND('',#217,.T.);
#141=FACE_BOUND('',#218,.T.);
#142=FACE_BOUND('',#219,.T.);
#143=FACE_BOUND('',#220,.T.);
#144=PLANE('',#221);
#145=FACE_OUTER_BOUND('',#222,.T.);
#146=PLANE('',#223);
#147=FACE_OUTER_BOUND('',#224,.T.);
#148=PLANE('',#225);
#149=FACE_OUTER_BOUND('',#226,.T.);
#150=PLANE('',#227);
#151=FACE_OUTER_BOUND('',#228,.T.);
#152=PLANE('',#229);
#153=FACE_OUTER_BOUND('',#230,.T.);
#154=PLANE('',#231);
#155=FACE_OUTER_BOUND('',#232,.T.);
#156=PLANE('',#233);
#157=FACE_BOUND('',#234,.T.);
#158=FACE_BOUND('',#235,.T.);
#159=FACE_BOUND('',#236,.T.);
#160=FACE_BOUND('',#237,.T.);
#161=FACE_OUTER_BOUND('',#238,.T.);
#162=PLANE('',#239);
#163=FILL_AREA_STYLE('',(#240));
#164=EDGE_LOOP('',(#241,#242,#243,#244));
#165=AXIS2_PLACEMENT_3D('',#245,#246,#247);
#166=EDGE_LOOP('',(#248,#249,#250,#251));
#167=AXIS2_PLACEMENT_3D('',#252,#253,#254);
#168=EDGE_LOOP('',(#255,#256,#257,#258));
#169=AXIS2_PLACEMENT_3D('',#259,#260,#261);
#170=EDGE_LOOP('',(#262,#263,#264,#265));
#171=AXIS2_PLACEMENT_3D('',#266,#267,#268);
#172=EDGE_LOOP('',(#269,#270,#271,#272));
#173=AXIS2_PLACEMENT_3D('',#273,#274,#275);
#174=EDGE_LOOP('',(#276,#277,#278,#279));
#175=AXIS2_PLACEMENT_3D('',#280,#281,#282);
#176=EDGE_LOOP('',(#283,#284,#285,#286));
#177=AXIS2_PLACEMENT_3D('',#287,#288,#289);
#178=EDGE_LOOP('',(#290,#291,#292,#293));
#179=AXIS2_PLACEMENT_3D('',#294,#295,#296);
#180=EDGE_LOOP('',(#297,#298,#299,#300));
#181=AXIS2_PLACEMENT_3D('',#301,#302,#303);
#182=EDGE_LOOP('',(#304,#305,#306,#307));
#183=AXIS2_PLACEMENT_3D('',#308,#309,#310);
#184=EDGE_LOOP('',(#311,#312,#313,#314));
#185=AXIS2_PLACEMENT_3D('',#315,#316,#317);
#186=EDGE_LOOP('',(#318,#319,#320,#321));
#187=AXIS2_PLACEMENT_3D('',#322,#323,#324);
#188=EDGE_LOOP('',(#325,#326,#327,#328));
#189=AXIS2_PLACEMENT_3D('',#329,#330,#331);
#190=EDGE_LOOP('',(#332,#333,#334,#335));
#191=AXIS2_PLACEMENT_3D('',#336,#337,#338);
#192=EDGE_LOOP('',(#339,#340,#341,#342));
#193=AXIS2_PLACEMENT_3D('',#343,#344,#345);
#194=EDGE_LOOP('',(#346,#347,#348,#349));
#195=AXIS2_PLACEMENT_3D('',#350,#351,#352);
#196=EDGE_LOOP('',(#353,#354,#355,#356));
#197=AXIS2_PLACEMENT_3D('',#357,#358,#359);
#198=EDGE_LOOP('',(#360,#361,#362,#363));
#199=AXIS2_PLACEMENT_3D('',#364,#365,#366);
#200=EDGE_LOOP('',(#367,#368,#369,#370));
#201=AXIS2_PLACEMENT_3D('',#371,#372,#373);
#202=EDGE_LOOP('',(#374,#375,#376,#377));
#203=AXIS2_PLACEMENT_3D('',#378,#379,#380);
#204=EDGE_LOOP('',(#381,#382,#383,#384));
#205=AXIS2_PLACEMENT_3D('',#385,#386,#387);
#206=EDGE_LOOP('',(#388,#389,#390,#391));
#207=AXIS2_PLACEMENT_3D('',#392,#393,#394);
#208=EDGE_LOOP('',(#395,#396,#397,#398));
#209=AXIS2_PLACEMENT_3D('',#399,#400,#401);
#210=EDGE_LOOP('',(#402,#403,#404,#405));
#211=AXIS2_PLACEMENT_3D('',#406,#407,#408);
#212=EDGE_LOOP('',(#409,#410,#411,#412));
#213=AXIS2_PLACEMENT_3D('',#413,#414,#415);
#214=EDGE_LOOP('',(#416,#417,#418,#419));
#215=AXIS2_PLACEMENT_3D('',#420,#421,#422);
#216=EDGE_LOOP('',(#423,#424,#425,#426,#427,#428,#429,#430,#431,#432,#433,#434,#435,#436,#437,#438,#439,#440,#441,#442));
#217=EDGE_LOOP('',(#443,#444,#445));
#218=EDGE_LOOP('',(#446,#447,#448));
#219=EDGE_LOOP('',(#449,#450,#451));
#220=EDGE_LOOP('',(#452,#453,#454));
#221=AXIS2_PLACEMENT_3D('',#455,#456,#457);
#222=EDGE_LOOP('',(#458,#459,#460,#461));
#223=AXIS2_PLACEMENT_3D('',#462,#463,#464);
#224=EDGE_LOOP('',(#465,#466,#467,#468));
#225=AXIS2_PLACEMENT_3D('',#469,#470,#471);
#226=EDGE_LOOP('',(#472,#473,#474,#475));
#227=AXIS2_PLACEMENT_3D('',#476,#477,#478);
#228=EDGE_LOOP('',(#479,#480,#481,#482));
#229=AXIS2_PLACEMENT_3D('',#483,#484,#485);
#230=EDGE_LOOP('',(#486,#487,#488,#489));
#231=AXIS2_PLACEMENT_3D('',#490,#491,#492);
#232=EDGE_LOOP('',(#493,#494,#495,#496));
#233=AXIS2_PLACEMENT_3D('',#497,#498,#499);
#234=EDGE_LOOP('',(#500,#501,#502));
#235=EDGE_LOOP('',(#503,#504,#505));
#236=EDGE_LOOP('',(#506,#507,#508));
#237=EDGE_LOOP('',(#509,#510,#511));
#238=EDGE_LOOP('',(#512,#513,#514,#515,#516,#517,#518,#519,#520,#521,#522,#523,#524,#525,#526,#527,#528,#529,#530,#531));
#239=AXIS2_PLACEMENT_3D('',#532,#533,#534);
#240=FILL_AREA_STYLE_COLOUR('',#535);
#241=ORIENTED_EDGE('',*,*,#536,.T.);
#242=ORIENTED_EDGE('',*,*,#537,.F.);
#243=ORIENTED_EDGE('',*,*,#538,.F.);
#244=ORIENTED_EDGE('',*,*,#539,.F.);
#245=CARTESIAN_POINT('',(0.009896447,0.01,0.0001035535));
#246=DIRECTION('',(-0.0,1.0,0.0));
#247=DIRECTION('',(1.0,0.0,0.0));
#248=ORIENTED_EDGE('',*,*,#540,.T.);
#249=ORIENTED_EDGE('',*,*,#541,.F.);
#250=ORIENTED_EDGE('',*,*,#542,.F.);
#251=ORIENTED_EDGE('',*,*,#543,.F.);
#252=CARTESIAN_POINT('',(0.009896447,0.01,0.0001035535));
#253=DIRECTION('',(-0.0,1.0,0.0));
#254=DIRECTION('',(1.0,0.0,0.0));
#255=ORIENTED_EDGE('',*,*,#544,.T.);
#256=ORIENTED_EDGE('',*,*,#545,.T.);
#257=ORIENTED_EDGE('',*,*,#546,.T.);
#258=ORIENTED_EDGE('',*,*,#547,.T.);
#259=CARTESIAN_POINT('',(0.008067621,0.007932379,0.0));
#260=DIRECTION('',(0.707106781186548,-0.707106781186548,0.0));
#261=DIRECTION('',(-0.707106781186548,-0.707106781186548,0.0));
#262=ORIENTED_EDGE('',*,*,#548,.T.);
#263=ORIENTED_EDGE('',*,*,#549,.F.);
#264=ORIENTED_EDGE('',*,*,#550,.F.);
#265=ORIENTED_EDGE('',*,*,#551,.F.);
#266=CARTESIAN_POINT('',(-0.009896447,-0.01,0.0001035535));
#267=DIRECTION('',(-0.0,-1.0,-0.0));
#268=DIRECTION('',(-1.0,0.0,0.0));
#269=ORIENTED_EDGE('',*,*,#552,.F.);
#270=ORIENTED_EDGE('',*,*,#553,.F.);
#271=ORIENTED_EDGE('',*,*,#554,.F.);
#272=ORIENTED_EDGE('',*,*,#555,.F.);
#273=CARTESIAN_POINT('',(-0.009896447,-0.01,0.0001035535));
#274=DIRECTION('',(-0.0,-1.0,-0.0));
#275=DIRECTION('',(-1.0,0.0,0.0));
#276=ORIENTED_EDGE('',*,*,#556,.T.);
#277=ORIENTED_EDGE('',*,*,#557,.T.);
#278=ORIENTED_EDGE('',*,*,#558,.T.);
#279=ORIENTED_EDGE('',*,*,#559,.T.);
#280=CARTESIAN_POINT('',(-0.008067621,0.007932379,0.0));
#281=DIRECTION('',(-0.707106781186548,-0.707106781186548,-0.0));
#282=DIRECTION('',(-0.707106781186548,0.707106781186548,0.0));
#283=ORIENTED_EDGE('',*,*,#560,.T.);
#284=ORIENTED_EDGE('',*,*,#561,.T.);
#285=ORIENTED_EDGE('',*,*,#562,.T.);
#286=ORIENTED_EDGE('',*,*,#563,.T.);
#287=CARTESIAN_POINT('',(-0.008067621,-0.007932379,0.0));
#288=DIRECTION('',(-0.707106781186548,0.707106781186548,0.0));
#289=DIRECTION('',(0.707106781186548,0.707106781186548,0.0));
#290=ORIENTED_EDGE('',*,*,#564,.F.);
#291=ORIENTED_EDGE('',*,*,#565,.T.);
#292=ORIENTED_EDGE('',*,*,#566,.F.);
#293=ORIENTED_EDGE('',*,*,#567,.T.);
#294=CARTESIAN_POINT('',(0.002932379,0.003067621,0.0));
#295=DIRECTION('',(-0.707106781186548,0.707106781186548,0.0));
#296=DIRECTION('',(0.707106781186548,0.707106781186548,0.0));
#297=ORIENTED_EDGE('',*,*,#568,.F.);
#298=ORIENTED_EDGE('',*,*,#569,.T.);
#299=ORIENTED_EDGE('',*,*,#570,.F.);
#300=ORIENTED_EDGE('',*,*,#571,.T.);
#301=CARTESIAN_POINT('',(0.003067621,0.002932379,0.0));
#302=DIRECTION('',(0.707106781186548,-0.707106781186548,0.0));
#303=DIRECTION('',(-0.707106781186548,-0.707106781186548,0.0));
#304=ORIENTED_EDGE('',*,*,#568,.T.);
#305=ORIENTED_EDGE('',*,*,#572,.T.);
#306=ORIENTED_EDGE('',*,*,#573,.T.);
#307=ORIENTED_EDGE('',*,*,#574,.T.);
#308=CARTESIAN_POINT('',(0.003067621,-0.002932379,0.0));
#309=DIRECTION('',(0.707106781186548,0.707106781186548,0.0));
#310=DIRECTION('',(0.707106781186548,-0.707106781186548,0.0));
#311=ORIENTED_EDGE('',*,*,#566,.T.);
#312=ORIENTED_EDGE('',*,*,#575,.T.);
#313=ORIENTED_EDGE('',*,*,#576,.F.);
#314=ORIENTED_EDGE('',*,*,#577,.T.);
#315=CARTESIAN_POINT('',(0.0,0.005904369,0.0));
#316=DIRECTION('',(-0.0,-1.0,-0.0));
#317=DIRECTION('',(-1.0,0.0,0.0));
#318=ORIENTED_EDGE('',*,*,#578,.F.);
#319=ORIENTED_EDGE('',*,*,#579,.T.);
#320=ORIENTED_EDGE('',*,*,#580,.F.);
#321=ORIENTED_EDGE('',*,*,#581,.T.);
#322=CARTESIAN_POINT('',(0.0,0.006095631,0.0));
#323=DIRECTION('',(-0.0,1.0,0.0));
#324=DIRECTION('',(1.0,0.0,0.0));
#325=ORIENTED_EDGE('',*,*,#538,.T.);
#326=ORIENTED_EDGE('',*,*,#582,.T.);
#327=ORIENTED_EDGE('',*,*,#578,.T.);
#328=ORIENTED_EDGE('',*,*,#583,.T.);
#329=CARTESIAN_POINT('',(0.007932379,0.008067621,0.0));
#330=DIRECTION('',(-0.707106781186548,0.707106781186548,0.0));
#331=DIRECTION('',(0.707106781186548,0.707106781186548,0.0));
#332=ORIENTED_EDGE('',*,*,#542,.T.);
#333=ORIENTED_EDGE('',*,*,#584,.T.);
#334=ORIENTED_EDGE('',*,*,#580,.T.);
#335=ORIENTED_EDGE('',*,*,#585,.T.);
#336=CARTESIAN_POINT('',(-0.007932379,0.008067621,0.0));
#337=DIRECTION('',(0.707106781186548,0.707106781186548,0.0));
#338=DIRECTION('',(0.707106781186548,-0.707106781186548,0.0));
#339=ORIENTED_EDGE('',*,*,#586,.F.);
#340=ORIENTED_EDGE('',*,*,#587,.T.);
#341=ORIENTED_EDGE('',*,*,#588,.F.);
#342=ORIENTED_EDGE('',*,*,#589,.T.);
#343=CARTESIAN_POINT('',(-0.003067621,0.002932379,0.0));
#344=DIRECTION('',(-0.707106781186548,-0.707106781186548,-0.0));
#345=DIRECTION('',(-0.707106781186548,0.707106781186548,0.0));
#346=ORIENTED_EDGE('',*,*,#564,.T.);
#347=ORIENTED_EDGE('',*,*,#590,.T.);
#348=ORIENTED_EDGE('',*,*,#576,.T.);
#349=ORIENTED_EDGE('',*,*,#591,.T.);
#350=CARTESIAN_POINT('',(-0.002932379,0.003067621,0.0));
#351=DIRECTION('',(0.707106781186548,0.707106781186548,0.0));
#352=DIRECTION('',(0.707106781186548,-0.707106781186548,0.0));
#353=ORIENTED_EDGE('',*,*,#588,.T.);
#354=ORIENTED_EDGE('',*,*,#592,.T.);
#355=ORIENTED_EDGE('',*,*,#593,.T.);
#356=ORIENTED_EDGE('',*,*,#594,.T.);
#357=CARTESIAN_POINT('',(-0.005904369,0.0,0.0));
#358=DIRECTION('',(1.0,0.0,0.0));
#359=DIRECTION('',(0.0,-1.0,0.0));
#360=ORIENTED_EDGE('',*,*,#570,.T.);
#361=ORIENTED_EDGE('',*,*,#595,.T.);
#362=ORIENTED_EDGE('',*,*,#573,.F.);
#363=ORIENTED_EDGE('',*,*,#596,.T.);
#364=CARTESIAN_POINT('',(0.005904369,0.0,0.0));
#365=DIRECTION('',(-1.0,0.0,0.0));
#366=DIRECTION('',(0.0,1.0,0.0));
#367=ORIENTED_EDGE('',*,*,#597,.F.);
#368=ORIENTED_EDGE('',*,*,#598,.T.);
#369=ORIENTED_EDGE('',*,*,#546,.F.);
#370=ORIENTED_EDGE('',*,*,#599,.T.);
#371=CARTESIAN_POINT('',(0.006095631,0.0,0.0));
#372=DIRECTION('',(1.0,0.0,0.0));
#373=DIRECTION('',(0.0,-1.0,0.0));
#374=ORIENTED_EDGE('',*,*,#600,.F.);
#375=ORIENTED_EDGE('',*,*,#601,.T.);
#376=ORIENTED_EDGE('',*,*,#602,.F.);
#377=ORIENTED_EDGE('',*,*,#603,.T.);
#378=CARTESIAN_POINT('',(0.002932379,-0.003067621,0.0));
#379=DIRECTION('',(-0.707106781186548,-0.707106781186548,-0.0));
#380=DIRECTION('',(-0.707106781186548,0.707106781186548,0.0));
#381=ORIENTED_EDGE('',*,*,#600,.T.);
#382=ORIENTED_EDGE('',*,*,#604,.T.);
#383=ORIENTED_EDGE('',*,*,#605,.F.);
#384=ORIENTED_EDGE('',*,*,#606,.T.);
#385=CARTESIAN_POINT('',(-0.002932379,-0.003067621,0.0));
#386=DIRECTION('',(0.707106781186548,-0.707106781186548,0.0));
#387=DIRECTION('',(-0.707106781186548,-0.707106781186548,0.0));
#388=ORIENTED_EDGE('',*,*,#602,.T.);
#389=ORIENTED_EDGE('',*,*,#607,.T.);
#390=ORIENTED_EDGE('',*,*,#605,.T.);
#391=ORIENTED_EDGE('',*,*,#608,.T.);
#392=CARTESIAN_POINT('',(0.0,-0.005904369,0.0));
#393=DIRECTION('',(-0.0,1.0,0.0));
#394=DIRECTION('',(1.0,0.0,0.0));
#395=ORIENTED_EDGE('',*,*,#586,.T.);
#396=ORIENTED_EDGE('',*,*,#609,.T.);
#397=ORIENTED_EDGE('',*,*,#593,.F.);
#398=ORIENTED_EDGE('',*,*,#610,.T.);
#399=CARTESIAN_POINT('',(-0.003067621,-0.002932379,0.0));
#400=DIRECTION('',(-0.707106781186548,0.707106781186548,0.0));
#401=DIRECTION('',(0.707106781186548,0.707106781186548,0.0));
#402=ORIENTED_EDGE('',*,*,#562,.F.);
#403=ORIENTED_EDGE('',*,*,#611,.T.);
#404=ORIENTED_EDGE('',*,*,#558,.F.);
#405=ORIENTED_EDGE('',*,*,#612,.T.);
#406=CARTESIAN_POINT('',(-0.006095631,0.0,0.0));
#407=DIRECTION('',(-1.0,0.0,0.0));
#408=DIRECTION('',(0.0,1.0,0.0));
#409=ORIENTED_EDGE('',*,*,#613,.F.);
#410=ORIENTED_EDGE('',*,*,#614,.T.);
#411=ORIENTED_EDGE('',*,*,#615,.F.);
#412=ORIENTED_EDGE('',*,*,#616,.T.);
#413=CARTESIAN_POINT('',(0.0,-0.006095631,0.0));
#414=DIRECTION('',(-0.0,-1.0,-0.0));
#415=DIRECTION('',(-1.0,0.0,0.0));
#416=ORIENTED_EDGE('',*,*,#550,.T.);
#417=ORIENTED_EDGE('',*,*,#617,.T.);
#418=ORIENTED_EDGE('',*,*,#615,.T.);
#419=ORIENTED_EDGE('',*,*,#618,.T.);
#420=CARTESIAN_POINT('',(-0.007932379,-0.008067621,0.0));
#421=DIRECTION('',(0.707106781186548,-0.707106781186548,0.0));
#422=DIRECTION('',(-0.707106781186548,-0.707106781186548,0.0));
#423=ORIENTED_EDGE('',*,*,#539,.T.);
#424=ORIENTED_EDGE('',*,*,#583,.F.);
#425=ORIENTED_EDGE('',*,*,#581,.F.);
#426=ORIENTED_EDGE('',*,*,#584,.F.);
#427=ORIENTED_EDGE('',*,*,#541,.T.);
#428=ORIENTED_EDGE('',*,*,#619,.T.);
#429=ORIENTED_EDGE('',*,*,#559,.F.);
#430=ORIENTED_EDGE('',*,*,#611,.F.);
#431=ORIENTED_EDGE('',*,*,#561,.F.);
#432=ORIENTED_EDGE('',*,*,#620,.T.);
#433=ORIENTED_EDGE('',*,*,#551,.T.);
#434=ORIENTED_EDGE('',*,*,#618,.F.);
#435=ORIENTED_EDGE('',*,*,#614,.F.);
#436=ORIENTED_EDGE('',*,*,#621,.F.);
#437=ORIENTED_EDGE('',*,*,#555,.T.);
#438=ORIENTED_EDGE('',*,*,#622,.T.);
#439=ORIENTED_EDGE('',*,*,#623,.F.);
#440=ORIENTED_EDGE('',*,*,#599,.F.);
#441=ORIENTED_EDGE('',*,*,#545,.F.);
#442=ORIENTED_EDGE('',*,*,#624,.T.);
#443=ORIENTED_EDGE('',*,*,#610,.F.);
#444=ORIENTED_EDGE('',*,*,#592,.F.);
#445=ORIENTED_EDGE('',*,*,#587,.F.);
#446=ORIENTED_EDGE('',*,*,#596,.F.);
#447=ORIENTED_EDGE('',*,*,#572,.F.);
#448=ORIENTED_EDGE('',*,*,#571,.F.);
#449=ORIENTED_EDGE('',*,*,#591,.F.);
#450=ORIENTED_EDGE('',*,*,#575,.F.);
#451=ORIENTED_EDGE('',*,*,#565,.F.);
#452=ORIENTED_EDGE('',*,*,#608,.F.);
#453=ORIENTED_EDGE('',*,*,#604,.F.);
#454=ORIENTED_EDGE('',*,*,#603,.F.);
#455=CARTESIAN_POINT('',(-0.010067621,-0.009932379,9.5631E-05));
#456=DIRECTION('',(0.0,0.0,-1.0));
#457=DIRECTION('',(-1.0,0.0,0.0));
#458=ORIENTED_EDGE('',*,*,#552,.T.);
#459=ORIENTED_EDGE('',*,*,#621,.T.);
#460=ORIENTED_EDGE('',*,*,#613,.T.);
#461=ORIENTED_EDGE('',*,*,#625,.T.);
#462=CARTESIAN_POINT('',(0.007932379,-0.008067621,0.0));
#463=DIRECTION('',(-0.707106781186548,-0.707106781186548,-0.0));
#464=DIRECTION('',(-0.707106781186548,0.707106781186548,0.0));
#465=ORIENTED_EDGE('',*,*,#626,.T.);
#466=ORIENTED_EDGE('',*,*,#627,.T.);
#467=ORIENTED_EDGE('',*,*,#597,.T.);
#468=ORIENTED_EDGE('',*,*,#623,.T.);
#469=CARTESIAN_POINT('',(0.008067621,-0.007932379,0.0));
#470=DIRECTION('',(0.707106781186548,0.707106781186548,0.0));
#471=DIRECTION('',(0.707106781186548,-0.707106781186548,0.0));
#472=ORIENTED_EDGE('',*,*,#620,.F.);
#473=ORIENTED_EDGE('',*,*,#560,.F.);
#474=ORIENTED_EDGE('',*,*,#628,.F.);
#475=ORIENTED_EDGE('',*,*,#548,.F.);
#476=CARTESIAN_POINT('',(-0.01,-0.010103553,0.0001035535));
#477=DIRECTION('',(-1.0,0.0,0.0));
#478=DIRECTION('',(0.0,1.0,0.0));
#479=ORIENTED_EDGE('',*,*,#540,.F.);
#480=ORIENTED_EDGE('',*,*,#629,.F.);
#481=ORIENTED_EDGE('',*,*,#556,.F.);
#482=ORIENTED_EDGE('',*,*,#619,.F.);
#483=CARTESIAN_POINT('',(-0.01,-0.010103553,0.0001035535));
#484=DIRECTION('',(-1.0,0.0,0.0));
#485=DIRECTION('',(0.0,1.0,0.0));
#486=ORIENTED_EDGE('',*,*,#536,.F.);
#487=ORIENTED_EDGE('',*,*,#624,.F.);
#488=ORIENTED_EDGE('',*,*,#544,.F.);
#489=ORIENTED_EDGE('',*,*,#630,.F.);
#490=CARTESIAN_POINT('',(0.01,0.010103553,0.0001035535));
#491=DIRECTION('',(1.0,0.0,0.0));
#492=DIRECTION('',(0.0,-1.0,0.0));
#493=ORIENTED_EDGE('',*,*,#554,.T.);
#494=ORIENTED_EDGE('',*,*,#631,.F.);
#495=ORIENTED_EDGE('',*,*,#626,.F.);
#496=ORIENTED_EDGE('',*,*,#622,.F.);
#497=CARTESIAN_POINT('',(0.01,0.010103553,0.0001035535));
#498=DIRECTION('',(1.0,0.0,0.0));
#499=DIRECTION('',(0.0,-1.0,0.0));
#500=ORIENTED_EDGE('',*,*,#606,.F.);
#501=ORIENTED_EDGE('',*,*,#607,.F.);
#502=ORIENTED_EDGE('',*,*,#601,.F.);
#503=ORIENTED_EDGE('',*,*,#574,.F.);
#504=ORIENTED_EDGE('',*,*,#595,.F.);
#505=ORIENTED_EDGE('',*,*,#569,.F.);
#506=ORIENTED_EDGE('',*,*,#577,.F.);
#507=ORIENTED_EDGE('',*,*,#590,.F.);
#508=ORIENTED_EDGE('',*,*,#567,.F.);
#509=ORIENTED_EDGE('',*,*,#594,.F.);
#510=ORIENTED_EDGE('',*,*,#609,.F.);
#511=ORIENTED_EDGE('',*,*,#589,.F.);
#512=ORIENTED_EDGE('',*,*,#537,.T.);
#513=ORIENTED_EDGE('',*,*,#630,.T.);
#514=ORIENTED_EDGE('',*,*,#547,.F.);
#515=ORIENTED_EDGE('',*,*,#598,.F.);
#516=ORIENTED_EDGE('',*,*,#627,.F.);
#517=ORIENTED_EDGE('',*,*,#631,.T.);
#518=ORIENTED_EDGE('',*,*,#553,.T.);
#519=ORIENTED_EDGE('',*,*,#625,.F.);
#520=ORIENTED_EDGE('',*,*,#616,.F.);
#521=ORIENTED_EDGE('',*,*,#617,.F.);
#522=ORIENTED_EDGE('',*,*,#549,.T.);
#523=ORIENTED_EDGE('',*,*,#628,.T.);
#524=ORIENTED_EDGE('',*,*,#563,.F.);
#525=ORIENTED_EDGE('',*,*,#612,.F.);
#526=ORIENTED_EDGE('',*,*,#557,.F.);
#527=ORIENTED_EDGE('',*,*,#629,.T.);
#528=ORIENTED_EDGE('',*,*,#543,.T.);
#529=ORIENTED_EDGE('',*,*,#585,.F.);
#530=ORIENTED_EDGE('',*,*,#579,.F.);
#531=ORIENTED_EDGE('',*,*,#582,.F.);
#532=CARTESIAN_POINT('',(-0.010067621,-0.009932379,-9.5631E-05));
#533=DIRECTION('',(0.0,0.0,-1.0));
#534=DIRECTION('',(-1.0,0.0,0.0));
#535=COLOUR_RGB('',0.560784339904785,0.686274528503418,0.560784339904785);
#536=EDGE_CURVE('1:1302',#632,#633,#634,.T.);
#537=EDGE_CURVE('1:1293',#635,#633,#636,.T.);
#538=EDGE_CURVE('1:1296',#637,#635,#638,.T.);
#539=EDGE_CURVE('1:1290',#632,#637,#639,.T.);
#540=EDGE_CURVE('1:1299',#640,#641,#642,.T.);
#541=EDGE_CURVE('1:1284',#643,#641,#644,.T.);
#542=EDGE_CURVE('1:1287',#645,#643,#646,.T.);
#543=EDGE_CURVE('1:1281',#640,#645,#647,.T.);
#544=EDGE_CURVE('1:927',#648,#649,#650,.T.);
#545=EDGE_CURVE('1:966',#649,#651,#652,.T.);
#546=EDGE_CURVE('0:3366',#651,#653,#654,.T.);
#547=EDGE_CURVE('1:973',#653,#648,#655,.T.);
#548=EDGE_CURVE('1:561',#656,#657,#658,.T.);
#549=EDGE_CURVE('1:555',#659,#657,#660,.T.);
#550=EDGE_CURVE('1:558',#661,#659,#662,.T.);
#551=EDGE_CURVE('1:552',#656,#661,#663,.T.);
#552=EDGE_CURVE('1:540',#664,#665,#666,.T.);
#553=EDGE_CURVE('1:543',#667,#664,#668,.T.);
#554=EDGE_CURVE('1:939',#669,#667,#670,.T.);
#555=EDGE_CURVE('1:546',#665,#669,#671,.T.);
#556=EDGE_CURVE('1:147',#672,#673,#674,.T.);
#557=EDGE_CURVE('1:214',#673,#675,#676,.T.);
#558=EDGE_CURVE('0:3312',#675,#677,#678,.T.);
#559=EDGE_CURVE('1:221',#677,#672,#679,.T.);
#560=EDGE_CURVE('1:129',#680,#681,#682,.T.);
#561=EDGE_CURVE('1:154',#681,#683,#684,.T.);
#562=EDGE_CURVE('0:3318',#683,#685,#686,.T.);
#563=EDGE_CURVE('1:171',#685,#680,#687,.T.);
#564=EDGE_CURVE('0:3444',#688,#689,#690,.T.);
#565=EDGE_CURVE('0:2550',#688,#691,#692,.T.);
#566=EDGE_CURVE('0:3435',#693,#691,#694,.T.);
#567=EDGE_CURVE('0:2475',#693,#689,#695,.T.);
#568=EDGE_CURVE('0:3432',#696,#697,#698,.T.);
#569=EDGE_CURVE('0:2454',#696,#699,#700,.T.);
#570=EDGE_CURVE('0:3447',#701,#699,#702,.T.);
#571=EDGE_CURVE('0:2571',#701,#697,#703,.T.);
#572=EDGE_CURVE('0:1707',#697,#704,#705,.T.);
#573=EDGE_CURVE('0:3360',#704,#706,#707,.T.);
#574=EDGE_CURVE('0:1590',#706,#696,#708,.T.);
#575=EDGE_CURVE('0:2355',#691,#709,#710,.T.);
#576=EDGE_CURVE('0:3399',#711,#709,#712,.T.);
#577=EDGE_CURVE('0:2238',#711,#693,#713,.T.);
#578=EDGE_CURVE('0:3408',#714,#715,#716,.T.);
#579=EDGE_CURVE('0:2259',#714,#717,#718,.T.);
#580=EDGE_CURVE('0:3411',#719,#717,#720,.T.);
#581=EDGE_CURVE('0:2334',#719,#715,#721,.T.);
#582=EDGE_CURVE('1:1339',#635,#714,#722,.T.);
#583=EDGE_CURVE('1:1326',#715,#637,#723,.T.);
#584=EDGE_CURVE('1:1319',#643,#719,#724,.T.);
#585=EDGE_CURVE('1:1306',#717,#645,#725,.T.);
#586=EDGE_CURVE('0:3393',#726,#727,#728,.T.);
#587=EDGE_CURVE('0:2139',#726,#729,#730,.T.);
#588=EDGE_CURVE('0:3390',#731,#729,#732,.T.);
#589=EDGE_CURVE('0:2022',#731,#727,#733,.T.);
#590=EDGE_CURVE('0:2043',#689,#711,#734,.T.);
#591=EDGE_CURVE('0:2118',#709,#688,#735,.T.);
#592=EDGE_CURVE('0:1275',#729,#736,#737,.T.);
#593=EDGE_CURVE('0:3330',#736,#738,#739,.T.);
#594=EDGE_CURVE('0:1158',#738,#731,#740,.T.);
#595=EDGE_CURVE('0:1827',#699,#706,#741,.T.);
#596=EDGE_CURVE('0:1902',#704,#701,#742,.T.);
#597=EDGE_CURVE('0:3357',#743,#744,#745,.T.);
#598=EDGE_CURVE('0:1806',#743,#653,#746,.T.);
#599=EDGE_CURVE('0:1923',#651,#744,#747,.T.);
#600=EDGE_CURVE('0:3342',#748,#749,#750,.T.);
#601=EDGE_CURVE('0:1611',#748,#751,#752,.T.);
#602=EDGE_CURVE('0:3351',#753,#751,#754,.T.);
#603=EDGE_CURVE('0:1686',#753,#749,#755,.T.);
#604=EDGE_CURVE('0:1491',#749,#756,#757,.T.);
#605=EDGE_CURVE('0:3327',#758,#756,#759,.T.);
#606=EDGE_CURVE('0:1374',#758,#748,#760,.T.);
#607=EDGE_CURVE('0:963',#751,#758,#761,.T.);
#608=EDGE_CURVE('0:1038',#756,#753,#762,.T.);
#609=EDGE_CURVE('0:1395',#727,#738,#763,.T.);
#610=EDGE_CURVE('0:1470',#736,#726,#764,.T.);
#611=EDGE_CURVE('0:1254',#683,#677,#765,.T.);
#612=EDGE_CURVE('0:1179',#675,#685,#766,.T.);
#613=EDGE_CURVE('0:3279',#767,#768,#769,.T.);
#614=EDGE_CURVE('0:1059',#767,#770,#771,.T.);
#615=EDGE_CURVE('0:3285',#772,#770,#773,.T.);
#616=EDGE_CURVE('0:942',#772,#768,#774,.T.);
#617=EDGE_CURVE('1:618',#659,#772,#775,.T.);
#618=EDGE_CURVE('1:605',#770,#661,#776,.T.);
#619=EDGE_CURVE('1:144',#641,#672,#777,.T.);
#620=EDGE_CURVE('1:126',#681,#656,#778,.T.);
#621=EDGE_CURVE('1:578',#665,#767,#779,.T.);
#622=EDGE_CURVE('1:930',#669,#780,#781,.T.);
#623=EDGE_CURVE('1:983',#744,#780,#782,.T.);
#624=EDGE_CURVE('1:921',#649,#632,#783,.T.);
#625=EDGE_CURVE('1:565',#768,#664,#784,.T.);
#626=EDGE_CURVE('1:936',#780,#785,#786,.T.);
#627=EDGE_CURVE('1:996',#785,#743,#787,.T.);
#628=EDGE_CURVE('1:135',#657,#680,#788,.T.);
#629=EDGE_CURVE('1:141',#673,#640,#789,.T.);
#630=EDGE_CURVE('1:924',#633,#648,#790,.T.);
#631=EDGE_CURVE('1:933',#785,#667,#791,.T.);
#632=VERTEX_POINT('',#792);
#633=VERTEX_POINT('',#793);
#634=LINE('',#794,#795);
#635=VERTEX_POINT('',#796);
#636=LINE('',#797,#798);
#637=VERTEX_POINT('',#799);
#638=LINE('',#800,#801);
#639=LINE('',#802,#803);
#640=VERTEX_POINT('',#804);
#641=VERTEX_POINT('',#805);
#642=LINE('',#806,#807);
#643=VERTEX_POINT('',#808);
#644=LINE('',#809,#810);
#645=VERTEX_POINT('',#811);
#646=LINE('',#812,#813);
#647=LINE('',#814,#815);
#648=VERTEX_POINT('',#816);
#649=VERTEX_POINT('',#817);
#650=LINE('',#818,#819);
#651=VERTEX_POINT('',#820);
#652=LINE('',#821,#822);
#653=VERTEX_POINT('',#823);
#654=LINE('',#824,#825);
#655=LINE('',#826,#827);
#656=VERTEX_POINT('',#828);
#657=VERTEX_POINT('',#829);
#658=LINE('',#830,#831);
#659=VERTEX_POINT('',#832);
#660=LINE('',#833,#834);
#661=VERTEX_POINT('',#835);
#662=LINE('',#836,#837);
#663=LINE('',#838,#839);
#664=VERTEX_POINT('',#840);
#665=VERTEX_POINT('',#841);
#666=LINE('',#842,#843);
#667=VERTEX_POINT('',#844);
#668=LINE('',#845,#846);
#669=VERTEX_POINT('',#847);
#670=LINE('',#848,#849);
#671=LINE('',#850,#851);
#672=VERTEX_POINT('',#852);
#673=VERTEX_POINT('',#853);
#674=LINE('',#854,#855);
#675=VERTEX_POINT('',#856);
#676=LINE('',#857,#858);
#677=VERTEX_POINT('',#859);
#678=LINE('',#860,#861);
#679=LINE('',#862,#863);
#680=VERTEX_POINT('',#864);
#681=VERTEX_POINT('',#865);
#682=LINE('',#866,#867);
#683=VERTEX_POINT('',#868);
#684=LINE('',#869,#870);
#685=VERTEX_POINT('',#871);
#686=LINE('',#872,#873);
#687=LINE('',#874,#875);
#688=VERTEX_POINT('',#876);
#689=VERTEX_POINT('',#877);
#690=LINE('',#878,#879);
#691=VERTEX_POINT('',#880);
#692=LINE('',#881,#882);
#693=VERTEX_POINT('',#883);
#694=LINE('',#884,#885);
#695=LINE('',#886,#887);
#696=VERTEX_POINT('',#888);
#697=VERTEX_POINT('',#889);
#698=LINE('',#890,#891);
#699=VERTEX_POINT('',#892);
#700=LINE('',#893,#894);
#701=VERTEX_POINT('',#895);
#702=LINE('',#896,#897);
#703=LINE('',#898,#899);
#704=VERTEX_POINT('',#900);
#705=LINE('',#901,#902);
#706=VERTEX_POINT('',#903);
#707=LINE('',#904,#905);
#708=LINE('',#906,#907);
#709=VERTEX_POINT('',#908);
#710=LINE('',#909,#910);
#711=VERTEX_POINT('',#911);
#712=LINE('',#912,#913);
#713=LINE('',#914,#915);
#714=VERTEX_POINT('',#916);
#715=VERTEX_POINT('',#917);
#716=LINE('',#918,#919);
#717=VERTEX_POINT('',#920);
#718=LINE('',#921,#922);
#719=VERTEX_POINT('',#923);
#720=LINE('',#924,#925);
#721=LINE('',#926,#927);
#722=LINE('',#928,#929);
#723=LINE('',#930,#931);
#724=LINE('',#932,#933);
#725=LINE('',#934,#935);
#726=VERTEX_POINT('',#936);
#727=VERTEX_POINT('',#937);
#728=LINE('',#938,#939);
#729=VERTEX_POINT('',#940);
#730=LINE('',#941,#942);
#731=VERTEX_POINT('',#943);
#732=LINE('',#944,#945);
#733=LINE('',#946,#947);
#734=LINE('',#948,#949);
#735=LINE('',#950,#951);
#736=VERTEX_POINT('',#952);
#737=LINE('',#953,#954);
#738=VERTEX_POINT('',#955);
#739=LINE('',#956,#957);
#740=LINE('',#958,#959);
#741=LINE('',#960,#961);
#742=LINE('',#962,#963);
#743=VERTEX_POINT('',#964);
#744=VERTEX_POINT('',#965);
#745=LINE('',#966,#967);
#746=LINE('',#968,#969);
#747=LINE('',#970,#971);
#748=VERTEX_POINT('',#972);
#749=VERTEX_POINT('',#973);
#750=LINE('',#974,#975);
#751=VERTEX_POINT('',#976);
#752=LINE('',#977,#978);
#753=VERTEX_POINT('',#979);
#754=LINE('',#980,#981);
#755=LINE('',#982,#983);
#756=VERTEX_POINT('',#984);
#757=LINE('',#985,#986);
#758=VERTEX_POINT('',#987);
#759=LINE('',#988,#989);
#760=LINE('',#990,#991);
#761=LINE('',#992,#993);
#762=LINE('',#994,#995);
#763=LINE('',#996,#997);
#764=LINE('',#998,#999);
#765=LINE('',#1000,#1001);
#766=LINE('',#1002,#1003);
#767=VERTEX_POINT('',#1004);
#768=VERTEX_POINT('',#1005);
#769=LINE('',#1006,#1007);
#770=VERTEX_POINT('',#1008);
#771=LINE('',#1009,#1010);
#772=VERTEX_POINT('',#1011);
#773=LINE('',#1012,#1013);
#774=LINE('',#1014,#1015);
#775=LINE('',#1016,#1017);
#776=LINE('',#1018,#1019);
#777=LINE('',#1020,#1021);
#778=LINE('',#1022,#1023);
#779=LINE('',#1024,#1025);
#780=VERTEX_POINT('',#1026);
#781=LINE('',#1027,#1028);
#782=LINE('',#1029,#1030);
#783=LINE('',#1031,#1032);
#784=LINE('',#1033,#1034);
#785=VERTEX_POINT('',#1035);
#786=LINE('',#1036,#1037);
#787=LINE('',#1038,#1039);
#788=LINE('',#1040,#1041);
#789=LINE('',#1042,#1043);
#790=LINE('',#1044,#1045);
#791=LINE('',#1046,#1047);
#792=CARTESIAN_POINT('',(0.01,0.01,9.5631E-05));
#793=CARTESIAN_POINT('',(0.01,0.01,-9.5631E-05));
#794=CARTESIAN_POINT('',(0.01,0.01,5.177675E-05));
#795=VECTOR('',#1048,1.0);
#796=CARTESIAN_POINT('',(0.009864758,0.01,-9.5631E-05));
#797=CARTESIAN_POINT('',(-8.55869999999998E-05,0.01,-9.5631E-05));
#798=VECTOR('',#1049,1.0);
#799=CARTESIAN_POINT('',(0.009864758,0.01,9.5631E-05));
#800=CARTESIAN_POINT('',(0.009864758,0.01,5.177675E-05));
#801=VECTOR('',#1050,1.0);
#802=CARTESIAN_POINT('',(-8.55869999999998E-05,0.01,9.5631E-05));
#803=VECTOR('',#1051,1.0);
#804=CARTESIAN_POINT('',(-0.01,0.01,-9.5631E-05));
#805=CARTESIAN_POINT('',(-0.01,0.01,9.5631E-05));
#806=CARTESIAN_POINT('',(-0.01,0.01,5.177675E-05));
#807=VECTOR('',#1052,1.0);
#808=CARTESIAN_POINT('',(-0.009864758,0.01,9.5631E-05));
#809=CARTESIAN_POINT('',(-8.55869999999998E-05,0.01,9.5631E-05));
#810=VECTOR('',#1053,1.0);
#811=CARTESIAN_POINT('',(-0.009864758,0.01,-9.5631E-05));
#812=CARTESIAN_POINT('',(-0.009864758,0.01,5.177675E-05));
#813=VECTOR('',#1054,1.0);
#814=CARTESIAN_POINT('',(-8.55869999999998E-05,0.01,-9.5631E-05));
#815=VECTOR('',#1055,1.0);
#816=CARTESIAN_POINT('',(0.01,0.009864758,-9.5631E-05));
#817=CARTESIAN_POINT('',(0.01,0.009864758,9.5631E-05));
#818=CARTESIAN_POINT('',(0.01,0.009864758,5.177675E-05));
#819=VECTOR('',#1056,1.0);
#820=CARTESIAN_POINT('',(0.006095631,0.005960389,9.5631E-05));
#821=CARTESIAN_POINT('',(0.010067621,0.009932379,9.5631E-05));
#822=VECTOR('',#1057,1.0);
#823=CARTESIAN_POINT('',(0.006095631,0.005960389,-9.5631E-05));
#824=CARTESIAN_POINT('',(0.006095631,0.005960389,0.0));
#825=VECTOR('',#1058,1.0);
#826=CARTESIAN_POINT('',(0.010067621,0.009932379,-9.5631E-05));
#827=VECTOR('',#1059,1.0);
#828=CARTESIAN_POINT('',(-0.01,-0.01,9.5631E-05));
#829=CARTESIAN_POINT('',(-0.01,-0.01,-9.5631E-05));
#830=CARTESIAN_POINT('',(-0.01,-0.01,5.177675E-05));
#831=VECTOR('',#1060,1.0);
#832=CARTESIAN_POINT('',(-0.009864758,-0.01,-9.5631E-05));
#833=CARTESIAN_POINT('',(-0.009982034,-0.01,-9.5631E-05));
#834=VECTOR('',#1061,1.0);
#835=CARTESIAN_POINT('',(-0.009864758,-0.01,9.5631E-05));
#836=CARTESIAN_POINT('',(-0.009864758,-0.01,5.177675E-05));
#837=VECTOR('',#1062,1.0);
#838=CARTESIAN_POINT('',(-0.009982034,-0.01,9.5631E-05));
#839=VECTOR('',#1063,1.0);
#840=CARTESIAN_POINT('',(0.009864758,-0.01,-9.5631E-05));
#841=CARTESIAN_POINT('',(0.009864758,-0.01,9.5631E-05));
#842=CARTESIAN_POINT('',(0.009864758,-0.01,5.177675E-05));
#843=VECTOR('',#1064,1.0);
#844=CARTESIAN_POINT('',(0.01,-0.01,-9.5631E-05));
#845=CARTESIAN_POINT('',(-0.009982034,-0.01,-9.5631E-05));
#846=VECTOR('',#1065,1.0);
#847=CARTESIAN_POINT('',(0.01,-0.01,9.5631E-05));
#848=CARTESIAN_POINT('',(0.01,-0.01,5.177675E-05));
#849=VECTOR('',#1066,1.0);
#850=CARTESIAN_POINT('',(-0.009982034,-0.01,9.5631E-05));
#851=VECTOR('',#1067,1.0);
#852=CARTESIAN_POINT('',(-0.01,0.009864758,9.5631E-05));
#853=CARTESIAN_POINT('',(-0.01,0.009864758,-9.5631E-05));
#854=CARTESIAN_POINT('',(-0.01,0.009864758,5.177675E-05));
#855=VECTOR('',#1068,1.0);
#856=CARTESIAN_POINT('',(-0.006095631,0.005960389,-9.5631E-05));
#857=CARTESIAN_POINT('',(-0.006067621,0.005932379,-9.5631E-05));
#858=VECTOR('',#1069,1.0);
#859=CARTESIAN_POINT('',(-0.006095631,0.005960389,9.5631E-05));
#860=CARTESIAN_POINT('',(-0.006095631,0.005960389,0.0));
#861=VECTOR('',#1070,1.0);
#862=CARTESIAN_POINT('',(-0.006067621,0.005932379,9.5631E-05));
#863=VECTOR('',#1071,1.0);
#864=CARTESIAN_POINT('',(-0.01,-0.009864758,-9.5631E-05));
#865=CARTESIAN_POINT('',(-0.01,-0.009864758,9.5631E-05));
#866=CARTESIAN_POINT('',(-0.01,-0.009864758,5.177675E-05));
#867=VECTOR('',#1072,1.0);
#868=CARTESIAN_POINT('',(-0.006095631,-0.005960389,9.5631E-05));
#869=CARTESIAN_POINT('',(-0.010067621,-0.009932379,9.5631E-05));
#870=VECTOR('',#1073,1.0);
#871=CARTESIAN_POINT('',(-0.006095631,-0.005960389,-9.5631E-05));
#872=CARTESIAN_POINT('',(-0.006095631,-0.005960389,0.0));
#873=VECTOR('',#1074,1.0);
#874=CARTESIAN_POINT('',(-0.010067621,-0.009932379,-9.5631E-05));
#875=VECTOR('',#1075,1.0);
#876=CARTESIAN_POINT('',(2.84603070277445E-19,0.000135242,9.5631E-05));
#877=CARTESIAN_POINT('',(0.0,0.000135242000000001,-9.5631E-05));
#878=CARTESIAN_POINT('',(1.30104260698261E-18,0.000135242000000001,0.0));
#879=VECTOR('',#1076,1.0);
#880=CARTESIAN_POINT('',(0.005769127,0.005904369,9.5631E-05));
#881=CARTESIAN_POINT('',(-6.7621E-05,6.7621E-05,9.5631E-05));
#882=VECTOR('',#1077,1.0);
#883=CARTESIAN_POINT('',(0.005769127,0.005904369,-9.5631E-05));
#884=CARTESIAN_POINT('',(0.005769127,0.005904369,0.0));
#885=VECTOR('',#1078,1.0);
#886=CARTESIAN_POINT('',(-6.7621E-05,6.7621E-05,-9.5631E-05));
#887=VECTOR('',#1079,1.0);
#888=CARTESIAN_POINT('',(0.000135242000000001,0.0,-9.5631E-05));
#889=CARTESIAN_POINT('',(0.000135242,-2.84603070277445E-19,9.5631E-05));
#890=CARTESIAN_POINT('',(0.000135242000000001,0.0,0.0));
#891=VECTOR('',#1080,1.0);
#892=CARTESIAN_POINT('',(0.005904369,0.005769127,-9.5631E-05));
#893=CARTESIAN_POINT('',(0.006067621,0.005932379,-9.5631E-05));
#894=VECTOR('',#1081,1.0);
#895=CARTESIAN_POINT('',(0.005904369,0.005769127,9.5631E-05));
#896=CARTESIAN_POINT('',(0.005904369,0.005769127,0.0));
#897=VECTOR('',#1082,1.0);
#898=CARTESIAN_POINT('',(0.006067621,0.005932379,9.5631E-05));
#899=VECTOR('',#1083,1.0);
#900=CARTESIAN_POINT('',(0.005904369,-0.005769127,9.5631E-05));
#901=CARTESIAN_POINT('',(6.7621E-05,6.7621E-05,9.5631E-05));
#902=VECTOR('',#1084,1.0);
#903=CARTESIAN_POINT('',(0.005904369,-0.005769127,-9.5631E-05));
#904=CARTESIAN_POINT('',(0.005904369,-0.005769127,0.0));
#905=VECTOR('',#1085,1.0);
#906=CARTESIAN_POINT('',(6.7621E-05,6.7621E-05,-9.5631E-05));
#907=VECTOR('',#1086,1.0);
#908=CARTESIAN_POINT('',(-0.005769127,0.005904369,9.5631E-05));
#909=CARTESIAN_POINT('',(0.006,0.005904369,9.5631E-05));
#910=VECTOR('',#1087,1.0);
#911=CARTESIAN_POINT('',(-0.005769127,0.005904369,-9.5631E-05));
#912=CARTESIAN_POINT('',(-0.005769127,0.005904369,0.0));
#913=VECTOR('',#1088,1.0);
#914=CARTESIAN_POINT('',(0.006,0.005904369,-9.5631E-05));
#915=VECTOR('',#1089,1.0);
#916=CARTESIAN_POINT('',(0.005960389,0.006095631,-9.5631E-05));
#917=CARTESIAN_POINT('',(0.005960389,0.006095631,9.5631E-05));
#918=CARTESIAN_POINT('',(0.005960389,0.006095631,0.0));
#919=VECTOR('',#1090,1.0);
#920=CARTESIAN_POINT('',(-0.005960389,0.006095631,-9.5631E-05));
#921=CARTESIAN_POINT('',(-0.006,0.006095631,-9.5631E-05));
#922=VECTOR('',#1091,1.0);
#923=CARTESIAN_POINT('',(-0.005960389,0.006095631,9.5631E-05));
#924=CARTESIAN_POINT('',(-0.005960389,0.006095631,0.0));
#925=VECTOR('',#1092,1.0);
#926=CARTESIAN_POINT('',(-0.006,0.006095631,9.5631E-05));
#927=VECTOR('',#1093,1.0);
#928=CARTESIAN_POINT('',(0.005932379,0.006067621,-9.5631E-05));
#929=VECTOR('',#1094,1.0);
#930=CARTESIAN_POINT('',(0.005932379,0.006067621,9.5631E-05));
#931=VECTOR('',#1095,1.0);
#932=CARTESIAN_POINT('',(-0.009932379,0.010067621,9.5631E-05));
#933=VECTOR('',#1096,1.0);
#934=CARTESIAN_POINT('',(-0.009932379,0.010067621,-9.5631E-05));
#935=VECTOR('',#1097,1.0);
#936=CARTESIAN_POINT('',(-0.000135242000000001,0.0,9.5631E-05));
#937=CARTESIAN_POINT('',(-0.000135242000000001,0.0,-9.5631E-05));
#938=CARTESIAN_POINT('',(-0.000135242000000001,1.30104260698261E-18,0.0));
#939=VECTOR('',#1098,1.0);
#940=CARTESIAN_POINT('',(-0.005904369,0.005769127,9.5631E-05));
#941=CARTESIAN_POINT('',(-6.7621E-05,-6.7621E-05,9.5631E-05));
#942=VECTOR('',#1099,1.0);
#943=CARTESIAN_POINT('',(-0.005904369,0.005769127,-9.5631E-05));
#944=CARTESIAN_POINT('',(-0.005904369,0.005769127,0.0));
#945=VECTOR('',#1100,1.0);
#946=CARTESIAN_POINT('',(-6.7621E-05,-6.7621E-05,-9.5631E-05));
#947=VECTOR('',#1101,1.0);
#948=CARTESIAN_POINT('',(-0.005932379,0.006067621,-9.5631E-05));
#949=VECTOR('',#1102,1.0);
#950=CARTESIAN_POINT('',(-0.005932379,0.006067621,9.5631E-05));
#951=VECTOR('',#1103,1.0);
#952=CARTESIAN_POINT('',(-0.005904369,-0.005769127,9.5631E-05));
#953=CARTESIAN_POINT('',(-0.005904369,0.006,9.5631E-05));
#954=VECTOR('',#1104,1.0);
#955=CARTESIAN_POINT('',(-0.005904369,-0.005769127,-9.5631E-05));
#956=CARTESIAN_POINT('',(-0.005904369,-0.005769127,0.0));
#957=VECTOR('',#1105,1.0);
#958=CARTESIAN_POINT('',(-0.005904369,0.006,-9.5631E-05));
#959=VECTOR('',#1106,1.0);
#960=CARTESIAN_POINT('',(0.005904369,-0.006,-9.5631E-05));
#961=VECTOR('',#1107,1.0);
#962=CARTESIAN_POINT('',(0.005904369,-0.006,9.5631E-05));
#963=VECTOR('',#1108,1.0);
#964=CARTESIAN_POINT('',(0.006095631,-0.005960389,-9.5631E-05));
#965=CARTESIAN_POINT('',(0.006095631,-0.005960389,9.5631E-05));
#966=CARTESIAN_POINT('',(0.006095631,-0.005960389,0.0));
#967=VECTOR('',#1109,1.0);
#968=CARTESIAN_POINT('',(0.006095631,0.006,-9.5631E-05));
#969=VECTOR('',#1110,1.0);
#970=CARTESIAN_POINT('',(0.006095631,0.006,9.5631E-05));
#971=VECTOR('',#1111,1.0);
#972=CARTESIAN_POINT('',(-2.84603070277445E-19,-0.000135242,-9.5631E-05));
#973=CARTESIAN_POINT('',(-2.84603070277445E-19,-0.000135242,9.5631E-05));
#974=CARTESIAN_POINT('',(0.0,-0.000135242000000001,0.0));
#975=VECTOR('',#1112,1.0);
#976=CARTESIAN_POINT('',(0.005769127,-0.005904369,-9.5631E-05));
#977=CARTESIAN_POINT('',(0.005932379,-0.006067621,-9.5631E-05));
#978=VECTOR('',#1113,1.0);
#979=CARTESIAN_POINT('',(0.005769127,-0.005904369,9.5631E-05));
#980=CARTESIAN_POINT('',(0.005769127,-0.005904369,0.0));
#981=VECTOR('',#1114,1.0);
#982=CARTESIAN_POINT('',(0.005932379,-0.006067621,9.5631E-05));
#983=VECTOR('',#1115,1.0);
#984=CARTESIAN_POINT('',(-0.005769127,-0.005904369,9.5631E-05));
#985=CARTESIAN_POINT('',(6.7621E-05,-6.7621E-05,9.5631E-05));
#986=VECTOR('',#1116,1.0);
#987=CARTESIAN_POINT('',(-0.005769127,-0.005904369,-9.5631E-05));
#988=CARTESIAN_POINT('',(-0.005769127,-0.005904369,0.0));
#989=VECTOR('',#1117,1.0);
#990=CARTESIAN_POINT('',(6.7621E-05,-6.7621E-05,-9.5631E-05));
#991=VECTOR('',#1118,1.0);
#992=CARTESIAN_POINT('',(-0.006,-0.005904369,-9.5631E-05));
#993=VECTOR('',#1119,1.0);
#994=CARTESIAN_POINT('',(-0.006,-0.005904369,9.5631E-05));
#995=VECTOR('',#1120,1.0);
#996=CARTESIAN_POINT('',(-0.006067621,-0.005932379,-9.5631E-05));
#997=VECTOR('',#1121,1.0);
#998=CARTESIAN_POINT('',(-0.006067621,-0.005932379,9.5631E-05));
#999=VECTOR('',#1122,1.0);
#1000=CARTESIAN_POINT('',(-0.006095631,-0.006,9.5631E-05));
#1001=VECTOR('',#1123,1.0);
#1002=CARTESIAN_POINT('',(-0.006095631,-0.006,-9.5631E-05));
#1003=VECTOR('',#1124,1.0);
#1004=CARTESIAN_POINT('',(0.005960389,-0.006095631,9.5631E-05));
#1005=CARTESIAN_POINT('',(0.005960389,-0.006095631,-9.5631E-05));
#1006=CARTESIAN_POINT('',(0.005960389,-0.006095631,0.0));
#1007=VECTOR('',#1125,1.0);
#1008=CARTESIAN_POINT('',(-0.005960389,-0.006095631,9.5631E-05));
#1009=CARTESIAN_POINT('',(0.006,-0.006095631,9.5631E-05));
#1010=VECTOR('',#1126,1.0);
#1011=CARTESIAN_POINT('',(-0.005960389,-0.006095631,-9.5631E-05));
#1012=CARTESIAN_POINT('',(-0.005960389,-0.006095631,0.0));
#1013=VECTOR('',#1127,1.0);
#1014=CARTESIAN_POINT('',(0.006,-0.006095631,-9.5631E-05));
#1015=VECTOR('',#1128,1.0);
#1016=CARTESIAN_POINT('',(-0.005932379,-0.006067621,-9.5631E-05));
#1017=VECTOR('',#1129,1.0);
#1018=CARTESIAN_POINT('',(-0.005932379,-0.006067621,9.5631E-05));
#1019=VECTOR('',#1130,1.0);
#1020=CARTESIAN_POINT('',(-0.01,-0.010017966,9.5631E-05));
#1021=VECTOR('',#1131,1.0);
#1022=CARTESIAN_POINT('',(-0.01,-0.010017966,9.5631E-05));
#1023=VECTOR('',#1132,1.0);
#1024=CARTESIAN_POINT('',(0.009932379,-0.010067621,9.5631E-05));
#1025=VECTOR('',#1133,1.0);
#1026=CARTESIAN_POINT('',(0.01,-0.009864758,9.5631E-05));
#1027=CARTESIAN_POINT('',(0.01,8.55869999999998E-05,9.5631E-05));
#1028=VECTOR('',#1134,1.0);
#1029=CARTESIAN_POINT('',(0.006067621,-0.005932379,9.5631E-05));
#1030=VECTOR('',#1135,1.0);
#1031=CARTESIAN_POINT('',(0.01,8.55869999999998E-05,9.5631E-05));
#1032=VECTOR('',#1136,1.0);
#1033=CARTESIAN_POINT('',(0.009932379,-0.010067621,-9.5631E-05));
#1034=VECTOR('',#1137,1.0);
#1035=CARTESIAN_POINT('',(0.01,-0.009864758,-9.5631E-05));
#1036=CARTESIAN_POINT('',(0.01,-0.009864758,5.177675E-05));
#1037=VECTOR('',#1138,1.0);
#1038=CARTESIAN_POINT('',(0.006067621,-0.005932379,-9.5631E-05));
#1039=VECTOR('',#1139,1.0);
#1040=CARTESIAN_POINT('',(-0.01,-0.010017966,-9.5631E-05));
#1041=VECTOR('',#1140,1.0);
#1042=CARTESIAN_POINT('',(-0.01,-0.010017966,-9.5631E-05));
#1043=VECTOR('',#1141,1.0);
#1044=CARTESIAN_POINT('',(0.01,8.55869999999998E-05,-9.5631E-05));
#1045=VECTOR('',#1142,1.0);
#1046=CARTESIAN_POINT('',(0.01,8.55869999999998E-05,-9.5631E-05));
#1047=VECTOR('',#1143,1.0);
#1048=DIRECTION('',(0.0,0.0,-1.0));
#1049=DIRECTION('',(1.0,0.0,0.0));
#1050=DIRECTION('',(0.0,0.0,-1.0));
#1051=DIRECTION('',(-1.0,0.0,-0.0));
#1052=DIRECTION('',(0.0,0.0,1.0));
#1053=DIRECTION('',(-1.0,0.0,-0.0));
#1054=DIRECTION('',(0.0,-0.0,1.0));
#1055=DIRECTION('',(1.0,0.0,0.0));
#1056=DIRECTION('',(-0.0,0.0,1.0));
#1057=DIRECTION('',(-0.707106781186548,-0.707106781186548,0.0));
#1058=DIRECTION('',(0.0,0.0,-1.0));
#1059=DIRECTION('',(0.707106781186548,0.707106781186548,0.0));
#1060=DIRECTION('',(0.0,0.0,-1.0));
#1061=DIRECTION('',(-1.0,0.0,0.0));
#1062=DIRECTION('',(0.0,0.0,-1.0));
#1063=DIRECTION('',(1.0,-0.0,0.0));
#1064=DIRECTION('',(0.0,0.0,1.0));
#1065=DIRECTION('',(-1.0,0.0,0.0));
#1066=DIRECTION('',(0.0,0.0,-1.0));
#1067=DIRECTION('',(1.0,-0.0,0.0));
#1068=DIRECTION('',(0.0,0.0,-1.0));
#1069=DIRECTION('',(0.707106781186548,-0.707106781186548,0.0));
#1070=DIRECTION('',(0.0,-0.0,1.0));
#1071=DIRECTION('',(-0.707106781186548,0.707106781186548,0.0));
#1072=DIRECTION('',(0.0,0.0,1.0));
#1073=DIRECTION('',(0.707106781186548,0.707106781186548,0.0));
#1074=DIRECTION('',(0.0,0.0,-1.0));
#1075=DIRECTION('',(-0.707106781186548,-0.707106781186548,-0.0));
#1076=DIRECTION('',(0.0,0.0,-1.0));
#1077=DIRECTION('',(0.707106781186548,0.707106781186548,0.0));
#1078=DIRECTION('',(0.0,-0.0,1.0));
#1079=DIRECTION('',(-0.707106781186548,-0.707106781186548,-0.0));
#1080=DIRECTION('',(-0.0,0.0,1.0));
#1081=DIRECTION('',(0.707106781186548,0.707106781186548,0.0));
#1082=DIRECTION('',(-0.0,-0.0,-1.0));
#1083=DIRECTION('',(-0.707106781186548,-0.707106781186548,0.0));
#1084=DIRECTION('',(0.707106781186548,-0.707106781186548,0.0));
#1085=DIRECTION('',(0.0,0.0,-1.0));
#1086=DIRECTION('',(-0.707106781186548,0.707106781186548,0.0));
#1087=DIRECTION('',(-1.0,0.0,0.0));
#1088=DIRECTION('',(0.0,0.0,1.0));
#1089=DIRECTION('',(1.0,0.0,0.0));
#1090=DIRECTION('',(0.0,0.0,1.0));
#1091=DIRECTION('',(-1.0,-0.0,-0.0));
#1092=DIRECTION('',(0.0,0.0,-1.0));
#1093=DIRECTION('',(1.0,0.0,0.0));
#1094=DIRECTION('',(-0.707106781186548,-0.707106781186548,-0.0));
#1095=DIRECTION('',(0.707106781186548,0.707106781186548,0.0));
#1096=DIRECTION('',(0.707106781186548,-0.707106781186548,0.0));
#1097=DIRECTION('',(-0.707106781186548,0.707106781186548,0.0));
#1098=DIRECTION('',(0.0,0.0,-1.0));
#1099=DIRECTION('',(-0.707106781186548,0.707106781186548,0.0));
#1100=DIRECTION('',(0.0,0.0,1.0));
#1101=DIRECTION('',(0.707106781186548,-0.707106781186548,0.0));
#1102=DIRECTION('',(-0.707106781186548,0.707106781186548,0.0));
#1103=DIRECTION('',(0.707106781186548,-0.707106781186548,0.0));
#1104=DIRECTION('',(0.0,-1.0,0.0));
#1105=DIRECTION('',(0.0,0.0,-1.0));
#1106=DIRECTION('',(0.0,1.0,0.0));
#1107=DIRECTION('',(-0.0,-1.0,-0.0));
#1108=DIRECTION('',(0.0,1.0,0.0));
#1109=DIRECTION('',(0.0,0.0,1.0));
#1110=DIRECTION('',(0.0,1.0,0.0));
#1111=DIRECTION('',(0.0,-1.0,0.0));
#1112=DIRECTION('',(-0.0,0.0,1.0));
#1113=DIRECTION('',(0.707106781186548,-0.707106781186548,0.0));
#1114=DIRECTION('',(0.0,0.0,-1.0));
#1115=DIRECTION('',(-0.707106781186548,0.707106781186548,0.0));
#1116=DIRECTION('',(-0.707106781186548,-0.707106781186548,0.0));
#1117=DIRECTION('',(-0.0,-0.0,1.0));
#1118=DIRECTION('',(0.707106781186548,0.707106781186548,0.0));
#1119=DIRECTION('',(-1.0,-0.0,-0.0));
#1120=DIRECTION('',(1.0,0.0,0.0));
#1121=DIRECTION('',(-0.707106781186548,-0.707106781186548,-0.0));
#1122=DIRECTION('',(0.707106781186548,0.707106781186548,0.0));
#1123=DIRECTION('',(0.0,1.0,0.0));
#1124=DIRECTION('',(-0.0,-1.0,-0.0));
#1125=DIRECTION('',(0.0,0.0,-1.0));
#1126=DIRECTION('',(-1.0,0.0,0.0));
#1127=DIRECTION('',(-0.0,0.0,1.0));
#1128=DIRECTION('',(1.0,0.0,0.0));
#1129=DIRECTION('',(0.707106781186548,0.707106781186548,0.0));
#1130=DIRECTION('',(-0.707106781186548,-0.707106781186548,0.0));
#1131=DIRECTION('',(-0.0,-1.0,-0.0));
#1132=DIRECTION('',(-0.0,-1.0,-0.0));
#1133=DIRECTION('',(-0.707106781186548,0.707106781186548,0.0));
#1134=DIRECTION('',(-0.0,1.0,0.0));
#1135=DIRECTION('',(0.707106781186548,-0.707106781186548,0.0));
#1136=DIRECTION('',(-0.0,1.0,0.0));
#1137=DIRECTION('',(0.707106781186548,-0.707106781186548,0.0));
#1138=DIRECTION('',(0.0,0.0,-1.0));
#1139=DIRECTION('',(-0.707106781186548,0.707106781186548,0.0));
#1140=DIRECTION('',(0.0,1.0,0.0));
#1141=DIRECTION('',(0.0,1.0,0.0));
#1142=DIRECTION('',(0.0,-1.0,0.0));
#1143=DIRECTION('',(0.0,-1.0,0.0));
#1144=PRESENTATION_LAYER_ASSIGNMENT('9','\X2\56FE5C42\X0\0',(#25));
ENDSEC;
END-ISO-10303-21;
