ISO-10303-21;
HEADER;
FILE_DESCRIPTION(('STEP AP214'),'1');
FILE_NAME('cell3.stp','2026-06-24T13:29:37',(' '),(' '),'Spatial InterOp 3D',' ',' ');
FILE_SCHEMA(('AUTOMOTIVE_DESIGN { 1 0 10303 214 1 1 1 1 }'));
ENDSEC;
DATA;
#1=MECHANICAL_DESIGN_GEOMETRIC_PRESENTATION_REPRESENTATION(' ',(#10),#6);
#2=PRODUCT_DEFINITION_CONTEXT('',#11,'design');
#3=APPLICATION_PROTOCOL_DEFINITION('INTERNATIONAL STANDARD','automotive_design',1994,#11);
#4=PRODUCT_CATEGORY_RELATIONSHIP('NONE','NONE',#12,#13);
#5=SHAPE_DEFINITION_REPRESENTATION(#14,#15);
#6= (GEOMETRIC_REPRESENTATION_CONTEXT(3)GLOBAL_UNCERTAINTY_ASSIGNED_CONTEXT((#18))GLOBAL_UNIT_ASSIGNED_CONTEXT((#20,#21,#22))REPRESENTATION_CONTEXT('NONE','WORKSPACE'));
#10=STYLED_ITEM('',(#24),#25);
#11=APPLICATION_CONTEXT(' ');
#12=PRODUCT_CATEGORY('part','NONE');
#13=PRODUCT_RELATED_PRODUCT_CATEGORY('detail',' ',(#26));
#14=PRODUCT_DEFINITION_SHAPE('NONE','NONE',#27);
#15=ADVANCED_BREP_SHAPE_REPRESENTATION('\X2\5B9E4F53\X0\',(#25,#28),#6);
#18=UNCERTAINTY_MEASURE_WITH_UNIT(LENGTH_MEASURE(1.0E-08),#20,'','');
#20= (CONVERSION_BASED_UNIT('METRE',#31)LENGTH_UNIT()NAMED_UNIT(#34));
#21= (NAMED_UNIT(#36)PLANE_ANGLE_UNIT()SI_UNIT($,.RADIAN.));
#22= (NAMED_UNIT(#36)SOLID_ANGLE_UNIT()SI_UNIT($,.STERADIAN.));
#24=PRESENTATION_STYLE_ASSIGNMENT((#42));
#25=MANIFOLD_SOLID_BREP('\X2\5B9E4F53\X0\',#43);
#26=PRODUCT('\X2\5B9E4F53\X0\','','PART--DESC',(#44));
#27=PRODUCT_DEFINITION('','NONE',#45,#2);
#28=AXIS2_PLACEMENT_3D('',#46,#47,#48);
#31=LENGTH_MEASURE_WITH_UNIT(LENGTH_MEASURE(1.0),#49);
#34=DIMENSIONAL_EXPONENTS(1.0,0.0,0.0,0.0,0.0,0.0,0.0);
#36=DIMENSIONAL_EXPONENTS(0.0,0.0,0.0,0.0,0.0,0.0,0.0);
#42=SURFACE_STYLE_USAGE(.BOTH.,#50);
#43=CLOSED_SHELL('',(#51,#52,#53,#54,#55,#56,#57,#58,#59,#60,#61,#62,#63,#64,#65,#66,#67,#68,#69,#70,#71,#72,#73,#74,#75,#76,#77,#78,#79,#80));
#44=PRODUCT_CONTEXT('',#11,'mechanical');
#45=PRODUCT_DEFINITION_FORMATION_WITH_SPECIFIED_SOURCE(' ','NONE',#26,.NOT_KNOWN.);
#46=CARTESIAN_POINT('',(0.0,0.0,0.0));
#47=DIRECTION('',(0.0,0.0,1.0));
#48=DIRECTION('',(1.0,0.0,0.0));
#49= (NAMED_UNIT(#34)LENGTH_UNIT()SI_UNIT($,.METRE.));
#50=SURFACE_SIDE_STYLE('',(#82));
#51=ADVANCED_FACE('1:718',(#83),#84,.T.);
#52=ADVANCED_FACE('1:500',(#85),#86,.T.);
#53=ADVANCED_FACE('0:3300',(#87),#88,.T.);
#54=ADVANCED_FACE('0:3090',(#89),#90,.T.);
#55=ADVANCED_FACE('0:2868',(#91),#92,.T.);
#56=ADVANCED_FACE('0:3084',(#93),#94,.T.);
#57=ADVANCED_FACE('0:2436',(#95),#96,.T.);
#58=ADVANCED_FACE('0:2874',(#97),#98,.T.);
#59=ADVANCED_FACE('0:2658',(#99),#100,.T.);
#60=ADVANCED_FACE('0:2442',(#101),#102,.T.);
#61=ADVANCED_FACE('0:2220',(#103),#104,.T.);
#62=ADVANCED_FACE('0:2226',(#105),#106,.T.);
#63=ADVANCED_FACE('0:1794',(#107),#108,.T.);
#64=ADVANCED_FACE('0:2004',(#109),#110,.T.);
#65=ADVANCED_FACE('0:2010',(#111),#112,.T.);
#66=ADVANCED_FACE('0:1578',(#113),#114,.T.);
#67=ADVANCED_FACE('0:276',(#115),#116,.T.);
#68=ADVANCED_FACE('0:66',(#117),#118,.T.);
#69=ADVANCED_FACE('1:742',(#119,#120,#121,#122,#123,#124,#125,#126,#127),#128,.F.);
#70=ADVANCED_FACE('0:1572',(#129),#130,.T.);
#71=ADVANCED_FACE('0:1146',(#131),#132,.T.);
#72=ADVANCED_FACE('0:708',(#133),#134,.T.);
#73=ADVANCED_FACE('0:1356',(#135),#136,.T.);
#74=ADVANCED_FACE('0:1140',(#137),#138,.T.);
#75=ADVANCED_FACE('0:930',(#139),#140,.T.);
#76=ADVANCED_FACE('0:492',(#141),#142,.T.);
#77=ADVANCED_FACE('0:282',(#143),#144,.T.);
#78=ADVANCED_FACE('1:722',(#145),#146,.T.);
#79=ADVANCED_FACE('1:735',(#147,#148,#149,#150,#151,#152,#153,#154,#155),#156,.T.);
#80=ADVANCED_FACE('1:755',(#157),#158,.T.);
#82=SURFACE_STYLE_FILL_AREA(#159);
#83=FACE_OUTER_BOUND('',#160,.T.);
#84=PLANE('',#161);
#85=FACE_OUTER_BOUND('',#162,.T.);
#86=PLANE('',#163);
#87=FACE_OUTER_BOUND('',#164,.T.);
#88=PLANE('',#165);
#89=FACE_OUTER_BOUND('',#166,.T.);
#90=PLANE('',#167);
#91=FACE_OUTER_BOUND('',#168,.T.);
#92=PLANE('',#169);
#93=FACE_OUTER_BOUND('',#170,.T.);
#94=PLANE('',#171);
#95=FACE_OUTER_BOUND('',#172,.T.);
#96=PLANE('',#173);
#97=FACE_OUTER_BOUND('',#174,.T.);
#98=PLANE('',#175);
#99=FACE_OUTER_BOUND('',#176,.T.);
#100=PLANE('',#177);
#101=FACE_OUTER_BOUND('',#178,.T.);
#102=PLANE('',#179);
#103=FACE_OUTER_BOUND('',#180,.T.);
#104=PLANE('',#181);
#105=FACE_OUTER_BOUND('',#182,.T.);
#106=PLANE('',#183);
#107=FACE_OUTER_BOUND('',#184,.T.);
#108=PLANE('',#185);
#109=FACE_OUTER_BOUND('',#186,.T.);
#110=PLANE('',#187);
#111=FACE_OUTER_BOUND('',#188,.T.);
#112=PLANE('',#189);
#113=FACE_OUTER_BOUND('',#190,.T.);
#114=PLANE('',#191);
#115=FACE_OUTER_BOUND('',#192,.T.);
#116=PLANE('',#193);
#117=FACE_OUTER_BOUND('',#194,.T.);
#118=PLANE('',#195);
#119=FACE_OUTER_BOUND('',#196,.T.);
#120=FACE_BOUND('',#197,.T.);
#121=FACE_BOUND('',#198,.T.);
#122=FACE_BOUND('',#199,.T.);
#123=FACE_BOUND('',#200,.T.);
#124=FACE_BOUND('',#201,.T.);
#125=FACE_BOUND('',#202,.T.);
#126=FACE_BOUND('',#203,.T.);
#127=FACE_BOUND('',#204,.T.);
#128=PLANE('',#205);
#129=FACE_OUTER_BOUND('',#206,.T.);
#130=PLANE('',#207);
#131=FACE_OUTER_BOUND('',#208,.T.);
#132=PLANE('',#209);
#133=FACE_OUTER_BOUND('',#210,.T.);
#134=PLANE('',#211);
#135=FACE_OUTER_BOUND('',#212,.T.);
#136=PLANE('',#213);
#137=FACE_OUTER_BOUND('',#214,.T.);
#138=PLANE('',#215);
#139=FACE_OUTER_BOUND('',#216,.T.);
#140=PLANE('',#217);
#141=FACE_OUTER_BOUND('',#218,.T.);
#142=PLANE('',#219);
#143=FACE_OUTER_BOUND('',#220,.T.);
#144=PLANE('',#221);
#145=FACE_OUTER_BOUND('',#222,.T.);
#146=PLANE('',#223);
#147=FACE_BOUND('',#224,.T.);
#148=FACE_BOUND('',#225,.T.);
#149=FACE_BOUND('',#226,.T.);
#150=FACE_BOUND('',#227,.T.);
#151=FACE_BOUND('',#228,.T.);
#152=FACE_BOUND('',#229,.T.);
#153=FACE_BOUND('',#230,.T.);
#154=FACE_BOUND('',#231,.T.);
#155=FACE_OUTER_BOUND('',#232,.T.);
#156=PLANE('',#233);
#157=FACE_OUTER_BOUND('',#234,.T.);
#158=PLANE('',#235);
#159=FILL_AREA_STYLE('',(#236));
#160=EDGE_LOOP('',(#237,#238,#239,#240));
#161=AXIS2_PLACEMENT_3D('',#241,#242,#243);
#162=EDGE_LOOP('',(#244,#245,#246,#247));
#163=AXIS2_PLACEMENT_3D('',#248,#249,#250);
#164=EDGE_LOOP('',(#251,#252,#253,#254));
#165=AXIS2_PLACEMENT_3D('',#255,#256,#257);
#166=EDGE_LOOP('',(#258,#259,#260,#261));
#167=AXIS2_PLACEMENT_3D('',#262,#263,#264);
#168=EDGE_LOOP('',(#265,#266,#267,#268));
#169=AXIS2_PLACEMENT_3D('',#269,#270,#271);
#170=EDGE_LOOP('',(#272,#273,#274,#275));
#171=AXIS2_PLACEMENT_3D('',#276,#277,#278);
#172=EDGE_LOOP('',(#279,#280,#281,#282));
#173=AXIS2_PLACEMENT_3D('',#283,#284,#285);
#174=EDGE_LOOP('',(#286,#287,#288,#289));
#175=AXIS2_PLACEMENT_3D('',#290,#291,#292);
#176=EDGE_LOOP('',(#293,#294,#295,#296));
#177=AXIS2_PLACEMENT_3D('',#297,#298,#299);
#178=EDGE_LOOP('',(#300,#301,#302,#303));
#179=AXIS2_PLACEMENT_3D('',#304,#305,#306);
#180=EDGE_LOOP('',(#307,#308,#309,#310));
#181=AXIS2_PLACEMENT_3D('',#311,#312,#313);
#182=EDGE_LOOP('',(#314,#315,#316,#317));
#183=AXIS2_PLACEMENT_3D('',#318,#319,#320);
#184=EDGE_LOOP('',(#321,#322,#323,#324));
#185=AXIS2_PLACEMENT_3D('',#325,#326,#327);
#186=EDGE_LOOP('',(#328,#329,#330,#331));
#187=AXIS2_PLACEMENT_3D('',#332,#333,#334);
#188=EDGE_LOOP('',(#335,#336,#337,#338));
#189=AXIS2_PLACEMENT_3D('',#339,#340,#341);
#190=EDGE_LOOP('',(#342,#343,#344,#345));
#191=AXIS2_PLACEMENT_3D('',#346,#347,#348);
#192=EDGE_LOOP('',(#349,#350,#351,#352));
#193=AXIS2_PLACEMENT_3D('',#353,#354,#355);
#194=EDGE_LOOP('',(#356,#357,#358,#359));
#195=AXIS2_PLACEMENT_3D('',#360,#361,#362);
#196=EDGE_LOOP('',(#363,#364,#365,#366));
#197=EDGE_LOOP('',(#367,#368,#369));
#198=EDGE_LOOP('',(#370,#371,#372));
#199=EDGE_LOOP('',(#373,#374,#375));
#200=EDGE_LOOP('',(#376,#377,#378));
#201=EDGE_LOOP('',(#379,#380,#381));
#202=EDGE_LOOP('',(#382,#383,#384));
#203=EDGE_LOOP('',(#385,#386,#387));
#204=EDGE_LOOP('',(#388,#389,#390));
#205=AXIS2_PLACEMENT_3D('',#391,#392,#393);
#206=EDGE_LOOP('',(#394,#395,#396,#397));
#207=AXIS2_PLACEMENT_3D('',#398,#399,#400);
#208=EDGE_LOOP('',(#401,#402,#403,#404));
#209=AXIS2_PLACEMENT_3D('',#405,#406,#407);
#210=EDGE_LOOP('',(#408,#409,#410,#411));
#211=AXIS2_PLACEMENT_3D('',#412,#413,#414);
#212=EDGE_LOOP('',(#415,#416,#417,#418));
#213=AXIS2_PLACEMENT_3D('',#419,#420,#421);
#214=EDGE_LOOP('',(#422,#423,#424,#425));
#215=AXIS2_PLACEMENT_3D('',#426,#427,#428);
#216=EDGE_LOOP('',(#429,#430,#431,#432));
#217=AXIS2_PLACEMENT_3D('',#433,#434,#435);
#218=EDGE_LOOP('',(#436,#437,#438,#439));
#219=AXIS2_PLACEMENT_3D('',#440,#441,#442);
#220=EDGE_LOOP('',(#443,#444,#445,#446));
#221=AXIS2_PLACEMENT_3D('',#447,#448,#449);
#222=EDGE_LOOP('',(#450,#451,#452,#453));
#223=AXIS2_PLACEMENT_3D('',#454,#455,#456);
#224=EDGE_LOOP('',(#457,#458,#459));
#225=EDGE_LOOP('',(#460,#461,#462));
#226=EDGE_LOOP('',(#463,#464,#465));
#227=EDGE_LOOP('',(#466,#467,#468));
#228=EDGE_LOOP('',(#469,#470,#471));
#229=EDGE_LOOP('',(#472,#473,#474));
#230=EDGE_LOOP('',(#475,#476,#477));
#231=EDGE_LOOP('',(#478,#479,#480));
#232=EDGE_LOOP('',(#481,#482,#483,#484));
#233=AXIS2_PLACEMENT_3D('',#485,#486,#487);
#234=EDGE_LOOP('',(#488,#489,#490,#491));
#235=AXIS2_PLACEMENT_3D('',#492,#493,#494);
#236=FILL_AREA_STYLE_COLOUR('',#495);
#237=ORIENTED_EDGE('',*,*,#496,.F.);
#238=ORIENTED_EDGE('',*,*,#497,.F.);
#239=ORIENTED_EDGE('',*,*,#498,.F.);
#240=ORIENTED_EDGE('',*,*,#499,.F.);
#241=CARTESIAN_POINT('',(0.01,0.010103553,0.0001035535));
#242=DIRECTION('',(1.0,0.0,0.0));
#243=DIRECTION('',(0.0,-1.0,0.0));
#244=ORIENTED_EDGE('',*,*,#500,.T.);
#245=ORIENTED_EDGE('',*,*,#501,.F.);
#246=ORIENTED_EDGE('',*,*,#502,.F.);
#247=ORIENTED_EDGE('',*,*,#503,.F.);
#248=CARTESIAN_POINT('',(-0.01,0.01,0.0));
#249=DIRECTION('',(-1.0,0.0,0.0));
#250=DIRECTION('',(0.0,1.0,0.0));
#251=ORIENTED_EDGE('',*,*,#504,.F.);
#252=ORIENTED_EDGE('',*,*,#505,.T.);
#253=ORIENTED_EDGE('',*,*,#506,.F.);
#254=ORIENTED_EDGE('',*,*,#507,.T.);
#255=CARTESIAN_POINT('',(0.005,-0.009926777,0.0));
#256=DIRECTION('',(-0.0,1.0,0.0));
#257=DIRECTION('',(1.0,0.0,0.0));
#258=ORIENTED_EDGE('',*,*,#504,.T.);
#259=ORIENTED_EDGE('',*,*,#508,.T.);
#260=ORIENTED_EDGE('',*,*,#509,.F.);
#261=ORIENTED_EDGE('',*,*,#510,.T.);
#262=CARTESIAN_POINT('',(7.3223E-05,-0.005,0.0));
#263=DIRECTION('',(1.0,0.0,0.0));
#264=DIRECTION('',(0.0,-1.0,0.0));
#265=ORIENTED_EDGE('',*,*,#506,.T.);
#266=ORIENTED_EDGE('',*,*,#511,.T.);
#267=ORIENTED_EDGE('',*,*,#509,.T.);
#268=ORIENTED_EDGE('',*,*,#512,.T.);
#269=CARTESIAN_POINT('',(0.004948223,-0.005051777,0.0));
#270=DIRECTION('',(-0.707106781186548,-0.707106781186548,-0.0));
#271=DIRECTION('',(-0.707106781186548,0.707106781186548,0.0));
#272=ORIENTED_EDGE('',*,*,#513,.F.);
#273=ORIENTED_EDGE('',*,*,#514,.T.);
#274=ORIENTED_EDGE('',*,*,#515,.F.);
#275=ORIENTED_EDGE('',*,*,#516,.T.);
#276=CARTESIAN_POINT('',(-7.3223E-05,-0.005,0.0));
#277=DIRECTION('',(-1.0,0.0,0.0));
#278=DIRECTION('',(0.0,1.0,0.0));
#279=ORIENTED_EDGE('',*,*,#515,.T.);
#280=ORIENTED_EDGE('',*,*,#517,.T.);
#281=ORIENTED_EDGE('',*,*,#518,.T.);
#282=ORIENTED_EDGE('',*,*,#519,.T.);
#283=CARTESIAN_POINT('',(-0.004948223,-0.005051777,0.0));
#284=DIRECTION('',(0.707106781186548,-0.707106781186548,0.0));
#285=DIRECTION('',(-0.707106781186548,-0.707106781186548,0.0));
#286=ORIENTED_EDGE('',*,*,#520,.F.);
#287=ORIENTED_EDGE('',*,*,#521,.T.);
#288=ORIENTED_EDGE('',*,*,#522,.F.);
#289=ORIENTED_EDGE('',*,*,#523,.T.);
#290=CARTESIAN_POINT('',(0.005051777,-0.004948223,0.0));
#291=DIRECTION('',(0.707106781186548,0.707106781186548,0.0));
#292=DIRECTION('',(0.707106781186548,-0.707106781186548,0.0));
#293=ORIENTED_EDGE('',*,*,#513,.T.);
#294=ORIENTED_EDGE('',*,*,#524,.T.);
#295=ORIENTED_EDGE('',*,*,#518,.F.);
#296=ORIENTED_EDGE('',*,*,#525,.T.);
#297=CARTESIAN_POINT('',(-0.005,-0.009926777,0.0));
#298=DIRECTION('',(-0.0,1.0,0.0));
#299=DIRECTION('',(1.0,0.0,0.0));
#300=ORIENTED_EDGE('',*,*,#526,.F.);
#301=ORIENTED_EDGE('',*,*,#527,.T.);
#302=ORIENTED_EDGE('',*,*,#528,.F.);
#303=ORIENTED_EDGE('',*,*,#529,.T.);
#304=CARTESIAN_POINT('',(-0.005051777,-0.004948223,0.0));
#305=DIRECTION('',(-0.707106781186548,0.707106781186548,0.0));
#306=DIRECTION('',(0.707106781186548,0.707106781186548,0.0));
#307=ORIENTED_EDGE('',*,*,#530,.F.);
#308=ORIENTED_EDGE('',*,*,#531,.T.);
#309=ORIENTED_EDGE('',*,*,#532,.F.);
#310=ORIENTED_EDGE('',*,*,#533,.T.);
#311=CARTESIAN_POINT('',(-7.3223E-05,0.005,0.0));
#312=DIRECTION('',(-1.0,0.0,0.0));
#313=DIRECTION('',(0.0,1.0,0.0));
#314=ORIENTED_EDGE('',*,*,#534,.F.);
#315=ORIENTED_EDGE('',*,*,#535,.T.);
#316=ORIENTED_EDGE('',*,*,#536,.F.);
#317=ORIENTED_EDGE('',*,*,#537,.T.);
#318=CARTESIAN_POINT('',(7.3223E-05,0.005,0.0));
#319=DIRECTION('',(1.0,0.0,0.0));
#320=DIRECTION('',(0.0,-1.0,0.0));
#321=ORIENTED_EDGE('',*,*,#534,.T.);
#322=ORIENTED_EDGE('',*,*,#538,.T.);
#323=ORIENTED_EDGE('',*,*,#539,.T.);
#324=ORIENTED_EDGE('',*,*,#540,.T.);
#325=CARTESIAN_POINT('',(0.005,0.009926777,0.0));
#326=DIRECTION('',(-0.0,-1.0,-0.0));
#327=DIRECTION('',(-1.0,0.0,0.0));
#328=ORIENTED_EDGE('',*,*,#536,.T.);
#329=ORIENTED_EDGE('',*,*,#541,.T.);
#330=ORIENTED_EDGE('',*,*,#539,.F.);
#331=ORIENTED_EDGE('',*,*,#542,.T.);
#332=CARTESIAN_POINT('',(0.004948223,0.005051777,0.0));
#333=DIRECTION('',(-0.707106781186548,0.707106781186548,0.0));
#334=DIRECTION('',(0.707106781186548,0.707106781186548,0.0));
#335=ORIENTED_EDGE('',*,*,#543,.F.);
#336=ORIENTED_EDGE('',*,*,#544,.T.);
#337=ORIENTED_EDGE('',*,*,#545,.F.);
#338=ORIENTED_EDGE('',*,*,#546,.T.);
#339=CARTESIAN_POINT('',(0.005051777,0.004948223,0.0));
#340=DIRECTION('',(0.707106781186548,-0.707106781186548,0.0));
#341=DIRECTION('',(-0.707106781186548,-0.707106781186548,0.0));
#342=ORIENTED_EDGE('',*,*,#532,.T.);
#343=ORIENTED_EDGE('',*,*,#547,.T.);
#344=ORIENTED_EDGE('',*,*,#548,.F.);
#345=ORIENTED_EDGE('',*,*,#549,.T.);
#346=CARTESIAN_POINT('',(-0.004948223,0.005051777,0.0));
#347=DIRECTION('',(0.707106781186548,0.707106781186548,0.0));
#348=DIRECTION('',(0.707106781186548,-0.707106781186548,0.0));
#349=ORIENTED_EDGE('',*,*,#543,.T.);
#350=ORIENTED_EDGE('',*,*,#550,.T.);
#351=ORIENTED_EDGE('',*,*,#551,.F.);
#352=ORIENTED_EDGE('',*,*,#552,.T.);
#353=CARTESIAN_POINT('',(0.005,7.3223E-05,0.0));
#354=DIRECTION('',(-0.0,1.0,0.0));
#355=DIRECTION('',(1.0,0.0,0.0));
#356=ORIENTED_EDGE('',*,*,#545,.T.);
#357=ORIENTED_EDGE('',*,*,#553,.T.);
#358=ORIENTED_EDGE('',*,*,#551,.T.);
#359=ORIENTED_EDGE('',*,*,#554,.T.);
#360=CARTESIAN_POINT('',(0.009926777,0.005,0.0));
#361=DIRECTION('',(-1.0,0.0,0.0));
#362=DIRECTION('',(0.0,1.0,0.0));
#363=ORIENTED_EDGE('',*,*,#499,.T.);
#364=ORIENTED_EDGE('',*,*,#555,.T.);
#365=ORIENTED_EDGE('',*,*,#503,.T.);
#366=ORIENTED_EDGE('',*,*,#556,.T.);
#367=ORIENTED_EDGE('',*,*,#557,.F.);
#368=ORIENTED_EDGE('',*,*,#558,.F.);
#369=ORIENTED_EDGE('',*,*,#523,.F.);
#370=ORIENTED_EDGE('',*,*,#549,.F.);
#371=ORIENTED_EDGE('',*,*,#559,.F.);
#372=ORIENTED_EDGE('',*,*,#533,.F.);
#373=ORIENTED_EDGE('',*,*,#560,.F.);
#374=ORIENTED_EDGE('',*,*,#561,.F.);
#375=ORIENTED_EDGE('',*,*,#562,.F.);
#376=ORIENTED_EDGE('',*,*,#540,.F.);
#377=ORIENTED_EDGE('',*,*,#541,.F.);
#378=ORIENTED_EDGE('',*,*,#535,.F.);
#379=ORIENTED_EDGE('',*,*,#525,.F.);
#380=ORIENTED_EDGE('',*,*,#517,.F.);
#381=ORIENTED_EDGE('',*,*,#514,.F.);
#382=ORIENTED_EDGE('',*,*,#510,.F.);
#383=ORIENTED_EDGE('',*,*,#511,.F.);
#384=ORIENTED_EDGE('',*,*,#505,.F.);
#385=ORIENTED_EDGE('',*,*,#554,.F.);
#386=ORIENTED_EDGE('',*,*,#550,.F.);
#387=ORIENTED_EDGE('',*,*,#546,.F.);
#388=ORIENTED_EDGE('',*,*,#563,.F.);
#389=ORIENTED_EDGE('',*,*,#564,.F.);
#390=ORIENTED_EDGE('',*,*,#529,.F.);
#391=CARTESIAN_POINT('',(-0.010073223,0.0,7.32235E-05));
#392=DIRECTION('',(0.0,0.0,-1.0));
#393=DIRECTION('',(-1.0,0.0,0.0));
#394=ORIENTED_EDGE('',*,*,#565,.F.);
#395=ORIENTED_EDGE('',*,*,#562,.T.);
#396=ORIENTED_EDGE('',*,*,#566,.F.);
#397=ORIENTED_EDGE('',*,*,#567,.T.);
#398=CARTESIAN_POINT('',(-0.005051777,0.004948223,0.0));
#399=DIRECTION('',(-0.707106781186548,-0.707106781186548,-0.0));
#400=DIRECTION('',(-0.707106781186548,0.707106781186548,0.0));
#401=ORIENTED_EDGE('',*,*,#565,.T.);
#402=ORIENTED_EDGE('',*,*,#568,.T.);
#403=ORIENTED_EDGE('',*,*,#569,.F.);
#404=ORIENTED_EDGE('',*,*,#560,.T.);
#405=CARTESIAN_POINT('',(-0.005,7.3223E-05,0.0));
#406=DIRECTION('',(-0.0,1.0,0.0));
#407=DIRECTION('',(1.0,0.0,0.0));
#408=ORIENTED_EDGE('',*,*,#566,.T.);
#409=ORIENTED_EDGE('',*,*,#561,.T.);
#410=ORIENTED_EDGE('',*,*,#569,.T.);
#411=ORIENTED_EDGE('',*,*,#570,.T.);
#412=CARTESIAN_POINT('',(-0.009926777,0.005,0.0));
#413=DIRECTION('',(1.0,0.0,0.0));
#414=DIRECTION('',(0.0,-1.0,0.0));
#415=ORIENTED_EDGE('',*,*,#530,.T.);
#416=ORIENTED_EDGE('',*,*,#559,.T.);
#417=ORIENTED_EDGE('',*,*,#548,.T.);
#418=ORIENTED_EDGE('',*,*,#571,.T.);
#419=CARTESIAN_POINT('',(-0.005,0.009926777,0.0));
#420=DIRECTION('',(-0.0,-1.0,-0.0));
#421=DIRECTION('',(-1.0,0.0,0.0));
#422=ORIENTED_EDGE('',*,*,#526,.T.);
#423=ORIENTED_EDGE('',*,*,#564,.T.);
#424=ORIENTED_EDGE('',*,*,#572,.F.);
#425=ORIENTED_EDGE('',*,*,#573,.T.);
#426=CARTESIAN_POINT('',(-0.005,-7.3223E-05,0.0));
#427=DIRECTION('',(-0.0,-1.0,-0.0));
#428=DIRECTION('',(-1.0,0.0,0.0));
#429=ORIENTED_EDGE('',*,*,#528,.T.);
#430=ORIENTED_EDGE('',*,*,#574,.T.);
#431=ORIENTED_EDGE('',*,*,#572,.T.);
#432=ORIENTED_EDGE('',*,*,#563,.T.);
#433=CARTESIAN_POINT('',(-0.009926777,-0.005,0.0));
#434=DIRECTION('',(1.0,0.0,0.0));
#435=DIRECTION('',(0.0,-1.0,0.0));
#436=ORIENTED_EDGE('',*,*,#520,.T.);
#437=ORIENTED_EDGE('',*,*,#558,.T.);
#438=ORIENTED_EDGE('',*,*,#575,.F.);
#439=ORIENTED_EDGE('',*,*,#576,.T.);
#440=CARTESIAN_POINT('',(0.009926777,-0.005,0.0));
#441=DIRECTION('',(-1.0,0.0,0.0));
#442=DIRECTION('',(0.0,1.0,0.0));
#443=ORIENTED_EDGE('',*,*,#522,.T.);
#444=ORIENTED_EDGE('',*,*,#577,.T.);
#445=ORIENTED_EDGE('',*,*,#575,.T.);
#446=ORIENTED_EDGE('',*,*,#557,.T.);
#447=CARTESIAN_POINT('',(0.005,-7.3223E-05,0.0));
#448=DIRECTION('',(-0.0,-1.0,-0.0));
#449=DIRECTION('',(-1.0,0.0,0.0));
#450=ORIENTED_EDGE('',*,*,#496,.T.);
#451=ORIENTED_EDGE('',*,*,#556,.F.);
#452=ORIENTED_EDGE('',*,*,#502,.T.);
#453=ORIENTED_EDGE('',*,*,#578,.F.);
#454=CARTESIAN_POINT('',(0.01,-0.01,0.0));
#455=DIRECTION('',(-0.0,-1.0,-0.0));
#456=DIRECTION('',(-1.0,0.0,0.0));
#457=ORIENTED_EDGE('',*,*,#573,.F.);
#458=ORIENTED_EDGE('',*,*,#574,.F.);
#459=ORIENTED_EDGE('',*,*,#527,.F.);
#460=ORIENTED_EDGE('',*,*,#570,.F.);
#461=ORIENTED_EDGE('',*,*,#568,.F.);
#462=ORIENTED_EDGE('',*,*,#567,.F.);
#463=ORIENTED_EDGE('',*,*,#571,.F.);
#464=ORIENTED_EDGE('',*,*,#547,.F.);
#465=ORIENTED_EDGE('',*,*,#531,.F.);
#466=ORIENTED_EDGE('',*,*,#542,.F.);
#467=ORIENTED_EDGE('',*,*,#538,.F.);
#468=ORIENTED_EDGE('',*,*,#537,.F.);
#469=ORIENTED_EDGE('',*,*,#552,.F.);
#470=ORIENTED_EDGE('',*,*,#553,.F.);
#471=ORIENTED_EDGE('',*,*,#544,.F.);
#472=ORIENTED_EDGE('',*,*,#519,.F.);
#473=ORIENTED_EDGE('',*,*,#524,.F.);
#474=ORIENTED_EDGE('',*,*,#516,.F.);
#475=ORIENTED_EDGE('',*,*,#512,.F.);
#476=ORIENTED_EDGE('',*,*,#508,.F.);
#477=ORIENTED_EDGE('',*,*,#507,.F.);
#478=ORIENTED_EDGE('',*,*,#576,.F.);
#479=ORIENTED_EDGE('',*,*,#577,.F.);
#480=ORIENTED_EDGE('',*,*,#521,.F.);
#481=ORIENTED_EDGE('',*,*,#497,.T.);
#482=ORIENTED_EDGE('',*,*,#578,.T.);
#483=ORIENTED_EDGE('',*,*,#501,.T.);
#484=ORIENTED_EDGE('',*,*,#579,.T.);
#485=CARTESIAN_POINT('',(-0.010073223,0.0,-7.32235E-05));
#486=DIRECTION('',(0.0,0.0,-1.0));
#487=DIRECTION('',(-1.0,0.0,0.0));
#488=ORIENTED_EDGE('',*,*,#498,.T.);
#489=ORIENTED_EDGE('',*,*,#579,.F.);
#490=ORIENTED_EDGE('',*,*,#500,.F.);
#491=ORIENTED_EDGE('',*,*,#555,.F.);
#492=CARTESIAN_POINT('',(0.01,0.01,0.0));
#493=DIRECTION('',(-0.0,1.0,0.0));
#494=DIRECTION('',(1.0,0.0,0.0));
#495=COLOUR_RGB('',0.560784339904785,0.686274528503418,0.560784339904785);
#496=EDGE_CURVE('1:785',#580,#581,#582,.T.);
#497=EDGE_CURVE('1:788',#583,#580,#584,.T.);
#498=EDGE_CURVE('1:794',#585,#583,#586,.T.);
#499=EDGE_CURVE('1:791',#581,#585,#587,.T.);
#500=EDGE_CURVE('1:527',#588,#589,#590,.T.);
#501=EDGE_CURVE('1:534',#591,#589,#592,.T.);
#502=EDGE_CURVE('1:285',#593,#591,#594,.T.);
#503=EDGE_CURVE('1:550',#588,#593,#595,.T.);
#504=EDGE_CURVE('0:4668',#596,#597,#598,.T.);
#505=EDGE_CURVE('0:3435',#596,#599,#600,.T.);
#506=EDGE_CURVE('0:4671',#601,#599,#602,.T.);
#507=EDGE_CURVE('0:3318',#601,#597,#603,.T.);
#508=EDGE_CURVE('0:3123',#597,#604,#605,.T.);
#509=EDGE_CURVE('0:4644',#606,#604,#607,.T.);
#510=EDGE_CURVE('0:3198',#606,#596,#608,.T.);
#511=EDGE_CURVE('0:3003',#599,#606,#609,.T.);
#512=EDGE_CURVE('0:2886',#604,#601,#610,.T.);
#513=EDGE_CURVE('0:4662',#611,#612,#613,.T.);
#514=EDGE_CURVE('0:3219',#611,#614,#615,.T.);
#515=EDGE_CURVE('0:4623',#616,#614,#617,.T.);
#516=EDGE_CURVE('0:3102',#616,#612,#618,.T.);
#517=EDGE_CURVE('0:2571',#614,#619,#620,.T.);
#518=EDGE_CURVE('0:4566',#619,#621,#622,.T.);
#519=EDGE_CURVE('0:2454',#621,#616,#623,.T.);
#520=EDGE_CURVE('0:4593',#624,#625,#626,.T.);
#521=EDGE_CURVE('0:2907',#624,#627,#628,.T.);
#522=EDGE_CURVE('0:4596',#629,#627,#630,.T.);
#523=EDGE_CURVE('0:2982',#629,#625,#631,.T.);
#524=EDGE_CURVE('0:2691',#612,#621,#632,.T.);
#525=EDGE_CURVE('0:2766',#619,#611,#633,.T.);
#526=EDGE_CURVE('0:4539',#634,#635,#636,.T.);
#527=EDGE_CURVE('0:2475',#634,#637,#638,.T.);
#528=EDGE_CURVE('0:4557',#639,#637,#640,.T.);
#529=EDGE_CURVE('0:2550',#639,#635,#641,.T.);
#530=EDGE_CURVE('0:4494',#642,#643,#644,.T.);
#531=EDGE_CURVE('0:2238',#642,#645,#646,.T.);
#532=EDGE_CURVE('0:4521',#647,#645,#648,.T.);
#533=EDGE_CURVE('0:2355',#647,#643,#649,.T.);
#534=EDGE_CURVE('0:4500',#650,#651,#652,.T.);
#535=EDGE_CURVE('0:2334',#650,#653,#654,.T.);
#536=EDGE_CURVE('0:4497',#655,#653,#656,.T.);
#537=EDGE_CURVE('0:2259',#655,#651,#657,.T.);
#538=EDGE_CURVE('0:1827',#651,#658,#659,.T.);
#539=EDGE_CURVE('0:4458',#658,#660,#661,.T.);
#540=EDGE_CURVE('0:1902',#660,#650,#662,.T.);
#541=EDGE_CURVE('0:2139',#653,#660,#663,.T.);
#542=EDGE_CURVE('0:2022',#658,#655,#664,.T.);
#543=EDGE_CURVE('0:4467',#665,#666,#667,.T.);
#544=EDGE_CURVE('0:2043',#665,#668,#669,.T.);
#545=EDGE_CURVE('0:4476',#670,#668,#671,.T.);
#546=EDGE_CURVE('0:2118',#670,#666,#672,.T.);
#547=EDGE_CURVE('0:1611',#645,#673,#674,.T.);
#548=EDGE_CURVE('0:4425',#675,#673,#676,.T.);
#549=EDGE_CURVE('0:1686',#675,#647,#677,.T.);
#550=EDGE_CURVE('0:411',#666,#678,#679,.T.);
#551=EDGE_CURVE('0:4368',#680,#678,#681,.T.);
#552=EDGE_CURVE('0:294',#680,#665,#682,.T.);
#553=EDGE_CURVE('0:99',#668,#680,#683,.T.);
#554=EDGE_CURVE('0:174',#678,#670,#684,.T.);
#555=EDGE_CURVE('1:838',#585,#588,#685,.T.);
#556=EDGE_CURVE('1:810',#593,#581,#686,.T.);
#557=EDGE_CURVE('0:390',#687,#629,#688,.T.);
#558=EDGE_CURVE('0:627',#625,#687,#689,.T.);
#559=EDGE_CURVE('0:1491',#643,#675,#690,.T.);
#560=EDGE_CURVE('0:1254',#691,#692,#693,.T.);
#561=EDGE_CURVE('0:843',#694,#691,#695,.T.);
#562=EDGE_CURVE('0:1707',#692,#694,#696,.T.);
#563=EDGE_CURVE('0:1038',#697,#639,#698,.T.);
#564=EDGE_CURVE('0:1275',#635,#697,#699,.T.);
#565=EDGE_CURVE('0:4419',#692,#700,#701,.T.);
#566=EDGE_CURVE('0:4416',#702,#694,#703,.T.);
#567=EDGE_CURVE('0:1590',#702,#700,#704,.T.);
#568=EDGE_CURVE('0:1179',#700,#705,#706,.T.);
#569=EDGE_CURVE('0:4395',#691,#705,#707,.T.);
#570=EDGE_CURVE('0:726',#705,#702,#708,.T.);
#571=EDGE_CURVE('0:1374',#673,#642,#709,.T.);
#572=EDGE_CURVE('0:4386',#710,#697,#711,.T.);
#573=EDGE_CURVE('0:1158',#710,#634,#712,.T.);
#574=EDGE_CURVE('0:963',#637,#710,#713,.T.);
#575=EDGE_CURVE('0:4380',#714,#687,#715,.T.);
#576=EDGE_CURVE('0:510',#714,#624,#716,.T.);
#577=EDGE_CURVE('0:315',#627,#714,#717,.T.);
#578=EDGE_CURVE('1:802',#580,#591,#718,.T.);
#579=EDGE_CURVE('1:822',#589,#583,#719,.T.);
#580=VERTEX_POINT('',#720);
#581=VERTEX_POINT('',#721);
#582=LINE('',#722,#723);
#583=VERTEX_POINT('',#724);
#584=LINE('',#725,#726);
#585=VERTEX_POINT('',#727);
#586=LINE('',#728,#729);
#587=LINE('',#730,#731);
#588=VERTEX_POINT('',#732);
#589=VERTEX_POINT('',#733);
#590=LINE('',#734,#735);
#591=VERTEX_POINT('',#736);
#592=LINE('',#737,#738);
#593=VERTEX_POINT('',#739);
#594=LINE('',#740,#741);
#595=LINE('',#742,#743);
#596=VERTEX_POINT('',#744);
#597=VERTEX_POINT('',#745);
#598=LINE('',#746,#747);
#599=VERTEX_POINT('',#748);
#600=LINE('',#749,#750);
#601=VERTEX_POINT('',#751);
#602=LINE('',#752,#753);
#603=LINE('',#754,#755);
#604=VERTEX_POINT('',#756);
#605=LINE('',#757,#758);
#606=VERTEX_POINT('',#759);
#607=LINE('',#760,#761);
#608=LINE('',#762,#763);
#609=LINE('',#764,#765);
#610=LINE('',#766,#767);
#611=VERTEX_POINT('',#768);
#612=VERTEX_POINT('',#769);
#613=LINE('',#770,#771);
#614=VERTEX_POINT('',#772);
#615=LINE('',#773,#774);
#616=VERTEX_POINT('',#775);
#617=LINE('',#776,#777);
#618=LINE('',#778,#779);
#619=VERTEX_POINT('',#780);
#620=LINE('',#781,#782);
#621=VERTEX_POINT('',#783);
#622=LINE('',#784,#785);
#623=LINE('',#786,#787);
#624=VERTEX_POINT('',#788);
#625=VERTEX_POINT('',#789);
#626=LINE('',#790,#791);
#627=VERTEX_POINT('',#792);
#628=LINE('',#793,#794);
#629=VERTEX_POINT('',#795);
#630=LINE('',#796,#797);
#631=LINE('',#798,#799);
#632=LINE('',#800,#801);
#633=LINE('',#802,#803);
#634=VERTEX_POINT('',#804);
#635=VERTEX_POINT('',#805);
#636=LINE('',#806,#807);
#637=VERTEX_POINT('',#808);
#638=LINE('',#809,#810);
#639=VERTEX_POINT('',#811);
#640=LINE('',#812,#813);
#641=LINE('',#814,#815);
#642=VERTEX_POINT('',#816);
#643=VERTEX_POINT('',#817);
#644=LINE('',#818,#819);
#645=VERTEX_POINT('',#820);
#646=LINE('',#821,#822);
#647=VERTEX_POINT('',#823);
#648=LINE('',#824,#825);
#649=LINE('',#826,#827);
#650=VERTEX_POINT('',#828);
#651=VERTEX_POINT('',#829);
#652=LINE('',#830,#831);
#653=VERTEX_POINT('',#832);
#654=LINE('',#833,#834);
#655=VERTEX_POINT('',#835);
#656=LINE('',#836,#837);
#657=LINE('',#838,#839);
#658=VERTEX_POINT('',#840);
#659=LINE('',#841,#842);
#660=VERTEX_POINT('',#843);
#661=LINE('',#844,#845);
#662=LINE('',#846,#847);
#663=LINE('',#848,#849);
#664=LINE('',#850,#851);
#665=VERTEX_POINT('',#852);
#666=VERTEX_POINT('',#853);
#667=LINE('',#854,#855);
#668=VERTEX_POINT('',#856);
#669=LINE('',#857,#858);
#670=VERTEX_POINT('',#859);
#671=LINE('',#860,#861);
#672=LINE('',#862,#863);
#673=VERTEX_POINT('',#864);
#674=LINE('',#865,#866);
#675=VERTEX_POINT('',#867);
#676=LINE('',#868,#869);
#677=LINE('',#870,#871);
#678=VERTEX_POINT('',#872);
#679=LINE('',#873,#874);
#680=VERTEX_POINT('',#875);
#681=LINE('',#876,#877);
#682=LINE('',#878,#879);
#683=LINE('',#880,#881);
#684=LINE('',#882,#883);
#685=LINE('',#884,#885);
#686=LINE('',#886,#887);
#687=VERTEX_POINT('',#888);
#688=LINE('',#889,#890);
#689=LINE('',#891,#892);
#690=LINE('',#893,#894);
#691=VERTEX_POINT('',#895);
#692=VERTEX_POINT('',#896);
#693=LINE('',#897,#898);
#694=VERTEX_POINT('',#899);
#695=LINE('',#900,#901);
#696=LINE('',#902,#903);
#697=VERTEX_POINT('',#904);
#698=LINE('',#905,#906);
#699=LINE('',#907,#908);
#700=VERTEX_POINT('',#909);
#701=LINE('',#910,#911);
#702=VERTEX_POINT('',#912);
#703=LINE('',#913,#914);
#704=LINE('',#915,#916);
#705=VERTEX_POINT('',#917);
#706=LINE('',#918,#919);
#707=LINE('',#920,#921);
#708=LINE('',#922,#923);
#709=LINE('',#924,#925);
#710=VERTEX_POINT('',#926);
#711=LINE('',#927,#928);
#712=LINE('',#929,#930);
#713=LINE('',#931,#932);
#714=VERTEX_POINT('',#933);
#715=LINE('',#934,#935);
#716=LINE('',#936,#937);
#717=LINE('',#938,#939);
#718=LINE('',#940,#941);
#719=LINE('',#942,#943);
#720=CARTESIAN_POINT('',(0.01,-0.01,-7.32235E-05));
#721=CARTESIAN_POINT('',(0.01,-0.01,7.32235E-05));
#722=CARTESIAN_POINT('',(0.01,-0.01,5.177675E-05));
#723=VECTOR('',#944,1.0);
#724=CARTESIAN_POINT('',(0.01,0.01,-7.32235E-05));
#725=CARTESIAN_POINT('',(0.01,0.0050517765,-7.32235E-05));
#726=VECTOR('',#945,1.0);
#727=CARTESIAN_POINT('',(0.01,0.01,7.32235E-05));
#728=CARTESIAN_POINT('',(0.01,0.01,5.177675E-05));
#729=VECTOR('',#946,1.0);
#730=CARTESIAN_POINT('',(0.01,0.0050517765,7.32235E-05));
#731=VECTOR('',#947,1.0);
#732=CARTESIAN_POINT('',(-0.01,0.01,7.32235E-05));
#733=CARTESIAN_POINT('',(-0.01,0.01,-7.32235E-05));
#734=CARTESIAN_POINT('',(-0.01,0.01,5.177675E-05));
#735=VECTOR('',#948,1.0);
#736=CARTESIAN_POINT('',(-0.01,-0.01,-7.32235E-05));
#737=CARTESIAN_POINT('',(-0.01,-0.0050517765,-7.32235E-05));
#738=VECTOR('',#949,1.0);
#739=CARTESIAN_POINT('',(-0.01,-0.01,7.32235E-05));
#740=CARTESIAN_POINT('',(-0.01,-0.01,5.177675E-05));
#741=VECTOR('',#950,1.0);
#742=CARTESIAN_POINT('',(-0.01,-0.0050517765,7.32235E-05));
#743=VECTOR('',#951,1.0);
#744=CARTESIAN_POINT('',(7.3223E-05,-0.009926777,7.32235E-05));
#745=CARTESIAN_POINT('',(7.3223E-05,-0.009926777,-7.32235E-05));
#746=CARTESIAN_POINT('',(7.32229999999999E-05,-0.009926777,0.0));
#747=VECTOR('',#952,1.0);
#748=CARTESIAN_POINT('',(0.009823223,-0.009926777,7.32235E-05));
#749=CARTESIAN_POINT('',(0.0,-0.009926777,7.32235E-05));
#750=VECTOR('',#953,1.0);
#751=CARTESIAN_POINT('',(0.009823223,-0.009926777,-7.32235E-05));
#752=CARTESIAN_POINT('',(0.009823223,-0.009926777,0.0));
#753=VECTOR('',#954,1.0);
#754=CARTESIAN_POINT('',(0.0,-0.009926777,-7.32235E-05));
#755=VECTOR('',#955,1.0);
#756=CARTESIAN_POINT('',(7.3223E-05,-0.000176776999999998,-7.32235E-05));
#757=CARTESIAN_POINT('',(7.3223E-05,0.0,-7.32235E-05));
#758=VECTOR('',#956,1.0);
#759=CARTESIAN_POINT('',(7.3223E-05,-0.000176776999999998,7.32235E-05));
#760=CARTESIAN_POINT('',(7.32229999999999E-05,-0.000176776999999999,0.0));
#761=VECTOR('',#957,1.0);
#762=CARTESIAN_POINT('',(7.3223E-05,0.0,7.32235E-05));
#763=VECTOR('',#958,1.0);
#764=CARTESIAN_POINT('',(0.009948223,-0.010051777,7.32235E-05));
#765=VECTOR('',#959,1.0);
#766=CARTESIAN_POINT('',(0.009948223,-0.010051777,-7.32235E-05));
#767=VECTOR('',#960,1.0);
#768=CARTESIAN_POINT('',(-7.3223E-05,-0.009926777,7.32235E-05));
#769=CARTESIAN_POINT('',(-7.3223E-05,-0.009926777,-7.32235E-05));
#770=CARTESIAN_POINT('',(-7.32229999999999E-05,-0.009926777,0.0));
#771=VECTOR('',#961,1.0);
#772=CARTESIAN_POINT('',(-7.3223E-05,-0.000176776999999999,7.32235E-05));
#773=CARTESIAN_POINT('',(-7.3223E-05,-0.01,7.32235E-05));
#774=VECTOR('',#962,1.0);
#775=CARTESIAN_POINT('',(-7.3223E-05,-0.000176777,-7.32235E-05));
#776=CARTESIAN_POINT('',(-7.32229999999999E-05,-0.000176777,0.0));
#777=VECTOR('',#963,1.0);
#778=CARTESIAN_POINT('',(-7.3223E-05,-0.01,-7.32235E-05));
#779=VECTOR('',#964,1.0);
#780=CARTESIAN_POINT('',(-0.009823223,-0.009926777,7.32235E-05));
#781=CARTESIAN_POINT('',(5.1777E-05,-5.1777E-05,7.32235E-05));
#782=VECTOR('',#965,1.0);
#783=CARTESIAN_POINT('',(-0.009823223,-0.009926777,-7.32235E-05));
#784=CARTESIAN_POINT('',(-0.009823223,-0.009926777,0.0));
#785=VECTOR('',#966,1.0);
#786=CARTESIAN_POINT('',(5.1777E-05,-5.1777E-05,-7.32235E-05));
#787=VECTOR('',#967,1.0);
#788=CARTESIAN_POINT('',(0.009926777,-0.009823223,-7.32235E-05));
#789=CARTESIAN_POINT('',(0.009926777,-0.009823223,7.32235E-05));
#790=CARTESIAN_POINT('',(0.009926777,-0.009823223,0.0));
#791=VECTOR('',#968,1.0);
#792=CARTESIAN_POINT('',(0.000176776999999999,-7.3223E-05,-7.32235E-05));
#793=CARTESIAN_POINT('',(5.1777E-05,5.1777E-05,-7.32235E-05));
#794=VECTOR('',#969,1.0);
#795=CARTESIAN_POINT('',(0.000176776999999999,-7.3223E-05,7.32235E-05));
#796=CARTESIAN_POINT('',(0.000176777,-7.32230000000003E-05,0.0));
#797=VECTOR('',#970,1.0);
#798=CARTESIAN_POINT('',(5.1777E-05,5.1777E-05,7.32235E-05));
#799=VECTOR('',#971,1.0);
#800=CARTESIAN_POINT('',(-0.01,-0.009926777,-7.32235E-05));
#801=VECTOR('',#972,1.0);
#802=CARTESIAN_POINT('',(-0.01,-0.009926777,7.32235E-05));
#803=VECTOR('',#973,1.0);
#804=CARTESIAN_POINT('',(-0.000176776999999999,-7.32230000000007E-05,-7.32235E-05));
#805=CARTESIAN_POINT('',(-0.000176776999999998,-7.3223E-05,7.32235E-05));
#806=CARTESIAN_POINT('',(-0.000176776999999998,-7.32230000000003E-05,0.0));
#807=VECTOR('',#974,1.0);
#808=CARTESIAN_POINT('',(-0.009926777,-0.009823223,-7.32235E-05));
#809=CARTESIAN_POINT('',(-0.010051777,-0.009948223,-7.32235E-05));
#810=VECTOR('',#975,1.0);
#811=CARTESIAN_POINT('',(-0.009926777,-0.009823223,7.32235E-05));
#812=CARTESIAN_POINT('',(-0.009926777,-0.009823223,0.0));
#813=VECTOR('',#976,1.0);
#814=CARTESIAN_POINT('',(-0.010051777,-0.009948223,7.32235E-05));
#815=VECTOR('',#977,1.0);
#816=CARTESIAN_POINT('',(-7.3223E-05,0.009926777,-7.32235E-05));
#817=CARTESIAN_POINT('',(-7.3223E-05,0.009926777,7.32235E-05));
#818=CARTESIAN_POINT('',(-7.32229999999999E-05,0.009926777,0.0));
#819=VECTOR('',#978,1.0);
#820=CARTESIAN_POINT('',(-7.3223E-05,0.000176776999999998,-7.32235E-05));
#821=CARTESIAN_POINT('',(-7.3223E-05,0.0,-7.32235E-05));
#822=VECTOR('',#979,1.0);
#823=CARTESIAN_POINT('',(-7.32230000000007E-05,0.000176776999999999,7.32235E-05));
#824=CARTESIAN_POINT('',(-7.32229999999999E-05,0.000176776999999999,0.0));
#825=VECTOR('',#980,1.0);
#826=CARTESIAN_POINT('',(-7.3223E-05,0.0,7.32235E-05));
#827=VECTOR('',#981,1.0);
#828=CARTESIAN_POINT('',(7.3223E-05,0.009926777,7.32235E-05));
#829=CARTESIAN_POINT('',(7.32230000000007E-05,0.009926777,-7.32235E-05));
#830=CARTESIAN_POINT('',(7.32229999999999E-05,0.009926777,0.0));
#831=VECTOR('',#982,1.0);
#832=CARTESIAN_POINT('',(7.3223E-05,0.000176777,7.32235E-05));
#833=CARTESIAN_POINT('',(7.3223E-05,0.01,7.32235E-05));
#834=VECTOR('',#983,1.0);
#835=CARTESIAN_POINT('',(7.3223E-05,0.000176777,-7.32235E-05));
#836=CARTESIAN_POINT('',(7.32229999999999E-05,0.000176777,0.0));
#837=VECTOR('',#984,1.0);
#838=CARTESIAN_POINT('',(7.3223E-05,0.01,-7.32235E-05));
#839=VECTOR('',#985,1.0);
#840=CARTESIAN_POINT('',(0.009823223,0.009926777,-7.32235E-05));
#841=CARTESIAN_POINT('',(0.01,0.009926777,-7.32235E-05));
#842=VECTOR('',#986,1.0);
#843=CARTESIAN_POINT('',(0.009823223,0.009926777,7.32235E-05));
#844=CARTESIAN_POINT('',(0.009823223,0.009926777,0.0));
#845=VECTOR('',#987,1.0);
#846=CARTESIAN_POINT('',(0.01,0.009926777,7.32235E-05));
#847=VECTOR('',#988,1.0);
#848=CARTESIAN_POINT('',(-5.1777E-05,5.1777E-05,7.32235E-05));
#849=VECTOR('',#989,1.0);
#850=CARTESIAN_POINT('',(-5.1777E-05,5.1777E-05,-7.32235E-05));
#851=VECTOR('',#990,1.0);
#852=CARTESIAN_POINT('',(0.000176776999999998,7.3223E-05,-7.32235E-05));
#853=CARTESIAN_POINT('',(0.000176776999999998,7.3223E-05,7.32235E-05));
#854=CARTESIAN_POINT('',(0.000176776999999998,7.32230000000003E-05,0.0));
#855=VECTOR('',#991,1.0);
#856=CARTESIAN_POINT('',(0.009926777,0.009823223,-7.32235E-05));
#857=CARTESIAN_POINT('',(0.010051777,0.009948223,-7.32235E-05));
#858=VECTOR('',#992,1.0);
#859=CARTESIAN_POINT('',(0.009926777,0.009823223,7.32235E-05));
#860=CARTESIAN_POINT('',(0.009926777,0.009823223,0.0));
#861=VECTOR('',#993,1.0);
#862=CARTESIAN_POINT('',(0.010051777,0.009948223,7.32235E-05));
#863=VECTOR('',#994,1.0);
#864=CARTESIAN_POINT('',(-0.009823223,0.009926777,-7.32235E-05));
#865=CARTESIAN_POINT('',(-0.009948223,0.010051777,-7.32235E-05));
#866=VECTOR('',#995,1.0);
#867=CARTESIAN_POINT('',(-0.009823223,0.009926777,7.32235E-05));
#868=CARTESIAN_POINT('',(-0.009823223,0.009926777,0.0));
#869=VECTOR('',#996,1.0);
#870=CARTESIAN_POINT('',(-0.009948223,0.010051777,7.32235E-05));
#871=VECTOR('',#997,1.0);
#872=CARTESIAN_POINT('',(0.009926777,7.3223E-05,7.32235E-05));
#873=CARTESIAN_POINT('',(0.0,7.3223E-05,7.32235E-05));
#874=VECTOR('',#998,1.0);
#875=CARTESIAN_POINT('',(0.009926777,7.3223E-05,-7.32235E-05));
#876=CARTESIAN_POINT('',(0.009926777,7.32229999999999E-05,0.0));
#877=VECTOR('',#999,1.0);
#878=CARTESIAN_POINT('',(0.0,7.3223E-05,-7.32235E-05));
#879=VECTOR('',#1000,1.0);
#880=CARTESIAN_POINT('',(0.009926777,0.0,-7.32235E-05));
#881=VECTOR('',#1001,1.0);
#882=CARTESIAN_POINT('',(0.009926777,0.0,7.32235E-05));
#883=VECTOR('',#1002,1.0);
#884=CARTESIAN_POINT('',(-8.8388E-05,0.01,7.32235E-05));
#885=VECTOR('',#1003,1.0);
#886=CARTESIAN_POINT('',(-0.009984835,-0.01,7.32235E-05));
#887=VECTOR('',#1004,1.0);
#888=CARTESIAN_POINT('',(0.009926777,-7.32230000000007E-05,7.32235E-05));
#889=CARTESIAN_POINT('',(0.01,-7.3223E-05,7.32235E-05));
#890=VECTOR('',#1005,1.0);
#891=CARTESIAN_POINT('',(0.009926777,-0.01,7.32235E-05));
#892=VECTOR('',#1006,1.0);
#893=CARTESIAN_POINT('',(0.0,0.009926777,7.32235E-05));
#894=VECTOR('',#1007,1.0);
#895=CARTESIAN_POINT('',(-0.009926777,7.3223E-05,7.32235E-05));
#896=CARTESIAN_POINT('',(-0.000176777,7.3223E-05,7.32235E-05));
#897=CARTESIAN_POINT('',(-0.01,7.3223E-05,7.32235E-05));
#898=VECTOR('',#1008,1.0);
#899=CARTESIAN_POINT('',(-0.009926777,0.009823223,7.32235E-05));
#900=CARTESIAN_POINT('',(-0.009926777,0.01,7.32235E-05));
#901=VECTOR('',#1009,1.0);
#902=CARTESIAN_POINT('',(-5.1777E-05,-5.1777E-05,7.32235E-05));
#903=VECTOR('',#1010,1.0);
#904=CARTESIAN_POINT('',(-0.009926777,-7.3223E-05,7.32235E-05));
#905=CARTESIAN_POINT('',(-0.009926777,0.0,7.32235E-05));
#906=VECTOR('',#1011,1.0);
#907=CARTESIAN_POINT('',(0.0,-7.3223E-05,7.32235E-05));
#908=VECTOR('',#1012,1.0);
#909=CARTESIAN_POINT('',(-0.000176776999999999,7.3223E-05,-7.32235E-05));
#910=CARTESIAN_POINT('',(-0.000176777,7.32230000000003E-05,0.0));
#911=VECTOR('',#1013,1.0);
#912=CARTESIAN_POINT('',(-0.009926777,0.009823223,-7.32235E-05));
#913=CARTESIAN_POINT('',(-0.009926777,0.009823223,0.0));
#914=VECTOR('',#1014,1.0);
#915=CARTESIAN_POINT('',(-5.1777E-05,-5.1777E-05,-7.32235E-05));
#916=VECTOR('',#1015,1.0);
#917=CARTESIAN_POINT('',(-0.009926777,7.3223E-05,-7.32235E-05));
#918=CARTESIAN_POINT('',(-0.01,7.3223E-05,-7.32235E-05));
#919=VECTOR('',#1016,1.0);
#920=CARTESIAN_POINT('',(-0.009926777,7.32229999999999E-05,0.0));
#921=VECTOR('',#1017,1.0);
#922=CARTESIAN_POINT('',(-0.009926777,0.01,-7.32235E-05));
#923=VECTOR('',#1018,1.0);
#924=CARTESIAN_POINT('',(0.0,0.009926777,-7.32235E-05));
#925=VECTOR('',#1019,1.0);
#926=CARTESIAN_POINT('',(-0.009926777,-7.3223E-05,-7.32235E-05));
#927=CARTESIAN_POINT('',(-0.009926777,-7.32229999999999E-05,0.0));
#928=VECTOR('',#1020,1.0);
#929=CARTESIAN_POINT('',(0.0,-7.3223E-05,-7.32235E-05));
#930=VECTOR('',#1021,1.0);
#931=CARTESIAN_POINT('',(-0.009926777,0.0,-7.32235E-05));
#932=VECTOR('',#1022,1.0);
#933=CARTESIAN_POINT('',(0.009926777,-7.3223E-05,-7.32235E-05));
#934=CARTESIAN_POINT('',(0.009926777,-7.32229999999999E-05,0.0));
#935=VECTOR('',#1023,1.0);
#936=CARTESIAN_POINT('',(0.009926777,-0.01,-7.32235E-05));
#937=VECTOR('',#1024,1.0);
#938=CARTESIAN_POINT('',(0.01,-7.3223E-05,-7.32235E-05));
#939=VECTOR('',#1025,1.0);
#940=CARTESIAN_POINT('',(-0.009984835,-0.01,-7.32235E-05));
#941=VECTOR('',#1026,1.0);
#942=CARTESIAN_POINT('',(-8.8388E-05,0.01,-7.32235E-05));
#943=VECTOR('',#1027,1.0);
#944=DIRECTION('',(0.0,0.0,1.0));
#945=DIRECTION('',(0.0,-1.0,0.0));
#946=DIRECTION('',(0.0,0.0,-1.0));
#947=DIRECTION('',(-0.0,1.0,0.0));
#948=DIRECTION('',(0.0,0.0,-1.0));
#949=DIRECTION('',(0.0,1.0,0.0));
#950=DIRECTION('',(0.0,0.0,-1.0));
#951=DIRECTION('',(-0.0,-1.0,-0.0));
#952=DIRECTION('',(0.0,0.0,-1.0));
#953=DIRECTION('',(1.0,0.0,0.0));
#954=DIRECTION('',(0.0,-0.0,1.0));
#955=DIRECTION('',(-1.0,-0.0,-0.0));
#956=DIRECTION('',(0.0,1.0,0.0));
#957=DIRECTION('',(0.0,0.0,-1.0));
#958=DIRECTION('',(0.0,-1.0,0.0));
#959=DIRECTION('',(-0.707106781186548,0.707106781186548,0.0));
#960=DIRECTION('',(0.707106781186548,-0.707106781186548,0.0));
#961=DIRECTION('',(0.0,0.0,-1.0));
#962=DIRECTION('',(0.0,1.0,0.0));
#963=DIRECTION('',(0.0,0.0,1.0));
#964=DIRECTION('',(-0.0,-1.0,-0.0));
#965=DIRECTION('',(-0.707106781186548,-0.707106781186548,0.0));
#966=DIRECTION('',(0.0,0.0,-1.0));
#967=DIRECTION('',(0.707106781186548,0.707106781186548,0.0));
#968=DIRECTION('',(0.0,-0.0,1.0));
#969=DIRECTION('',(-0.707106781186548,0.707106781186548,0.0));
#970=DIRECTION('',(0.0,0.0,-1.0));
#971=DIRECTION('',(0.707106781186548,-0.707106781186548,0.0));
#972=DIRECTION('',(-1.0,-0.0,-0.0));
#973=DIRECTION('',(1.0,0.0,0.0));
#974=DIRECTION('',(0.0,-0.0,1.0));
#975=DIRECTION('',(-0.707106781186548,-0.707106781186548,-0.0));
#976=DIRECTION('',(0.0,0.0,-1.0));
#977=DIRECTION('',(0.707106781186548,0.707106781186548,0.0));
#978=DIRECTION('',(0.0,-0.0,1.0));
#979=DIRECTION('',(-0.0,-1.0,-0.0));
#980=DIRECTION('',(0.0,0.0,-1.0));
#981=DIRECTION('',(0.0,1.0,0.0));
#982=DIRECTION('',(0.0,0.0,-1.0));
#983=DIRECTION('',(0.0,-1.0,0.0));
#984=DIRECTION('',(0.0,-0.0,1.0));
#985=DIRECTION('',(0.0,1.0,0.0));
#986=DIRECTION('',(1.0,0.0,0.0));
#987=DIRECTION('',(0.0,-0.0,1.0));
#988=DIRECTION('',(-1.0,0.0,0.0));
#989=DIRECTION('',(0.707106781186548,0.707106781186548,0.0));
#990=DIRECTION('',(-0.707106781186548,-0.707106781186548,-0.0));
#991=DIRECTION('',(-0.0,-0.0,1.0));
#992=DIRECTION('',(0.707106781186548,0.707106781186548,0.0));
#993=DIRECTION('',(-0.0,-0.0,-1.0));
#994=DIRECTION('',(-0.707106781186548,-0.707106781186548,0.0));
#995=DIRECTION('',(-0.707106781186548,0.707106781186548,0.0));
#996=DIRECTION('',(0.0,0.0,-1.0));
#997=DIRECTION('',(0.707106781186548,-0.707106781186548,0.0));
#998=DIRECTION('',(1.0,0.0,0.0));
#999=DIRECTION('',(0.0,0.0,1.0));
#1000=DIRECTION('',(-1.0,-0.0,-0.0));
#1001=DIRECTION('',(-0.0,-1.0,-0.0));
#1002=DIRECTION('',(0.0,1.0,0.0));
#1003=DIRECTION('',(-1.0,0.0,-0.0));
#1004=DIRECTION('',(1.0,-0.0,0.0));
#1005=DIRECTION('',(-1.0,0.0,0.0));
#1006=DIRECTION('',(0.0,1.0,0.0));
#1007=DIRECTION('',(-1.0,0.0,0.0));
#1008=DIRECTION('',(1.0,0.0,0.0));
#1009=DIRECTION('',(0.0,-1.0,0.0));
#1010=DIRECTION('',(-0.707106781186548,0.707106781186548,0.0));
#1011=DIRECTION('',(0.0,-1.0,0.0));
#1012=DIRECTION('',(-1.0,0.0,0.0));
#1013=DIRECTION('',(0.0,0.0,-1.0));
#1014=DIRECTION('',(0.0,0.0,1.0));
#1015=DIRECTION('',(0.707106781186548,-0.707106781186548,0.0));
#1016=DIRECTION('',(-1.0,-0.0,-0.0));
#1017=DIRECTION('',(0.0,0.0,-1.0));
#1018=DIRECTION('',(0.0,1.0,0.0));
#1019=DIRECTION('',(1.0,0.0,0.0));
#1020=DIRECTION('',(0.0,0.0,1.0));
#1021=DIRECTION('',(1.0,0.0,0.0));
#1022=DIRECTION('',(0.0,1.0,0.0));
#1023=DIRECTION('',(0.0,-0.0,1.0));
#1024=DIRECTION('',(-0.0,-1.0,-0.0));
#1025=DIRECTION('',(1.0,0.0,0.0));
#1026=DIRECTION('',(-1.0,0.0,0.0));
#1027=DIRECTION('',(1.0,0.0,0.0));
#1028=PRESENTATION_LAYER_ASSIGNMENT('9','\X2\56FE5C42\X0\0',(#25));
ENDSEC;
END-ISO-10303-21;
