ISO-10303-21;
HEADER;
FILE_DESCRIPTION(('STEP AP214'),'1');
FILE_NAME('cell5.stp','2026-06-24T13:31:51',(' '),(' '),'Spatial InterOp 3D',' ',' ');
FILE_SCHEMA(('AUTOMOTIVE_DESIGN { 1 0 10303 214 1 1 1 1 }'));
ENDSEC;
DATA;
#1=MECHANICAL_DESIGN_GEOMETRIC_PRESENTATION_REPRESENTATION(' ',(#10),#6);
#2=PRODUCT_DEFINITION_CONTEXT('',#11,'design');
#3=APPLICATION_PROTOCOL_DEFINITION('INTERNATIONAL STANDARD','automotive_design',1994,#11);
#4=PRODUCT_CATEGORY_RELATIONSHIP('NONE','NONE',#12,#13);
#5=SHAPE_DEFINITION_REPRESENTATION(#14,#15);
#6= (GEOMETRIC_REPRESENTATION_CONTEXT(3)GLOBAL_UNCERTAINTY_ASSIGNED_CONTEXT((#18))GLOBAL_UNIT_ASSIGNED_CONTEXT((#20,#21,#22))REPRESENTATION_CONTEXT('NONE','WORKSPACE'));
#10=STYLED_ITEM('',(#24),#25);
#11=APPLICATION_CONTEXT(' ');
#12=PRODUCT_CATEGORY('part','NONE');
#13=PRODUCT_RELATED_PRODUCT_CATEGORY('detail',' ',(#26));
#14=PRODUCT_DEFINITION_SHAPE('NONE','NONE',#27);
#15=ADVANCED_BREP_SHAPE_REPRESENTATION('\X2\5B9E4F53\X0\',(#25,#28),#6);
#18=UNCERTAINTY_MEASURE_WITH_UNIT(LENGTH_MEASURE(1.0E-08),#20,'','');
#20= (CONVERSION_BASED_UNIT('METRE',#31)LENGTH_UNIT()NAMED_UNIT(#34));
#21= (NAMED_UNIT(#36)PLANE_ANGLE_UNIT()SI_UNIT($,.RADIAN.));
#22= (NAMED_UNIT(#36)SOLID_ANGLE_UNIT()SI_UNIT($,.STERADIAN.));
#24=PRESENTATION_STYLE_ASSIGNMENT((#42));
#25=MANIFOLD_SOLID_BREP('\X2\5B9E4F53\X0\',#43);
#26=PRODUCT('\X2\5B9E4F53\X0\','','PART--DESC',(#44));
#27=PRODUCT_DEFINITION('','NONE',#45,#2);
#28=AXIS2_PLACEMENT_3D('',#46,#47,#48);
#31=LENGTH_MEASURE_WITH_UNIT(LENGTH_MEASURE(1.0),#49);
#34=DIMENSIONAL_EXPONENTS(1.0,0.0,0.0,0.0,0.0,0.0,0.0);
#36=DIMENSIONAL_EXPONENTS(0.0,0.0,0.0,0.0,0.0,0.0,0.0);
#42=SURFACE_STYLE_USAGE(.BOTH.,#50);
#43=CLOSED_SHELL('',(#51,#52,#53,#54,#55,#56,#57,#58,#59,#60,#61,#62,#63,#64,#65,#66,#67,#68,#69,#70,#71,#72,#73,#74,#75,#76,#77,#78,#79,#80,#81,#82,#83,#84,#85,#86,#87,#88,#89,#90,#91,#92));
#44=PRODUCT_CONTEXT('',#11,'mechanical');
#45=PRODUCT_DEFINITION_FORMATION_WITH_SPECIFIED_SOURCE(' ','NONE',#26,.NOT_KNOWN.);
#46=CARTESIAN_POINT('',(0.0,0.0,0.0));
#47=DIRECTION('',(0.0,0.0,1.0));
#48=DIRECTION('',(1.0,0.0,0.0));
#49= (NAMED_UNIT(#34)LENGTH_UNIT()SI_UNIT($,.METRE.));
#50=SURFACE_SIDE_STYLE('',(#94));
#51=ADVANCED_FACE('1:1039',(#95),#96,.T.);
#52=ADVANCED_FACE('1:1036',(#97),#98,.T.);
#53=ADVANCED_FACE('1:749',(#99),#100,.T.);
#54=ADVANCED_FACE('1:353',(#101),#102,.T.);
#55=ADVANCED_FACE('1:350',(#103),#104,.T.);
#56=ADVANCED_FACE('1:41',(#105),#106,.T.);
#57=ADVANCED_FACE('0:3300',(#107),#108,.T.);
#58=ADVANCED_FACE('0:3306',(#109),#110,.T.);
#59=ADVANCED_FACE('0:708',(#111),#112,.T.);
#60=ADVANCED_FACE('0:1788',(#113),#114,.T.);
#61=ADVANCED_FACE('0:3090',(#115),#116,.T.);
#62=ADVANCED_FACE('0:3084',(#117),#118,.T.);
#63=ADVANCED_FACE('0:2436',(#119),#120,.T.);
#64=ADVANCED_FACE('0:924',(#121),#122,.T.);
#65=ADVANCED_FACE('0:2874',(#123),#124,.T.);
#66=ADVANCED_FACE('0:2868',(#125),#126,.T.);
#67=ADVANCED_FACE('0:2220',(#127),#128,.T.);
#68=ADVANCED_FACE('0:2442',(#129),#130,.T.);
#69=ADVANCED_FACE('0:2658',(#131),#132,.T.);
#70=ADVANCED_FACE('1:710',(#133),#134,.T.);
#71=ADVANCED_FACE('0:714',(#135),#136,.T.);
#72=ADVANCED_FACE('0:2004',(#137),#138,.T.);
#73=ADVANCED_FACE('0:2010',(#139),#140,.T.);
#74=ADVANCED_FACE('0:1362',(#141),#142,.T.);
#75=ADVANCED_FACE('1:1063',(#143,#144,#145,#146,#147,#148,#149,#150,#151),#152,.T.);
#76=ADVANCED_FACE('0:1572',(#153),#154,.T.);
#77=ADVANCED_FACE('0:1146',(#155),#156,.T.);
#78=ADVANCED_FACE('1:61',(#157),#158,.T.);
#79=ADVANCED_FACE('0:1578',(#159),#160,.T.);
#80=ADVANCED_FACE('0:498',(#161),#162,.T.);
#81=ADVANCED_FACE('0:60',(#163),#164,.T.);
#82=ADVANCED_FACE('1:1053',(#165),#166,.T.);
#83=ADVANCED_FACE('1:1089',(#167),#168,.T.);
#84=ADVANCED_FACE('0:492',(#169),#170,.T.);
#85=ADVANCED_FACE('0:282',(#171),#172,.T.);
#86=ADVANCED_FACE('1:367',(#173),#174,.T.);
#87=ADVANCED_FACE('1:403',(#175),#176,.T.);
#88=ADVANCED_FACE('1:8',(#177),#178,.T.);
#89=ADVANCED_FACE('1:11',(#179),#180,.T.);
#90=ADVANCED_FACE('1:693',(#181),#182,.T.);
#91=ADVANCED_FACE('1:696',(#183),#184,.T.);
#92=ADVANCED_FACE('1:1079',(#185,#186,#187,#188,#189,#190,#191,#192,#193),#194,.F.);
#94=SURFACE_STYLE_FILL_AREA(#195);
#95=FACE_OUTER_BOUND('',#196,.T.);
#96=PLANE('',#197);
#97=FACE_OUTER_BOUND('',#198,.T.);
#98=PLANE('',#199);
#99=FACE_OUTER_BOUND('',#200,.T.);
#100=PLANE('',#201);
#101=FACE_OUTER_BOUND('',#202,.T.);
#102=PLANE('',#203);
#103=FACE_OUTER_BOUND('',#204,.T.);
#104=PLANE('',#205);
#105=FACE_OUTER_BOUND('',#206,.T.);
#106=PLANE('',#207);
#107=FACE_OUTER_BOUND('',#208,.T.);
#108=PLANE('',#209);
#109=FACE_OUTER_BOUND('',#210,.T.);
#110=PLANE('',#211);
#111=FACE_OUTER_BOUND('',#212,.T.);
#112=PLANE('',#213);
#113=FACE_OUTER_BOUND('',#214,.T.);
#114=PLANE('',#215);
#115=FACE_OUTER_BOUND('',#216,.T.);
#116=PLANE('',#217);
#117=FACE_OUTER_BOUND('',#218,.T.);
#118=PLANE('',#219);
#119=FACE_OUTER_BOUND('',#220,.T.);
#120=PLANE('',#221);
#121=FACE_OUTER_BOUND('',#222,.T.);
#122=PLANE('',#223);
#123=FACE_OUTER_BOUND('',#224,.T.);
#124=PLANE('',#225);
#125=FACE_OUTER_BOUND('',#226,.T.);
#126=PLANE('',#227);
#127=FACE_OUTER_BOUND('',#228,.T.);
#128=PLANE('',#229);
#129=FACE_OUTER_BOUND('',#230,.T.);
#130=PLANE('',#231);
#131=FACE_OUTER_BOUND('',#232,.T.);
#132=PLANE('',#233);
#133=FACE_OUTER_BOUND('',#234,.T.);
#134=PLANE('',#235);
#135=FACE_OUTER_BOUND('',#236,.T.);
#136=PLANE('',#237);
#137=FACE_OUTER_BOUND('',#238,.T.);
#138=PLANE('',#239);
#139=FACE_OUTER_BOUND('',#240,.T.);
#140=PLANE('',#241);
#141=FACE_OUTER_BOUND('',#242,.T.);
#142=PLANE('',#243);
#143=FACE_OUTER_BOUND('',#244,.T.);
#144=FACE_BOUND('',#245,.T.);
#145=FACE_BOUND('',#246,.T.);
#146=FACE_BOUND('',#247,.T.);
#147=FACE_BOUND('',#248,.T.);
#148=FACE_BOUND('',#249,.T.);
#149=FACE_BOUND('',#250,.T.);
#150=FACE_BOUND('',#251,.T.);
#151=FACE_BOUND('',#252,.T.);
#152=PLANE('',#253);
#153=FACE_OUTER_BOUND('',#254,.T.);
#154=PLANE('',#255);
#155=FACE_OUTER_BOUND('',#256,.T.);
#156=PLANE('',#257);
#157=FACE_OUTER_BOUND('',#258,.T.);
#158=PLANE('',#259);
#159=FACE_OUTER_BOUND('',#260,.T.);
#160=PLANE('',#261);
#161=FACE_OUTER_BOUND('',#262,.T.);
#162=PLANE('',#263);
#163=FACE_OUTER_BOUND('',#264,.T.);
#164=PLANE('',#265);
#165=FACE_OUTER_BOUND('',#266,.T.);
#166=PLANE('',#267);
#167=FACE_OUTER_BOUND('',#268,.T.);
#168=PLANE('',#269);
#169=FACE_OUTER_BOUND('',#270,.T.);
#170=PLANE('',#271);
#171=FACE_OUTER_BOUND('',#272,.T.);
#172=PLANE('',#273);
#173=FACE_OUTER_BOUND('',#274,.T.);
#174=PLANE('',#275);
#175=FACE_OUTER_BOUND('',#276,.T.);
#176=PLANE('',#277);
#177=FACE_OUTER_BOUND('',#278,.T.);
#178=PLANE('',#279);
#179=FACE_OUTER_BOUND('',#280,.T.);
#180=PLANE('',#281);
#181=FACE_OUTER_BOUND('',#282,.T.);
#182=PLANE('',#283);
#183=FACE_OUTER_BOUND('',#284,.T.);
#184=PLANE('',#285);
#185=FACE_BOUND('',#286,.T.);
#186=FACE_BOUND('',#287,.T.);
#187=FACE_BOUND('',#288,.T.);
#188=FACE_BOUND('',#289,.T.);
#189=FACE_BOUND('',#290,.T.);
#190=FACE_BOUND('',#291,.T.);
#191=FACE_BOUND('',#292,.T.);
#192=FACE_BOUND('',#293,.T.);
#193=FACE_OUTER_BOUND('',#294,.T.);
#194=PLANE('',#295);
#195=FILL_AREA_STYLE('',(#296));
#196=EDGE_LOOP('',(#297,#298,#299,#300));
#197=AXIS2_PLACEMENT_3D('',#301,#302,#303);
#198=EDGE_LOOP('',(#304,#305,#306,#307));
#199=AXIS2_PLACEMENT_3D('',#308,#309,#310);
#200=EDGE_LOOP('',(#311,#312,#313,#314));
#201=AXIS2_PLACEMENT_3D('',#315,#316,#317);
#202=EDGE_LOOP('',(#318,#319,#320,#321));
#203=AXIS2_PLACEMENT_3D('',#322,#323,#324);
#204=EDGE_LOOP('',(#325,#326,#327,#328));
#205=AXIS2_PLACEMENT_3D('',#329,#330,#331);
#206=EDGE_LOOP('',(#332,#333,#334,#335));
#207=AXIS2_PLACEMENT_3D('',#336,#337,#338);
#208=EDGE_LOOP('',(#339,#340,#341,#342));
#209=AXIS2_PLACEMENT_3D('',#343,#344,#345);
#210=EDGE_LOOP('',(#346,#347,#348,#349));
#211=AXIS2_PLACEMENT_3D('',#350,#351,#352);
#212=EDGE_LOOP('',(#353,#354,#355,#356));
#213=AXIS2_PLACEMENT_3D('',#357,#358,#359);
#214=EDGE_LOOP('',(#360,#361,#362,#363));
#215=AXIS2_PLACEMENT_3D('',#364,#365,#366);
#216=EDGE_LOOP('',(#367,#368,#369,#370));
#217=AXIS2_PLACEMENT_3D('',#371,#372,#373);
#218=EDGE_LOOP('',(#374,#375,#376,#377));
#219=AXIS2_PLACEMENT_3D('',#378,#379,#380);
#220=EDGE_LOOP('',(#381,#382,#383,#384));
#221=AXIS2_PLACEMENT_3D('',#385,#386,#387);
#222=EDGE_LOOP('',(#388,#389,#390,#391));
#223=AXIS2_PLACEMENT_3D('',#392,#393,#394);
#224=EDGE_LOOP('',(#395,#396,#397,#398));
#225=AXIS2_PLACEMENT_3D('',#399,#400,#401);
#226=EDGE_LOOP('',(#402,#403,#404,#405));
#227=AXIS2_PLACEMENT_3D('',#406,#407,#408);
#228=EDGE_LOOP('',(#409,#410,#411,#412));
#229=AXIS2_PLACEMENT_3D('',#413,#414,#415);
#230=EDGE_LOOP('',(#416,#417,#418,#419));
#231=AXIS2_PLACEMENT_3D('',#420,#421,#422);
#232=EDGE_LOOP('',(#423,#424,#425,#426));
#233=AXIS2_PLACEMENT_3D('',#427,#428,#429);
#234=EDGE_LOOP('',(#430,#431,#432,#433));
#235=AXIS2_PLACEMENT_3D('',#434,#435,#436);
#236=EDGE_LOOP('',(#437,#438,#439,#440));
#237=AXIS2_PLACEMENT_3D('',#441,#442,#443);
#238=EDGE_LOOP('',(#444,#445,#446,#447));
#239=AXIS2_PLACEMENT_3D('',#448,#449,#450);
#240=EDGE_LOOP('',(#451,#452,#453,#454));
#241=AXIS2_PLACEMENT_3D('',#455,#456,#457);
#242=EDGE_LOOP('',(#458,#459,#460,#461));
#243=AXIS2_PLACEMENT_3D('',#462,#463,#464);
#244=EDGE_LOOP('',(#465,#466,#467,#468,#469,#470,#471,#472,#473,#474,#475,#476,#477,#478,#479,#480));
#245=EDGE_LOOP('',(#481,#482,#483));
#246=EDGE_LOOP('',(#484,#485,#486));
#247=EDGE_LOOP('',(#487,#488,#489));
#248=EDGE_LOOP('',(#490,#491,#492));
#249=EDGE_LOOP('',(#493,#494,#495));
#250=EDGE_LOOP('',(#496,#497,#498));
#251=EDGE_LOOP('',(#499,#500,#501));
#252=EDGE_LOOP('',(#502,#503,#504));
#253=AXIS2_PLACEMENT_3D('',#505,#506,#507);
#254=EDGE_LOOP('',(#508,#509,#510,#511));
#255=AXIS2_PLACEMENT_3D('',#512,#513,#514);
#256=EDGE_LOOP('',(#515,#516,#517,#518));
#257=AXIS2_PLACEMENT_3D('',#519,#520,#521);
#258=EDGE_LOOP('',(#522,#523,#524,#525));
#259=AXIS2_PLACEMENT_3D('',#526,#527,#528);
#260=EDGE_LOOP('',(#529,#530,#531,#532));
#261=AXIS2_PLACEMENT_3D('',#533,#534,#535);
#262=EDGE_LOOP('',(#536,#537,#538,#539));
#263=AXIS2_PLACEMENT_3D('',#540,#541,#542);
#264=EDGE_LOOP('',(#543,#544,#545,#546));
#265=AXIS2_PLACEMENT_3D('',#547,#548,#549);
#266=EDGE_LOOP('',(#550,#551,#552,#553));
#267=AXIS2_PLACEMENT_3D('',#554,#555,#556);
#268=EDGE_LOOP('',(#557,#558,#559,#560));
#269=AXIS2_PLACEMENT_3D('',#561,#562,#563);
#270=EDGE_LOOP('',(#564,#565,#566,#567));
#271=AXIS2_PLACEMENT_3D('',#568,#569,#570);
#272=EDGE_LOOP('',(#571,#572,#573,#574));
#273=AXIS2_PLACEMENT_3D('',#575,#576,#577);
#274=EDGE_LOOP('',(#578,#579,#580,#581));
#275=AXIS2_PLACEMENT_3D('',#582,#583,#584);
#276=EDGE_LOOP('',(#585,#586,#587,#588));
#277=AXIS2_PLACEMENT_3D('',#589,#590,#591);
#278=EDGE_LOOP('',(#592,#593,#594,#595));
#279=AXIS2_PLACEMENT_3D('',#596,#597,#598);
#280=EDGE_LOOP('',(#599,#600,#601,#602));
#281=AXIS2_PLACEMENT_3D('',#603,#604,#605);
#282=EDGE_LOOP('',(#606,#607,#608,#609));
#283=AXIS2_PLACEMENT_3D('',#610,#611,#612);
#284=EDGE_LOOP('',(#613,#614,#615,#616));
#285=AXIS2_PLACEMENT_3D('',#617,#618,#619);
#286=EDGE_LOOP('',(#620,#621,#622));
#287=EDGE_LOOP('',(#623,#624,#625));
#288=EDGE_LOOP('',(#626,#627,#628));
#289=EDGE_LOOP('',(#629,#630,#631));
#290=EDGE_LOOP('',(#632,#633,#634));
#291=EDGE_LOOP('',(#635,#636,#637));
#292=EDGE_LOOP('',(#638,#639,#640));
#293=EDGE_LOOP('',(#641,#642,#643));
#294=EDGE_LOOP('',(#644,#645,#646,#647,#648,#649,#650,#651,#652,#653,#654,#655,#656,#657,#658,#659));
#295=AXIS2_PLACEMENT_3D('',#660,#661,#662);
#296=FILL_AREA_STYLE_COLOUR('',#663);
#297=ORIENTED_EDGE('',*,*,#664,.F.);
#298=ORIENTED_EDGE('',*,*,#665,.F.);
#299=ORIENTED_EDGE('',*,*,#666,.T.);
#300=ORIENTED_EDGE('',*,*,#667,.F.);
#301=CARTESIAN_POINT('',(0.009896447,0.01,0.0001035535));
#302=DIRECTION('',(-0.0,1.0,0.0));
#303=DIRECTION('',(1.0,0.0,0.0));
#304=ORIENTED_EDGE('',*,*,#668,.F.);
#305=ORIENTED_EDGE('',*,*,#669,.F.);
#306=ORIENTED_EDGE('',*,*,#670,.T.);
#307=ORIENTED_EDGE('',*,*,#671,.F.);
#308=CARTESIAN_POINT('',(0.009896447,0.01,0.0001035535));
#309=DIRECTION('',(-0.0,1.0,0.0));
#310=DIRECTION('',(1.0,0.0,0.0));
#311=ORIENTED_EDGE('',*,*,#672,.T.);
#312=ORIENTED_EDGE('',*,*,#673,.T.);
#313=ORIENTED_EDGE('',*,*,#674,.F.);
#314=ORIENTED_EDGE('',*,*,#675,.T.);
#315=CARTESIAN_POINT('',(0.00838995,0.004981128,0.0));
#316=DIRECTION('',(0.948683279076847,-0.316227822937834,0.0));
#317=DIRECTION('',(-0.316227822937834,-0.948683279076847,0.0));
#318=ORIENTED_EDGE('',*,*,#676,.F.);
#319=ORIENTED_EDGE('',*,*,#677,.F.);
#320=ORIENTED_EDGE('',*,*,#678,.T.);
#321=ORIENTED_EDGE('',*,*,#679,.F.);
#322=CARTESIAN_POINT('',(-0.009896447,-0.01,0.0001035535));
#323=DIRECTION('',(-0.0,-1.0,-0.0));
#324=DIRECTION('',(-1.0,0.0,0.0));
#325=ORIENTED_EDGE('',*,*,#680,.F.);
#326=ORIENTED_EDGE('',*,*,#681,.F.);
#327=ORIENTED_EDGE('',*,*,#682,.T.);
#328=ORIENTED_EDGE('',*,*,#683,.F.);
#329=CARTESIAN_POINT('',(-0.009896447,-0.01,0.0001035535));
#330=DIRECTION('',(-0.0,-1.0,-0.0));
#331=DIRECTION('',(-1.0,0.0,0.0));
#332=ORIENTED_EDGE('',*,*,#684,.T.);
#333=ORIENTED_EDGE('',*,*,#685,.T.);
#334=ORIENTED_EDGE('',*,*,#686,.F.);
#335=ORIENTED_EDGE('',*,*,#687,.T.);
#336=CARTESIAN_POINT('',(-0.00838995,0.004981128,0.0));
#337=DIRECTION('',(-0.948683279076847,-0.316227822937834,-0.0));
#338=DIRECTION('',(-0.316227822937834,0.948683279076847,0.0));
#339=ORIENTED_EDGE('',*,*,#688,.F.);
#340=ORIENTED_EDGE('',*,*,#689,.T.);
#341=ORIENTED_EDGE('',*,*,#690,.F.);
#342=ORIENTED_EDGE('',*,*,#691,.T.);
#343=CARTESIAN_POINT('',(-0.0049578,0.0050422,0.0));
#344=DIRECTION('',(0.707106781186548,0.707106781186548,0.0));
#345=DIRECTION('',(0.707106781186548,-0.707106781186548,0.0));
#346=ORIENTED_EDGE('',*,*,#692,.F.);
#347=ORIENTED_EDGE('',*,*,#693,.T.);
#348=ORIENTED_EDGE('',*,*,#694,.F.);
#349=ORIENTED_EDGE('',*,*,#695,.T.);
#350=CARTESIAN_POINT('',(-0.0050422,0.0049578,0.0));
#351=DIRECTION('',(-0.707106781186548,-0.707106781186548,-0.0));
#352=DIRECTION('',(-0.707106781186548,0.707106781186548,0.0));
#353=ORIENTED_EDGE('',*,*,#688,.T.);
#354=ORIENTED_EDGE('',*,*,#696,.T.);
#355=ORIENTED_EDGE('',*,*,#697,.T.);
#356=ORIENTED_EDGE('',*,*,#698,.T.);
#357=CARTESIAN_POINT('',(-5.9679E-05,0.0033333335,0.0));
#358=DIRECTION('',(-1.0,0.0,0.0));
#359=DIRECTION('',(0.0,1.0,0.0));
#360=ORIENTED_EDGE('',*,*,#694,.T.);
#361=ORIENTED_EDGE('',*,*,#699,.T.);
#362=ORIENTED_EDGE('',*,*,#700,.F.);
#363=ORIENTED_EDGE('',*,*,#701,.T.);
#364=CARTESIAN_POINT('',(-0.0082767165,0.005018872,0.0));
#365=DIRECTION('',(0.948683307537346,0.316227737556339,0.0));
#366=DIRECTION('',(0.316227737556339,-0.948683307537346,0.0));
#367=ORIENTED_EDGE('',*,*,#702,.F.);
#368=ORIENTED_EDGE('',*,*,#703,.T.);
#369=ORIENTED_EDGE('',*,*,#704,.F.);
#370=ORIENTED_EDGE('',*,*,#705,.T.);
#371=CARTESIAN_POINT('',(0.0049578,0.0050422,0.0));
#372=DIRECTION('',(-0.707106781186548,0.707106781186548,0.0));
#373=DIRECTION('',(0.707106781186548,0.707106781186548,0.0));
#374=ORIENTED_EDGE('',*,*,#706,.F.);
#375=ORIENTED_EDGE('',*,*,#707,.T.);
#376=ORIENTED_EDGE('',*,*,#708,.F.);
#377=ORIENTED_EDGE('',*,*,#709,.T.);
#378=CARTESIAN_POINT('',(0.0050422,0.0049578,0.0));
#379=DIRECTION('',(0.707106781186548,-0.707106781186548,0.0));
#380=DIRECTION('',(-0.707106781186548,-0.707106781186548,0.0));
#381=ORIENTED_EDGE('',*,*,#706,.T.);
#382=ORIENTED_EDGE('',*,*,#710,.T.);
#383=ORIENTED_EDGE('',*,*,#711,.T.);
#384=ORIENTED_EDGE('',*,*,#712,.T.);
#385=CARTESIAN_POINT('',(0.0033333335,5.9679E-05,0.0));
#386=DIRECTION('',(-0.0,1.0,0.0));
#387=DIRECTION('',(1.0,0.0,0.0));
#388=ORIENTED_EDGE('',*,*,#704,.T.);
#389=ORIENTED_EDGE('',*,*,#713,.T.);
#390=ORIENTED_EDGE('',*,*,#714,.F.);
#391=ORIENTED_EDGE('',*,*,#715,.T.);
#392=CARTESIAN_POINT('',(0.005018872,0.0082767165,0.0));
#393=DIRECTION('',(0.316227737556339,-0.948683307537346,0.0));
#394=DIRECTION('',(-0.948683307537346,-0.316227737556339,0.0));
#395=ORIENTED_EDGE('',*,*,#716,.F.);
#396=ORIENTED_EDGE('',*,*,#717,.T.);
#397=ORIENTED_EDGE('',*,*,#718,.F.);
#398=ORIENTED_EDGE('',*,*,#719,.T.);
#399=CARTESIAN_POINT('',(0.0049578,-0.0050422,0.0));
#400=DIRECTION('',(-0.707106781186548,-0.707106781186548,-0.0));
#401=DIRECTION('',(-0.707106781186548,0.707106781186548,0.0));
#402=ORIENTED_EDGE('',*,*,#720,.F.);
#403=ORIENTED_EDGE('',*,*,#721,.T.);
#404=ORIENTED_EDGE('',*,*,#722,.F.);
#405=ORIENTED_EDGE('',*,*,#723,.T.);
#406=CARTESIAN_POINT('',(0.0050422,-0.0049578,0.0));
#407=DIRECTION('',(0.707106781186548,0.707106781186548,0.0));
#408=DIRECTION('',(0.707106781186548,-0.707106781186548,0.0));
#409=ORIENTED_EDGE('',*,*,#720,.T.);
#410=ORIENTED_EDGE('',*,*,#724,.T.);
#411=ORIENTED_EDGE('',*,*,#725,.T.);
#412=ORIENTED_EDGE('',*,*,#726,.T.);
#413=CARTESIAN_POINT('',(0.0082767165,-0.005018872,0.0));
#414=DIRECTION('',(-0.948683307537346,-0.316227737556339,-0.0));
#415=DIRECTION('',(-0.316227737556339,0.948683307537346,0.0));
#416=ORIENTED_EDGE('',*,*,#722,.T.);
#417=ORIENTED_EDGE('',*,*,#727,.T.);
#418=ORIENTED_EDGE('',*,*,#725,.F.);
#419=ORIENTED_EDGE('',*,*,#728,.T.);
#420=CARTESIAN_POINT('',(0.0033333335,-5.9679E-05,0.0));
#421=DIRECTION('',(-0.0,-1.0,-0.0));
#422=DIRECTION('',(-1.0,0.0,0.0));
#423=ORIENTED_EDGE('',*,*,#708,.T.);
#424=ORIENTED_EDGE('',*,*,#729,.T.);
#425=ORIENTED_EDGE('',*,*,#711,.F.);
#426=ORIENTED_EDGE('',*,*,#730,.T.);
#427=CARTESIAN_POINT('',(0.0082767165,0.005018872,0.0));
#428=DIRECTION('',(-0.948683307537346,0.316227737556339,0.0));
#429=DIRECTION('',(0.316227737556339,0.948683307537346,0.0));
#430=ORIENTED_EDGE('',*,*,#731,.T.);
#431=ORIENTED_EDGE('',*,*,#732,.T.);
#432=ORIENTED_EDGE('',*,*,#674,.T.);
#433=ORIENTED_EDGE('',*,*,#733,.T.);
#434=CARTESIAN_POINT('',(0.00838995,-0.004981128,0.0));
#435=DIRECTION('',(0.948683279076847,0.316227822937834,0.0));
#436=DIRECTION('',(0.316227822937834,-0.948683279076847,0.0));
#437=ORIENTED_EDGE('',*,*,#702,.T.);
#438=ORIENTED_EDGE('',*,*,#734,.T.);
#439=ORIENTED_EDGE('',*,*,#714,.T.);
#440=ORIENTED_EDGE('',*,*,#735,.T.);
#441=CARTESIAN_POINT('',(5.9679E-05,0.0033333335,0.0));
#442=DIRECTION('',(1.0,0.0,0.0));
#443=DIRECTION('',(0.0,-1.0,0.0));
#444=ORIENTED_EDGE('',*,*,#736,.F.);
#445=ORIENTED_EDGE('',*,*,#737,.T.);
#446=ORIENTED_EDGE('',*,*,#738,.F.);
#447=ORIENTED_EDGE('',*,*,#739,.T.);
#448=CARTESIAN_POINT('',(-0.0049578,-0.0050422,0.0));
#449=DIRECTION('',(0.707106781186548,-0.707106781186548,0.0));
#450=DIRECTION('',(-0.707106781186548,-0.707106781186548,0.0));
#451=ORIENTED_EDGE('',*,*,#740,.F.);
#452=ORIENTED_EDGE('',*,*,#741,.T.);
#453=ORIENTED_EDGE('',*,*,#742,.F.);
#454=ORIENTED_EDGE('',*,*,#743,.T.);
#455=CARTESIAN_POINT('',(-0.0050422,-0.0049578,0.0));
#456=DIRECTION('',(-0.707106781186548,0.707106781186548,0.0));
#457=DIRECTION('',(0.707106781186548,0.707106781186548,0.0));
#458=ORIENTED_EDGE('',*,*,#740,.T.);
#459=ORIENTED_EDGE('',*,*,#744,.T.);
#460=ORIENTED_EDGE('',*,*,#745,.T.);
#461=ORIENTED_EDGE('',*,*,#746,.T.);
#462=CARTESIAN_POINT('',(-0.0082767165,-0.005018872,0.0));
#463=DIRECTION('',(0.948683307537346,-0.316227737556339,0.0));
#464=DIRECTION('',(-0.316227737556339,-0.948683307537346,0.0));
#465=ORIENTED_EDGE('',*,*,#667,.T.);
#466=ORIENTED_EDGE('',*,*,#747,.T.);
#467=ORIENTED_EDGE('',*,*,#675,.F.);
#468=ORIENTED_EDGE('',*,*,#732,.F.);
#469=ORIENTED_EDGE('',*,*,#748,.T.);
#470=ORIENTED_EDGE('',*,*,#681,.T.);
#471=ORIENTED_EDGE('',*,*,#749,.F.);
#472=ORIENTED_EDGE('',*,*,#750,.F.);
#473=ORIENTED_EDGE('',*,*,#679,.T.);
#474=ORIENTED_EDGE('',*,*,#751,.T.);
#475=ORIENTED_EDGE('',*,*,#752,.F.);
#476=ORIENTED_EDGE('',*,*,#685,.F.);
#477=ORIENTED_EDGE('',*,*,#753,.T.);
#478=ORIENTED_EDGE('',*,*,#669,.T.);
#479=ORIENTED_EDGE('',*,*,#754,.F.);
#480=ORIENTED_EDGE('',*,*,#755,.F.);
#481=ORIENTED_EDGE('',*,*,#756,.F.);
#482=ORIENTED_EDGE('',*,*,#757,.F.);
#483=ORIENTED_EDGE('',*,*,#719,.F.);
#484=ORIENTED_EDGE('',*,*,#758,.F.);
#485=ORIENTED_EDGE('',*,*,#759,.F.);
#486=ORIENTED_EDGE('',*,*,#737,.F.);
#487=ORIENTED_EDGE('',*,*,#760,.F.);
#488=ORIENTED_EDGE('',*,*,#744,.F.);
#489=ORIENTED_EDGE('',*,*,#743,.F.);
#490=ORIENTED_EDGE('',*,*,#726,.F.);
#491=ORIENTED_EDGE('',*,*,#727,.F.);
#492=ORIENTED_EDGE('',*,*,#721,.F.);
#493=ORIENTED_EDGE('',*,*,#712,.F.);
#494=ORIENTED_EDGE('',*,*,#729,.F.);
#495=ORIENTED_EDGE('',*,*,#707,.F.);
#496=ORIENTED_EDGE('',*,*,#698,.F.);
#497=ORIENTED_EDGE('',*,*,#761,.F.);
#498=ORIENTED_EDGE('',*,*,#689,.F.);
#499=ORIENTED_EDGE('',*,*,#701,.F.);
#500=ORIENTED_EDGE('',*,*,#762,.F.);
#501=ORIENTED_EDGE('',*,*,#695,.F.);
#502=ORIENTED_EDGE('',*,*,#715,.F.);
#503=ORIENTED_EDGE('',*,*,#734,.F.);
#504=ORIENTED_EDGE('',*,*,#705,.F.);
#505=CARTESIAN_POINT('',(-0.00661005,-1.8872E-05,-5.9679E-05));
#506=DIRECTION('',(0.0,0.0,-1.0));
#507=DIRECTION('',(-1.0,0.0,0.0));
#508=ORIENTED_EDGE('',*,*,#742,.T.);
#509=ORIENTED_EDGE('',*,*,#763,.T.);
#510=ORIENTED_EDGE('',*,*,#745,.F.);
#511=ORIENTED_EDGE('',*,*,#760,.T.);
#512=CARTESIAN_POINT('',(-0.0033333335,-5.9679E-05,0.0));
#513=DIRECTION('',(-0.0,-1.0,-0.0));
#514=DIRECTION('',(-1.0,0.0,0.0));
#515=ORIENTED_EDGE('',*,*,#690,.T.);
#516=ORIENTED_EDGE('',*,*,#761,.T.);
#517=ORIENTED_EDGE('',*,*,#697,.F.);
#518=ORIENTED_EDGE('',*,*,#764,.T.);
#519=CARTESIAN_POINT('',(-0.005018872,0.0082767165,0.0));
#520=DIRECTION('',(-0.316227737556339,-0.948683307537346,-0.0));
#521=DIRECTION('',(-0.948683307537346,0.316227737556339,0.0));
#522=ORIENTED_EDGE('',*,*,#765,.T.);
#523=ORIENTED_EDGE('',*,*,#766,.T.);
#524=ORIENTED_EDGE('',*,*,#686,.T.);
#525=ORIENTED_EDGE('',*,*,#752,.T.);
#526=CARTESIAN_POINT('',(-0.00838995,-0.004981128,0.0));
#527=DIRECTION('',(-0.948683279076847,0.316227822937834,0.0));
#528=DIRECTION('',(0.316227822937834,0.948683279076847,0.0));
#529=ORIENTED_EDGE('',*,*,#692,.T.);
#530=ORIENTED_EDGE('',*,*,#762,.T.);
#531=ORIENTED_EDGE('',*,*,#700,.T.);
#532=ORIENTED_EDGE('',*,*,#767,.T.);
#533=CARTESIAN_POINT('',(-0.0033333335,5.9679E-05,0.0));
#534=DIRECTION('',(-0.0,1.0,0.0));
#535=DIRECTION('',(1.0,0.0,0.0));
#536=ORIENTED_EDGE('',*,*,#738,.T.);
#537=ORIENTED_EDGE('',*,*,#759,.T.);
#538=ORIENTED_EDGE('',*,*,#768,.F.);
#539=ORIENTED_EDGE('',*,*,#769,.T.);
#540=CARTESIAN_POINT('',(-5.9679E-05,-0.0033333335,0.0));
#541=DIRECTION('',(-1.0,0.0,0.0));
#542=DIRECTION('',(0.0,1.0,0.0));
#543=ORIENTED_EDGE('',*,*,#736,.T.);
#544=ORIENTED_EDGE('',*,*,#770,.T.);
#545=ORIENTED_EDGE('',*,*,#768,.T.);
#546=ORIENTED_EDGE('',*,*,#758,.T.);
#547=CARTESIAN_POINT('',(-0.005018872,-0.0082767165,0.0));
#548=DIRECTION('',(-0.316227737556339,0.948683307537346,0.0));
#549=DIRECTION('',(0.948683307537346,0.316227737556339,0.0));
#550=ORIENTED_EDGE('',*,*,#668,.T.);
#551=ORIENTED_EDGE('',*,*,#771,.T.);
#552=ORIENTED_EDGE('',*,*,#772,.F.);
#553=ORIENTED_EDGE('',*,*,#754,.T.);
#554=CARTESIAN_POINT('',(-0.004981128,0.00838995,0.0));
#555=DIRECTION('',(0.316227822937834,0.948683279076847,0.0));
#556=DIRECTION('',(0.948683279076847,-0.316227822937834,0.0));
#557=ORIENTED_EDGE('',*,*,#664,.T.);
#558=ORIENTED_EDGE('',*,*,#755,.T.);
#559=ORIENTED_EDGE('',*,*,#772,.T.);
#560=ORIENTED_EDGE('',*,*,#773,.T.);
#561=CARTESIAN_POINT('',(0.004981128,0.00838995,0.0));
#562=DIRECTION('',(-0.316227822937834,0.948683279076847,0.0));
#563=DIRECTION('',(0.948683279076847,0.316227822937834,0.0));
#564=ORIENTED_EDGE('',*,*,#718,.T.);
#565=ORIENTED_EDGE('',*,*,#774,.T.);
#566=ORIENTED_EDGE('',*,*,#775,.F.);
#567=ORIENTED_EDGE('',*,*,#756,.T.);
#568=CARTESIAN_POINT('',(5.9679E-05,-0.0033333335,0.0));
#569=DIRECTION('',(1.0,0.0,0.0));
#570=DIRECTION('',(0.0,-1.0,0.0));
#571=ORIENTED_EDGE('',*,*,#716,.T.);
#572=ORIENTED_EDGE('',*,*,#757,.T.);
#573=ORIENTED_EDGE('',*,*,#775,.T.);
#574=ORIENTED_EDGE('',*,*,#776,.T.);
#575=CARTESIAN_POINT('',(0.005018872,-0.0082767165,0.0));
#576=DIRECTION('',(0.316227737556339,0.948683307537346,0.0));
#577=DIRECTION('',(0.948683307537346,-0.316227737556339,0.0));
#578=ORIENTED_EDGE('',*,*,#680,.T.);
#579=ORIENTED_EDGE('',*,*,#777,.T.);
#580=ORIENTED_EDGE('',*,*,#778,.F.);
#581=ORIENTED_EDGE('',*,*,#749,.T.);
#582=CARTESIAN_POINT('',(0.004981128,-0.00838995,0.0));
#583=DIRECTION('',(-0.316227822937834,-0.948683279076847,-0.0));
#584=DIRECTION('',(-0.948683279076847,0.316227822937834,0.0));
#585=ORIENTED_EDGE('',*,*,#676,.T.);
#586=ORIENTED_EDGE('',*,*,#750,.T.);
#587=ORIENTED_EDGE('',*,*,#778,.T.);
#588=ORIENTED_EDGE('',*,*,#779,.T.);
#589=CARTESIAN_POINT('',(-0.004981128,-0.00838995,0.0));
#590=DIRECTION('',(0.316227822937834,-0.948683279076847,0.0));
#591=DIRECTION('',(-0.948683279076847,-0.316227822937834,0.0));
#592=ORIENTED_EDGE('',*,*,#753,.F.);
#593=ORIENTED_EDGE('',*,*,#684,.F.);
#594=ORIENTED_EDGE('',*,*,#780,.F.);
#595=ORIENTED_EDGE('',*,*,#670,.F.);
#596=CARTESIAN_POINT('',(-0.01,-0.010103553,0.0001035535));
#597=DIRECTION('',(-1.0,0.0,0.0));
#598=DIRECTION('',(0.0,1.0,0.0));
#599=ORIENTED_EDGE('',*,*,#751,.F.);
#600=ORIENTED_EDGE('',*,*,#678,.F.);
#601=ORIENTED_EDGE('',*,*,#781,.F.);
#602=ORIENTED_EDGE('',*,*,#765,.F.);
#603=CARTESIAN_POINT('',(-0.01,-0.010103553,0.0001035535));
#604=DIRECTION('',(-1.0,0.0,0.0));
#605=DIRECTION('',(0.0,1.0,0.0));
#606=ORIENTED_EDGE('',*,*,#731,.F.);
#607=ORIENTED_EDGE('',*,*,#782,.F.);
#608=ORIENTED_EDGE('',*,*,#682,.F.);
#609=ORIENTED_EDGE('',*,*,#748,.F.);
#610=CARTESIAN_POINT('',(0.01,0.010103553,0.0001035535));
#611=DIRECTION('',(1.0,0.0,0.0));
#612=DIRECTION('',(0.0,-1.0,0.0));
#613=ORIENTED_EDGE('',*,*,#666,.F.);
#614=ORIENTED_EDGE('',*,*,#783,.F.);
#615=ORIENTED_EDGE('',*,*,#672,.F.);
#616=ORIENTED_EDGE('',*,*,#747,.F.);
#617=CARTESIAN_POINT('',(0.01,0.010103553,0.0001035535));
#618=DIRECTION('',(1.0,0.0,0.0));
#619=DIRECTION('',(0.0,-1.0,0.0));
#620=ORIENTED_EDGE('',*,*,#769,.F.);
#621=ORIENTED_EDGE('',*,*,#770,.F.);
#622=ORIENTED_EDGE('',*,*,#739,.F.);
#623=ORIENTED_EDGE('',*,*,#776,.F.);
#624=ORIENTED_EDGE('',*,*,#774,.F.);
#625=ORIENTED_EDGE('',*,*,#717,.F.);
#626=ORIENTED_EDGE('',*,*,#746,.F.);
#627=ORIENTED_EDGE('',*,*,#763,.F.);
#628=ORIENTED_EDGE('',*,*,#741,.F.);
#629=ORIENTED_EDGE('',*,*,#767,.F.);
#630=ORIENTED_EDGE('',*,*,#699,.F.);
#631=ORIENTED_EDGE('',*,*,#693,.F.);
#632=ORIENTED_EDGE('',*,*,#728,.F.);
#633=ORIENTED_EDGE('',*,*,#724,.F.);
#634=ORIENTED_EDGE('',*,*,#723,.F.);
#635=ORIENTED_EDGE('',*,*,#735,.F.);
#636=ORIENTED_EDGE('',*,*,#713,.F.);
#637=ORIENTED_EDGE('',*,*,#703,.F.);
#638=ORIENTED_EDGE('',*,*,#730,.F.);
#639=ORIENTED_EDGE('',*,*,#710,.F.);
#640=ORIENTED_EDGE('',*,*,#709,.F.);
#641=ORIENTED_EDGE('',*,*,#764,.F.);
#642=ORIENTED_EDGE('',*,*,#696,.F.);
#643=ORIENTED_EDGE('',*,*,#691,.F.);
#644=ORIENTED_EDGE('',*,*,#665,.T.);
#645=ORIENTED_EDGE('',*,*,#773,.F.);
#646=ORIENTED_EDGE('',*,*,#771,.F.);
#647=ORIENTED_EDGE('',*,*,#671,.T.);
#648=ORIENTED_EDGE('',*,*,#780,.T.);
#649=ORIENTED_EDGE('',*,*,#687,.F.);
#650=ORIENTED_EDGE('',*,*,#766,.F.);
#651=ORIENTED_EDGE('',*,*,#781,.T.);
#652=ORIENTED_EDGE('',*,*,#677,.T.);
#653=ORIENTED_EDGE('',*,*,#779,.F.);
#654=ORIENTED_EDGE('',*,*,#777,.F.);
#655=ORIENTED_EDGE('',*,*,#683,.T.);
#656=ORIENTED_EDGE('',*,*,#782,.T.);
#657=ORIENTED_EDGE('',*,*,#733,.F.);
#658=ORIENTED_EDGE('',*,*,#673,.F.);
#659=ORIENTED_EDGE('',*,*,#783,.T.);
#660=CARTESIAN_POINT('',(1.8872E-05,-0.006723283,5.9679E-05));
#661=DIRECTION('',(0.0,0.0,-1.0));
#662=DIRECTION('',(-1.0,0.0,0.0));
#663=COLOUR_RGB('',0.560784339904785,0.686274528503418,0.560784339904785);
#664=EDGE_CURVE('1:1137',#784,#785,#786,.T.);
#665=EDGE_CURVE('1:1140',#787,#784,#788,.T.);
#666=EDGE_CURVE('1:1149',#787,#789,#790,.T.);
#667=EDGE_CURVE('1:1143',#785,#789,#791,.T.);
#668=EDGE_CURVE('1:1128',#792,#793,#794,.T.);
#669=EDGE_CURVE('1:1131',#795,#792,#796,.T.);
#670=EDGE_CURVE('1:1146',#795,#797,#798,.T.);
#671=EDGE_CURVE('1:1134',#793,#797,#799,.T.);
#672=EDGE_CURVE('1:800',#800,#801,#802,.T.);
#673=EDGE_CURVE('1:833',#801,#803,#804,.T.);
#674=EDGE_CURVE('0:4553',#805,#803,#806,.T.);
#675=EDGE_CURVE('1:840',#805,#800,#807,.T.);
#676=EDGE_CURVE('1:451',#808,#809,#810,.T.);
#677=EDGE_CURVE('1:454',#811,#808,#812,.T.);
#678=EDGE_CURVE('1:463',#811,#813,#814,.T.);
#679=EDGE_CURVE('1:457',#809,#813,#815,.T.);
#680=EDGE_CURVE('1:442',#816,#817,#818,.T.);
#681=EDGE_CURVE('1:445',#819,#816,#820,.T.);
#682=EDGE_CURVE('1:803',#819,#821,#822,.T.);
#683=EDGE_CURVE('1:448',#817,#821,#823,.T.);
#684=EDGE_CURVE('1:103',#824,#825,#826,.T.);
#685=EDGE_CURVE('1:128',#825,#827,#828,.T.);
#686=EDGE_CURVE('0:4466',#829,#827,#830,.T.);
#687=EDGE_CURVE('1:135',#829,#824,#831,.T.);
#688=EDGE_CURVE('0:4670',#832,#833,#834,.T.);
#689=EDGE_CURVE('0:3318',#832,#835,#836,.T.);
#690=EDGE_CURVE('0:4703',#837,#835,#838,.T.);
#691=EDGE_CURVE('0:3435',#837,#833,#839,.T.);
#692=EDGE_CURVE('0:4691',#840,#841,#842,.T.);
#693=EDGE_CURVE('0:3414',#840,#843,#844,.T.);
#694=EDGE_CURVE('0:4676',#845,#843,#846,.T.);
#695=EDGE_CURVE('0:3339',#845,#841,#847,.T.);
#696=EDGE_CURVE('0:843',#833,#848,#849,.T.);
#697=EDGE_CURVE('0:4406',#848,#850,#851,.T.);
#698=EDGE_CURVE('0:726',#850,#832,#852,.T.);
#699=EDGE_CURVE('0:1923',#843,#853,#854,.T.);
#700=EDGE_CURVE('0:4457',#855,#853,#856,.T.);
#701=EDGE_CURVE('0:1806',#855,#845,#857,.T.);
#702=EDGE_CURVE('0:4640',#858,#859,#860,.T.);
#703=EDGE_CURVE('0:3198',#858,#861,#862,.T.);
#704=EDGE_CURVE('0:4637',#863,#861,#864,.T.);
#705=EDGE_CURVE('0:3123',#863,#859,#865,.T.);
#706=EDGE_CURVE('0:4625',#866,#867,#868,.T.);
#707=EDGE_CURVE('0:3102',#866,#869,#870,.T.);
#708=EDGE_CURVE('0:4652',#871,#869,#872,.T.);
#709=EDGE_CURVE('0:3219',#871,#867,#873,.T.);
#710=EDGE_CURVE('0:2571',#867,#874,#875,.T.);
#711=EDGE_CURVE('0:4559',#874,#876,#877,.T.);
#712=EDGE_CURVE('0:2454',#876,#866,#878,.T.);
#713=EDGE_CURVE('0:1059',#861,#879,#880,.T.);
#714=EDGE_CURVE('0:4391',#881,#879,#882,.T.);
#715=EDGE_CURVE('0:942',#881,#863,#883,.T.);
#716=EDGE_CURVE('0:4598',#884,#885,#886,.T.);
#717=EDGE_CURVE('0:2982',#884,#887,#888,.T.);
#718=EDGE_CURVE('0:4592',#889,#887,#890,.T.);
#719=EDGE_CURVE('0:2907',#889,#885,#891,.T.);
#720=EDGE_CURVE('0:4580',#892,#893,#894,.T.);
#721=EDGE_CURVE('0:2886',#892,#895,#896,.T.);
#722=EDGE_CURVE('0:4577',#897,#895,#898,.T.);
#723=EDGE_CURVE('0:3003',#897,#893,#899,.T.);
#724=EDGE_CURVE('0:2355',#893,#900,#901,.T.);
#725=EDGE_CURVE('0:4526',#900,#902,#903,.T.);
#726=EDGE_CURVE('0:2238',#902,#892,#904,.T.);
#727=EDGE_CURVE('0:2475',#895,#902,#905,.T.);
#728=EDGE_CURVE('0:2550',#900,#897,#906,.T.);
#729=EDGE_CURVE('0:2691',#869,#876,#907,.T.);
#730=EDGE_CURVE('0:2766',#874,#871,#908,.T.);
#731=EDGE_CURVE('1:785',#909,#910,#911,.T.);
#732=EDGE_CURVE('1:823',#910,#805,#912,.T.);
#733=EDGE_CURVE('1:810',#803,#909,#913,.T.);
#734=EDGE_CURVE('0:747',#859,#881,#914,.T.);
#735=EDGE_CURVE('0:822',#879,#858,#915,.T.);
#736=EDGE_CURVE('0:4484',#916,#917,#918,.T.);
#737=EDGE_CURVE('0:2022',#916,#919,#920,.T.);
#738=EDGE_CURVE('0:4481',#921,#919,#922,.T.);
#739=EDGE_CURVE('0:2139',#921,#917,#923,.T.);
#740=EDGE_CURVE('0:4493',#924,#925,#926,.T.);
#741=EDGE_CURVE('0:2118',#924,#927,#928,.T.);
#742=EDGE_CURVE('0:4487',#929,#927,#930,.T.);
#743=EDGE_CURVE('0:2043',#929,#925,#931,.T.);
#744=EDGE_CURVE('0:1395',#925,#932,#933,.T.);
#745=EDGE_CURVE('0:4427',#932,#934,#935,.T.);
#746=EDGE_CURVE('0:1470',#934,#924,#936,.T.);
#747=EDGE_CURVE('1:797',#789,#800,#937,.T.);
#748=EDGE_CURVE('1:791',#910,#819,#938,.T.);
#749=EDGE_CURVE('1:467',#939,#816,#940,.T.);
#750=EDGE_CURVE('1:500',#809,#939,#941,.T.);
#751=EDGE_CURVE('1:109',#813,#942,#943,.T.);
#752=EDGE_CURVE('1:145',#827,#942,#944,.T.);
#753=EDGE_CURVE('1:100',#825,#795,#945,.T.);
#754=EDGE_CURVE('1:1153',#946,#792,#947,.T.);
#755=EDGE_CURVE('1:1186',#785,#946,#948,.T.);
#756=EDGE_CURVE('0:510',#949,#889,#950,.T.);
#757=EDGE_CURVE('0:315',#885,#949,#951,.T.);
#758=EDGE_CURVE('0:78',#952,#916,#953,.T.);
#759=EDGE_CURVE('0:531',#919,#952,#954,.T.);
#760=EDGE_CURVE('0:1590',#932,#929,#955,.T.);
#761=EDGE_CURVE('0:1179',#835,#850,#956,.T.);
#762=EDGE_CURVE('0:1611',#841,#855,#957,.T.);
#763=EDGE_CURVE('0:1707',#927,#934,#958,.T.);
#764=EDGE_CURVE('0:1254',#848,#837,#959,.T.);
#765=EDGE_CURVE('1:112',#942,#960,#961,.T.);
#766=EDGE_CURVE('1:158',#960,#829,#962,.T.);
#767=EDGE_CURVE('0:1686',#853,#840,#963,.T.);
#768=EDGE_CURVE('0:4382',#964,#952,#965,.T.);
#769=EDGE_CURVE('0:606',#964,#921,#966,.T.);
#770=EDGE_CURVE('0:195',#917,#964,#967,.T.);
#771=EDGE_CURVE('1:1166',#793,#968,#969,.T.);
#772=EDGE_CURVE('0:4403',#946,#968,#970,.T.);
#773=EDGE_CURVE('1:1173',#968,#784,#971,.T.);
#774=EDGE_CURVE('0:627',#887,#972,#973,.T.);
#775=EDGE_CURVE('0:4379',#949,#972,#974,.T.);
#776=EDGE_CURVE('0:390',#972,#884,#975,.T.);
#777=EDGE_CURVE('1:480',#817,#976,#977,.T.);
#778=EDGE_CURVE('0:4367',#939,#976,#978,.T.);
#779=EDGE_CURVE('1:487',#976,#808,#979,.T.);
#780=EDGE_CURVE('1:106',#797,#824,#980,.T.);
#781=EDGE_CURVE('1:115',#960,#811,#981,.T.);
#782=EDGE_CURVE('1:788',#821,#909,#982,.T.);
#783=EDGE_CURVE('1:794',#801,#787,#983,.T.);
#784=VERTEX_POINT('',#984);
#785=VERTEX_POINT('',#985);
#786=LINE('',#986,#987);
#787=VERTEX_POINT('',#988);
#788=LINE('',#989,#990);
#789=VERTEX_POINT('',#991);
#790=LINE('',#992,#993);
#791=LINE('',#994,#995);
#792=VERTEX_POINT('',#996);
#793=VERTEX_POINT('',#997);
#794=LINE('',#998,#999);
#795=VERTEX_POINT('',#1000);
#796=LINE('',#1001,#1002);
#797=VERTEX_POINT('',#1003);
#798=LINE('',#1004,#1005);
#799=LINE('',#1006,#1007);
#800=VERTEX_POINT('',#1008);
#801=VERTEX_POINT('',#1009);
#802=LINE('',#1010,#1011);
#803=VERTEX_POINT('',#1012);
#804=LINE('',#1013,#1014);
#805=VERTEX_POINT('',#1015);
#806=LINE('',#1016,#1017);
#807=LINE('',#1018,#1019);
#808=VERTEX_POINT('',#1020);
#809=VERTEX_POINT('',#1021);
#810=LINE('',#1022,#1023);
#811=VERTEX_POINT('',#1024);
#812=LINE('',#1025,#1026);
#813=VERTEX_POINT('',#1027);
#814=LINE('',#1028,#1029);
#815=LINE('',#1030,#1031);
#816=VERTEX_POINT('',#1032);
#817=VERTEX_POINT('',#1033);
#818=LINE('',#1034,#1035);
#819=VERTEX_POINT('',#1036);
#820=LINE('',#1037,#1038);
#821=VERTEX_POINT('',#1039);
#822=LINE('',#1040,#1041);
#823=LINE('',#1042,#1043);
#824=VERTEX_POINT('',#1044);
#825=VERTEX_POINT('',#1045);
#826=LINE('',#1046,#1047);
#827=VERTEX_POINT('',#1048);
#828=LINE('',#1049,#1050);
#829=VERTEX_POINT('',#1051);
#830=LINE('',#1052,#1053);
#831=LINE('',#1054,#1055);
#832=VERTEX_POINT('',#1056);
#833=VERTEX_POINT('',#1057);
#834=LINE('',#1058,#1059);
#835=VERTEX_POINT('',#1060);
#836=LINE('',#1061,#1062);
#837=VERTEX_POINT('',#1063);
#838=LINE('',#1064,#1065);
#839=LINE('',#1066,#1067);
#840=VERTEX_POINT('',#1068);
#841=VERTEX_POINT('',#1069);
#842=LINE('',#1070,#1071);
#843=VERTEX_POINT('',#1072);
#844=LINE('',#1073,#1074);
#845=VERTEX_POINT('',#1075);
#846=LINE('',#1076,#1077);
#847=LINE('',#1078,#1079);
#848=VERTEX_POINT('',#1080);
#849=LINE('',#1081,#1082);
#850=VERTEX_POINT('',#1083);
#851=LINE('',#1084,#1085);
#852=LINE('',#1086,#1087);
#853=VERTEX_POINT('',#1088);
#854=LINE('',#1089,#1090);
#855=VERTEX_POINT('',#1091);
#856=LINE('',#1092,#1093);
#857=LINE('',#1094,#1095);
#858=VERTEX_POINT('',#1096);
#859=VERTEX_POINT('',#1097);
#860=LINE('',#1098,#1099);
#861=VERTEX_POINT('',#1100);
#862=LINE('',#1101,#1102);
#863=VERTEX_POINT('',#1103);
#864=LINE('',#1104,#1105);
#865=LINE('',#1106,#1107);
#866=VERTEX_POINT('',#1108);
#867=VERTEX_POINT('',#1109);
#868=LINE('',#1110,#1111);
#869=VERTEX_POINT('',#1112);
#870=LINE('',#1113,#1114);
#871=VERTEX_POINT('',#1115);
#872=LINE('',#1116,#1117);
#873=LINE('',#1118,#1119);
#874=VERTEX_POINT('',#1120);
#875=LINE('',#1121,#1122);
#876=VERTEX_POINT('',#1123);
#877=LINE('',#1124,#1125);
#878=LINE('',#1126,#1127);
#879=VERTEX_POINT('',#1128);
#880=LINE('',#1129,#1130);
#881=VERTEX_POINT('',#1131);
#882=LINE('',#1132,#1133);
#883=LINE('',#1134,#1135);
#884=VERTEX_POINT('',#1136);
#885=VERTEX_POINT('',#1137);
#886=LINE('',#1138,#1139);
#887=VERTEX_POINT('',#1140);
#888=LINE('',#1141,#1142);
#889=VERTEX_POINT('',#1143);
#890=LINE('',#1144,#1145);
#891=LINE('',#1146,#1147);
#892=VERTEX_POINT('',#1148);
#893=VERTEX_POINT('',#1149);
#894=LINE('',#1150,#1151);
#895=VERTEX_POINT('',#1152);
#896=LINE('',#1153,#1154);
#897=VERTEX_POINT('',#1155);
#898=LINE('',#1156,#1157);
#899=LINE('',#1158,#1159);
#900=VERTEX_POINT('',#1160);
#901=LINE('',#1161,#1162);
#902=VERTEX_POINT('',#1163);
#903=LINE('',#1164,#1165);
#904=LINE('',#1166,#1167);
#905=LINE('',#1168,#1169);
#906=LINE('',#1170,#1171);
#907=LINE('',#1172,#1173);
#908=LINE('',#1174,#1175);
#909=VERTEX_POINT('',#1176);
#910=VERTEX_POINT('',#1177);
#911=LINE('',#1178,#1179);
#912=LINE('',#1180,#1181);
#913=LINE('',#1182,#1183);
#914=LINE('',#1184,#1185);
#915=LINE('',#1186,#1187);
#916=VERTEX_POINT('',#1188);
#917=VERTEX_POINT('',#1189);
#918=LINE('',#1190,#1191);
#919=VERTEX_POINT('',#1192);
#920=LINE('',#1193,#1194);
#921=VERTEX_POINT('',#1195);
#922=LINE('',#1196,#1197);
#923=LINE('',#1198,#1199);
#924=VERTEX_POINT('',#1200);
#925=VERTEX_POINT('',#1201);
#926=LINE('',#1202,#1203);
#927=VERTEX_POINT('',#1204);
#928=LINE('',#1205,#1206);
#929=VERTEX_POINT('',#1207);
#930=LINE('',#1208,#1209);
#931=LINE('',#1210,#1211);
#932=VERTEX_POINT('',#1212);
#933=LINE('',#1213,#1214);
#934=VERTEX_POINT('',#1215);
#935=LINE('',#1216,#1217);
#936=LINE('',#1218,#1219);
#937=LINE('',#1220,#1221);
#938=LINE('',#1222,#1223);
#939=VERTEX_POINT('',#1224);
#940=LINE('',#1225,#1226);
#941=LINE('',#1227,#1228);
#942=VERTEX_POINT('',#1229);
#943=LINE('',#1230,#1231);
#944=LINE('',#1232,#1233);
#945=LINE('',#1234,#1235);
#946=VERTEX_POINT('',#1236);
#947=LINE('',#1237,#1238);
#948=LINE('',#1239,#1240);
#949=VERTEX_POINT('',#1241);
#950=LINE('',#1242,#1243);
#951=LINE('',#1244,#1245);
#952=VERTEX_POINT('',#1246);
#953=LINE('',#1247,#1248);
#954=LINE('',#1249,#1250);
#955=LINE('',#1251,#1252);
#956=LINE('',#1253,#1254);
#957=LINE('',#1255,#1256);
#958=LINE('',#1257,#1258);
#959=LINE('',#1259,#1260);
#960=VERTEX_POINT('',#1261);
#961=LINE('',#1262,#1263);
#962=LINE('',#1264,#1265);
#963=LINE('',#1266,#1267);
#964=VERTEX_POINT('',#1268);
#965=LINE('',#1269,#1270);
#966=LINE('',#1271,#1272);
#967=LINE('',#1273,#1274);
#968=VERTEX_POINT('',#1275);
#969=LINE('',#1276,#1277);
#970=LINE('',#1278,#1279);
#971=LINE('',#1280,#1281);
#972=VERTEX_POINT('',#1282);
#973=LINE('',#1283,#1284);
#974=LINE('',#1285,#1286);
#975=LINE('',#1287,#1288);
#976=VERTEX_POINT('',#1289);
#977=LINE('',#1290,#1291);
#978=LINE('',#1292,#1293);
#979=LINE('',#1294,#1295);
#980=LINE('',#1296,#1297);
#981=LINE('',#1298,#1299);
#982=LINE('',#1300,#1301);
#983=LINE('',#1302,#1303);
#984=CARTESIAN_POINT('',(0.0098112770339702,0.01,5.9679E-05));
#985=CARTESIAN_POINT('',(0.0098112770339702,0.01,-5.9679E-05));
#986=CARTESIAN_POINT('',(0.0098112770339702,0.01,5.177675E-05));
#987=VECTOR('',#1304,1.0);
#988=CARTESIAN_POINT('',(0.01,0.01,5.9679E-05));
#989=CARTESIAN_POINT('',(0.0049576595,0.01,5.9679E-05));
#990=VECTOR('',#1305,1.0);
#991=CARTESIAN_POINT('',(0.01,0.01,-5.9679E-05));
#992=CARTESIAN_POINT('',(0.01,0.01,0.0));
#993=VECTOR('',#1306,1.0);
#994=CARTESIAN_POINT('',(0.0016431985,0.01,-5.9679E-05));
#995=VECTOR('',#1307,1.0);
#996=CARTESIAN_POINT('',(-0.0098112770339702,0.01,-5.9679E-05));
#997=CARTESIAN_POINT('',(-0.0098112770339702,0.01,5.9679E-05));
#998=CARTESIAN_POINT('',(-0.0098112770339702,0.01,5.177675E-05));
#999=VECTOR('',#1308,1.0);
#1000=CARTESIAN_POINT('',(-0.01,0.01,-5.9679E-05));
#1001=CARTESIAN_POINT('',(0.0016431985,0.01,-5.9679E-05));
#1002=VECTOR('',#1309,1.0);
#1003=CARTESIAN_POINT('',(-0.01,0.01,5.9679E-05));
#1004=CARTESIAN_POINT('',(-0.01,0.01,0.0));
#1005=VECTOR('',#1310,1.0);
#1006=CARTESIAN_POINT('',(0.0049576595,0.01,5.9679E-05));
#1007=VECTOR('',#1311,1.0);
#1008=CARTESIAN_POINT('',(0.01,0.0098112770339702,-5.9679E-05));
#1009=CARTESIAN_POINT('',(0.01,0.0098112770339702,5.9679E-05));
#1010=CARTESIAN_POINT('',(0.01,0.0098112770339702,5.177675E-05));
#1011=VECTOR('',#1312,1.0);
#1012=CARTESIAN_POINT('',(0.0067295736679248,-1.73472347597681E-18,5.9679E-05));
#1013=CARTESIAN_POINT('',(0.010056617,0.009981128,5.9679E-05));
#1014=VECTOR('',#1313,1.0);
#1015=CARTESIAN_POINT('',(0.0067295736679248,-1.30781887056064E-18,-5.9679E-05));
#1016=CARTESIAN_POINT('',(0.0067295736679248,-5.42101086242752E-19,0.0));
#1017=VECTOR('',#1314,1.0);
#1018=CARTESIAN_POINT('',(0.010056617,0.009981128,-5.9679E-05));
#1019=VECTOR('',#1315,1.0);
#1020=CARTESIAN_POINT('',(-0.0098112770339702,-0.01,5.9679E-05));
#1021=CARTESIAN_POINT('',(-0.0098112770339702,-0.01,-5.9679E-05));
#1022=CARTESIAN_POINT('',(-0.0098112770339702,-0.01,5.177675E-05));
#1023=VECTOR('',#1316,1.0);
#1024=CARTESIAN_POINT('',(-0.01,-0.01,5.9679E-05));
#1025=CARTESIAN_POINT('',(-0.0049387875,-0.01,5.9679E-05));
#1026=VECTOR('',#1317,1.0);
#1027=CARTESIAN_POINT('',(-0.01,-0.01,-5.9679E-05));
#1028=CARTESIAN_POINT('',(-0.01,-0.01,0.0));
#1029=VECTOR('',#1318,1.0);
#1030=CARTESIAN_POINT('',(-0.0082532485,-0.01,-5.9679E-05));
#1031=VECTOR('',#1319,1.0);
#1032=CARTESIAN_POINT('',(0.0098112770339702,-0.01,-5.9679E-05));
#1033=CARTESIAN_POINT('',(0.0098112770339702,-0.01,5.9679E-05));
#1034=CARTESIAN_POINT('',(0.0098112770339702,-0.01,5.177675E-05));
#1035=VECTOR('',#1320,1.0);
#1036=CARTESIAN_POINT('',(0.01,-0.01,-5.9679E-05));
#1037=CARTESIAN_POINT('',(-0.0082532485,-0.01,-5.9679E-05));
#1038=VECTOR('',#1321,1.0);
#1039=CARTESIAN_POINT('',(0.01,-0.01,5.9679E-05));
#1040=CARTESIAN_POINT('',(0.01,-0.01,0.0));
#1041=VECTOR('',#1322,1.0);
#1042=CARTESIAN_POINT('',(-0.0049387875,-0.01,5.9679E-05));
#1043=VECTOR('',#1323,1.0);
#1044=CARTESIAN_POINT('',(-0.01,0.0098112770339702,5.9679E-05));
#1045=CARTESIAN_POINT('',(-0.01,0.0098112770339702,-5.9679E-05));
#1046=CARTESIAN_POINT('',(-0.01,0.0098112770339702,5.177675E-05));
#1047=VECTOR('',#1324,1.0);
#1048=CARTESIAN_POINT('',(-0.0067295736679248,1.73472347597681E-18,-5.9679E-05));
#1049=CARTESIAN_POINT('',(-0.006723283,-1.8872E-05,-5.9679E-05));
#1050=VECTOR('',#1325,1.0);
#1051=CARTESIAN_POINT('',(-0.0067295736679248,1.30781887056064E-18,5.9679E-05));
#1052=CARTESIAN_POINT('',(-0.0067295736679248,1.84314369322536E-18,0.0));
#1053=VECTOR('',#1326,1.0);
#1054=CARTESIAN_POINT('',(-0.006723283,-1.8872E-05,5.9679E-05));
#1055=VECTOR('',#1327,1.0);
#1056=CARTESIAN_POINT('',(-5.9679E-05,0.000144078999999998,-5.9679E-05));
#1057=CARTESIAN_POINT('',(-5.9679E-05,0.000144078999999998,5.9679E-05));
#1058=CARTESIAN_POINT('',(-5.9679E-05,0.000144078999999998,0.0));
#1059=VECTOR('',#1328,1.0);
#1060=CARTESIAN_POINT('',(-0.00977903851199168,0.00986343851199168,-5.9679E-05));
#1061=CARTESIAN_POINT('',(-0.0099578,0.0100422,-5.9679E-05));
#1062=VECTOR('',#1329,1.0);
#1063=CARTESIAN_POINT('',(-0.00977903851199168,0.00986343851199168,5.9679E-05));
#1064=CARTESIAN_POINT('',(-0.00977903851199168,0.00986343851199168,0.0));
#1065=VECTOR('',#1330,1.0);
#1066=CARTESIAN_POINT('',(-0.0099578,0.0100422,5.9679E-05));
#1067=VECTOR('',#1331,1.0);
#1068=CARTESIAN_POINT('',(-0.000144079,5.9679E-05,5.9679E-05));
#1069=CARTESIAN_POINT('',(-0.000144079,5.9679E-05,-5.9679E-05));
#1070=CARTESIAN_POINT('',(-0.000144079,5.9679E-05,0.0));
#1071=VECTOR('',#1332,1.0);
#1072=CARTESIAN_POINT('',(-0.00986343851199168,0.00977903851199168,5.9679E-05));
#1073=CARTESIAN_POINT('',(-4.22E-05,-4.22E-05,5.9679E-05));
#1074=VECTOR('',#1333,1.0);
#1075=CARTESIAN_POINT('',(-0.00986343851199168,0.00977903851199168,-5.9679E-05));
#1076=CARTESIAN_POINT('',(-0.00986343851199168,0.00977903851199168,0.0));
#1077=VECTOR('',#1334,1.0);
#1078=CARTESIAN_POINT('',(-4.22E-05,-4.22E-05,-5.9679E-05));
#1079=VECTOR('',#1335,1.0);
#1080=CARTESIAN_POINT('',(-5.9679E-05,0.0066236523319731,5.9679E-05));
#1081=CARTESIAN_POINT('',(-5.9679E-05,0.0,5.9679E-05));
#1082=VECTOR('',#1336,1.0);
#1083=CARTESIAN_POINT('',(-5.9679E-05,0.0066236523319731,-5.9679E-05));
#1084=CARTESIAN_POINT('',(-5.96790000000004E-05,0.0066236523319731,0.0));
#1085=VECTOR('',#1337,1.0);
#1086=CARTESIAN_POINT('',(-5.9679E-05,0.0,-5.9679E-05));
#1087=VECTOR('',#1338,1.0);
#1088=CARTESIAN_POINT('',(-0.0066236523319731,5.9679E-05,5.9679E-05));
#1089=CARTESIAN_POINT('',(-0.009943383,0.010018872,5.9679E-05));
#1090=VECTOR('',#1339,1.0);
#1091=CARTESIAN_POINT('',(-0.0066236523319731,5.9679E-05,-5.9679E-05));
#1092=CARTESIAN_POINT('',(-0.0066236523319731,5.96790000000004E-05,0.0));
#1093=VECTOR('',#1340,1.0);
#1094=CARTESIAN_POINT('',(-0.009943383,0.010018872,-5.9679E-05));
#1095=VECTOR('',#1341,1.0);
#1096=CARTESIAN_POINT('',(5.9679E-05,0.000144079,5.9679E-05));
#1097=CARTESIAN_POINT('',(5.9679E-05,0.000144079,-5.9679E-05));
#1098=CARTESIAN_POINT('',(5.9679E-05,0.000144079,0.0));
#1099=VECTOR('',#1342,1.0);
#1100=CARTESIAN_POINT('',(0.00977903851199168,0.00986343851199168,5.9679E-05));
#1101=CARTESIAN_POINT('',(-4.22E-05,4.22E-05,5.9679E-05));
#1102=VECTOR('',#1343,1.0);
#1103=CARTESIAN_POINT('',(0.00977903851199168,0.00986343851199168,-5.9679E-05));
#1104=CARTESIAN_POINT('',(0.00977903851199168,0.00986343851199168,0.0));
#1105=VECTOR('',#1344,1.0);
#1106=CARTESIAN_POINT('',(-4.22E-05,4.22E-05,-5.9679E-05));
#1107=VECTOR('',#1345,1.0);
#1108=CARTESIAN_POINT('',(0.000144078999999998,5.9679E-05,-5.9679E-05));
#1109=CARTESIAN_POINT('',(0.000144078999999998,5.9679E-05,5.9679E-05));
#1110=CARTESIAN_POINT('',(0.000144078999999998,5.9679E-05,0.0));
#1111=VECTOR('',#1346,1.0);
#1112=CARTESIAN_POINT('',(0.00986343851199168,0.00977903851199168,-5.9679E-05));
#1113=CARTESIAN_POINT('',(0.0100422,0.0099578,-5.9679E-05));
#1114=VECTOR('',#1347,1.0);
#1115=CARTESIAN_POINT('',(0.00986343851199168,0.00977903851199168,5.9679E-05));
#1116=CARTESIAN_POINT('',(0.00986343851199168,0.00977903851199168,0.0));
#1117=VECTOR('',#1348,1.0);
#1118=CARTESIAN_POINT('',(0.0100422,0.0099578,5.9679E-05));
#1119=VECTOR('',#1349,1.0);
#1120=CARTESIAN_POINT('',(0.0066236523319731,5.9679E-05,5.9679E-05));
#1121=CARTESIAN_POINT('',(0.0,5.9679E-05,5.9679E-05));
#1122=VECTOR('',#1350,1.0);
#1123=CARTESIAN_POINT('',(0.0066236523319731,5.9679E-05,-5.9679E-05));
#1124=CARTESIAN_POINT('',(0.0066236523319731,5.96790000000004E-05,0.0));
#1125=VECTOR('',#1351,1.0);
#1126=CARTESIAN_POINT('',(0.0,5.9679E-05,-5.9679E-05));
#1127=VECTOR('',#1352,1.0);
#1128=CARTESIAN_POINT('',(5.9679E-05,0.0066236523319731,5.9679E-05));
#1129=CARTESIAN_POINT('',(0.010018872,0.009943383,5.9679E-05));
#1130=VECTOR('',#1353,1.0);
#1131=CARTESIAN_POINT('',(5.9679E-05,0.0066236523319731,-5.9679E-05));
#1132=CARTESIAN_POINT('',(5.96790000000004E-05,0.0066236523319731,0.0));
#1133=VECTOR('',#1354,1.0);
#1134=CARTESIAN_POINT('',(0.010018872,0.009943383,-5.9679E-05));
#1135=VECTOR('',#1355,1.0);
#1136=CARTESIAN_POINT('',(0.00977903851199168,-0.00986343851199168,5.9679E-05));
#1137=CARTESIAN_POINT('',(0.00977903851199168,-0.00986343851199168,-5.9679E-05));
#1138=CARTESIAN_POINT('',(0.00977903851199168,-0.00986343851199168,0.0));
#1139=VECTOR('',#1356,1.0);
#1140=CARTESIAN_POINT('',(5.9679E-05,-0.000144078999999998,5.9679E-05));
#1141=CARTESIAN_POINT('',(0.0099578,-0.0100422,5.9679E-05));
#1142=VECTOR('',#1357,1.0);
#1143=CARTESIAN_POINT('',(5.9679E-05,-0.000144078999999998,-5.9679E-05));
#1144=CARTESIAN_POINT('',(5.9679E-05,-0.000144078999999998,0.0));
#1145=VECTOR('',#1358,1.0);
#1146=CARTESIAN_POINT('',(0.0099578,-0.0100422,-5.9679E-05));
#1147=VECTOR('',#1359,1.0);
#1148=CARTESIAN_POINT('',(0.00986343851199168,-0.00977903851199168,-5.9679E-05));
#1149=CARTESIAN_POINT('',(0.00986343851199168,-0.00977903851199168,5.9679E-05));
#1150=CARTESIAN_POINT('',(0.00986343851199168,-0.00977903851199168,0.0));
#1151=VECTOR('',#1360,1.0);
#1152=CARTESIAN_POINT('',(0.000144079,-5.9679E-05,-5.9679E-05));
#1153=CARTESIAN_POINT('',(4.22E-05,4.22E-05,-5.9679E-05));
#1154=VECTOR('',#1361,1.0);
#1155=CARTESIAN_POINT('',(0.000144079,-5.9679E-05,5.9679E-05));
#1156=CARTESIAN_POINT('',(0.000144079,-5.9679E-05,0.0));
#1157=VECTOR('',#1362,1.0);
#1158=CARTESIAN_POINT('',(4.22E-05,4.22E-05,5.9679E-05));
#1159=VECTOR('',#1363,1.0);
#1160=CARTESIAN_POINT('',(0.0066236523319731,-5.9679E-05,5.9679E-05));
#1161=CARTESIAN_POINT('',(0.009943383,-0.010018872,5.9679E-05));
#1162=VECTOR('',#1364,1.0);
#1163=CARTESIAN_POINT('',(0.0066236523319731,-5.9679E-05,-5.9679E-05));
#1164=CARTESIAN_POINT('',(0.0066236523319731,-5.9679E-05,0.0));
#1165=VECTOR('',#1365,1.0);
#1166=CARTESIAN_POINT('',(0.009943383,-0.010018872,-5.9679E-05));
#1167=VECTOR('',#1366,1.0);
#1168=CARTESIAN_POINT('',(0.006666667,-5.9679E-05,-5.9679E-05));
#1169=VECTOR('',#1367,1.0);
#1170=CARTESIAN_POINT('',(0.006666667,-5.9679E-05,5.9679E-05));
#1171=VECTOR('',#1368,1.0);
#1172=CARTESIAN_POINT('',(0.00661005,1.8872E-05,-5.9679E-05));
#1173=VECTOR('',#1369,1.0);
#1174=CARTESIAN_POINT('',(0.00661005,1.8872E-05,5.9679E-05));
#1175=VECTOR('',#1370,1.0);
#1176=CARTESIAN_POINT('',(0.01,-0.0098112770339702,5.9679E-05));
#1177=CARTESIAN_POINT('',(0.01,-0.0098112770339702,-5.9679E-05));
#1178=CARTESIAN_POINT('',(0.01,-0.0098112770339702,5.177675E-05));
#1179=VECTOR('',#1371,1.0);
#1180=CARTESIAN_POINT('',(0.006723283,1.8872E-05,-5.9679E-05));
#1181=VECTOR('',#1372,1.0);
#1182=CARTESIAN_POINT('',(0.006723283,1.8872E-05,5.9679E-05));
#1183=VECTOR('',#1373,1.0);
#1184=CARTESIAN_POINT('',(5.9679E-05,0.006666667,-5.9679E-05));
#1185=VECTOR('',#1374,1.0);
#1186=CARTESIAN_POINT('',(5.9679E-05,0.006666667,5.9679E-05));
#1187=VECTOR('',#1375,1.0);
#1188=CARTESIAN_POINT('',(-0.00977903851199168,-0.00986343851199168,-5.9679E-05));
#1189=CARTESIAN_POINT('',(-0.00977903851199168,-0.00986343851199168,5.9679E-05));
#1190=CARTESIAN_POINT('',(-0.00977903851199168,-0.00986343851199168,0.0));
#1191=VECTOR('',#1376,1.0);
#1192=CARTESIAN_POINT('',(-5.9679E-05,-0.000144079,-5.9679E-05));
#1193=CARTESIAN_POINT('',(4.22E-05,-4.22E-05,-5.9679E-05));
#1194=VECTOR('',#1377,1.0);
#1195=CARTESIAN_POINT('',(-5.9679E-05,-0.000144079,5.9679E-05));
#1196=CARTESIAN_POINT('',(-5.9679E-05,-0.000144079,0.0));
#1197=VECTOR('',#1378,1.0);
#1198=CARTESIAN_POINT('',(4.22E-05,-4.22E-05,5.9679E-05));
#1199=VECTOR('',#1379,1.0);
#1200=CARTESIAN_POINT('',(-0.00986343851199168,-0.00977903851199168,5.9679E-05));
#1201=CARTESIAN_POINT('',(-0.00986343851199168,-0.00977903851199168,-5.9679E-05));
#1202=CARTESIAN_POINT('',(-0.00986343851199168,-0.00977903851199168,0.0));
#1203=VECTOR('',#1380,1.0);
#1204=CARTESIAN_POINT('',(-0.000144078999999998,-5.9679E-05,5.9679E-05));
#1205=CARTESIAN_POINT('',(-0.0100422,-0.0099578,5.9679E-05));
#1206=VECTOR('',#1381,1.0);
#1207=CARTESIAN_POINT('',(-0.000144078999999998,-5.9679E-05,-5.9679E-05));
#1208=CARTESIAN_POINT('',(-0.000144078999999998,-5.9679E-05,0.0));
#1209=VECTOR('',#1382,1.0);
#1210=CARTESIAN_POINT('',(-0.0100422,-0.0099578,-5.9679E-05));
#1211=VECTOR('',#1383,1.0);
#1212=CARTESIAN_POINT('',(-0.0066236523319731,-5.9679E-05,-5.9679E-05));
#1213=CARTESIAN_POINT('',(-0.00661005,-1.8872E-05,-5.9679E-05));
#1214=VECTOR('',#1384,1.0);
#1215=CARTESIAN_POINT('',(-0.0066236523319731,-5.9679E-05,5.9679E-05));
#1216=CARTESIAN_POINT('',(-0.0066236523319731,-5.9679E-05,0.0));
#1217=VECTOR('',#1385,1.0);
#1218=CARTESIAN_POINT('',(-0.00661005,-1.8872E-05,5.9679E-05));
#1219=VECTOR('',#1386,1.0);
#1220=CARTESIAN_POINT('',(0.01,0.0050423405,-5.9679E-05));
#1221=VECTOR('',#1387,1.0);
#1222=CARTESIAN_POINT('',(0.01,0.0050423405,-5.9679E-05));
#1223=VECTOR('',#1388,1.0);
#1224=CARTESIAN_POINT('',(-1.73472347597681E-18,-0.0067295736679248,-5.9679E-05));
#1225=CARTESIAN_POINT('',(0.009981128,-0.010056617,-5.9679E-05));
#1226=VECTOR('',#1389,1.0);
#1227=CARTESIAN_POINT('',(1.8872E-05,-0.006723283,-5.9679E-05));
#1228=VECTOR('',#1390,1.0);
#1229=CARTESIAN_POINT('',(-0.01,-0.0098112770339702,-5.9679E-05));
#1230=CARTESIAN_POINT('',(-0.01,-0.0050612125,-5.9679E-05));
#1231=VECTOR('',#1391,1.0);
#1232=CARTESIAN_POINT('',(-0.010056617,-0.009981128,-5.9679E-05));
#1233=VECTOR('',#1392,1.0);
#1234=CARTESIAN_POINT('',(-0.01,-0.0050612125,-5.9679E-05));
#1235=VECTOR('',#1393,1.0);
#1236=CARTESIAN_POINT('',(1.30781887056064E-18,0.0067295736679248,-5.9679E-05));
#1237=CARTESIAN_POINT('',(-0.009981128,0.010056617,-5.9679E-05));
#1238=VECTOR('',#1394,1.0);
#1239=CARTESIAN_POINT('',(-1.8872E-05,0.006723283,-5.9679E-05));
#1240=VECTOR('',#1395,1.0);
#1241=CARTESIAN_POINT('',(5.9679E-05,-0.0066236523319731,-5.9679E-05));
#1242=CARTESIAN_POINT('',(5.9679E-05,0.0,-5.9679E-05));
#1243=VECTOR('',#1396,1.0);
#1244=CARTESIAN_POINT('',(1.8872E-05,-0.00661005,-5.9679E-05));
#1245=VECTOR('',#1397,1.0);
#1246=CARTESIAN_POINT('',(-5.9679E-05,-0.0066236523319731,-5.9679E-05));
#1247=CARTESIAN_POINT('',(-0.010018872,-0.009943383,-5.9679E-05));
#1248=VECTOR('',#1398,1.0);
#1249=CARTESIAN_POINT('',(-5.9679E-05,-0.006666667,-5.9679E-05));
#1250=VECTOR('',#1399,1.0);
#1251=CARTESIAN_POINT('',(0.0,-5.9679E-05,-5.9679E-05));
#1252=VECTOR('',#1400,1.0);
#1253=CARTESIAN_POINT('',(-1.8872E-05,0.00661005,-5.9679E-05));
#1254=VECTOR('',#1401,1.0);
#1255=CARTESIAN_POINT('',(-0.006666667,5.9679E-05,-5.9679E-05));
#1256=VECTOR('',#1402,1.0);
#1257=CARTESIAN_POINT('',(0.0,-5.9679E-05,5.9679E-05));
#1258=VECTOR('',#1403,1.0);
#1259=CARTESIAN_POINT('',(-1.8872E-05,0.00661005,5.9679E-05));
#1260=VECTOR('',#1404,1.0);
#1261=CARTESIAN_POINT('',(-0.01,-0.0098112770339702,5.9679E-05));
#1262=CARTESIAN_POINT('',(-0.01,-0.0098112770339702,5.177675E-05));
#1263=VECTOR('',#1405,1.0);
#1264=CARTESIAN_POINT('',(-0.010056617,-0.009981128,5.9679E-05));
#1265=VECTOR('',#1406,1.0);
#1266=CARTESIAN_POINT('',(-0.006666667,5.9679E-05,5.9679E-05));
#1267=VECTOR('',#1407,1.0);
#1268=CARTESIAN_POINT('',(-5.9679E-05,-0.0066236523319731,5.9679E-05));
#1269=CARTESIAN_POINT('',(-5.9679E-05,-0.0066236523319731,0.0));
#1270=VECTOR('',#1408,1.0);
#1271=CARTESIAN_POINT('',(-5.9679E-05,-0.006666667,5.9679E-05));
#1272=VECTOR('',#1409,1.0);
#1273=CARTESIAN_POINT('',(-0.010018872,-0.009943383,5.9679E-05));
#1274=VECTOR('',#1410,1.0);
#1275=CARTESIAN_POINT('',(1.73472347597681E-18,0.0067295736679248,5.9679E-05));
#1276=CARTESIAN_POINT('',(-0.009981128,0.010056617,5.9679E-05));
#1277=VECTOR('',#1411,1.0);
#1278=CARTESIAN_POINT('',(5.42101086242752E-19,0.0067295736679248,0.0));
#1279=VECTOR('',#1412,1.0);
#1280=CARTESIAN_POINT('',(-1.8872E-05,0.006723283,5.9679E-05));
#1281=VECTOR('',#1413,1.0);
#1282=CARTESIAN_POINT('',(5.9679E-05,-0.0066236523319731,5.9679E-05));
#1283=CARTESIAN_POINT('',(5.9679E-05,0.0,5.9679E-05));
#1284=VECTOR('',#1414,1.0);
#1285=CARTESIAN_POINT('',(5.9679E-05,-0.0066236523319731,0.0));
#1286=VECTOR('',#1415,1.0);
#1287=CARTESIAN_POINT('',(1.8872E-05,-0.00661005,5.9679E-05));
#1288=VECTOR('',#1416,1.0);
#1289=CARTESIAN_POINT('',(-1.73472347597681E-18,-0.0067295736679248,5.9679E-05));
#1290=CARTESIAN_POINT('',(0.009981128,-0.010056617,5.9679E-05));
#1291=VECTOR('',#1417,1.0);
#1292=CARTESIAN_POINT('',(-5.42101086242752E-19,-0.0067295736679248,0.0));
#1293=VECTOR('',#1418,1.0);
#1294=CARTESIAN_POINT('',(1.8872E-05,-0.006723283,5.9679E-05));
#1295=VECTOR('',#1419,1.0);
#1296=CARTESIAN_POINT('',(-0.01,-0.008413418,5.9679E-05));
#1297=VECTOR('',#1420,1.0);
#1298=CARTESIAN_POINT('',(-0.01,-0.008413418,5.9679E-05));
#1299=VECTOR('',#1421,1.0);
#1300=CARTESIAN_POINT('',(0.01,0.001690135,5.9679E-05));
#1301=VECTOR('',#1422,1.0);
#1302=CARTESIAN_POINT('',(0.01,0.001690135,5.9679E-05));
#1303=VECTOR('',#1423,1.0);
#1304=DIRECTION('',(0.0,0.0,-1.0));
#1305=DIRECTION('',(-1.0,0.0,-0.0));
#1306=DIRECTION('',(0.0,0.0,-1.0));
#1307=DIRECTION('',(1.0,0.0,0.0));
#1308=DIRECTION('',(0.0,-0.0,1.0));
#1309=DIRECTION('',(1.0,0.0,0.0));
#1310=DIRECTION('',(0.0,0.0,1.0));
#1311=DIRECTION('',(-1.0,0.0,-0.0));
#1312=DIRECTION('',(-0.0,0.0,1.0));
#1313=DIRECTION('',(-0.316227822937834,-0.948683279076847,0.0));
#1314=DIRECTION('',(-0.0,0.0,1.0));
#1315=DIRECTION('',(0.316227822937834,0.948683279076847,0.0));
#1316=DIRECTION('',(0.0,0.0,-1.0));
#1317=DIRECTION('',(1.0,-0.0,0.0));
#1318=DIRECTION('',(0.0,0.0,-1.0));
#1319=DIRECTION('',(-1.0,0.0,0.0));
#1320=DIRECTION('',(0.0,0.0,1.0));
#1321=DIRECTION('',(-1.0,0.0,0.0));
#1322=DIRECTION('',(0.0,0.0,1.0));
#1323=DIRECTION('',(1.0,-0.0,0.0));
#1324=DIRECTION('',(0.0,0.0,-1.0));
#1325=DIRECTION('',(0.316227822937834,-0.948683279076847,0.0));
#1326=DIRECTION('',(0.0,0.0,-1.0));
#1327=DIRECTION('',(-0.316227822937834,0.948683279076847,0.0));
#1328=DIRECTION('',(0.0,-0.0,1.0));
#1329=DIRECTION('',(-0.707106781186548,0.707106781186548,0.0));
#1330=DIRECTION('',(0.0,0.0,-1.0));
#1331=DIRECTION('',(0.707106781186548,-0.707106781186548,0.0));
#1332=DIRECTION('',(0.0,0.0,-1.0));
#1333=DIRECTION('',(-0.707106781186548,0.707106781186548,0.0));
#1334=DIRECTION('',(0.0,0.0,1.0));
#1335=DIRECTION('',(0.707106781186548,-0.707106781186548,0.0));
#1336=DIRECTION('',(0.0,1.0,0.0));
#1337=DIRECTION('',(0.0,0.0,-1.0));
#1338=DIRECTION('',(-0.0,-1.0,-0.0));
#1339=DIRECTION('',(0.316227737556339,-0.948683307537346,0.0));
#1340=DIRECTION('',(0.0,-0.0,1.0));
#1341=DIRECTION('',(-0.316227737556339,0.948683307537346,0.0));
#1342=DIRECTION('',(0.0,0.0,-1.0));
#1343=DIRECTION('',(0.707106781186548,0.707106781186548,0.0));
#1344=DIRECTION('',(0.0,0.0,1.0));
#1345=DIRECTION('',(-0.707106781186548,-0.707106781186548,-0.0));
#1346=DIRECTION('',(-0.0,-0.0,1.0));
#1347=DIRECTION('',(0.707106781186548,0.707106781186548,0.0));
#1348=DIRECTION('',(-0.0,-0.0,-1.0));
#1349=DIRECTION('',(-0.707106781186548,-0.707106781186548,0.0));
#1350=DIRECTION('',(1.0,0.0,0.0));
#1351=DIRECTION('',(0.0,0.0,-1.0));
#1352=DIRECTION('',(-1.0,-0.0,-0.0));
#1353=DIRECTION('',(-0.948683307537346,-0.316227737556339,0.0));
#1354=DIRECTION('',(-0.0,0.0,1.0));
#1355=DIRECTION('',(0.948683307537346,0.316227737556339,0.0));
#1356=DIRECTION('',(0.0,0.0,-1.0));
#1357=DIRECTION('',(-0.707106781186548,0.707106781186548,0.0));
#1358=DIRECTION('',(0.0,0.0,1.0));
#1359=DIRECTION('',(0.707106781186548,-0.707106781186548,0.0));
#1360=DIRECTION('',(0.0,0.0,1.0));
#1361=DIRECTION('',(-0.707106781186548,0.707106781186548,0.0));
#1362=DIRECTION('',(0.0,0.0,-1.0));
#1363=DIRECTION('',(0.707106781186548,-0.707106781186548,0.0));
#1364=DIRECTION('',(-0.316227737556339,0.948683307537346,0.0));
#1365=DIRECTION('',(0.0,0.0,-1.0));
#1366=DIRECTION('',(0.316227737556339,-0.948683307537346,0.0));
#1367=DIRECTION('',(1.0,0.0,0.0));
#1368=DIRECTION('',(-1.0,0.0,0.0));
#1369=DIRECTION('',(-0.316227737556339,-0.948683307537346,-0.0));
#1370=DIRECTION('',(0.316227737556339,0.948683307537346,0.0));
#1371=DIRECTION('',(0.0,0.0,-1.0));
#1372=DIRECTION('',(-0.316227822937834,0.948683279076847,0.0));
#1373=DIRECTION('',(0.316227822937834,-0.948683279076847,0.0));
#1374=DIRECTION('',(0.0,1.0,0.0));
#1375=DIRECTION('',(0.0,-1.0,0.0));
#1376=DIRECTION('',(-0.0,-0.0,1.0));
#1377=DIRECTION('',(0.707106781186548,0.707106781186548,0.0));
#1378=DIRECTION('',(-0.0,-0.0,-1.0));
#1379=DIRECTION('',(-0.707106781186548,-0.707106781186548,0.0));
#1380=DIRECTION('',(0.0,0.0,-1.0));
#1381=DIRECTION('',(0.707106781186548,0.707106781186548,0.0));
#1382=DIRECTION('',(0.0,-0.0,1.0));
#1383=DIRECTION('',(-0.707106781186548,-0.707106781186548,-0.0));
#1384=DIRECTION('',(0.316227737556339,0.948683307537346,0.0));
#1385=DIRECTION('',(-0.0,0.0,1.0));
#1386=DIRECTION('',(-0.316227737556339,-0.948683307537346,0.0));
#1387=DIRECTION('',(0.0,-1.0,0.0));
#1388=DIRECTION('',(0.0,-1.0,0.0));
#1389=DIRECTION('',(0.948683279076847,-0.316227822937834,0.0));
#1390=DIRECTION('',(0.948683279076847,0.316227822937834,0.0));
#1391=DIRECTION('',(0.0,1.0,0.0));
#1392=DIRECTION('',(-0.316227822937834,-0.948683279076847,-0.0));
#1393=DIRECTION('',(0.0,1.0,0.0));
#1394=DIRECTION('',(-0.948683279076847,0.316227822937834,0.0));
#1395=DIRECTION('',(-0.948683279076847,-0.316227822937834,-0.0));
#1396=DIRECTION('',(0.0,1.0,0.0));
#1397=DIRECTION('',(-0.948683307537346,0.316227737556339,0.0));
#1398=DIRECTION('',(-0.948683307537346,-0.316227737556339,-0.0));
#1399=DIRECTION('',(-0.0,-1.0,-0.0));
#1400=DIRECTION('',(1.0,0.0,0.0));
#1401=DIRECTION('',(0.948683307537346,-0.316227737556339,0.0));
#1402=DIRECTION('',(-1.0,-0.0,-0.0));
#1403=DIRECTION('',(-1.0,0.0,0.0));
#1404=DIRECTION('',(-0.948683307537346,0.316227737556339,0.0));
#1405=DIRECTION('',(0.0,0.0,1.0));
#1406=DIRECTION('',(0.316227822937834,0.948683279076847,0.0));
#1407=DIRECTION('',(1.0,0.0,0.0));
#1408=DIRECTION('',(0.0,0.0,-1.0));
#1409=DIRECTION('',(0.0,1.0,0.0));
#1410=DIRECTION('',(0.948683307537346,0.316227737556339,0.0));
#1411=DIRECTION('',(0.948683279076847,-0.316227822937834,0.0));
#1412=DIRECTION('',(0.0,-0.0,1.0));
#1413=DIRECTION('',(0.948683279076847,0.316227822937834,0.0));
#1414=DIRECTION('',(0.0,-1.0,0.0));
#1415=DIRECTION('',(0.0,0.0,1.0));
#1416=DIRECTION('',(0.948683307537346,-0.316227737556339,0.0));
#1417=DIRECTION('',(-0.948683279076847,0.316227822937834,0.0));
#1418=DIRECTION('',(-0.0,0.0,1.0));
#1419=DIRECTION('',(-0.948683279076847,-0.316227822937834,0.0));
#1420=DIRECTION('',(-0.0,-1.0,-0.0));
#1421=DIRECTION('',(-0.0,-1.0,-0.0));
#1422=DIRECTION('',(-0.0,1.0,0.0));
#1423=DIRECTION('',(-0.0,1.0,0.0));
#1424=PRESENTATION_LAYER_ASSIGNMENT('9','\X2\56FE5C42\X0\0',(#25));
ENDSEC;
END-ISO-10303-21;
