ISO-10303-21;
HEADER;
FILE_DESCRIPTION(('STEP AP214'),'1');
FILE_NAME('cell1.stp','2026-06-24T13:23:54',(' '),(' '),'Spatial InterOp 3D',' ',' ');
FILE_SCHEMA(('AUTOMOTIVE_DESIGN { 1 0 10303 214 1 1 1 1 }'));
ENDSEC;
DATA;
#1=MECHANICAL_DESIGN_GEOMETRIC_PRESENTATION_REPRESENTATION(' ',(#10),#6);
#2=PRODUCT_DEFINITION_CONTEXT('',#11,'design');
#3=APPLICATION_PROTOCOL_DEFINITION('INTERNATIONAL STANDARD','automotive_design',1994,#11);
#4=PRODUCT_CATEGORY_RELATIONSHIP('NONE','NONE',#12,#13);
#5=SHAPE_DEFINITION_REPRESENTATION(#14,#15);
#6= (GEOMETRIC_REPRESENTATION_CONTEXT(3)GLOBAL_UNCERTAINTY_ASSIGNED_CONTEXT((#18))GLOBAL_UNIT_ASSIGNED_CONTEXT((#20,#21,#22))REPRESENTATION_CONTEXT('NONE','WORKSPACE'));
#10=STYLED_ITEM('',(#24),#25);
#11=APPLICATION_CONTEXT(' ');
#12=PRODUCT_CATEGORY('part','NONE');
#13=PRODUCT_RELATED_PRODUCT_CATEGORY('detail',' ',(#26));
#14=PRODUCT_DEFINITION_SHAPE('NONE','NONE',#27);
#15=ADVANCED_BREP_SHAPE_REPRESENTATION('\X2\5B9E4F53\X0\',(#25,#28),#6);
#18=UNCERTAINTY_MEASURE_WITH_UNIT(LENGTH_MEASURE(1.0E-08),#20,'','');
#20= (CONVERSION_BASED_UNIT('METRE',#31)LENGTH_UNIT()NAMED_UNIT(#34));
#21= (NAMED_UNIT(#36)PLANE_ANGLE_UNIT()SI_UNIT($,.RADIAN.));
#22= (NAMED_UNIT(#36)SOLID_ANGLE_UNIT()SI_UNIT($,.STERADIAN.));
#24=PRESENTATION_STYLE_ASSIGNMENT((#42));
#25=MANIFOLD_SOLID_BREP('\X2\5B9E4F53\X0\',#43);
#26=PRODUCT('\X2\5B9E4F53\X0\','','PART--DESC',(#44));
#27=PRODUCT_DEFINITION('','NONE',#45,#2);
#28=AXIS2_PLACEMENT_3D('',#46,#47,#48);
#31=LENGTH_MEASURE_WITH_UNIT(LENGTH_MEASURE(1.0),#49);
#34=DIMENSIONAL_EXPONENTS(1.0,0.0,0.0,0.0,0.0,0.0,0.0);
#36=DIMENSIONAL_EXPONENTS(0.0,0.0,0.0,0.0,0.0,0.0,0.0);
#42=SURFACE_STYLE_USAGE(.BOTH.,#50);
#43=CLOSED_SHELL('',(#51,#52,#53,#54,#55,#56,#57,#58,#59,#60,#61,#62,#63,#64,#65,#66,#67,#68));
#44=PRODUCT_CONTEXT('',#11,'mechanical');
#45=PRODUCT_DEFINITION_FORMATION_WITH_SPECIFIED_SOURCE(' ','NONE',#26,.NOT_KNOWN.);
#46=CARTESIAN_POINT('',(0.0,0.0,0.0));
#47=DIRECTION('',(0.0,0.0,1.0));
#48=DIRECTION('',(1.0,0.0,0.0));
#49= (NAMED_UNIT(#34)LENGTH_UNIT()SI_UNIT($,.METRE.));
#50=SURFACE_SIDE_STYLE('',(#70));
#51=ADVANCED_FACE('0:4418',(#71),#72,.T.);
#52=ADVANCED_FACE('0:4200',(#73),#74,.T.);
#53=ADVANCED_FACE('0:1572',(#75),#76,.T.);
#54=ADVANCED_FACE('0:1578',(#77),#78,.T.);
#55=ADVANCED_FACE('0:1356',(#79),#80,.T.);
#56=ADVANCED_FACE('0:1146',(#81),#82,.T.);
#57=ADVANCED_FACE('0:1140',(#83),#84,.T.);
#58=ADVANCED_FACE('0:708',(#85),#86,.T.);
#59=ADVANCED_FACE('0:930',(#87),#88,.T.);
#60=ADVANCED_FACE('0:924',(#89),#90,.T.);
#61=ADVANCED_FACE('0:4442',(#91,#92,#93,#94,#95),#96,.T.);
#62=ADVANCED_FACE('0:60',(#97),#98,.T.);
#63=ADVANCED_FACE('0:498',(#99),#100,.T.);
#64=ADVANCED_FACE('0:276',(#101),#102,.T.);
#65=ADVANCED_FACE('0:282',(#103),#104,.T.);
#66=ADVANCED_FACE('0:4422',(#105),#106,.T.);
#67=ADVANCED_FACE('0:4435',(#107,#108,#109,#110,#111),#112,.F.);
#68=ADVANCED_FACE('0:4455',(#113),#114,.T.);
#70=SURFACE_STYLE_FILL_AREA(#115);
#71=FACE_OUTER_BOUND('',#116,.T.);
#72=PLANE('',#117);
#73=FACE_OUTER_BOUND('',#118,.T.);
#74=PLANE('',#119);
#75=FACE_OUTER_BOUND('',#120,.T.);
#76=PLANE('',#121);
#77=FACE_OUTER_BOUND('',#122,.T.);
#78=PLANE('',#123);
#79=FACE_OUTER_BOUND('',#124,.T.);
#80=PLANE('',#125);
#81=FACE_OUTER_BOUND('',#126,.T.);
#82=PLANE('',#127);
#83=FACE_OUTER_BOUND('',#128,.T.);
#84=PLANE('',#129);
#85=FACE_OUTER_BOUND('',#130,.T.);
#86=PLANE('',#131);
#87=FACE_OUTER_BOUND('',#132,.T.);
#88=PLANE('',#133);
#89=FACE_OUTER_BOUND('',#134,.T.);
#90=PLANE('',#135);
#91=FACE_OUTER_BOUND('',#136,.T.);
#92=FACE_BOUND('',#137,.T.);
#93=FACE_BOUND('',#138,.T.);
#94=FACE_BOUND('',#139,.T.);
#95=FACE_BOUND('',#140,.T.);
#96=PLANE('',#141);
#97=FACE_OUTER_BOUND('',#142,.T.);
#98=PLANE('',#143);
#99=FACE_OUTER_BOUND('',#144,.T.);
#100=PLANE('',#145);
#101=FACE_OUTER_BOUND('',#146,.T.);
#102=PLANE('',#147);
#103=FACE_OUTER_BOUND('',#148,.T.);
#104=PLANE('',#149);
#105=FACE_OUTER_BOUND('',#150,.T.);
#106=PLANE('',#151);
#107=FACE_OUTER_BOUND('',#152,.T.);
#108=FACE_BOUND('',#153,.T.);
#109=FACE_BOUND('',#154,.T.);
#110=FACE_BOUND('',#155,.T.);
#111=FACE_BOUND('',#156,.T.);
#112=PLANE('',#157);
#113=FACE_OUTER_BOUND('',#158,.T.);
#114=PLANE('',#159);
#115=FILL_AREA_STYLE('',(#160));
#116=EDGE_LOOP('',(#161,#162,#163,#164));
#117=AXIS2_PLACEMENT_3D('',#165,#166,#167);
#118=EDGE_LOOP('',(#168,#169,#170,#171));
#119=AXIS2_PLACEMENT_3D('',#172,#173,#174);
#120=EDGE_LOOP('',(#175,#176,#177,#178));
#121=AXIS2_PLACEMENT_3D('',#179,#180,#181);
#122=EDGE_LOOP('',(#182,#183,#184,#185));
#123=AXIS2_PLACEMENT_3D('',#186,#187,#188);
#124=EDGE_LOOP('',(#189,#190,#191,#192));
#125=AXIS2_PLACEMENT_3D('',#193,#194,#195);
#126=EDGE_LOOP('',(#196,#197,#198,#199));
#127=AXIS2_PLACEMENT_3D('',#200,#201,#202);
#128=EDGE_LOOP('',(#203,#204,#205,#206));
#129=AXIS2_PLACEMENT_3D('',#207,#208,#209);
#130=EDGE_LOOP('',(#210,#211,#212,#213));
#131=AXIS2_PLACEMENT_3D('',#214,#215,#216);
#132=EDGE_LOOP('',(#217,#218,#219,#220));
#133=AXIS2_PLACEMENT_3D('',#221,#222,#223);
#134=EDGE_LOOP('',(#224,#225,#226,#227));
#135=AXIS2_PLACEMENT_3D('',#228,#229,#230);
#136=EDGE_LOOP('',(#231,#232,#233,#234));
#137=EDGE_LOOP('',(#235,#236,#237));
#138=EDGE_LOOP('',(#238,#239,#240));
#139=EDGE_LOOP('',(#241,#242,#243));
#140=EDGE_LOOP('',(#244,#245,#246));
#141=AXIS2_PLACEMENT_3D('',#247,#248,#249);
#142=EDGE_LOOP('',(#250,#251,#252,#253));
#143=AXIS2_PLACEMENT_3D('',#254,#255,#256);
#144=EDGE_LOOP('',(#257,#258,#259,#260));
#145=AXIS2_PLACEMENT_3D('',#261,#262,#263);
#146=EDGE_LOOP('',(#264,#265,#266,#267));
#147=AXIS2_PLACEMENT_3D('',#268,#269,#270);
#148=EDGE_LOOP('',(#271,#272,#273,#274));
#149=AXIS2_PLACEMENT_3D('',#275,#276,#277);
#150=EDGE_LOOP('',(#278,#279,#280,#281));
#151=AXIS2_PLACEMENT_3D('',#282,#283,#284);
#152=EDGE_LOOP('',(#285,#286,#287,#288));
#153=EDGE_LOOP('',(#289,#290,#291));
#154=EDGE_LOOP('',(#292,#293,#294));
#155=EDGE_LOOP('',(#295,#296,#297));
#156=EDGE_LOOP('',(#298,#299,#300));
#157=AXIS2_PLACEMENT_3D('',#301,#302,#303);
#158=EDGE_LOOP('',(#304,#305,#306,#307));
#159=AXIS2_PLACEMENT_3D('',#308,#309,#310);
#160=FILL_AREA_STYLE_COLOUR('',#311);
#161=ORIENTED_EDGE('',*,*,#312,.F.);
#162=ORIENTED_EDGE('',*,*,#313,.F.);
#163=ORIENTED_EDGE('',*,*,#314,.F.);
#164=ORIENTED_EDGE('',*,*,#315,.F.);
#165=CARTESIAN_POINT('',(0.009896447,0.01,0.0001035535));
#166=DIRECTION('',(-0.0,1.0,0.0));
#167=DIRECTION('',(1.0,0.0,0.0));
#168=ORIENTED_EDGE('',*,*,#316,.T.);
#169=ORIENTED_EDGE('',*,*,#317,.F.);
#170=ORIENTED_EDGE('',*,*,#318,.F.);
#171=ORIENTED_EDGE('',*,*,#319,.F.);
#172=CARTESIAN_POINT('',(0.01,-0.01,0.0));
#173=DIRECTION('',(-0.0,-1.0,-0.0));
#174=DIRECTION('',(-1.0,0.0,0.0));
#175=ORIENTED_EDGE('',*,*,#320,.F.);
#176=ORIENTED_EDGE('',*,*,#321,.T.);
#177=ORIENTED_EDGE('',*,*,#322,.F.);
#178=ORIENTED_EDGE('',*,*,#323,.T.);
#179=CARTESIAN_POINT('',(0.005073223,0.004926777,0.0));
#180=DIRECTION('',(0.707106781186548,-0.707106781186548,0.0));
#181=DIRECTION('',(-0.707106781186548,-0.707106781186548,0.0));
#182=ORIENTED_EDGE('',*,*,#324,.F.);
#183=ORIENTED_EDGE('',*,*,#325,.T.);
#184=ORIENTED_EDGE('',*,*,#326,.F.);
#185=ORIENTED_EDGE('',*,*,#327,.T.);
#186=CARTESIAN_POINT('',(0.004926777,0.005073223,0.0));
#187=DIRECTION('',(-0.707106781186548,0.707106781186548,0.0));
#188=DIRECTION('',(0.707106781186548,0.707106781186548,0.0));
#189=ORIENTED_EDGE('',*,*,#326,.T.);
#190=ORIENTED_EDGE('',*,*,#328,.T.);
#191=ORIENTED_EDGE('',*,*,#329,.F.);
#192=ORIENTED_EDGE('',*,*,#330,.T.);
#193=CARTESIAN_POINT('',(0.0,0.009896447,0.0));
#194=DIRECTION('',(-0.0,-1.0,-0.0));
#195=DIRECTION('',(-1.0,0.0,0.0));
#196=ORIENTED_EDGE('',*,*,#324,.T.);
#197=ORIENTED_EDGE('',*,*,#331,.T.);
#198=ORIENTED_EDGE('',*,*,#329,.T.);
#199=ORIENTED_EDGE('',*,*,#332,.T.);
#200=CARTESIAN_POINT('',(-0.004926777,0.005073223,0.0));
#201=DIRECTION('',(0.707106781186548,0.707106781186548,0.0));
#202=DIRECTION('',(0.707106781186548,-0.707106781186548,0.0));
#203=ORIENTED_EDGE('',*,*,#333,.F.);
#204=ORIENTED_EDGE('',*,*,#334,.T.);
#205=ORIENTED_EDGE('',*,*,#335,.F.);
#206=ORIENTED_EDGE('',*,*,#336,.T.);
#207=CARTESIAN_POINT('',(-0.005073223,0.004926777,0.0));
#208=DIRECTION('',(-0.707106781186548,-0.707106781186548,-0.0));
#209=DIRECTION('',(-0.707106781186548,0.707106781186548,0.0));
#210=ORIENTED_EDGE('',*,*,#333,.T.);
#211=ORIENTED_EDGE('',*,*,#337,.T.);
#212=ORIENTED_EDGE('',*,*,#338,.T.);
#213=ORIENTED_EDGE('',*,*,#339,.T.);
#214=CARTESIAN_POINT('',(-0.009896447,0.0,0.0));
#215=DIRECTION('',(1.0,0.0,0.0));
#216=DIRECTION('',(0.0,-1.0,0.0));
#217=ORIENTED_EDGE('',*,*,#335,.T.);
#218=ORIENTED_EDGE('',*,*,#340,.T.);
#219=ORIENTED_EDGE('',*,*,#338,.F.);
#220=ORIENTED_EDGE('',*,*,#341,.T.);
#221=CARTESIAN_POINT('',(-0.005073223,-0.004926777,0.0));
#222=DIRECTION('',(-0.707106781186548,0.707106781186548,0.0));
#223=DIRECTION('',(0.707106781186548,0.707106781186548,0.0));
#224=ORIENTED_EDGE('',*,*,#342,.F.);
#225=ORIENTED_EDGE('',*,*,#343,.T.);
#226=ORIENTED_EDGE('',*,*,#344,.F.);
#227=ORIENTED_EDGE('',*,*,#345,.T.);
#228=CARTESIAN_POINT('',(-0.004926777,-0.005073223,0.0));
#229=DIRECTION('',(0.707106781186548,-0.707106781186548,0.0));
#230=DIRECTION('',(-0.707106781186548,-0.707106781186548,0.0));
#231=ORIENTED_EDGE('',*,*,#315,.T.);
#232=ORIENTED_EDGE('',*,*,#346,.T.);
#233=ORIENTED_EDGE('',*,*,#319,.T.);
#234=ORIENTED_EDGE('',*,*,#347,.T.);
#235=ORIENTED_EDGE('',*,*,#339,.F.);
#236=ORIENTED_EDGE('',*,*,#340,.F.);
#237=ORIENTED_EDGE('',*,*,#334,.F.);
#238=ORIENTED_EDGE('',*,*,#330,.F.);
#239=ORIENTED_EDGE('',*,*,#331,.F.);
#240=ORIENTED_EDGE('',*,*,#327,.F.);
#241=ORIENTED_EDGE('',*,*,#348,.F.);
#242=ORIENTED_EDGE('',*,*,#349,.F.);
#243=ORIENTED_EDGE('',*,*,#321,.F.);
#244=ORIENTED_EDGE('',*,*,#350,.F.);
#245=ORIENTED_EDGE('',*,*,#351,.F.);
#246=ORIENTED_EDGE('',*,*,#345,.F.);
#247=CARTESIAN_POINT('',(0.01,-0.010103553,-0.0001035535));
#248=DIRECTION('',(0.0,0.0,-1.0));
#249=DIRECTION('',(-1.0,0.0,0.0));
#250=ORIENTED_EDGE('',*,*,#344,.T.);
#251=ORIENTED_EDGE('',*,*,#352,.T.);
#252=ORIENTED_EDGE('',*,*,#353,.T.);
#253=ORIENTED_EDGE('',*,*,#350,.T.);
#254=CARTESIAN_POINT('',(0.0,-0.009896447,0.0));
#255=DIRECTION('',(-0.0,1.0,0.0));
#256=DIRECTION('',(1.0,0.0,0.0));
#257=ORIENTED_EDGE('',*,*,#322,.T.);
#258=ORIENTED_EDGE('',*,*,#349,.T.);
#259=ORIENTED_EDGE('',*,*,#354,.F.);
#260=ORIENTED_EDGE('',*,*,#355,.T.);
#261=CARTESIAN_POINT('',(0.009896447,0.0,0.0));
#262=DIRECTION('',(-1.0,0.0,0.0));
#263=DIRECTION('',(0.0,1.0,0.0));
#264=ORIENTED_EDGE('',*,*,#320,.T.);
#265=ORIENTED_EDGE('',*,*,#356,.T.);
#266=ORIENTED_EDGE('',*,*,#354,.T.);
#267=ORIENTED_EDGE('',*,*,#348,.T.);
#268=CARTESIAN_POINT('',(0.005073223,-0.004926777,0.0));
#269=DIRECTION('',(0.707106781186548,0.707106781186548,0.0));
#270=DIRECTION('',(0.707106781186548,-0.707106781186548,0.0));
#271=ORIENTED_EDGE('',*,*,#342,.T.);
#272=ORIENTED_EDGE('',*,*,#351,.T.);
#273=ORIENTED_EDGE('',*,*,#353,.F.);
#274=ORIENTED_EDGE('',*,*,#357,.T.);
#275=CARTESIAN_POINT('',(0.004926777,-0.005073223,0.0));
#276=DIRECTION('',(-0.707106781186548,-0.707106781186548,-0.0));
#277=DIRECTION('',(-0.707106781186548,0.707106781186548,0.0));
#278=ORIENTED_EDGE('',*,*,#312,.T.);
#279=ORIENTED_EDGE('',*,*,#347,.F.);
#280=ORIENTED_EDGE('',*,*,#318,.T.);
#281=ORIENTED_EDGE('',*,*,#358,.F.);
#282=CARTESIAN_POINT('',(-0.01,0.01,0.0));
#283=DIRECTION('',(-1.0,0.0,0.0));
#284=DIRECTION('',(0.0,1.0,0.0));
#285=ORIENTED_EDGE('',*,*,#313,.T.);
#286=ORIENTED_EDGE('',*,*,#358,.T.);
#287=ORIENTED_EDGE('',*,*,#317,.T.);
#288=ORIENTED_EDGE('',*,*,#359,.T.);
#289=ORIENTED_EDGE('',*,*,#341,.F.);
#290=ORIENTED_EDGE('',*,*,#337,.F.);
#291=ORIENTED_EDGE('',*,*,#336,.F.);
#292=ORIENTED_EDGE('',*,*,#357,.F.);
#293=ORIENTED_EDGE('',*,*,#352,.F.);
#294=ORIENTED_EDGE('',*,*,#343,.F.);
#295=ORIENTED_EDGE('',*,*,#355,.F.);
#296=ORIENTED_EDGE('',*,*,#356,.F.);
#297=ORIENTED_EDGE('',*,*,#323,.F.);
#298=ORIENTED_EDGE('',*,*,#328,.F.);
#299=ORIENTED_EDGE('',*,*,#325,.F.);
#300=ORIENTED_EDGE('',*,*,#332,.F.);
#301=CARTESIAN_POINT('',(0.01,-0.010103553,0.0001035535));
#302=DIRECTION('',(0.0,0.0,-1.0));
#303=DIRECTION('',(-1.0,0.0,0.0));
#304=ORIENTED_EDGE('',*,*,#314,.T.);
#305=ORIENTED_EDGE('',*,*,#359,.F.);
#306=ORIENTED_EDGE('',*,*,#316,.F.);
#307=ORIENTED_EDGE('',*,*,#346,.F.);
#308=CARTESIAN_POINT('',(0.01,0.01,0.0));
#309=DIRECTION('',(1.0,0.0,0.0));
#310=DIRECTION('',(0.0,-1.0,0.0));
#311=COLOUR_RGB('',0.560784339904785,0.686274528503418,0.560784339904785);
#312=EDGE_CURVE('0:4485',#360,#361,#362,.T.);
#313=EDGE_CURVE('0:4488',#363,#360,#364,.T.);
#314=EDGE_CURVE('0:4494',#365,#363,#366,.T.);
#315=EDGE_CURVE('0:4491',#361,#365,#367,.T.);
#316=EDGE_CURVE('0:4227',#368,#369,#370,.T.);
#317=EDGE_CURVE('0:4234',#371,#369,#372,.T.);
#318=EDGE_CURVE('0:3986',#373,#371,#374,.T.);
#319=EDGE_CURVE('0:4250',#368,#373,#375,.T.);
#320=EDGE_CURVE('0:2298',#376,#377,#378,.T.);
#321=EDGE_CURVE('0:1590',#376,#379,#380,.T.);
#322=EDGE_CURVE('0:2313',#381,#379,#382,.T.);
#323=EDGE_CURVE('0:1707',#381,#377,#383,.T.);
#324=EDGE_CURVE('0:2310',#384,#385,#386,.T.);
#325=EDGE_CURVE('0:1686',#384,#387,#388,.T.);
#326=EDGE_CURVE('0:2301',#389,#387,#390,.T.);
#327=EDGE_CURVE('0:1611',#389,#385,#391,.T.);
#328=EDGE_CURVE('0:1491',#387,#392,#393,.T.);
#329=EDGE_CURVE('0:2271',#394,#392,#395,.T.);
#330=EDGE_CURVE('0:1374',#394,#389,#396,.T.);
#331=EDGE_CURVE('0:1179',#385,#394,#397,.T.);
#332=EDGE_CURVE('0:1254',#392,#384,#398,.T.);
#333=EDGE_CURVE('0:2256',#399,#400,#401,.T.);
#334=EDGE_CURVE('0:1158',#399,#402,#403,.T.);
#335=EDGE_CURVE('0:2253',#404,#402,#405,.T.);
#336=EDGE_CURVE('0:1275',#404,#400,#406,.T.);
#337=EDGE_CURVE('0:843',#400,#407,#408,.T.);
#338=EDGE_CURVE('0:2241',#407,#409,#410,.T.);
#339=EDGE_CURVE('0:726',#409,#399,#411,.T.);
#340=EDGE_CURVE('0:963',#402,#409,#412,.T.);
#341=EDGE_CURVE('0:1038',#407,#404,#413,.T.);
#342=EDGE_CURVE('0:2250',#414,#415,#416,.T.);
#343=EDGE_CURVE('0:1059',#414,#417,#418,.T.);
#344=EDGE_CURVE('0:2232',#419,#417,#420,.T.);
#345=EDGE_CURVE('0:942',#419,#415,#421,.T.);
#346=EDGE_CURVE('0:4538',#365,#368,#422,.T.);
#347=EDGE_CURVE('0:4510',#373,#361,#423,.T.);
#348=EDGE_CURVE('0:294',#424,#376,#425,.T.);
#349=EDGE_CURVE('0:531',#379,#424,#426,.T.);
#350=EDGE_CURVE('0:78',#427,#419,#428,.T.);
#351=EDGE_CURVE('0:315',#415,#427,#429,.T.);
#352=EDGE_CURVE('0:195',#417,#430,#431,.T.);
#353=EDGE_CURVE('0:2193',#430,#427,#432,.T.);
#354=EDGE_CURVE('0:2205',#433,#424,#434,.T.);
#355=EDGE_CURVE('0:606',#433,#381,#435,.T.);
#356=EDGE_CURVE('0:411',#377,#433,#436,.T.);
#357=EDGE_CURVE('0:390',#430,#414,#437,.T.);
#358=EDGE_CURVE('0:4502',#360,#371,#438,.T.);
#359=EDGE_CURVE('0:4522',#369,#363,#439,.T.);
#360=VERTEX_POINT('',#440);
#361=VERTEX_POINT('',#441);
#362=LINE('',#442,#443);
#363=VERTEX_POINT('',#444);
#364=LINE('',#445,#446);
#365=VERTEX_POINT('',#447);
#366=LINE('',#448,#449);
#367=LINE('',#450,#451);
#368=VERTEX_POINT('',#452);
#369=VERTEX_POINT('',#453);
#370=LINE('',#454,#455);
#371=VERTEX_POINT('',#456);
#372=LINE('',#457,#458);
#373=VERTEX_POINT('',#459);
#374=LINE('',#460,#461);
#375=LINE('',#462,#463);
#376=VERTEX_POINT('',#464);
#377=VERTEX_POINT('',#465);
#378=LINE('',#466,#467);
#379=VERTEX_POINT('',#468);
#380=LINE('',#469,#470);
#381=VERTEX_POINT('',#471);
#382=LINE('',#472,#473);
#383=LINE('',#474,#475);
#384=VERTEX_POINT('',#476);
#385=VERTEX_POINT('',#477);
#386=LINE('',#478,#479);
#387=VERTEX_POINT('',#480);
#388=LINE('',#481,#482);
#389=VERTEX_POINT('',#483);
#390=LINE('',#484,#485);
#391=LINE('',#486,#487);
#392=VERTEX_POINT('',#488);
#393=LINE('',#489,#490);
#394=VERTEX_POINT('',#491);
#395=LINE('',#492,#493);
#396=LINE('',#494,#495);
#397=LINE('',#496,#497);
#398=LINE('',#498,#499);
#399=VERTEX_POINT('',#500);
#400=VERTEX_POINT('',#501);
#401=LINE('',#502,#503);
#402=VERTEX_POINT('',#504);
#403=LINE('',#505,#506);
#404=VERTEX_POINT('',#507);
#405=LINE('',#508,#509);
#406=LINE('',#510,#511);
#407=VERTEX_POINT('',#512);
#408=LINE('',#513,#514);
#409=VERTEX_POINT('',#515);
#410=LINE('',#516,#517);
#411=LINE('',#518,#519);
#412=LINE('',#520,#521);
#413=LINE('',#522,#523);
#414=VERTEX_POINT('',#524);
#415=VERTEX_POINT('',#525);
#416=LINE('',#526,#527);
#417=VERTEX_POINT('',#528);
#418=LINE('',#529,#530);
#419=VERTEX_POINT('',#531);
#420=LINE('',#532,#533);
#421=LINE('',#534,#535);
#422=LINE('',#536,#537);
#423=LINE('',#538,#539);
#424=VERTEX_POINT('',#540);
#425=LINE('',#541,#542);
#426=LINE('',#543,#544);
#427=VERTEX_POINT('',#545);
#428=LINE('',#546,#547);
#429=LINE('',#548,#549);
#430=VERTEX_POINT('',#550);
#431=LINE('',#551,#552);
#432=LINE('',#553,#554);
#433=VERTEX_POINT('',#555);
#434=LINE('',#556,#557);
#435=LINE('',#558,#559);
#436=LINE('',#560,#561);
#437=LINE('',#562,#563);
#438=LINE('',#564,#565);
#439=LINE('',#566,#567);
#440=CARTESIAN_POINT('',(-0.01,0.01,0.0001035535));
#441=CARTESIAN_POINT('',(-0.01,0.01,-0.0001035535));
#442=CARTESIAN_POINT('',(-0.01,0.01,5.177675E-05));
#443=VECTOR('',#568,1.0);
#444=CARTESIAN_POINT('',(0.01,0.01,0.0001035535));
#445=CARTESIAN_POINT('',(0.0099482235,0.01,0.0001035535));
#446=VECTOR('',#569,1.0);
#447=CARTESIAN_POINT('',(0.01,0.01,-0.0001035535));
#448=CARTESIAN_POINT('',(0.01,0.01,5.177675E-05));
#449=VECTOR('',#570,1.0);
#450=CARTESIAN_POINT('',(0.0099482235,0.01,-0.0001035535));
#451=VECTOR('',#571,1.0);
#452=CARTESIAN_POINT('',(0.01,-0.01,-0.0001035535));
#453=CARTESIAN_POINT('',(0.01,-0.01,0.0001035535));
#454=CARTESIAN_POINT('',(0.01,-0.01,5.177675E-05));
#455=VECTOR('',#572,1.0);
#456=CARTESIAN_POINT('',(-0.01,-0.01,0.0001035535));
#457=CARTESIAN_POINT('',(5.17764999999996E-05,-0.01,0.0001035535));
#458=VECTOR('',#573,1.0);
#459=CARTESIAN_POINT('',(-0.01,-0.01,-0.0001035535));
#460=CARTESIAN_POINT('',(-0.01,-0.01,5.177675E-05));
#461=VECTOR('',#574,1.0);
#462=CARTESIAN_POINT('',(5.17764999999996E-05,-0.01,-0.0001035535));
#463=VECTOR('',#575,1.0);
#464=CARTESIAN_POINT('',(0.000146446000000001,0.0,-0.0001035535));
#465=CARTESIAN_POINT('',(0.000146446000000001,-7.31836466427715E-19,0.0001035535));
#466=CARTESIAN_POINT('',(0.000146446000000001,4.33680868994202E-19,0.0));
#467=VECTOR('',#576,1.0);
#468=CARTESIAN_POINT('',(0.009896447,0.009750001,-0.0001035535));
#469=CARTESIAN_POINT('',(0.010073223,0.009926777,-0.0001035535));
#470=VECTOR('',#577,1.0);
#471=CARTESIAN_POINT('',(0.009896447,0.009750001,0.0001035535));
#472=CARTESIAN_POINT('',(0.009896447,0.009750001,0.0));
#473=VECTOR('',#578,1.0);
#474=CARTESIAN_POINT('',(0.010073223,0.009926777,0.0001035535));
#475=VECTOR('',#579,1.0);
#476=CARTESIAN_POINT('',(7.31836466427715E-19,0.000146446000000001,0.0001035535));
#477=CARTESIAN_POINT('',(7.31836466427715E-19,0.000146446000000001,-0.0001035535));
#478=CARTESIAN_POINT('',(2.16840434497101E-18,0.000146446000000001,0.0));
#479=VECTOR('',#580,1.0);
#480=CARTESIAN_POINT('',(0.009750001,0.009896447,0.0001035535));
#481=CARTESIAN_POINT('',(-7.3223E-05,7.3223E-05,0.0001035535));
#482=VECTOR('',#581,1.0);
#483=CARTESIAN_POINT('',(0.009750001,0.009896447,-0.0001035535));
#484=CARTESIAN_POINT('',(0.009750001,0.009896447,0.0));
#485=VECTOR('',#582,1.0);
#486=CARTESIAN_POINT('',(-7.3223E-05,7.3223E-05,-0.0001035535));
#487=VECTOR('',#583,1.0);
#488=CARTESIAN_POINT('',(-0.009750001,0.009896447,0.0001035535));
#489=CARTESIAN_POINT('',(0.01,0.009896447,0.0001035535));
#490=VECTOR('',#584,1.0);
#491=CARTESIAN_POINT('',(-0.009750001,0.009896447,-0.0001035535));
#492=CARTESIAN_POINT('',(-0.009750001,0.009896447,0.0));
#493=VECTOR('',#585,1.0);
#494=CARTESIAN_POINT('',(0.01,0.009896447,-0.0001035535));
#495=VECTOR('',#586,1.0);
#496=CARTESIAN_POINT('',(-0.009926777,0.010073223,-0.0001035535));
#497=VECTOR('',#587,1.0);
#498=CARTESIAN_POINT('',(-0.009926777,0.010073223,0.0001035535));
#499=VECTOR('',#588,1.0);
#500=CARTESIAN_POINT('',(-0.009896447,0.009750001,-0.0001035535));
#501=CARTESIAN_POINT('',(-0.009896447,0.009750001,0.0001035535));
#502=CARTESIAN_POINT('',(-0.009896447,0.009750001,0.0));
#503=VECTOR('',#589,1.0);
#504=CARTESIAN_POINT('',(-0.000146446000000001,0.0,-0.0001035535));
#505=CARTESIAN_POINT('',(-7.3223E-05,-7.3223E-05,-0.0001035535));
#506=VECTOR('',#590,1.0);
#507=CARTESIAN_POINT('',(-0.000146446000000001,7.31836466427715E-19,0.0001035535));
#508=CARTESIAN_POINT('',(-0.000146446000000001,2.16840434497101E-18,0.0));
#509=VECTOR('',#591,1.0);
#510=CARTESIAN_POINT('',(-7.3223E-05,-7.3223E-05,0.0001035535));
#511=VECTOR('',#592,1.0);
#512=CARTESIAN_POINT('',(-0.009896447,-0.009750001,0.0001035535));
#513=CARTESIAN_POINT('',(-0.009896447,0.01,0.0001035535));
#514=VECTOR('',#593,1.0);
#515=CARTESIAN_POINT('',(-0.009896447,-0.009750001,-0.0001035535));
#516=CARTESIAN_POINT('',(-0.009896447,-0.009750001,0.0));
#517=VECTOR('',#594,1.0);
#518=CARTESIAN_POINT('',(-0.009896447,0.01,-0.0001035535));
#519=VECTOR('',#595,1.0);
#520=CARTESIAN_POINT('',(-0.010073223,-0.009926777,-0.0001035535));
#521=VECTOR('',#596,1.0);
#522=CARTESIAN_POINT('',(-0.010073223,-0.009926777,0.0001035535));
#523=VECTOR('',#597,1.0);
#524=CARTESIAN_POINT('',(0.0,-0.000146446000000001,0.0001035535));
#525=CARTESIAN_POINT('',(0.0,-0.000146446000000001,-0.0001035535));
#526=CARTESIAN_POINT('',(-2.16840434497101E-18,-0.000146446000000001,0.0));
#527=VECTOR('',#598,1.0);
#528=CARTESIAN_POINT('',(-0.009750001,-0.009896447,0.0001035535));
#529=CARTESIAN_POINT('',(7.3223E-05,-7.3223E-05,0.0001035535));
#530=VECTOR('',#599,1.0);
#531=CARTESIAN_POINT('',(-0.009750001,-0.009896447,-0.0001035535));
#532=CARTESIAN_POINT('',(-0.009750001,-0.009896447,0.0));
#533=VECTOR('',#600,1.0);
#534=CARTESIAN_POINT('',(7.3223E-05,-7.3223E-05,-0.0001035535));
#535=VECTOR('',#601,1.0);
#536=CARTESIAN_POINT('',(0.01,0.0,-0.0001035535));
#537=VECTOR('',#602,1.0);
#538=CARTESIAN_POINT('',(-0.01,-0.010103553,-0.0001035535));
#539=VECTOR('',#603,1.0);
#540=CARTESIAN_POINT('',(0.009896447,-0.009750001,-0.0001035535));
#541=CARTESIAN_POINT('',(7.3223E-05,7.3223E-05,-0.0001035535));
#542=VECTOR('',#604,1.0);
#543=CARTESIAN_POINT('',(0.009896447,-0.01,-0.0001035535));
#544=VECTOR('',#605,1.0);
#545=CARTESIAN_POINT('',(0.009750001,-0.009896447,-0.0001035535));
#546=CARTESIAN_POINT('',(-0.01,-0.009896447,-0.0001035535));
#547=VECTOR('',#606,1.0);
#548=CARTESIAN_POINT('',(0.009926777,-0.010073223,-0.0001035535));
#549=VECTOR('',#607,1.0);
#550=CARTESIAN_POINT('',(0.009750001,-0.009896447,0.0001035535));
#551=CARTESIAN_POINT('',(-0.01,-0.009896447,0.0001035535));
#552=VECTOR('',#608,1.0);
#553=CARTESIAN_POINT('',(0.009750001,-0.009896447,0.0));
#554=VECTOR('',#609,1.0);
#555=CARTESIAN_POINT('',(0.009896447,-0.009750001,0.0001035535));
#556=CARTESIAN_POINT('',(0.009896447,-0.009750001,0.0));
#557=VECTOR('',#610,1.0);
#558=CARTESIAN_POINT('',(0.009896447,-0.01,0.0001035535));
#559=VECTOR('',#611,1.0);
#560=CARTESIAN_POINT('',(7.3223E-05,7.3223E-05,0.0001035535));
#561=VECTOR('',#612,1.0);
#562=CARTESIAN_POINT('',(0.009926777,-0.010073223,0.0001035535));
#563=VECTOR('',#613,1.0);
#564=CARTESIAN_POINT('',(-0.01,-0.010103553,0.0001035535));
#565=VECTOR('',#614,1.0);
#566=CARTESIAN_POINT('',(0.01,0.0,0.0001035535));
#567=VECTOR('',#615,1.0);
#568=DIRECTION('',(0.0,0.0,-1.0));
#569=DIRECTION('',(-1.0,0.0,-0.0));
#570=DIRECTION('',(0.0,-0.0,1.0));
#571=DIRECTION('',(1.0,0.0,0.0));
#572=DIRECTION('',(0.0,0.0,1.0));
#573=DIRECTION('',(1.0,-0.0,0.0));
#574=DIRECTION('',(0.0,-0.0,1.0));
#575=DIRECTION('',(-1.0,0.0,0.0));
#576=DIRECTION('',(-0.0,0.0,1.0));
#577=DIRECTION('',(0.707106781186548,0.707106781186548,0.0));
#578=DIRECTION('',(-0.0,-0.0,-1.0));
#579=DIRECTION('',(-0.707106781186548,-0.707106781186548,0.0));
#580=DIRECTION('',(0.0,0.0,-1.0));
#581=DIRECTION('',(0.707106781186548,0.707106781186548,0.0));
#582=DIRECTION('',(0.0,-0.0,1.0));
#583=DIRECTION('',(-0.707106781186548,-0.707106781186548,-0.0));
#584=DIRECTION('',(-1.0,0.0,0.0));
#585=DIRECTION('',(0.0,0.0,1.0));
#586=DIRECTION('',(1.0,0.0,0.0));
#587=DIRECTION('',(-0.707106781186548,0.707106781186548,0.0));
#588=DIRECTION('',(0.707106781186548,-0.707106781186548,0.0));
#589=DIRECTION('',(0.0,0.0,1.0));
#590=DIRECTION('',(0.707106781186548,-0.707106781186548,0.0));
#591=DIRECTION('',(0.0,0.0,-1.0));
#592=DIRECTION('',(-0.707106781186548,0.707106781186548,0.0));
#593=DIRECTION('',(0.0,-1.0,0.0));
#594=DIRECTION('',(0.0,0.0,-1.0));
#595=DIRECTION('',(0.0,1.0,0.0));
#596=DIRECTION('',(-0.707106781186548,-0.707106781186548,-0.0));
#597=DIRECTION('',(0.707106781186548,0.707106781186548,0.0));
#598=DIRECTION('',(0.0,0.0,-1.0));
#599=DIRECTION('',(-0.707106781186548,-0.707106781186548,0.0));
#600=DIRECTION('',(-0.0,-0.0,1.0));
#601=DIRECTION('',(0.707106781186548,0.707106781186548,0.0));
#602=DIRECTION('',(0.0,-1.0,0.0));
#603=DIRECTION('',(0.0,1.0,0.0));
#604=DIRECTION('',(-0.707106781186548,0.707106781186548,0.0));
#605=DIRECTION('',(-0.0,-1.0,-0.0));
#606=DIRECTION('',(-1.0,-0.0,-0.0));
#607=DIRECTION('',(0.707106781186548,-0.707106781186548,0.0));
#608=DIRECTION('',(1.0,0.0,0.0));
#609=DIRECTION('',(0.0,0.0,-1.0));
#610=DIRECTION('',(0.0,0.0,-1.0));
#611=DIRECTION('',(0.0,1.0,0.0));
#612=DIRECTION('',(0.707106781186548,-0.707106781186548,0.0));
#613=DIRECTION('',(-0.707106781186548,0.707106781186548,0.0));
#614=DIRECTION('',(-0.0,-1.0,-0.0));
#615=DIRECTION('',(-0.0,1.0,0.0));
#616=PRESENTATION_LAYER_ASSIGNMENT('9','\X2\56FE5C42\X0\0',(#25));
ENDSEC;
END-ISO-10303-21;
