ISO-10303-21;
HEADER;
FILE_DESCRIPTION(('STEP AP214'),'1');
FILE_NAME('cell2.stp','2026-06-24T13:28:57',(' '),(' '),'Spatial InterOp 3D',' ',' ');
FILE_SCHEMA(('AUTOMOTIVE_DESIGN { 1 0 10303 214 1 1 1 1 }'));
ENDSEC;
DATA;
#1=MECHANICAL_DESIGN_GEOMETRIC_PRESENTATION_REPRESENTATION(' ',(#10),#6);
#2=PRODUCT_DEFINITION_CONTEXT('',#11,'design');
#3=APPLICATION_PROTOCOL_DEFINITION('INTERNATIONAL STANDARD','automotive_design',1994,#11);
#4=PRODUCT_CATEGORY_RELATIONSHIP('NONE','NONE',#12,#13);
#5=SHAPE_DEFINITION_REPRESENTATION(#14,#15);
#6= (GEOMETRIC_REPRESENTATION_CONTEXT(3)GLOBAL_UNCERTAINTY_ASSIGNED_CONTEXT((#18))GLOBAL_UNIT_ASSIGNED_CONTEXT((#20,#21,#22))REPRESENTATION_CONTEXT('NONE','WORKSPACE'));
#10=STYLED_ITEM('',(#24),#25);
#11=APPLICATION_CONTEXT(' ');
#12=PRODUCT_CATEGORY('part','NONE');
#13=PRODUCT_RELATED_PRODUCT_CATEGORY('detail',' ',(#26));
#14=PRODUCT_DEFINITION_SHAPE('NONE','NONE',#27);
#15=ADVANCED_BREP_SHAPE_REPRESENTATION('\X2\5B9E4F53\X0\',(#25,#28),#6);
#18=UNCERTAINTY_MEASURE_WITH_UNIT(LENGTH_MEASURE(1.0E-08),#20,'','');
#20= (CONVERSION_BASED_UNIT('METRE',#31)LENGTH_UNIT()NAMED_UNIT(#34));
#21= (NAMED_UNIT(#36)PLANE_ANGLE_UNIT()SI_UNIT($,.RADIAN.));
#22= (NAMED_UNIT(#36)SOLID_ANGLE_UNIT()SI_UNIT($,.STERADIAN.));
#24=PRESENTATION_STYLE_ASSIGNMENT((#42));
#25=MANIFOLD_SOLID_BREP('\X2\5B9E4F53\X0\',#43);
#26=PRODUCT('\X2\5B9E4F53\X0\','','PART--DESC',(#44));
#27=PRODUCT_DEFINITION('','NONE',#45,#2);
#28=AXIS2_PLACEMENT_3D('',#46,#47,#48);
#31=LENGTH_MEASURE_WITH_UNIT(LENGTH_MEASURE(1.0),#49);
#34=DIMENSIONAL_EXPONENTS(1.0,0.0,0.0,0.0,0.0,0.0,0.0);
#36=DIMENSIONAL_EXPONENTS(0.0,0.0,0.0,0.0,0.0,0.0,0.0);
#42=SURFACE_STYLE_USAGE(.BOTH.,#50);
#43=CLOSED_SHELL('',(#51,#52,#53,#54,#55,#56,#57,#58,#59,#60,#61,#62,#63,#64,#65,#66,#67,#68,#69,#70,#71,#72));
#44=PRODUCT_CONTEXT('',#11,'mechanical');
#45=PRODUCT_DEFINITION_FORMATION_WITH_SPECIFIED_SOURCE(' ','NONE',#26,.NOT_KNOWN.);
#46=CARTESIAN_POINT('',(0.0,0.0,0.0));
#47=DIRECTION('',(0.0,0.0,1.0));
#48=DIRECTION('',(1.0,0.0,0.0));
#49= (NAMED_UNIT(#34)LENGTH_UNIT()SI_UNIT($,.METRE.));
#50=SURFACE_SIDE_STYLE('',(#74));
#51=ADVANCED_FACE('1:6282',(#75),#76,.T.);
#52=ADVANCED_FACE('1:6054',(#77),#78,.T.);
#53=ADVANCED_FACE('1:2520',(#79),#80,.T.);
#54=ADVANCED_FACE('1:2298',(#81),#82,.T.);
#55=ADVANCED_FACE('1:2088',(#83),#84,.T.);
#56=ADVANCED_FACE('1:1872',(#85),#86,.T.);
#57=ADVANCED_FACE('1:1650',(#87),#88,.T.);
#58=ADVANCED_FACE('1:1002',(#89),#90,.T.);
#59=ADVANCED_FACE('1:1434',(#91),#92,.T.);
#60=ADVANCED_FACE('1:1440',(#93),#94,.T.);
#61=ADVANCED_FACE('1:6306',(#95,#96,#97,#98,#99),#100,.F.);
#62=ADVANCED_FACE('1:1218',(#101),#102,.T.);
#63=ADVANCED_FACE('1:1224',(#103),#104,.T.);
#64=ADVANCED_FACE('1:570',(#105),#106,.T.);
#65=ADVANCED_FACE('1:1008',(#107),#108,.T.);
#66=ADVANCED_FACE('1:576',(#109),#110,.T.);
#67=ADVANCED_FACE('1:792',(#111),#112,.T.);
#68=ADVANCED_FACE('1:354',(#113),#114,.T.);
#69=ADVANCED_FACE('1:144',(#115),#116,.T.);
#70=ADVANCED_FACE('1:6286',(#117),#118,.T.);
#71=ADVANCED_FACE('1:6299',(#119,#120,#121,#122,#123),#124,.T.);
#72=ADVANCED_FACE('1:6319',(#125),#126,.T.);
#74=SURFACE_STYLE_FILL_AREA(#127);
#75=FACE_OUTER_BOUND('',#128,.T.);
#76=PLANE('',#129);
#77=FACE_OUTER_BOUND('',#130,.T.);
#78=PLANE('',#131);
#79=FACE_OUTER_BOUND('',#132,.T.);
#80=PLANE('',#133);
#81=FACE_OUTER_BOUND('',#134,.T.);
#82=PLANE('',#135);
#83=FACE_OUTER_BOUND('',#136,.T.);
#84=PLANE('',#137);
#85=FACE_OUTER_BOUND('',#138,.T.);
#86=PLANE('',#139);
#87=FACE_OUTER_BOUND('',#140,.T.);
#88=PLANE('',#141);
#89=FACE_OUTER_BOUND('',#142,.T.);
#90=PLANE('',#143);
#91=FACE_OUTER_BOUND('',#144,.T.);
#92=PLANE('',#145);
#93=FACE_OUTER_BOUND('',#146,.T.);
#94=PLANE('',#147);
#95=FACE_OUTER_BOUND('',#148,.T.);
#96=FACE_BOUND('',#149,.T.);
#97=FACE_BOUND('',#150,.T.);
#98=FACE_BOUND('',#151,.T.);
#99=FACE_BOUND('',#152,.T.);
#100=PLANE('',#153);
#101=FACE_OUTER_BOUND('',#154,.T.);
#102=PLANE('',#155);
#103=FACE_OUTER_BOUND('',#156,.T.);
#104=PLANE('',#157);
#105=FACE_OUTER_BOUND('',#158,.T.);
#106=PLANE('',#159);
#107=FACE_OUTER_BOUND('',#160,.T.);
#108=PLANE('',#161);
#109=FACE_OUTER_BOUND('',#162,.T.);
#110=PLANE('',#163);
#111=FACE_OUTER_BOUND('',#164,.T.);
#112=PLANE('',#165);
#113=FACE_OUTER_BOUND('',#166,.T.);
#114=PLANE('',#167);
#115=FACE_OUTER_BOUND('',#168,.T.);
#116=PLANE('',#169);
#117=FACE_OUTER_BOUND('',#170,.T.);
#118=PLANE('',#171);
#119=FACE_BOUND('',#172,.T.);
#120=FACE_OUTER_BOUND('',#173,.T.);
#121=FACE_BOUND('',#174,.T.);
#122=FACE_BOUND('',#175,.T.);
#123=FACE_BOUND('',#176,.T.);
#124=PLANE('',#177);
#125=FACE_OUTER_BOUND('',#178,.T.);
#126=PLANE('',#179);
#127=FILL_AREA_STYLE('',(#180));
#128=EDGE_LOOP('',(#181,#182,#183,#184));
#129=AXIS2_PLACEMENT_3D('',#185,#186,#187);
#130=EDGE_LOOP('',(#188,#189,#190,#191));
#131=AXIS2_PLACEMENT_3D('',#192,#193,#194);
#132=EDGE_LOOP('',(#195,#196,#197,#198));
#133=AXIS2_PLACEMENT_3D('',#199,#200,#201);
#134=EDGE_LOOP('',(#202,#203,#204,#205));
#135=AXIS2_PLACEMENT_3D('',#206,#207,#208);
#136=EDGE_LOOP('',(#209,#210,#211,#212));
#137=AXIS2_PLACEMENT_3D('',#213,#214,#215);
#138=EDGE_LOOP('',(#216,#217,#218,#219));
#139=AXIS2_PLACEMENT_3D('',#220,#221,#222);
#140=EDGE_LOOP('',(#223,#224,#225,#226));
#141=AXIS2_PLACEMENT_3D('',#227,#228,#229);
#142=EDGE_LOOP('',(#230,#231,#232,#233));
#143=AXIS2_PLACEMENT_3D('',#234,#235,#236);
#144=EDGE_LOOP('',(#237,#238,#239,#240));
#145=AXIS2_PLACEMENT_3D('',#241,#242,#243);
#146=EDGE_LOOP('',(#244,#245,#246,#247));
#147=AXIS2_PLACEMENT_3D('',#248,#249,#250);
#148=EDGE_LOOP('',(#251,#252,#253,#254));
#149=EDGE_LOOP('',(#255,#256,#257,#258));
#150=EDGE_LOOP('',(#259,#260,#261,#262));
#151=EDGE_LOOP('',(#263,#264,#265,#266));
#152=EDGE_LOOP('',(#267,#268,#269,#270));
#153=AXIS2_PLACEMENT_3D('',#271,#272,#273);
#154=EDGE_LOOP('',(#274,#275,#276,#277));
#155=AXIS2_PLACEMENT_3D('',#278,#279,#280);
#156=EDGE_LOOP('',(#281,#282,#283,#284));
#157=AXIS2_PLACEMENT_3D('',#285,#286,#287);
#158=EDGE_LOOP('',(#288,#289,#290,#291));
#159=AXIS2_PLACEMENT_3D('',#292,#293,#294);
#160=EDGE_LOOP('',(#295,#296,#297,#298));
#161=AXIS2_PLACEMENT_3D('',#299,#300,#301);
#162=EDGE_LOOP('',(#302,#303,#304,#305));
#163=AXIS2_PLACEMENT_3D('',#306,#307,#308);
#164=EDGE_LOOP('',(#309,#310,#311,#312));
#165=AXIS2_PLACEMENT_3D('',#313,#314,#315);
#166=EDGE_LOOP('',(#316,#317,#318,#319));
#167=AXIS2_PLACEMENT_3D('',#320,#321,#322);
#168=EDGE_LOOP('',(#323,#324,#325,#326));
#169=AXIS2_PLACEMENT_3D('',#327,#328,#329);
#170=EDGE_LOOP('',(#330,#331,#332,#333));
#171=AXIS2_PLACEMENT_3D('',#334,#335,#336);
#172=EDGE_LOOP('',(#337,#338,#339,#340));
#173=EDGE_LOOP('',(#341,#342,#343,#344));
#174=EDGE_LOOP('',(#345,#346,#347,#348));
#175=EDGE_LOOP('',(#349,#350,#351,#352));
#176=EDGE_LOOP('',(#353,#354,#355,#356));
#177=AXIS2_PLACEMENT_3D('',#357,#358,#359);
#178=EDGE_LOOP('',(#360,#361,#362,#363));
#179=AXIS2_PLACEMENT_3D('',#364,#365,#366);
#180=FILL_AREA_STYLE_COLOUR('',#367);
#181=ORIENTED_EDGE('',*,*,#368,.F.);
#182=ORIENTED_EDGE('',*,*,#369,.F.);
#183=ORIENTED_EDGE('',*,*,#370,.F.);
#184=ORIENTED_EDGE('',*,*,#371,.F.);
#185=CARTESIAN_POINT('',(-0.009896447,-0.01,0.0001035535));
#186=DIRECTION('',(-0.0,-1.0,-0.0));
#187=DIRECTION('',(-1.0,0.0,0.0));
#188=ORIENTED_EDGE('',*,*,#372,.T.);
#189=ORIENTED_EDGE('',*,*,#373,.F.);
#190=ORIENTED_EDGE('',*,*,#374,.T.);
#191=ORIENTED_EDGE('',*,*,#375,.F.);
#192=CARTESIAN_POINT('',(-0.01,0.01,0.0));
#193=DIRECTION('',(-0.0,1.0,0.0));
#194=DIRECTION('',(1.0,0.0,0.0));
#195=ORIENTED_EDGE('',*,*,#376,.F.);
#196=ORIENTED_EDGE('',*,*,#377,.T.);
#197=ORIENTED_EDGE('',*,*,#378,.F.);
#198=ORIENTED_EDGE('',*,*,#379,.T.);
#199=CARTESIAN_POINT('',(-0.005,0.009875,0.0));
#200=DIRECTION('',(-0.0,-1.0,-0.0));
#201=DIRECTION('',(-1.0,0.0,0.0));
#202=ORIENTED_EDGE('',*,*,#380,.F.);
#203=ORIENTED_EDGE('',*,*,#381,.T.);
#204=ORIENTED_EDGE('',*,*,#382,.F.);
#205=ORIENTED_EDGE('',*,*,#383,.T.);
#206=CARTESIAN_POINT('',(0.005,0.009875,0.0));
#207=DIRECTION('',(-0.0,-1.0,-0.0));
#208=DIRECTION('',(-1.0,0.0,0.0));
#209=ORIENTED_EDGE('',*,*,#382,.T.);
#210=ORIENTED_EDGE('',*,*,#384,.T.);
#211=ORIENTED_EDGE('',*,*,#385,.F.);
#212=ORIENTED_EDGE('',*,*,#386,.T.);
#213=CARTESIAN_POINT('',(0.009875,0.005,0.0));
#214=DIRECTION('',(-1.0,0.0,0.0));
#215=DIRECTION('',(0.0,1.0,0.0));
#216=ORIENTED_EDGE('',*,*,#387,.F.);
#217=ORIENTED_EDGE('',*,*,#388,.T.);
#218=ORIENTED_EDGE('',*,*,#389,.F.);
#219=ORIENTED_EDGE('',*,*,#390,.T.);
#220=CARTESIAN_POINT('',(0.009875,-0.005,0.0));
#221=DIRECTION('',(-1.0,0.0,0.0));
#222=DIRECTION('',(0.0,1.0,0.0));
#223=ORIENTED_EDGE('',*,*,#376,.T.);
#224=ORIENTED_EDGE('',*,*,#391,.T.);
#225=ORIENTED_EDGE('',*,*,#392,.F.);
#226=ORIENTED_EDGE('',*,*,#393,.T.);
#227=CARTESIAN_POINT('',(-0.009875,0.005,0.0));
#228=DIRECTION('',(1.0,0.0,0.0));
#229=DIRECTION('',(0.0,-1.0,0.0));
#230=ORIENTED_EDGE('',*,*,#392,.T.);
#231=ORIENTED_EDGE('',*,*,#394,.T.);
#232=ORIENTED_EDGE('',*,*,#395,.T.);
#233=ORIENTED_EDGE('',*,*,#396,.T.);
#234=CARTESIAN_POINT('',(-0.005,0.000125,0.0));
#235=DIRECTION('',(-0.0,1.0,0.0));
#236=DIRECTION('',(1.0,0.0,0.0));
#237=ORIENTED_EDGE('',*,*,#380,.T.);
#238=ORIENTED_EDGE('',*,*,#397,.T.);
#239=ORIENTED_EDGE('',*,*,#398,.F.);
#240=ORIENTED_EDGE('',*,*,#399,.T.);
#241=CARTESIAN_POINT('',(0.000125,0.005,0.0));
#242=DIRECTION('',(1.0,0.0,0.0));
#243=DIRECTION('',(0.0,-1.0,0.0));
#244=ORIENTED_EDGE('',*,*,#378,.T.);
#245=ORIENTED_EDGE('',*,*,#400,.T.);
#246=ORIENTED_EDGE('',*,*,#395,.F.);
#247=ORIENTED_EDGE('',*,*,#401,.T.);
#248=CARTESIAN_POINT('',(-0.000125,0.005,0.0));
#249=DIRECTION('',(-1.0,0.0,0.0));
#250=DIRECTION('',(0.0,1.0,0.0));
#251=ORIENTED_EDGE('',*,*,#371,.T.);
#252=ORIENTED_EDGE('',*,*,#402,.T.);
#253=ORIENTED_EDGE('',*,*,#373,.T.);
#254=ORIENTED_EDGE('',*,*,#403,.T.);
#255=ORIENTED_EDGE('',*,*,#404,.F.);
#256=ORIENTED_EDGE('',*,*,#405,.F.);
#257=ORIENTED_EDGE('',*,*,#406,.F.);
#258=ORIENTED_EDGE('',*,*,#407,.F.);
#259=ORIENTED_EDGE('',*,*,#408,.F.);
#260=ORIENTED_EDGE('',*,*,#409,.F.);
#261=ORIENTED_EDGE('',*,*,#410,.F.);
#262=ORIENTED_EDGE('',*,*,#390,.F.);
#263=ORIENTED_EDGE('',*,*,#401,.F.);
#264=ORIENTED_EDGE('',*,*,#394,.F.);
#265=ORIENTED_EDGE('',*,*,#391,.F.);
#266=ORIENTED_EDGE('',*,*,#379,.F.);
#267=ORIENTED_EDGE('',*,*,#411,.F.);
#268=ORIENTED_EDGE('',*,*,#397,.F.);
#269=ORIENTED_EDGE('',*,*,#383,.F.);
#270=ORIENTED_EDGE('',*,*,#386,.F.);
#271=CARTESIAN_POINT('',(-0.000125,-0.01,0.000125));
#272=DIRECTION('',(0.0,0.0,-1.0));
#273=DIRECTION('',(-1.0,0.0,0.0));
#274=ORIENTED_EDGE('',*,*,#387,.T.);
#275=ORIENTED_EDGE('',*,*,#410,.T.);
#276=ORIENTED_EDGE('',*,*,#412,.F.);
#277=ORIENTED_EDGE('',*,*,#413,.T.);
#278=CARTESIAN_POINT('',(0.005,-0.000125,0.0));
#279=DIRECTION('',(-0.0,-1.0,-0.0));
#280=DIRECTION('',(-1.0,0.0,0.0));
#281=ORIENTED_EDGE('',*,*,#385,.T.);
#282=ORIENTED_EDGE('',*,*,#414,.T.);
#283=ORIENTED_EDGE('',*,*,#398,.T.);
#284=ORIENTED_EDGE('',*,*,#411,.T.);
#285=CARTESIAN_POINT('',(0.005,0.000125,0.0));
#286=DIRECTION('',(-0.0,1.0,0.0));
#287=DIRECTION('',(1.0,0.0,0.0));
#288=ORIENTED_EDGE('',*,*,#412,.T.);
#289=ORIENTED_EDGE('',*,*,#409,.T.);
#290=ORIENTED_EDGE('',*,*,#415,.T.);
#291=ORIENTED_EDGE('',*,*,#416,.T.);
#292=CARTESIAN_POINT('',(0.000125,-0.005,0.0));
#293=DIRECTION('',(1.0,0.0,0.0));
#294=DIRECTION('',(0.0,-1.0,0.0));
#295=ORIENTED_EDGE('',*,*,#417,.F.);
#296=ORIENTED_EDGE('',*,*,#418,.T.);
#297=ORIENTED_EDGE('',*,*,#419,.F.);
#298=ORIENTED_EDGE('',*,*,#407,.T.);
#299=CARTESIAN_POINT('',(-0.005,-0.000125,0.0));
#300=DIRECTION('',(-0.0,-1.0,-0.0));
#301=DIRECTION('',(-1.0,0.0,0.0));
#302=ORIENTED_EDGE('',*,*,#419,.T.);
#303=ORIENTED_EDGE('',*,*,#420,.T.);
#304=ORIENTED_EDGE('',*,*,#421,.F.);
#305=ORIENTED_EDGE('',*,*,#404,.T.);
#306=CARTESIAN_POINT('',(-0.000125,-0.005,0.0));
#307=DIRECTION('',(-1.0,0.0,0.0));
#308=DIRECTION('',(0.0,1.0,0.0));
#309=ORIENTED_EDGE('',*,*,#389,.T.);
#310=ORIENTED_EDGE('',*,*,#422,.T.);
#311=ORIENTED_EDGE('',*,*,#415,.F.);
#312=ORIENTED_EDGE('',*,*,#408,.T.);
#313=CARTESIAN_POINT('',(0.005,-0.009875,0.0));
#314=DIRECTION('',(-0.0,1.0,0.0));
#315=DIRECTION('',(1.0,0.0,0.0));
#316=ORIENTED_EDGE('',*,*,#417,.T.);
#317=ORIENTED_EDGE('',*,*,#406,.T.);
#318=ORIENTED_EDGE('',*,*,#423,.F.);
#319=ORIENTED_EDGE('',*,*,#424,.T.);
#320=CARTESIAN_POINT('',(-0.009875,-0.005,0.0));
#321=DIRECTION('',(1.0,0.0,0.0));
#322=DIRECTION('',(0.0,-1.0,0.0));
#323=ORIENTED_EDGE('',*,*,#421,.T.);
#324=ORIENTED_EDGE('',*,*,#425,.T.);
#325=ORIENTED_EDGE('',*,*,#423,.T.);
#326=ORIENTED_EDGE('',*,*,#405,.T.);
#327=CARTESIAN_POINT('',(-0.005,-0.009875,0.0));
#328=DIRECTION('',(-0.0,1.0,0.0));
#329=DIRECTION('',(1.0,0.0,0.0));
#330=ORIENTED_EDGE('',*,*,#368,.T.);
#331=ORIENTED_EDGE('',*,*,#403,.F.);
#332=ORIENTED_EDGE('',*,*,#372,.F.);
#333=ORIENTED_EDGE('',*,*,#426,.F.);
#334=CARTESIAN_POINT('',(-0.01,-0.01,0.0));
#335=DIRECTION('',(-1.0,0.0,0.0));
#336=DIRECTION('',(0.0,1.0,0.0));
#337=ORIENTED_EDGE('',*,*,#424,.F.);
#338=ORIENTED_EDGE('',*,*,#425,.F.);
#339=ORIENTED_EDGE('',*,*,#420,.F.);
#340=ORIENTED_EDGE('',*,*,#418,.F.);
#341=ORIENTED_EDGE('',*,*,#369,.T.);
#342=ORIENTED_EDGE('',*,*,#426,.T.);
#343=ORIENTED_EDGE('',*,*,#375,.T.);
#344=ORIENTED_EDGE('',*,*,#427,.T.);
#345=ORIENTED_EDGE('',*,*,#416,.F.);
#346=ORIENTED_EDGE('',*,*,#422,.F.);
#347=ORIENTED_EDGE('',*,*,#388,.F.);
#348=ORIENTED_EDGE('',*,*,#413,.F.);
#349=ORIENTED_EDGE('',*,*,#399,.F.);
#350=ORIENTED_EDGE('',*,*,#414,.F.);
#351=ORIENTED_EDGE('',*,*,#384,.F.);
#352=ORIENTED_EDGE('',*,*,#381,.F.);
#353=ORIENTED_EDGE('',*,*,#396,.F.);
#354=ORIENTED_EDGE('',*,*,#400,.F.);
#355=ORIENTED_EDGE('',*,*,#377,.F.);
#356=ORIENTED_EDGE('',*,*,#393,.F.);
#357=CARTESIAN_POINT('',(-0.000125,-0.01,-0.000125));
#358=DIRECTION('',(0.0,0.0,-1.0));
#359=DIRECTION('',(-1.0,0.0,0.0));
#360=ORIENTED_EDGE('',*,*,#370,.T.);
#361=ORIENTED_EDGE('',*,*,#427,.F.);
#362=ORIENTED_EDGE('',*,*,#374,.F.);
#363=ORIENTED_EDGE('',*,*,#402,.F.);
#364=CARTESIAN_POINT('',(0.01,-0.01,0.0));
#365=DIRECTION('',(1.0,0.0,0.0));
#366=DIRECTION('',(0.0,-1.0,0.0));
#367=COLOUR_RGB('',0.560784339904785,0.686274528503418,0.560784339904785);
#368=EDGE_CURVE('1:6349',#428,#429,#430,.T.);
#369=EDGE_CURVE('1:6352',#431,#428,#432,.T.);
#370=EDGE_CURVE('1:6358',#433,#431,#434,.T.);
#371=EDGE_CURVE('1:6355',#429,#433,#435,.T.);
#372=EDGE_CURVE('1:6091',#436,#437,#438,.T.);
#373=EDGE_CURVE('1:6098',#439,#437,#440,.T.);
#374=EDGE_CURVE('1:5850',#439,#441,#442,.T.);
#375=EDGE_CURVE('1:6114',#436,#441,#443,.T.);
#376=EDGE_CURVE('1:3497',#444,#445,#446,.T.);
#377=EDGE_CURVE('1:2553',#444,#447,#448,.T.);
#378=EDGE_CURVE('1:3506',#449,#447,#450,.T.);
#379=EDGE_CURVE('1:2628',#449,#445,#451,.T.);
#380=EDGE_CURVE('1:3473',#452,#453,#454,.T.);
#381=EDGE_CURVE('1:2316',#452,#455,#456,.T.);
#382=EDGE_CURVE('1:3470',#457,#455,#458,.T.);
#383=EDGE_CURVE('1:2433',#457,#453,#459,.T.);
#384=EDGE_CURVE('1:2121',#455,#460,#461,.T.);
#385=EDGE_CURVE('1:3467',#462,#460,#463,.T.);
#386=EDGE_CURVE('1:2196',#462,#457,#464,.T.);
#387=EDGE_CURVE('1:3443',#465,#466,#467,.T.);
#388=EDGE_CURVE('1:1905',#465,#468,#469,.T.);
#389=EDGE_CURVE('1:3455',#470,#468,#471,.T.);
#390=EDGE_CURVE('1:1980',#470,#466,#472,.T.);
#391=EDGE_CURVE('1:1785',#445,#473,#474,.T.);
#392=EDGE_CURVE('1:3434',#475,#473,#476,.T.);
#393=EDGE_CURVE('1:1668',#475,#444,#477,.T.);
#394=EDGE_CURVE('1:1137',#473,#478,#479,.T.);
#395=EDGE_CURVE('1:3425',#478,#480,#481,.T.);
#396=EDGE_CURVE('1:1020',#480,#475,#482,.T.);
#397=EDGE_CURVE('1:1569',#453,#483,#484,.T.);
#398=EDGE_CURVE('1:3422',#485,#483,#486,.T.);
#399=EDGE_CURVE('1:1452',#485,#452,#487,.T.);
#400=EDGE_CURVE('1:1473',#447,#480,#488,.T.);
#401=EDGE_CURVE('1:1548',#478,#449,#489,.T.);
#402=EDGE_CURVE('1:6402',#433,#439,#490,.T.);
#403=EDGE_CURVE('1:6374',#437,#429,#491,.T.);
#404=EDGE_CURVE('1:684',#492,#493,#494,.T.);
#405=EDGE_CURVE('1:252',#495,#492,#496,.T.);
#406=EDGE_CURVE('1:489',#497,#495,#498,.T.);
#407=EDGE_CURVE('1:1116',#493,#497,#499,.T.);
#408=EDGE_CURVE('1:900',#500,#470,#501,.T.);
#409=EDGE_CURVE('1:705',#502,#500,#503,.T.);
#410=EDGE_CURVE('1:1353',#466,#502,#504,.T.);
#411=EDGE_CURVE('1:1332',#483,#462,#505,.T.);
#412=EDGE_CURVE('1:3416',#506,#502,#507,.T.);
#413=EDGE_CURVE('1:1236',#506,#465,#508,.T.);
#414=EDGE_CURVE('1:1257',#460,#485,#509,.T.);
#415=EDGE_CURVE('1:3386',#500,#510,#511,.T.);
#416=EDGE_CURVE('1:588',#510,#506,#512,.T.);
#417=EDGE_CURVE('1:3398',#513,#497,#514,.T.);
#418=EDGE_CURVE('1:1041',#513,#515,#516,.T.);
#419=EDGE_CURVE('1:3395',#493,#515,#517,.T.);
#420=EDGE_CURVE('1:609',#515,#518,#519,.T.);
#421=EDGE_CURVE('1:3374',#492,#518,#520,.T.);
#422=EDGE_CURVE('1:825',#468,#510,#521,.T.);
#423=EDGE_CURVE('1:3362',#522,#495,#523,.T.);
#424=EDGE_CURVE('1:372',#522,#513,#524,.T.);
#425=EDGE_CURVE('1:177',#518,#522,#525,.T.);
#426=EDGE_CURVE('1:6366',#428,#436,#526,.T.);
#427=EDGE_CURVE('1:6386',#441,#431,#527,.T.);
#428=VERTEX_POINT('',#528);
#429=VERTEX_POINT('',#529);
#430=LINE('',#530,#531);
#431=VERTEX_POINT('',#532);
#432=LINE('',#533,#534);
#433=VERTEX_POINT('',#535);
#434=LINE('',#536,#537);
#435=LINE('',#538,#539);
#436=VERTEX_POINT('',#540);
#437=VERTEX_POINT('',#541);
#438=LINE('',#542,#543);
#439=VERTEX_POINT('',#544);
#440=LINE('',#545,#546);
#441=VERTEX_POINT('',#547);
#442=LINE('',#548,#549);
#443=LINE('',#550,#551);
#444=VERTEX_POINT('',#552);
#445=VERTEX_POINT('',#553);
#446=LINE('',#554,#555);
#447=VERTEX_POINT('',#556);
#448=LINE('',#557,#558);
#449=VERTEX_POINT('',#559);
#450=LINE('',#560,#561);
#451=LINE('',#562,#563);
#452=VERTEX_POINT('',#564);
#453=VERTEX_POINT('',#565);
#454=LINE('',#566,#567);
#455=VERTEX_POINT('',#568);
#456=LINE('',#569,#570);
#457=VERTEX_POINT('',#571);
#458=LINE('',#572,#573);
#459=LINE('',#574,#575);
#460=VERTEX_POINT('',#576);
#461=LINE('',#577,#578);
#462=VERTEX_POINT('',#579);
#463=LINE('',#580,#581);
#464=LINE('',#582,#583);
#465=VERTEX_POINT('',#584);
#466=VERTEX_POINT('',#585);
#467=LINE('',#586,#587);
#468=VERTEX_POINT('',#588);
#469=LINE('',#589,#590);
#470=VERTEX_POINT('',#591);
#471=LINE('',#592,#593);
#472=LINE('',#594,#595);
#473=VERTEX_POINT('',#596);
#474=LINE('',#597,#598);
#475=VERTEX_POINT('',#599);
#476=LINE('',#600,#601);
#477=LINE('',#602,#603);
#478=VERTEX_POINT('',#604);
#479=LINE('',#605,#606);
#480=VERTEX_POINT('',#607);
#481=LINE('',#608,#609);
#482=LINE('',#610,#611);
#483=VERTEX_POINT('',#612);
#484=LINE('',#613,#614);
#485=VERTEX_POINT('',#615);
#486=LINE('',#616,#617);
#487=LINE('',#618,#619);
#488=LINE('',#620,#621);
#489=LINE('',#622,#623);
#490=LINE('',#624,#625);
#491=LINE('',#626,#627);
#492=VERTEX_POINT('',#628);
#493=VERTEX_POINT('',#629);
#494=LINE('',#630,#631);
#495=VERTEX_POINT('',#632);
#496=LINE('',#633,#634);
#497=VERTEX_POINT('',#635);
#498=LINE('',#636,#637);
#499=LINE('',#638,#639);
#500=VERTEX_POINT('',#640);
#501=LINE('',#641,#642);
#502=VERTEX_POINT('',#643);
#503=LINE('',#644,#645);
#504=LINE('',#646,#647);
#505=LINE('',#648,#649);
#506=VERTEX_POINT('',#650);
#507=LINE('',#651,#652);
#508=LINE('',#653,#654);
#509=LINE('',#655,#656);
#510=VERTEX_POINT('',#657);
#511=LINE('',#658,#659);
#512=LINE('',#660,#661);
#513=VERTEX_POINT('',#662);
#514=LINE('',#663,#664);
#515=VERTEX_POINT('',#665);
#516=LINE('',#666,#667);
#517=LINE('',#668,#669);
#518=VERTEX_POINT('',#670);
#519=LINE('',#671,#672);
#520=LINE('',#673,#674);
#521=LINE('',#675,#676);
#522=VERTEX_POINT('',#677);
#523=LINE('',#678,#679);
#524=LINE('',#680,#681);
#525=LINE('',#682,#683);
#526=LINE('',#684,#685);
#527=LINE('',#686,#687);
#528=CARTESIAN_POINT('',(-0.01,-0.01,-0.000125));
#529=CARTESIAN_POINT('',(-0.01,-0.01,0.000125));
#530=CARTESIAN_POINT('',(-0.01,-0.01,5.177675E-05));
#531=VECTOR('',#688,1.0);
#532=CARTESIAN_POINT('',(0.01,-0.01,-0.000125));
#533=CARTESIAN_POINT('',(-0.0050107235,-0.01,-0.000125));
#534=VECTOR('',#689,1.0);
#535=CARTESIAN_POINT('',(0.01,-0.01,0.000125));
#536=CARTESIAN_POINT('',(0.01,-0.01,5.177675E-05));
#537=VECTOR('',#690,1.0);
#538=CARTESIAN_POINT('',(-0.0050107235,-0.01,0.000125));
#539=VECTOR('',#691,1.0);
#540=CARTESIAN_POINT('',(-0.01,0.01,-0.000125));
#541=CARTESIAN_POINT('',(-0.01,0.01,0.000125));
#542=CARTESIAN_POINT('',(-0.01,0.01,5.177675E-05));
#543=VECTOR('',#692,1.0);
#544=CARTESIAN_POINT('',(0.01,0.01,0.000125));
#545=CARTESIAN_POINT('',(0.0048857235,0.01,0.000125));
#546=VECTOR('',#693,1.0);
#547=CARTESIAN_POINT('',(0.01,0.01,-0.000125));
#548=CARTESIAN_POINT('',(0.01,0.01,5.177675E-05));
#549=VECTOR('',#694,1.0);
#550=CARTESIAN_POINT('',(0.0048857235,0.01,-0.000125));
#551=VECTOR('',#695,1.0);
#552=CARTESIAN_POINT('',(-0.009875,0.009875,-0.000125));
#553=CARTESIAN_POINT('',(-0.009875,0.009875,0.000125));
#554=CARTESIAN_POINT('',(-0.009875,0.009875,0.0));
#555=VECTOR('',#696,1.0);
#556=CARTESIAN_POINT('',(-0.000125,0.009875,-0.000125));
#557=CARTESIAN_POINT('',(0.0,0.009875,-0.000125));
#558=VECTOR('',#697,1.0);
#559=CARTESIAN_POINT('',(-0.000125,0.009875,0.000125));
#560=CARTESIAN_POINT('',(-0.000125,0.009875,0.0));
#561=VECTOR('',#698,1.0);
#562=CARTESIAN_POINT('',(0.0,0.009875,0.000125));
#563=VECTOR('',#699,1.0);
#564=CARTESIAN_POINT('',(0.000125,0.009875,-0.000125));
#565=CARTESIAN_POINT('',(0.000125,0.009875,0.000125));
#566=CARTESIAN_POINT('',(0.000125,0.009875,0.0));
#567=VECTOR('',#700,1.0);
#568=CARTESIAN_POINT('',(0.009875,0.009875,-0.000125));
#569=CARTESIAN_POINT('',(0.01,0.009875,-0.000125));
#570=VECTOR('',#701,1.0);
#571=CARTESIAN_POINT('',(0.009875,0.009875,0.000125));
#572=CARTESIAN_POINT('',(0.009875,0.009875,0.0));
#573=VECTOR('',#702,1.0);
#574=CARTESIAN_POINT('',(0.01,0.009875,0.000125));
#575=VECTOR('',#703,1.0);
#576=CARTESIAN_POINT('',(0.009875,0.000125,-0.000125));
#577=CARTESIAN_POINT('',(0.009875,0.0,-0.000125));
#578=VECTOR('',#704,1.0);
#579=CARTESIAN_POINT('',(0.009875,0.000125,0.000125));
#580=CARTESIAN_POINT('',(0.009875,0.000125,0.0));
#581=VECTOR('',#705,1.0);
#582=CARTESIAN_POINT('',(0.009875,0.0,0.000125));
#583=VECTOR('',#706,1.0);
#584=CARTESIAN_POINT('',(0.009875,-0.000125,-0.000125));
#585=CARTESIAN_POINT('',(0.009875,-0.000125,0.000125));
#586=CARTESIAN_POINT('',(0.009875,-0.000125,0.0));
#587=VECTOR('',#707,1.0);
#588=CARTESIAN_POINT('',(0.009875,-0.009875,-0.000125));
#589=CARTESIAN_POINT('',(0.009875,-0.01,-0.000125));
#590=VECTOR('',#708,1.0);
#591=CARTESIAN_POINT('',(0.009875,-0.009875,0.000125));
#592=CARTESIAN_POINT('',(0.009875,-0.009875,0.0));
#593=VECTOR('',#709,1.0);
#594=CARTESIAN_POINT('',(0.009875,-0.01,0.000125));
#595=VECTOR('',#710,1.0);
#596=CARTESIAN_POINT('',(-0.009875,0.000125,0.000125));
#597=CARTESIAN_POINT('',(-0.009875,0.01,0.000125));
#598=VECTOR('',#711,1.0);
#599=CARTESIAN_POINT('',(-0.009875,0.000125,-0.000125));
#600=CARTESIAN_POINT('',(-0.009875,0.000125,0.0));
#601=VECTOR('',#712,1.0);
#602=CARTESIAN_POINT('',(-0.009875,0.01,-0.000125));
#603=VECTOR('',#713,1.0);
#604=CARTESIAN_POINT('',(-0.000125,0.000125,0.000125));
#605=CARTESIAN_POINT('',(-0.01,0.000125,0.000125));
#606=VECTOR('',#714,1.0);
#607=CARTESIAN_POINT('',(-0.000125,0.000125,-0.000125));
#608=CARTESIAN_POINT('',(-0.000125,0.000125,0.0));
#609=VECTOR('',#715,1.0);
#610=CARTESIAN_POINT('',(-0.01,0.000125,-0.000125));
#611=VECTOR('',#716,1.0);
#612=CARTESIAN_POINT('',(0.000125,0.000125,0.000125));
#613=CARTESIAN_POINT('',(0.000125,0.01,0.000125));
#614=VECTOR('',#717,1.0);
#615=CARTESIAN_POINT('',(0.000125,0.000125,-0.000125));
#616=CARTESIAN_POINT('',(0.000125,0.000125,0.0));
#617=VECTOR('',#718,1.0);
#618=CARTESIAN_POINT('',(0.000125,0.01,-0.000125));
#619=VECTOR('',#719,1.0);
#620=CARTESIAN_POINT('',(-0.000125,0.0,-0.000125));
#621=VECTOR('',#720,1.0);
#622=CARTESIAN_POINT('',(-0.000125,0.0,0.000125));
#623=VECTOR('',#721,1.0);
#624=CARTESIAN_POINT('',(0.01,5.17764999999996E-05,0.000125));
#625=VECTOR('',#722,1.0);
#626=CARTESIAN_POINT('',(-0.01,-0.0100517765,0.000125));
#627=VECTOR('',#723,1.0);
#628=CARTESIAN_POINT('',(-0.000125,-0.009875,0.000125));
#629=CARTESIAN_POINT('',(-0.000125,-0.000125,0.000125));
#630=CARTESIAN_POINT('',(-0.000125,-0.01,0.000125));
#631=VECTOR('',#724,1.0);
#632=CARTESIAN_POINT('',(-0.009875,-0.009875,0.000125));
#633=CARTESIAN_POINT('',(-0.01,-0.009875,0.000125));
#634=VECTOR('',#725,1.0);
#635=CARTESIAN_POINT('',(-0.009875,-0.000125,0.000125));
#636=CARTESIAN_POINT('',(-0.009875,0.0,0.000125));
#637=VECTOR('',#726,1.0);
#638=CARTESIAN_POINT('',(0.0,-0.000125,0.000125));
#639=VECTOR('',#727,1.0);
#640=CARTESIAN_POINT('',(0.000125,-0.009875,0.000125));
#641=CARTESIAN_POINT('',(0.0,-0.009875,0.000125));
#642=VECTOR('',#728,1.0);
#643=CARTESIAN_POINT('',(0.000125,-0.000125,0.000125));
#644=CARTESIAN_POINT('',(0.000125,0.0,0.000125));
#645=VECTOR('',#729,1.0);
#646=CARTESIAN_POINT('',(0.01,-0.000125,0.000125));
#647=VECTOR('',#730,1.0);
#648=CARTESIAN_POINT('',(0.0,0.000125,0.000125));
#649=VECTOR('',#731,1.0);
#650=CARTESIAN_POINT('',(0.000125,-0.000125,-0.000125));
#651=CARTESIAN_POINT('',(0.000125,-0.000125,0.0));
#652=VECTOR('',#732,1.0);
#653=CARTESIAN_POINT('',(0.01,-0.000125,-0.000125));
#654=VECTOR('',#733,1.0);
#655=CARTESIAN_POINT('',(0.0,0.000125,-0.000125));
#656=VECTOR('',#734,1.0);
#657=CARTESIAN_POINT('',(0.000125,-0.009875,-0.000125));
#658=CARTESIAN_POINT('',(0.000125,-0.009875,0.0));
#659=VECTOR('',#735,1.0);
#660=CARTESIAN_POINT('',(0.000125,0.0,-0.000125));
#661=VECTOR('',#736,1.0);
#662=CARTESIAN_POINT('',(-0.009875,-0.000125,-0.000125));
#663=CARTESIAN_POINT('',(-0.009875,-0.000125,0.0));
#664=VECTOR('',#737,1.0);
#665=CARTESIAN_POINT('',(-0.000125,-0.000125,-0.000125));
#666=CARTESIAN_POINT('',(0.0,-0.000125,-0.000125));
#667=VECTOR('',#738,1.0);
#668=CARTESIAN_POINT('',(-0.000125,-0.000125,0.0));
#669=VECTOR('',#739,1.0);
#670=CARTESIAN_POINT('',(-0.000125,-0.009875,-0.000125));
#671=CARTESIAN_POINT('',(-0.000125,-0.01,-0.000125));
#672=VECTOR('',#740,1.0);
#673=CARTESIAN_POINT('',(-0.000125,-0.009875,0.0));
#674=VECTOR('',#741,1.0);
#675=CARTESIAN_POINT('',(0.0,-0.009875,-0.000125));
#676=VECTOR('',#742,1.0);
#677=CARTESIAN_POINT('',(-0.009875,-0.009875,-0.000125));
#678=CARTESIAN_POINT('',(-0.009875,-0.009875,0.0));
#679=VECTOR('',#743,1.0);
#680=CARTESIAN_POINT('',(-0.009875,0.0,-0.000125));
#681=VECTOR('',#744,1.0);
#682=CARTESIAN_POINT('',(-0.01,-0.009875,-0.000125));
#683=VECTOR('',#745,1.0);
#684=CARTESIAN_POINT('',(-0.01,-0.0100517765,-0.000125));
#685=VECTOR('',#746,1.0);
#686=CARTESIAN_POINT('',(0.01,5.17764999999996E-05,-0.000125));
#687=VECTOR('',#747,1.0);
#688=DIRECTION('',(0.0,-0.0,1.0));
#689=DIRECTION('',(-1.0,0.0,0.0));
#690=DIRECTION('',(0.0,0.0,-1.0));
#691=DIRECTION('',(1.0,-0.0,0.0));
#692=DIRECTION('',(0.0,0.0,1.0));
#693=DIRECTION('',(-1.0,0.0,-0.0));
#694=DIRECTION('',(0.0,0.0,-1.0));
#695=DIRECTION('',(1.0,0.0,0.0));
#696=DIRECTION('',(0.0,0.0,1.0));
#697=DIRECTION('',(1.0,0.0,0.0));
#698=DIRECTION('',(0.0,0.0,-1.0));
#699=DIRECTION('',(-1.0,0.0,0.0));
#700=DIRECTION('',(0.0,0.0,1.0));
#701=DIRECTION('',(1.0,0.0,0.0));
#702=DIRECTION('',(0.0,0.0,-1.0));
#703=DIRECTION('',(-1.0,0.0,0.0));
#704=DIRECTION('',(-0.0,-1.0,-0.0));
#705=DIRECTION('',(0.0,0.0,-1.0));
#706=DIRECTION('',(0.0,1.0,0.0));
#707=DIRECTION('',(0.0,-0.0,1.0));
#708=DIRECTION('',(-0.0,-1.0,-0.0));
#709=DIRECTION('',(0.0,0.0,-1.0));
#710=DIRECTION('',(0.0,1.0,0.0));
#711=DIRECTION('',(0.0,-1.0,0.0));
#712=DIRECTION('',(0.0,-0.0,1.0));
#713=DIRECTION('',(0.0,1.0,0.0));
#714=DIRECTION('',(1.0,0.0,0.0));
#715=DIRECTION('',(0.0,0.0,-1.0));
#716=DIRECTION('',(-1.0,-0.0,-0.0));
#717=DIRECTION('',(0.0,-1.0,0.0));
#718=DIRECTION('',(0.0,-0.0,1.0));
#719=DIRECTION('',(0.0,1.0,0.0));
#720=DIRECTION('',(-0.0,-1.0,-0.0));
#721=DIRECTION('',(0.0,1.0,0.0));
#722=DIRECTION('',(-0.0,1.0,0.0));
#723=DIRECTION('',(-0.0,-1.0,-0.0));
#724=DIRECTION('',(0.0,1.0,0.0));
#725=DIRECTION('',(1.0,0.0,0.0));
#726=DIRECTION('',(0.0,-1.0,0.0));
#727=DIRECTION('',(-1.0,0.0,0.0));
#728=DIRECTION('',(1.0,0.0,0.0));
#729=DIRECTION('',(0.0,-1.0,0.0));
#730=DIRECTION('',(-1.0,0.0,0.0));
#731=DIRECTION('',(1.0,0.0,0.0));
#732=DIRECTION('',(0.0,0.0,1.0));
#733=DIRECTION('',(1.0,0.0,0.0));
#734=DIRECTION('',(-1.0,-0.0,-0.0));
#735=DIRECTION('',(0.0,0.0,-1.0));
#736=DIRECTION('',(0.0,1.0,0.0));
#737=DIRECTION('',(0.0,0.0,1.0));
#738=DIRECTION('',(1.0,0.0,0.0));
#739=DIRECTION('',(0.0,0.0,-1.0));
#740=DIRECTION('',(-0.0,-1.0,-0.0));
#741=DIRECTION('',(0.0,0.0,-1.0));
#742=DIRECTION('',(-1.0,-0.0,-0.0));
#743=DIRECTION('',(0.0,-0.0,1.0));
#744=DIRECTION('',(0.0,1.0,0.0));
#745=DIRECTION('',(-1.0,-0.0,-0.0));
#746=DIRECTION('',(0.0,1.0,0.0));
#747=DIRECTION('',(0.0,-1.0,0.0));
#748=PRESENTATION_LAYER_ASSIGNMENT('9','\X2\56FE5C42\X0\0',(#25));
ENDSEC;
END-ISO-10303-21;
